<?xml version="1.0" encoding="utf-8"?>
<!-- Generator: Adobe Illustrator 25.4.1, SVG Export Plug-In . SVG Version: 6.00 Build 0)  -->
<svg version="1.1" id="Layer_1" xmlns="http://www.w3.org/2000/svg" xmlns:xlink="http://www.w3.org/1999/xlink" x="0px" y="0px"
	 viewBox="0 0 80 50" style="enable-background:new 0 0 80 50;" xml:space="preserve">
<style type="text/css">
	.st0{fill:#919191;}
</style>
<path class="st0" d="M1.1,29.2c-0.2,0-0.4-0.1-0.6-0.2c-0.1-0.2-0.2-0.4-0.2-0.6V8c0-0.2,0-0.4,0.2-0.6c0.2-0.1,0.4-0.2,0.6-0.2h2.2
	c0.4,0,0.8,0.3,0.9,0.7l0.2,0.8c0.6-0.6,1.4-1.1,2.2-1.4c0.8-0.3,1.7-0.5,2.7-0.5c1.8-0.1,3.6,0.7,4.7,2.2c1.2,1.7,1.9,3.8,1.7,5.9
	c0,1.5-0.3,3-0.9,4.5c-0.5,1.2-1.3,2.2-2.3,2.9c-1,0.7-2.2,1-3.4,1c-0.8,0-1.6-0.1-2.4-0.4c-0.7-0.2-1.4-0.6-1.9-1.1v6.7
	c0,0.2,0,0.4-0.2,0.6c-0.2,0.1-0.4,0.2-0.6,0.2L1.1,29.2z M7.9,19.8c1,0.1,1.9-0.4,2.5-1.2c0.6-1.1,0.9-2.4,0.8-3.7
	c0.1-1.3-0.2-2.6-0.8-3.7c-0.6-0.8-1.6-1.2-2.6-1.2c-1.1,0-2.1,0.3-3,0.8V19C5.8,19.6,6.8,19.9,7.9,19.8L7.9,19.8z"/>
<path class="st0" d="M19.5,22.9c-0.4,0.1-0.7-0.2-0.8-0.5c0-0.1,0-0.2,0-0.2V8c0-0.2,0-0.4,0.2-0.6c0.2-0.1,0.4-0.2,0.6-0.2h2.2
	c0.4,0,0.8,0.3,0.9,0.7L23,9.5c0.7-0.8,1.4-1.4,2.3-1.9C26,7.2,26.8,7,27.6,7h0.4c0.2,0,0.4,0,0.6,0.2c0.1,0.2,0.2,0.4,0.2,0.6v2.6
	c0,0.2,0,0.4-0.2,0.6c-0.2,0.1-0.4,0.2-0.6,0.2h-0.5c-0.2,0-0.5,0-0.9,0c-0.6,0-1.2,0.1-1.7,0.2c-0.6,0.1-1.2,0.3-1.7,0.5v10.2
	c0,0.2,0,0.4-0.2,0.6c-0.2,0.1-0.4,0.2-0.6,0.2H19.5z"/>
<path class="st0" d="M33.3,4.8c-0.7,0-1.4-0.2-1.9-0.6c-0.5-0.5-0.7-1.1-0.7-1.8c0-0.7,0.2-1.3,0.7-1.8c1.1-0.9,2.7-0.9,3.7,0
	c0.5,0.5,0.7,1.1,0.7,1.8c0,0.7-0.2,1.3-0.7,1.8C34.7,4.6,34,4.8,33.3,4.8z M31.8,22.9c-0.4,0.1-0.7-0.2-0.8-0.5c0-0.1,0-0.2,0-0.2
	V8c0-0.2,0-0.4,0.2-0.6c0.2-0.1,0.4-0.2,0.6-0.2h2.9c0.2,0,0.4,0,0.6,0.2c0.1,0.2,0.2,0.4,0.2,0.6v14.1c0,0.2,0,0.4-0.2,0.6
	c-0.2,0.1-0.4,0.2-0.6,0.2L31.8,22.9z"/>
<path class="st0" d="M40.1,22.9c-0.4,0.1-0.7-0.2-0.8-0.5c0-0.1,0-0.2,0-0.2V8c0-0.2,0-0.4,0.2-0.6c0.2-0.1,0.4-0.2,0.6-0.2h2.2
	c0.4,0,0.8,0.3,0.9,0.7l0.2,0.8c0.9-0.6,1.9-1.1,2.9-1.5c0.9-0.3,1.8-0.5,2.7-0.5c1.6-0.1,3.1,0.6,3.9,2c0.9-0.6,1.9-1.1,3-1.5
	c0.9-0.3,1.9-0.5,2.9-0.5C59.9,6.7,61.1,7.2,62,8c0.8,0.9,1.3,2.1,1.2,3.3v10.8c0,0.2,0,0.4-0.2,0.6c-0.2,0.1-0.4,0.2-0.6,0.2h-2.9
	c-0.4,0.1-0.7-0.2-0.8-0.5c0-0.1,0-0.2,0-0.2v-9.8c0-1.4-0.6-2.1-1.9-2.1c-1.2,0-2.3,0.3-3.3,0.8v11.1c0,0.2,0,0.4-0.2,0.6
	c-0.2,0.1-0.4,0.2-0.6,0.2h-2.9c-0.4,0.1-0.7-0.2-0.8-0.5c0-0.1,0-0.2,0-0.2v-9.8c0-1.4-0.6-2.1-1.9-2.1c-1.2,0-2.3,0.3-3.4,0.8
	v11.1c0,0.2,0,0.4-0.2,0.6c-0.2,0.1-0.4,0.2-0.6,0.2L40.1,22.9z"/>
<path class="st0" d="M73.9,23.3c-2.2,0.1-4.3-0.6-5.8-2.1c-1.4-1.7-2.2-3.8-2-6c-0.1-2.3,0.6-4.5,2-6.2c1.5-1.6,3.6-2.4,5.8-2.3
	c1.6-0.1,3.2,0.4,4.5,1.4c1.1,0.9,1.7,2.3,1.6,3.7c0.1,1.4-0.6,2.7-1.7,3.5c-1.6,0.9-3.3,1.3-5.1,1.2c-1,0-2-0.1-3-0.3
	c0,1.1,0.5,2.2,1.2,2.9c0.9,0.7,2.1,1,3.2,0.9c0.6,0,1.1,0,1.7-0.1c0.8-0.1,1.5-0.3,2.3-0.5h0.2h0.2c0.3,0,0.5,0.2,0.5,0.7v1.4
	c0,0.2,0,0.5-0.1,0.7c-0.1,0.2-0.3,0.3-0.5,0.4C77.2,23.1,75.6,23.4,73.9,23.3z M72.9,13.7c0.8,0.1,1.6-0.1,2.3-0.5
	c0.5-0.3,0.7-0.9,0.7-1.5c0-1.3-0.8-1.9-2.3-1.9c-2,0-3.1,1.2-3.4,3.6C71.1,13.6,72,13.7,72.9,13.7L72.9,13.7z"/>
<path class="st0" d="M72.3,40.1C63.5,46.6,50.8,50,39.9,50c-14.6,0.1-28.7-5.3-39.6-15.1c-0.8-0.7-0.1-1.8,0.9-1.2
	C13.3,40.6,27,44.3,40.8,44.2c10.4-0.1,20.6-2.2,30.2-6.2C72.5,37.4,73.8,39,72.3,40.1z"/>
<path class="st0" d="M76,36c-1.1-1.4-7.4-0.7-10.2-0.3c-0.9,0.1-1-0.6-0.2-1.2c5-3.5,13.2-2.5,14.2-1.3s-0.2,9.4-5,13.3
	c-0.7,0.6-1.4,0.3-1.1-0.5C74.7,43.3,77.1,37.4,76,36z"/>
</svg>
