<?xml version="1.0" encoding="utf-8"?>
<!-- Generator: Adobe Illustrator 25.4.1, SVG Export Plug-In . SVG Version: 6.00 Build 0)  -->
<svg version="1.1" id="Layer_1" xmlns="http://www.w3.org/2000/svg" xmlns:xlink="http://www.w3.org/1999/xlink" x="0px" y="0px"
	 viewBox="0 0 182 115.9" style="enable-background:new 0 0 182 115.9;" xml:space="preserve">
<g>
	<path style="fill-rule:evenodd;clip-rule:evenodd;fill:#919191;" d="M150.5,109.9c0,0,0,0.1,0-23.3h-9.6c0,23.5,0,23.3,0,23.3
		H150.5L150.5,109.9z"/>
	<path style="fill-rule:evenodd;clip-rule:evenodd;fill:#919191;" d="M99.6,100.3V87h-9.3v10.2c0,3-0.1,3.8-0.3,4.5
		c-0.6,2.1-2.9,3.1-5.2,3.1c-3.2,0-4.7-1.2-5.3-3.2c-0.2-0.7-0.2-1.4-0.3-2.1c-0.1-0.8,0-1.6,0-2.5V87h-9.5v13.3c0,3,1,5.3,2.7,6.8
		c2.8,2.8,7.6,3.6,12,3.6c5.4,0,9.5-0.8,12.5-3.7C98.4,105.6,99.6,103.6,99.6,100.3L99.6,100.3z"/>
	<path style="fill-rule:evenodd;clip-rule:evenodd;fill:#919191;" d="M53.7,98.6c-0.3-0.1-0.8-0.1-1.4-0.1H41.7
		c-0.5,0-1.1,0.1-1.4,0.1c0.2-0.2,0.5-0.5,0.9-1l4.8-7.9c0.6-1.1,0.9-1.8,1.1-2.1c0.1,0.3,0.4,1,1.1,2.1l4.9,8
		C53.2,98.1,53.6,98.4,53.7,98.6L53.7,98.6z M71.6,109.9L50.3,78H38.4l3.1,3.7c0.1,0.1,0.2,0.1,0.3,0.2c-0.1,0.1-0.2,0.1-0.3,0.2
		L23,109.9h10.8l2.9-4.8c0.1-0.2,0.2-0.5,0.2-0.6c0.1,0,0.4,0.1,0.7,0.1h19.2c0.3,0,0.5-0.1,0.6-0.1c0,0.1,0,0.3,0.1,0.5l3,4.9H71.6
		L71.6,109.9z"/>
	<path style="fill-rule:evenodd;clip-rule:evenodd;fill:#919191;" d="M138.3,98c0-2.6-1.1-5.6-4.4-9.8L126,78h-11.1l6.3,7.1
		c1.1,1.2,2.4,2.2,2.4,2.2c-1.5-0.9-3.5-1.2-5-1.2c-3.7,0-7.4,0.8-10.7,2.6c-3.5,1.9-5.9,5.2-5.9,9.5c0,3.3,1.5,5.8,3.4,7.8
		c4.3,4.3,12,4.7,14.8,4.7c4.2,0,10.8-0.9,14.5-4.3C136.8,104.4,138.3,101.6,138.3,98L138.3,98z M129.1,98.2c0,2.4-1.6,4.3-3.6,5.3
		c-1.7,0.9-3.6,1.1-5.3,1.1s-3.7-0.4-5.4-1.2c-2-1-3.5-3-3.5-5.1c0-2.5,1.9-4.5,4.3-5.6c1.4-0.7,3.1-0.9,4.5-0.9
		c1.3,0,3.2,0.2,4.7,0.8C127.3,93.8,129.1,95.9,129.1,98.2L129.1,98.2z"/>
	<path style="fill-rule:evenodd;clip-rule:evenodd;fill:#919191;" d="M147.5,2c-7.2,0-13.8,2.5-19,6.6C123.2,4.5,116.6,2,109.4,2
		c-7.2,0-13.8,2.5-19.1,6.6C85.1,4.5,78.5,2,71.3,2c-7.2,0-13.8,2.5-19.1,6.6C47,4.5,40.4,2,33.2,2C16.2,2,2.5,15.8,2.5,32.7
		c0,17,13.8,30.7,30.7,30.7c7.2,0,13.8-2.5,19-6.6c5.2,4.1,11.9,6.6,19.1,6.6c7.2,0,13.8-2.5,19-6.6c5.2,4.1,11.9,6.6,19.1,6.6
		c7.2,0,13.8-2.5,19.1-6.6c5.2,4.1,11.9,6.6,19,6.6c17,0,30.7-13.8,30.7-30.7C178.2,15.8,164.5,2,147.5,2L147.5,2z M47.2,51.8
		c-3.9,2.9-8.8,4.6-14,4.6c-13.1,0-23.7-10.6-23.7-23.7C9.5,19.6,20.1,9,33.2,9c5.2,0,10.1,1.7,14,4.6c-4.2,5.2-6.6,11.9-6.6,19.1
		C40.6,39.9,43.1,46.6,47.2,51.8L47.2,51.8z M52.2,46.8c-2.9-3.9-4.6-8.8-4.6-14.1c0-5.3,1.7-10.1,4.6-14.1
		c2.9,3.9,4.6,8.8,4.6,14.1C56.9,38,55.2,42.9,52.2,46.8L52.2,46.8z M85.3,51.8c-3.9,2.9-8.8,4.6-14,4.6c-5.3,0-10.1-1.7-14-4.6
		c4.1-5.2,6.6-11.9,6.6-19.1c0-7.2-2.5-13.8-6.6-19.1C61.2,10.7,66,9,71.3,9c5.3,0,10.1,1.7,14,4.6c-4.2,5.2-6.6,11.9-6.6,19.1
		C78.7,39.9,81.2,46.6,85.3,51.8L85.3,51.8z M90.3,46.8c-2.9-3.9-4.6-8.8-4.6-14.1c0-5.3,1.7-10.1,4.6-14.1
		c2.9,3.9,4.6,8.8,4.6,14.1C95,38,93.3,42.9,90.3,46.8L90.3,46.8z M123.4,51.8c-3.9,2.9-8.8,4.6-14,4.6c-5.3,0-10.1-1.7-14-4.6
		c4.1-5.2,6.6-11.9,6.6-19.1c0-7.2-2.5-13.8-6.6-19.1c3.9-2.9,8.8-4.6,14-4.6c5.3,0,10.1,1.7,14,4.6c-4.2,5.2-6.6,11.9-6.6,19.1
		C116.8,39.9,119.3,46.6,123.4,51.8L123.4,51.8z M128.4,46.8c-2.9-3.9-4.6-8.8-4.6-14.1c0-5.3,1.7-10.1,4.6-14.1
		c2.9,3.9,4.6,8.8,4.6,14.1C133.1,38,131.4,42.9,128.4,46.8L128.4,46.8z M147.5,56.4c-5.2,0-10.1-1.7-14-4.6
		c4.1-5.2,6.6-11.9,6.6-19.1c0-7.2-2.5-13.8-6.6-19.1c3.9-2.9,8.8-4.6,14-4.6c13.1,0,23.7,10.6,23.7,23.7
		C171.2,45.8,160.6,56.4,147.5,56.4L147.5,56.4z"/>
</g>
</svg>
