<?xml version="1.0" encoding="utf-8"?>
<!-- Generator: Adobe Illustrator 25.4.1, SVG Export Plug-In . SVG Version: 6.00 Build 0)  -->
<svg version="1.1" id="Layer_1" xmlns="http://www.w3.org/2000/svg" xmlns:xlink="http://www.w3.org/1999/xlink" x="0px" y="0px"
	 viewBox="0 0 269.6 154.4" style="enable-background:new 0 0 269.6 154.4;" xml:space="preserve">
<style type="text/css">
	.st0{fill:#919191;}
</style>
<g>
	<g>
		<path class="st0" d="M200.3,89.1c-1.4-6.8-4.1-12.5-8-17.6c-8-10.6-21-17.2-38.5-17.2c-27.3,0-44,18.5-49,38
			c-4.5-13.8-16.4-23.1-29-27c9.5-6.9,14.5-16.8,14.5-28.1c0-10.5-4.4-20-11.7-26.2C67.8,1.9,53.2,0,35.2,0C21.4,0,16.2,0,0,0v152
			c10,0,20.2,0,30.2,0c8.9,0,17.6,0,25.7-0.3c25.6-1,43.2-13.9,48.8-33.3c1.9,8.6,5.6,15.6,10.5,21c9.9,10.9,24.2,15.1,38.6,15.1
			c17.7,0,30.6-5.1,39.3-13l-12.5-14.7c-6.3,4.8-14.4,7.6-23.5,7.6c-17.9-0.1-25.7-11.4-26.4-22.2h69.8v40h26.1V0.8h-26.1
			L200.3,89.1L200.3,89.1z M26.9,20.5l7.3,0c7,0,12.5,0.8,16.5,2.3c7.9,3.1,11.6,9.3,11.6,17.1c0,6.6-2.5,17-16.4,19.8
			c-2.3,0.5-5.7,0.7-10.4,0.7c-6.7,0-8.6,0-8.6,0S26.9,20.5,26.9,20.5z M56.4,129.7c-3.3,0.6-7.3,0.7-10.5,0.7c-9.8,0-19,0-19,0
			l0-49.6c0,0,10,0,17,0c5.4,0,11.5,0.6,14.9,1.5c11.9,3.1,18.8,11.7,18.8,23C77.6,117.2,71.3,127,56.4,129.7z M131,93.1
			c2.3-11.1,10.5-19,22.5-19c12.1,0,20.1,7.1,22.2,19H131z"/>
		<rect x="243.9" y="0.8" class="st0" width="25.7" height="151.2"/>
	</g>
</g>
</svg>
