<?xml version="1.0" encoding="utf-8"?>
<!-- Generator: Adobe Illustrator 25.4.1, SVG Export Plug-In . SVG Version: 6.00 Build 0)  -->
<svg version="1.1" id="Layer_1" xmlns="http://www.w3.org/2000/svg" xmlns:xlink="http://www.w3.org/1999/xlink" x="0px" y="0px"
	 viewBox="0 0 496 496" style="enable-background:new 0 0 496 496;" xml:space="preserve">
<style type="text/css">
	.st0{fill:#919191;}
</style>
<g>
	<path class="st0" d="M64,0C28.7,0,0,28.7,0,64v368c0,35.3,28.7,64,64,64h368c35.3,0,64-28.7,64-64V64c0-35.3-28.7-64-64-64H64z
		 M64,32h368c17.7,0,32,14.3,32,32v368c0,17.7-14.3,32-32,32H64c-17.7,0-32-14.3-32-32V64C32,46.3,46.3,32,64,32z"/>
	<path class="st0" d="M224,336v32h176v-32H224z"/>
	<path class="st0" d="M224,128v172h36V160h36v140h36V160h24c6.6,0,12,5.4,12,12v128h36V168c0-22.1-17.9-40-40-40H224z"/>
	<path class="st0" d="M132,128c-22.1,0-40,17.9-40,40v92c0,22.1,17.9,40,40,40h32v8c0,15.5-14.3,28-32,28h-20v32h20
		c37.6,0,68-26.9,68-60V128H132z M140,160h24v108h-24c-6.6,0-12-5.4-12-12v-84C128,165.4,133.4,160,140,160z"/>
</g>
</svg>
