<?xml version="1.0" encoding="utf-8"?>
<!-- Generator: Adobe Illustrator 25.4.1, SVG Export Plug-In . SVG Version: 6.00 Build 0)  -->
<svg version="1.1" id="Layer_1" xmlns="http://www.w3.org/2000/svg" xmlns:xlink="http://www.w3.org/1999/xlink" x="0px" y="0px"
	 viewBox="0 0 221.7 33" style="enable-background:new 0 0 221.7 33;" xml:space="preserve">
<rect style="fill-rule:evenodd;clip-rule:evenodd;fill:#919191;" width="221.7" height="33"/>
<desc>Created with Sketch.</desc>
<g id="Designs">
	<g id="_x30_0.05---Navigation-Components-v1" transform="translate(-70.000000, -238.000000)">
		<g id="_x30_2---Header-_x28_authenticated_x29_" transform="translate(0.000000, 215.000000)">
			<g id="Navigation_x2F_Header-_x28_full_x29_">
				<g id="Logo" transform="translate(70.000000, 23.000000)">
					<path id="Fill-314" style="fill-rule:evenodd;clip-rule:evenodd;fill:#FFFFFF;" d="M29.4,21.4c0,1.7,0.6,2.4,2.5,2.4v0.8h-7.3
						v-0.8c1.9,0,2.5-0.7,2.5-2.4V10.2c0-1.7-0.5-2.3-2.5-2.3V7h7.3v0.8c-1.9,0-2.5,0.6-2.5,2.3V15h8.8v-4.8c0-1.7-0.5-2.3-2.5-2.3
						V7h7.3v0.8c-1.9,0-2.5,0.6-2.5,2.3v11.3c0,1.7,0.6,2.4,2.5,2.4v0.8h-7.3v-0.8c1.9,0,2.5-0.7,2.5-2.4v-5.4h-8.8"/>
					<path id="Fill-316" style="fill-rule:evenodd;clip-rule:evenodd;fill:#FFFFFF;" d="M54.4,18.9h-6l-0.5,1.3
						c-0.2,0.4-0.6,1.5-0.6,2.3s0.4,1.5,2,1.5v0.8h-5.3V24c1.1,0,1.5-0.8,2-1.9l4.8-11.3c-0.2-0.5-0.7-1.2-0.7-1.2v0h2.7L58.1,22
						c0.5,1.1,0.9,1.9,2,1.9v0.8h-6.6V24c1.6-0.1,2-0.8,2-1.5s-0.4-1.8-0.6-2.3L54.4,18.9z M51.4,11.5L51.4,11.5l-2.6,6.4H54
						L51.4,11.5z"/>
					<path id="Fill-318" style="fill-rule:evenodd;clip-rule:evenodd;fill:#FFFFFF;" d="M65.4,21.7c0,1.7,0.6,2.3,2.3,2.3v0.8h-6.9
						V24c1.9,0,2.3-0.6,2.3-2.3v-8.9c0-1.7-0.5-2.3-2.4-2.3V9.7h7.1c4.3,0,5.8,1.7,5.8,3.9c0,2.2-1.9,3.5-4,3.8v0l3.3,3.8
						c1.5,1.7,2.6,2.7,3.5,2.7v0.8h-1.7c-1.7,0-2.3-0.5-3.9-2.5l-3-3.8c-0.6-0.7-0.7-0.8-1.7-0.8h-0.8V21.7z M67.6,16.8
						c2,0,3.5-0.8,3.5-3c0-2.1-1.7-3.2-3.9-3.2h-1.8v6.2H67.6z"/>
					<path id="Fill-320" style="fill-rule:evenodd;clip-rule:evenodd;fill:#FFFFFF;" d="M81.9,21.7c0,1.7,0.6,2.3,2.3,2.3v0.8h-6.9
						V24c1.9,0,2.3-0.6,2.3-2.3v-8.9c0-1.7-0.5-2.3-2.4-2.3V9.7h7.1c4.3,0,5.8,1.7,5.8,3.9c0,2.2-1.9,3.5-4,3.8v0l3.3,3.8
						C91,22.9,92,24,92.9,24v0.8h-1.7c-1.7,0-2.3-0.5-3.9-2.5l-3-3.8c-0.6-0.7-0.7-0.8-1.7-0.8h-0.8V21.7z M84.1,16.8
						c2,0,3.5-0.8,3.5-3c0-2.1-1.7-3.2-3.9-3.2h-1.8v6.2H84.1z"/>
					<path id="Fill-322" style="fill-rule:evenodd;clip-rule:evenodd;fill:#FFFFFF;" d="M101,21.7c0,1.7,0.5,2.3,2.4,2.3v0.8h-7V24
						c1.9,0,2.4-0.6,2.4-2.3v-3.2l-4-6c-1.1-1.6-1.4-1.8-2.7-1.9V9.7h6.6v0.8c-1.5,0-1.7,0.6-1.7,1c0,0.4,0.4,1.1,1,2.1l2.5,3.8h0
						l2.6-3.9c0.4-0.7,0.6-1.2,0.6-1.6c0-0.4-0.2-1.3-1.7-1.4V9.7h5.5v0.8c-1.3,0.1-1.6,0.4-2.7,1.9l-4,6"/>
					<path id="Fill-324" style="fill-rule:evenodd;clip-rule:evenodd;fill:#FFFFFF;" d="M119,21.6c0,1.7,0.6,2.3,2.5,2.3v0.8h-7.3
						V24c1.9,0,2.5-0.6,2.5-2.3V10.3c0-1.7-0.5-2.3-2.5-2.3V7.2h7.8c4.3,0,6.2,2.1,6.2,4.5c0,2.4-2,4.2-4.4,4.5v0l3.4,4.2
						c1.6,2,2.9,3.4,4.2,3.5v0.8h-1.9c-1.8,0-2.6-0.9-4.1-2.9l-3.3-4.3c-0.7-0.9-1-1.1-2-1.1h-1V21.6z M121.7,15.5
						c2.7,0,3.9-1.6,3.9-3.5s-1.1-3.9-4.4-3.9H119v7.4H121.7z"/>
					<path id="Fill-326" style="fill-rule:evenodd;clip-rule:evenodd;fill:#FFFFFF;" d="M139.4,9.4c4.6,0,7.6,2.9,7.6,7.6
						c0,4.6-3.1,8.1-7.7,8.1c-4.6,0-7.6-2.9-7.6-7.6C131.7,12.9,134.8,9.4,139.4,9.4 M139.7,24.1c3,0,4.7-2.3,4.7-6
						c0-3.7-1.7-7.7-5.4-7.7c-3,0-4.7,2.3-4.7,6C134.2,20.1,135.9,24.1,139.7,24.1"/>
					<path id="Fill-328" style="fill-rule:evenodd;clip-rule:evenodd;fill:#FFFFFF;" d="M149.6,20.2h0.9c0.4,2.2,1.5,3.8,4.2,3.8
						c2.7,0,3.3-1.6,3.3-2.4c0-0.8-0.2-1.4-0.7-1.9c-0.5-0.5-1.5-1.1-2.1-1.4l-1.9-1c-0.8-0.4-1.8-1-2.3-1.6c-0.5-0.6-1-1.3-1-2.5
						c0-1.2,0.7-2.3,1.8-3c1.1-0.7,2.3-0.8,3.4-0.8s3,0.3,4.6,1.3v3.2h-0.8c-0.4-3-2.6-3.6-3.7-3.6s-1.8,0.3-2.3,0.6
						c-0.4,0.4-0.8,0.9-0.8,1.5s0.1,1,0.6,1.5c0.4,0.5,0.9,0.8,1.2,0.9l1.9,1c1.1,0.6,2.4,1.3,3.2,2c0.8,0.8,1.2,1.7,1.2,2.8
						c0,2.5-2.2,4.3-5.4,4.3c-3.2,0-5.1-1.2-5.1-1.2"/>
					<path id="Fill-330" style="fill-rule:evenodd;clip-rule:evenodd;fill:#FFFFFF;" d="M174.8,24.8h-12.4V24c1.9,0,2.3-0.6,2.3-2.3
						v-8.9c0-1.7-0.5-2.3-2.4-2.3V9.7h12.3v3.4h-0.8c-0.7-2.1-1.5-2.5-3.5-2.5h-3.4v5.9h2.6c2.1,0,2.7-0.5,2.9-2.1h0.9v5.3h-0.9
						c-0.1-1.7-0.8-2.3-2.9-2.3h-2.6v4.3c0,1.7,0.5,2.2,2.2,2.2h1.1c2.6,0,3.9-0.7,4.7-2.9l0.9,0.3"/>
					<path id="Fill-332" style="fill-rule:evenodd;clip-rule:evenodd;fill:#FFFFFF;" d="M179.8,12.2l-0.6-0.7c-0.7-0.7-1.3-1-2.3-1
						V9.7h3.8l10.2,11.6h0v-8.4c0-1.7-0.4-2.5-2.6-2.5V9.7h6.1v0.8c-1.9,0-2.4,0.8-2.4,2.5v7.6c0,1.6,0.1,2.1,0.5,4v0.1L191,25
						c-0.8-1-1.2-1.6-1.8-2.2l-8.3-9.5h0v8.2c0,1.7,0.4,2.5,2.6,2.5v0.8h-6.1V24c1.9,0,2.4-0.8,2.4-2.5"/>
				</g>
			</g>
		</g>
	</g>
</g>
</svg>
