<?xml version="1.0" encoding="utf-8"?>
<!-- Generator: Adobe Illustrator 25.4.1, SVG Export Plug-In . SVG Version: 6.00 Build 0)  -->
<svg version="1.1"
	 id="Layer_1" xmlns:dc="http://purl.org/dc/elements/1.1/" xmlns:inkscape="http://www.inkscape.org/namespaces/inkscape" xmlns:rdf="http://www.w3.org/1999/02/22-rdf-syntax-ns#" xmlns:sodipodi="http://sodipodi.sourceforge.net/DTD/sodipodi-0.dtd" xmlns:svg="http://www.w3.org/2000/svg"
	 xmlns="http://www.w3.org/2000/svg" xmlns:xlink="http://www.w3.org/1999/xlink" x="0px" y="0px" viewBox="0 0 520.9 174.3"
	 style="enable-background:new 0 0 520.9 174.3;" xml:space="preserve">
<style type="text/css">
	.st0{fill:#919191;}
</style>
<sodipodi:namedview  bordercolor="#666666" borderopacity="1" gridtolerance="10" guidetolerance="10" id="namedview3791" inkscape:current-layer="Layer_1" inkscape:cx="357.41488" inkscape:cy="83.153356" inkscape:pageopacity="0" inkscape:pageshadow="2" inkscape:window-height="705" inkscape:window-maximized="1" inkscape:window-width="1366" inkscape:window-x="-8" inkscape:window-y="-8" inkscape:zoom="0.84281414" objecttolerance="10" pagecolor="#ffffff" showgrid="false">
	</sodipodi:namedview>
<g id="g3788" transform="matrix(1.9655545,0,0,1.9655545,-342.20304,-693.96613)">
	<g id="g3786">
		<path id="path3778" inkscape:connector-curvature="0" class="st0" d="M302.5,440.1c4.3-2.3,4.3-2.3,4.3-7.6c0-23.8,0-47.7,0-71.5
			c0-4.4,0-4.4-4.3-5.4c0.1-0.9,0.9-0.8,1.4-0.8c11.2,0,22.3-0.2,33.5,0.2c11.6,0.5,20.5,8.8,22.2,20.1c0.9,6.2-0.8,11.9-4.5,17
			c-1.3,1.8-1.9,2.9,0.1,4.9c7.5,7.6,9.7,16.6,5.9,26.6c-3.8,10-11.9,14.9-22.1,16.4c-2.3,0.3-4.7,0.3-7,0.3
			C322.1,440.1,312.3,440.1,302.5,440.1z M319.8,397.5c0,10.8-0.1,21.7,0,32.5c0.1,9.8-1.9,8.3,8.8,8.5c6.1,0.1,11.2-2,14.9-6.8
			c6.9-8.9,7.9-18.8,4.4-29.3c-0.6-2-1.5-2.6-3.6-1.6c-3.1,1.6-6.6,2.4-10.1,2.4c-5.7,0.1-9.6-2.8-9.8-7.1c-0.2-4.3,3.5-7.5,9.2-7.8
			c3.4-0.2,6.6,0.4,9.8,1.5c2.1,0.7,3,0,3.6-2c1.5-5.3,1.7-10.5,0.3-15.8c-2.8-10.6-9.7-15.8-20.7-15.8c-0.8,0-1.7,0-2.5,0
			c-4.4,0.1-4.5,0.1-4.5,4.3C319.7,372.8,319.8,385.2,319.8,397.5L319.8,397.5z M333.2,401.1c3.8,0,6.6-1.9,9.1-4.6
			c0.8-0.9,0.7-1.6-0.1-2.6c-2.8-3.1-9.4-4.4-13-2.5c-1.9,1-3.2,2.5-3,4.8c0.1,2,1.3,3.3,3.1,4.2
			C330.6,400.9,331.9,401.1,333.2,401.1z"/>
		<path id="path3780" inkscape:connector-curvature="0" class="st0" d="M439.1,398.4c0.2,8.2-1.2,16.9-5.1,25
			c-7.5,15.9-24.4,22.5-39.7,15.6c-6.7-3-11.6-8-14.5-14.6c-8-18-8.3-36.2,0.4-54.1c5-10.3,13.4-16.6,25.1-17.2
			c10.7-0.5,19,4.2,25.1,12.8C437.1,375.5,439.2,386.3,439.1,398.4L439.1,398.4z M425.5,396.8c-0.1-2.6-0.2-6.4-0.5-10.2
			c-0.2-2.8-0.6-5.6-1.1-8.4c-1.1-6.1-2.7-12.1-6.4-17.2c-5.9-8.2-15.8-8.2-21.8,0c-2.8,3.8-4.5,8.2-5.5,12.8
			c-3.5,16-3.5,32.1,0,48.1c1.1,4.9,2.9,9.6,6.3,13.4c5.7,6.3,14.5,6.3,20.2,0c2.6-2.9,4.1-6.4,5.3-10.1
			C424.9,416.3,425.3,407.2,425.5,396.8L425.5,396.8z"/>
		<path id="path3782" inkscape:connector-curvature="0" class="st0" d="M290.2,413.8c0.2,17.3-13.2,29.5-29.2,27.5
			c-7.9-1-13.9-5.3-18.7-11.4c-5.8-7.4-8.7-16.1-9.8-25.3c-1.4-11.5,0.3-22.6,5.5-33c2.6-5.3,6.2-9.9,11.1-13.3
			c8.5-6,17.5-6.8,26.9-2.1c1.2,0.6,2.3,1.3,3.5,1.9c4.5,2.2,5.7,1.8,8-2.8c1.4,2.7,1.7,24.5,0.3,30.5c-1.6-1.5-1.4-3.4-1.7-5
			c-0.8-4.6-2.2-9.1-4.1-13.3c-1.2-2.6-2.7-5-4.6-7.1c-6.5-7.1-15.5-7-21.7,0.4c-4.5,5.4-6.7,11.8-8.1,18.6
			c-2.5,11.9-2.6,23.8,0.5,35.6c1.7,6.7,4.4,12.9,9.3,18c7.1,7.5,16.6,7.4,23.7-0.1c4-4.2,6.1-9.5,7.7-14.9
			C289.3,416.5,289.8,415.1,290.2,413.8L290.2,413.8z"/>
		<path id="path3784" inkscape:connector-curvature="0" class="st0" d="M175,439.6c4.7-1.9,4.7-1.9,4.7-7.2c0-23.7,0-47.3,0-71
			c0-2.9,1-6.6-5.6-5.1c0.5-0.5,1-0.9,1.5-1.4c7,0,14,0,21,0c-3.5,0.8-3.9,3.1-3.9,6.3c0.1,24,0.1,48,0.1,71.9c0,5.1,0,5.1,5.2,5.2
			c4.2,0,8.4,0.2,12.4-1c8.1-2.3,13.3-7.3,13.9-16.2c0.1-0.8-0.1-1.7,1.7-2.2c0,6.6,0,12.9,0,19.2c0,2-1.6,1.8-2.9,1.8
			c-3.5,0-7,0-10.5,0c-10.8,0-21.7,0-32.5,0C178.5,440.1,176.8,440.4,175,439.6L175,439.6z"/>
	</g>
</g>
</svg>
