<?xml version="1.0" encoding="utf-8"?>
<!-- Generator: Adobe Illustrator 25.4.1, SVG Export Plug-In . SVG Version: 6.00 Build 0)  -->
<svg version="1.1" id="Layer_1" xmlns="http://www.w3.org/2000/svg" xmlns:xlink="http://www.w3.org/1999/xlink" x="0px" y="0px"
	 viewBox="0 0 427.8 74.7" style="enable-background:new 0 0 427.8 74.7;" xml:space="preserve">
<style type="text/css">
	.st0{fill:#919191;}
</style>
<g id="layer1" transform="translate(-131.35409,-11.431586)">
	<path id="path3392" class="st0" d="M526.3,45.1c-1.4-0.7-2.4-1.3-3.7-2c-4.4-2.3-7.8-4.2-7.8-8.2c0-4.4,4.2-6.3,8.9-6.3
		c6.3,0,11.2,2.1,12.2,2.5v-9.4c-0.8-0.2-5.1-1.7-13.1-1.7c-12.3,0-18.9,7.3-18.9,15.5c0,8.3,6.7,12.5,12.3,15.5
		c1.3,0.7,2.8,1.5,4,2.1c4.6,2.5,8,4.4,8,8.7c0,4.9-4.7,7.2-9.4,7.2c-8,0-12.9-2.9-13.7-3.4l-2.7,8.3c0.8,0.5,7.2,3.7,16.6,3.7
		c11.5,0,20.1-6.7,20.1-16.7C539.1,53.8,534.3,49.3,526.3,45.1 M470.5,46.6h-6.7V29h6.7c8.8,0,10.4,5.7,10.4,8.7
		C480.9,41.3,479.1,46.6,470.5,46.6 M480.9,53.6v-0.4c2.3-0.9,10.3-4.9,10.3-15.4c0-7.5-4.8-17.1-20.4-17.1h-16.9v56.2h10V55h3.6
		c5.2,0,6.5,1.9,9.7,7.7l8,14.2h11.5l-9.3-16.4C484.3,55,482,53.9,480.9,53.6 M248.8,46.6h-6.7V29h6.7c8.8,0,10.4,5.7,10.4,8.7
		C259.1,41.3,257.4,46.6,248.8,46.6 M259.1,53.6v-0.4c2.3-0.9,10.3-4.9,10.3-15.4c0-7.5-4.8-17.1-20.4-17.1h-16.9v56.2h10V55h3.6
		c5.2,0,6.5,1.9,9.7,7.7l8,14.2h11.5l-9.3-16.4C262.6,55,260.2,53.9,259.1,53.6 M369.8,54.7h8.6v12.6c-2.2,1-4.5,1.7-8.2,1.7
		c-11.9,0-17.8-7.9-17.8-20.1c0-12,6-20.3,18.1-20.3c4.5,0,9,1.4,12.7,3.8l2.8-8.6c-4.4-2.3-10.3-3.8-16.3-3.8
		c-17.2,0-28.1,12.6-28.1,29.6c0,16.1,9.7,28,27.7,28c7.7,0,14-2,19-4.5V46.6h-16L369.8,54.7L369.8,54.7z M415,52.4h21.6V44H415V29
		h21.6l2.7-8.4h-34.6v56.2h34.7v-8.4H415C415,68.5,415,52.4,415,52.4z M305.6,69c-10.2,0-15.5-7.4-15.5-20.2
		c0-12.8,5.3-20.2,15.5-20.2c10.5,0,15.5,7.8,15.5,20.2C321.2,61.5,315.8,69,305.6,69 M305.6,20c-16.3,0-26.2,11.8-26.2,28.9
		c0,17.2,10,28.8,26.2,28.8c16.1,0,26.2-11.5,26.2-28.8C331.9,31.8,322,20,305.6,20 M557.8,70.6l-1.8,4.8h0l-1.9-4.8h-1.4v6.2h0.8
		v-5.2h0l2.1,5.2h0.6l2.1-5.2h0v5.2h0.9v-6.2H557.8L557.8,70.6z M546.8,71.4h2v5.5h0.9v-5.5h2v-0.8h-4.9V71.4z M191.5,46.2
		c2.4-3.1,4.3-8.3,4.3-13.7c0-10.9-10.2-21.1-27.1-21.1c-10.4,0-18.6,4.2-24.2,8.9c2.7-0.9,6.6-1.8,11.5-1.8
		C168.9,18.6,184.1,28.8,191.5,46.2 M145.9,51.4c-2.4,3.1-4.3,8.3-4.3,13.7c0,10.9,10.2,21.1,27.1,21.1c10.4,0,18.6-4.2,24.2-8.9
		c-2.7,0.9-6.6,1.8-11.5,1.8C168.5,79,153.3,68.8,145.9,51.4 M166.1,26c-3.1-2.4-8.3-4.3-13.7-4.3c-10.9,0-21.1,10.2-21.1,27.1
		c0,10.4,4.2,18.6,8.9,24.2c-0.9-2.7-1.8-6.6-1.8-11.5C138.5,48.6,148.7,33.4,166.1,26 M198.9,36c0,13-10.2,28.2-27.6,35.6
		c3.1,2.4,8.4,4.3,13.7,4.3c10.9,0,21.1-10.2,21.1-27.1c0-10.4-4.2-18.6-8.9-24.2C198,27.3,198.9,31.2,198.9,36"/>
</g>
</svg>
