<?xml version="1.0" encoding="utf-8"?>
<!-- Generator: Adobe Illustrator 25.4.1, SVG Export Plug-In . SVG Version: 6.00 Build 0)  -->
<svg version="1.1" id="Layer_1" xmlns="http://www.w3.org/2000/svg" xmlns:xlink="http://www.w3.org/1999/xlink" x="0px" y="0px"
	 viewBox="0 0 1314.3 788.1" style="enable-background:new 0 0 1314.3 788.1;" xml:space="preserve">
<g>
	<g>
		<path style="fill:#919191;" d="M1101,604.5c0,0,0,91.1,0,120c1.2,28.7,18.2,44.6,47.3,45.8c33.3,1.3,67.3,1.4,103.4-0.1
			c27.7-1.1,43.8-18.3,45.3-45.8c0-29.4,0-119.9,0-119.9h-43.7c0,0,0,100.5,0,110.4c-0.2,10.2-6.4,14.3-14.5,15.1c-26,2-54,2-81,0
			c-7.3-0.7-13.1-7.7-13.4-15.4c0-7.6,0-110,0-110H1101z"/>
		<path style="fill:#919191;" d="M64.9,604.4c-22.6,1.3-46.7,13.2-49.9,41.1c-0.7,5.9-0.7,9.8-0.1,14.5c3.5,30.7,26,38.1,43.9,39.6
			c18.5,1.6,94,5.7,103.2,6.4c12.4,1,14.1,5.9,14.1,12.5c0,7.4-3.4,11.8-14.1,12.4c-23.3,1.4-67,1-88.9,0.3
			c-7.7-0.3-13.3-2.3-13.6-11.6l-0.1-8H15.6c0,0-0.1,3.8-0.1,4.8c0.2,34.4,11.9,50.4,44.7,52.9c31.7,2.4,79.5,2.1,115-0.2
			c31-2,42.4-23.4,43.6-48.1c0.1-1.3,0-3.8,0-5.8c-1-29.2-18-43.5-41.3-45.7c-15.1-1.3-95.8-5-107.1-6c-8.7-0.8-12.2-5.1-12.2-12.3
			c0-5.8,3.7-10.4,11.4-11c25.8-1.7,70.6-1.4,88.2-0.3c8.7,0.6,12.1,4.8,12.6,9.9v7.7h43.8c0,0,0-2,0-6.8
			c-0.8-32.9-16.7-45.4-46.9-46.7C134.6,602.8,98.9,602.4,64.9,604.4z"/>
		<path style="fill:#919191;" d="M454.5,770.8h145c34-0.9,49.2-18.8,49.2-51c0-22.6-10.8-34.9-19-37.3c6.8-3,14.6-13,14.6-32.4
			c0-29.2-18.5-44.5-46-45.6c-28.2,0-143.8,0-143.8,0V770.8L454.5,770.8z M587.2,641L587.2,641c8,0.6,14.9,3.9,14.9,12.8
			c0,9.1-6.2,13.9-15.7,14.4h-88.3V641C498.2,641,587,641,587.2,641L587.2,641z M587.2,702.7L587.2,702.7
			c7.4,0.3,17.4,3.5,17.4,15.5c0,12.5-8.3,15.5-18.4,15.9h-88.1v-31.4H587.2z"/>
		<path style="fill:#919191;" d="M235.2,604.5c0,0,0,91.1,0,120c1.2,28.7,18.2,44.6,47.4,45.8c33.2,1.3,67.3,1.4,103.5-0.1
			c27.6-1.1,43.7-18.3,45.3-45.8c0-29.4,0-119.9,0-119.9h-43.6c0,0,0,100.5,0,110.4c-0.3,10.2-6.5,14.3-14.6,15.1c-26,2-54,2-81,0
			c-7.4-0.7-13.2-7.7-13.5-15.4c0-7.6,0-110,0-110H235.2z"/>
		<path style="fill:#919191;" d="M887.6,604.4v166.4l43.5-0.1v-59.6h90.3c10.3,0.2,15.6,7,16.2,16c1.1,17,0.7,43.5,0.7,43.5
			l44.1,0.1c0,0-0.2-24.1-0.7-42c-0.6-19.1-10.3-34-19-36.8c7.2-4,17.3-14.4,17.3-37.4c0-34.2-18-48.8-46.7-50.2H887.6L887.6,604.4z
			 M1021.4,641L1021.4,641c10.3,0.8,15.7,5.4,15.7,15.9c0,10-5.3,15.6-15.7,16.1h-90.3v-32L1021.4,641z"/>
		<path style="fill:#919191;" d="M711.7,741.2h99l15.2,29.5h51l-90.6-166.3h-2.9h-43h-2.9l-90.7,166.3h49.6L711.7,741.2L711.7,741.2
			z M792.5,706h-62.4l31.5-60.1L792.5,706z"/>
	</g>
	<path style="fill:#919191;" d="M181.3,280.6c0-142,220.2-257,479-257c258.8,0,475,115,475,257c0,141.9-216.2,257-475,257
		C398,537.6,181.3,422.5,181.3,280.6L181.3,280.6z M660.6,510.5L660.6,510.5c239.7,0,439.8-102.9,439.8-229.8
		c0-127.9-202.2-229.8-439.8-229.8c-239.6,0-444.2,101.9-444.2,229.8C216.4,407.5,412.8,510.5,660.6,510.5L660.6,510.5z
		 M784.4,419.6L784.4,419.6c7.1,1.1,32.1,4.8,42.3,6.6c8.6,1.8,12.8,4.5,17,14.7c1.4,3.3,3.5,10.6,4.6,14.8
		c1.5,5.3,3.5,13.4,3.7,14.1c0.3,1,1.2,2,2.9,2c1.5,0,2.5-1.1,2.8-2.1c0.5-1.2,2.7-9.4,4.1-14.3c1.1-4.2,3.2-10.9,4.7-14.5
		c2.5-6,5.8-12.4,16-14.4c10.3-1.8,33.8-4.8,45.5-6.2c8.8-1,28-3.5,30.2-3.7c2.4-0.4,3.3-1.7,3.3-3.2c0-1.7-1-3-3.4-3.2
		c-3.6-0.3-21.3-2.1-30.1-3.2c-13.5-1.6-36.8-5-44.6-6.7c-8.2-1.8-12.1-4.2-15.8-11.7c-2.1-4.2-3.6-8.2-5.1-13.6
		c-0.9-3.4-4.2-14.5-4.7-16.3c-0.5-2.2-1.7-2.8-3-2.8c-1.4,0-2.6,0.5-3.2,2.9c-0.8,2.3-3.5,12.8-4.6,16.4c-1.3,4.1-2.4,8.1-4.7,13.2
		c-2.8,6-6.8,10.2-15.5,11.9c-13.2,2.6-37,6.4-42.7,7.3c-21.4,2.9-26.5,3.6-41.2,2c-11.3-1-36.5-5-53.2-7.6
		c-10.1-1.5-20.5-2.3-26.2-11.8c-3.3-5.7-5.1-11.2-7.3-18.2c-1.9-6-4.9-16.6-5.5-19.2c-0.7-2.1-1.5-3.2-3.3-3.2
		c-1.8,0-2.8,1.2-3.4,3.4c-0.8,2.3-4,13.5-5.5,18.8c-2.4,7.9-4.5,14.2-7.5,18.4c-5.7,8.3-11.1,9.4-24.9,11.7
		c-14.5,2.4-32.6,4.5-46.6,5.9c-12.4,1.4-20.1,2.3-24.7,2.8c-2.3,0.3-3.6,1-3.6,3.2c0,2.2,1.3,3.1,3.6,3.3
		c4.1,0.6,16.2,1.9,24.8,2.8c14.3,1.5,27.1,2.8,46.5,5.9c18.8,2.9,22.1,5.4,28.1,19.6c3,7.1,4.2,12.3,5.4,17.8
		c1.3,6,4.1,17.9,4.6,20.4c0.2,1.8,1.2,3.3,3.2,3.3c2,0,2.9-1.3,3.3-3.4c0.4-2.8,3.3-15.4,4.7-20.3c1.3-5.5,2.6-11,5.2-17.8
		c6-15.3,10.9-16.9,29.2-19.8c14.1-2.2,40.1-6.1,53.4-7.6C757.9,416.6,763.8,416.6,784.4,419.6L784.4,419.6z M923,322.8L923,322.8
		c7.6,1.1,20.7,3.6,35.3,6.9c9.7,2.2,13,7.3,15.2,13.5c2.3,6.1,3.9,13,5.7,20.4c1.7,6.2,2.8,11.7,2.9,12.7c0.5,1.9,1.8,2.9,3.2,2.9
		c1.5,0,2.8-0.9,3.3-2.8c0.3-1.3,1.4-6.8,3-13c1.7-6.7,3.6-14,5.7-20.4c2-5.9,5.3-10.8,13.9-12.9c8.2-1.8,21.6-4.1,32.6-5.7
		c9.5-1.5,26-3.5,28.3-3.9c2.4-0.4,3.3-1.8,3.3-3.2c0-1.4-0.7-3-3.3-3.3c-2.4-0.4-18.2-2.5-28.4-4c-12.5-1.9-25.4-3.9-32.5-5.5
		c-5.3-1.3-10.5-4.9-12.9-10c-2.8-5.8-4-9.3-6-15.7c-1.2-4.7-3.2-11.5-3.7-13.4c-0.5-2-2.1-2.5-3.3-2.5c-1.2,0-2.5,0.6-3.1,2.7
		c-0.7,2.4-2.3,8.4-3.8,13.3c-2.1,7.3-3.6,11.3-5.8,15.6c-2.5,4.9-6.4,8.6-14.3,10.3c-14.6,3.1-27.3,5.8-35.3,6.9
		c-17.1,2.6-25.2,3.8-51.2,0.2c-11.6-1.7-31.2-4.7-46.6-7.6c-8.5-1.7-16.1-4.1-20.4-12.4c-2.7-5.6-4.5-12.2-6.5-18.9
		c-1.3-4.3-3.8-12.9-4.7-16.2c-0.6-2.2-1.5-3.1-3.3-3.1c-1.8,0-2.7,0.9-3.3,3.1c-0.9,2.8-3.2,11.2-4.6,16.1
		c-2,6.5-3.9,13.5-6.7,18.9c-4.1,8.5-11.1,10.5-20,12.4c-12.8,2.7-33.2,4.9-51.4,6.8c-8.1,1-22.9,2.8-26.3,3.3
		c-2,0.2-3.1,1.2-3.1,3.1c0,1.9,0.8,2.9,3,3.2c3.2,0.5,20.6,2.4,26.2,3.1c9.7,1.1,33.1,4.3,51.4,6.9c12.6,1.8,19.3,6.7,23,21.5
		c1.9,8,3.7,13.9,4.9,20c1.1,5,2.9,13,3.4,14.6c0.7,2.3,1.8,3.3,3.2,3.3c1.5,0,2.8-0.7,3.4-3.4c0.3-1.5,2.5-11.4,3.1-14.2
		c1.3-5.8,3.1-13,5-20.5c3.7-13.3,7.6-17.7,23.5-21.4c12.4-2.9,35.3-5.8,46.4-7.4C898.9,319.1,906,320.5,923,322.8L923,322.8z
		 M1033.2,219.6L1033.2,219.6c-1.4,0-21.1-2.7-31.5-4.1c-12.1-1.8-27-3.5-40.5-6.4c-5.4-1.1-12.7-4-16.4-11.7
		c-2.6-5.4-4.1-11-7.3-21.6c-1-3-3.2-11.6-3.7-13.7c-0.6-2.4-2-2.9-3.2-2.9c-1.2,0-2.5,0.4-3.3,2.9c-0.6,2.2-2.8,9.6-3.9,13.5
		c-3.3,11.2-5.2,17.3-7.4,21.9c-3.6,7.2-9.3,10.1-18.8,11.9c-9.4,1.6-28.5,4.2-47.6,6.7c-37.3,4.6-38.9,4.5-74.6,0.5
		c-10.7-1.1-39.1-4.8-48.5-6c-34.3-4.1-91.3-9.9-125.9-16c-18.8-3.5-35.6-7.5-46.5-34.2c-7.2-18-11.6-34.2-15.7-48.8
		c-3.5-12.1-7.4-28.6-8.7-34.2c-0.6-2.6-1.7-3.6-3.5-3.6c-1.5,0-2.6,0.8-3.4,3.6c-1.4,5.4-5.9,22.6-9.2,34.1
		c-4.2,14.1-8.1,31-15.4,48.8c-9.4,22.6-21.4,29.5-45.9,34.4c-35.1,6.7-77.9,11.9-117.5,16.2c-19.5,2.1-75.9,8.3-78.2,8.5
		c-2.4,0.2-3.2,2-3.2,3.1c0,1.2,0.8,3,3.2,3.2c2.3,0.3,60.3,6.4,78.5,8.4c41.1,4.4,79.1,9.2,115.6,15.5
		c35.3,6.1,43.6,24.2,50.3,46.6c5.3,17.7,12.4,48.8,14.9,60.9c2.4,10.6,6.6,32.9,7.2,34.9c0.5,2.4,1.6,3.4,3.3,3.4
		c1.6,0,2.8-0.9,3.5-3.4c0.4-2.1,4.7-25,6.9-35c2.7-11.9,9.9-44.3,14.9-61.1c9-29.6,17.7-39.9,49.1-45.3
		c31.5-5.6,90.8-12.6,126.1-16.9c8.9-1.1,29.3-2.8,48.2-5.1c36.1-4,39.2-3.7,74.8,0.7c18.7,2.2,31.6,4,46.7,6.6
		c12.1,2,16.7,5.5,20.3,16c3,8.4,5.3,17.6,6.9,23.8c1.4,5.5,3.2,14.5,3.6,16.4c0.6,2.3,2.1,2.7,3,2.7c1,0,2.8-0.7,3.3-2.7
		c0.5-2.3,2.2-10.9,3.5-16.4c1.3-5.6,4.5-17,6.9-23.8c3.4-9.6,8.8-13.8,17.9-15.7c10-2.2,27.4-4.5,40-6.4c9.6-1.4,29.8-3.9,31.3-4.1
		c2-0.2,3.1-1.4,3.1-3.3C1036.4,221,1035.1,219.8,1033.2,219.6z"/>
</g>
</svg>
