<svg height='100px' width='100px'  fill="#000000" xmlns="http://www.w3.org/2000/svg" xmlns:xlink="http://www.w3.org/1999/xlink" version="1.1" x="0px" y="0px" viewBox="0 0 64 64" style="enable-background:new 0 0 64 64;" xml:space="preserve"><g><text transform="matrix(1 0 0 1 21.7202 -213)"><tspan x="0" y="0" style="" font-family="&apos;Montserrat-Regular&apos;" font-size="10px">Bill</tspan><tspan x="-14.18" y="12" style="" font-family="&apos;Montserrat-Regular&apos;" font-size="10px">p</tspan><tspan x="-7.88" y="12" style="" font-family="&apos;Montserrat-Regular&apos;" font-size="10px">a</tspan><tspan x="-1.09" y="12" style="" font-family="&apos;Montserrat-Regular&apos;" font-size="10px">yment</tspan></text><text transform="matrix(1 0 0 1 111.3252 -213)"><tspan x="0" y="0" style="" font-family="&apos;Montserrat-Regular&apos;" font-size="10px">s</tspan><tspan x="6.16" y="0" style="" font-family="&apos;Montserrat-Regular&apos;" font-size="10px">t</tspan><tspan x="11.39" y="0" style="" font-family="&apos;Montserrat-Regular&apos;" font-size="10px">o</tspan><tspan x="19.29" y="0" style="" font-family="&apos;Montserrat-Regular&apos;" font-size="10px">ck</tspan><tspan x="-4.9" y="12" style="" font-family="&apos;Montserrat-Regular&apos;" font-size="10px">market</tspan></text><text transform="matrix(1 0 0 1 117.7949 -117)"><tspan x="0" y="0" style="" font-family="&apos;Montserrat-Regular&apos;" font-size="10px">life</tspan><tspan x="-20.11" y="12" style="" font-family="&apos;Montserrat-Regular&apos;" font-size="10px">insurance</tspan></text><text transform="matrix(1 0 0 1 206.835 -213)" style="" font-family="&apos;Montserrat-Regular&apos;" font-size="10px">forex</text><text transform="matrix(1 0 0 1 295.8804 -213)" style="" font-family="&apos;Montserrat-Regular&apos;" font-size="10px">housing</text><text transform="matrix(1 0 0 1 400.5054 -213)"><tspan x="0" y="0" style="" font-family="&apos;Montserrat-Regular&apos;" font-size="10px">piggy</tspan><tspan x="0.8" y="12" style="" font-family="&apos;Montserrat-Regular&apos;" font-size="10px">bank</tspan></text><text transform="matrix(1 0 0 1 492.8604 -213)"><tspan x="0" y="0" style="" font-family="&apos;Montserrat-Regular&apos;" font-size="10px">money</tspan><tspan x="-18.485" y="12" style="" font-family="&apos;Montserrat-Regular&apos;" font-size="10px">man</tspan><tspan x="6.105" y="12" style="" font-family="&apos;Montserrat-Regular&apos;" font-size="10px">a</tspan><tspan x="13.195" y="12" style="" font-family="&apos;Montserrat-Regular&apos;" font-size="10px">gement</tspan></text><text transform="matrix(1 0 0 1 22.8203 -117)"><tspan x="0" y="0" style="" font-family="&apos;Montserrat-Regular&apos;" font-size="10px">set</tspan><tspan x="-4.8" y="12" style="" font-family="&apos;Montserrat-Regular&apos;" font-size="10px">g</tspan><tspan x="2.709" y="12" style="" font-family="&apos;Montserrat-Regular&apos;" font-size="10px">o</tspan><tspan x="10.66" y="12" style="" font-family="&apos;Montserrat-Regular&apos;" font-size="10px">al</tspan></text><text transform="matrix(1 0 0 1 201.8301 -117)" style="" font-family="&apos;Montserrat-Regular&apos;" font-size="10px">charity</text><text transform="matrix(1 0 0 1 289.895 -117)"><tspan x="0" y="0" style="" font-family="&apos;Montserrat-Regular&apos;" font-size="10px">edu</tspan><tspan x="21.98" y="0" style="" font-family="&apos;Montserrat-Regular&apos;" font-size="10px">c</tspan><tspan x="28.93" y="0" style="" font-family="&apos;Montserrat-Regular&apos;" font-size="10px">a</tspan><tspan x="35.52" y="0" style="" font-family="&apos;Montserrat-Regular&apos;" font-size="10px">tion</tspan><tspan x="9.075" y="12" style="" font-family="&apos;Montserrat-Regular&apos;" font-size="10px">bu</tspan><tspan x="23.815" y="12" style="" font-family="&apos;Montserrat-Regular&apos;" font-size="10px">d</tspan><tspan x="31.425" y="12" style="" font-family="&apos;Montserrat-Regular&apos;" font-size="10px">get</tspan></text><text transform="matrix(1 0 0 1 385.7651 -117)"><tspan x="0" y="0" style="" font-family="&apos;Montserrat-Regular&apos;" font-size="10px">bu</tspan><tspan x="14.74" y="0" style="" font-family="&apos;Montserrat-Regular&apos;" font-size="10px">d</tspan><tspan x="22.35" y="0" style="" font-family="&apos;Montserrat-Regular&apos;" font-size="10px">geting</tspan></text><text transform="matrix(1 0 0 1 490.9702 -117)"><tspan x="0" y="0" style="" font-family="&apos;Montserrat-Regular&apos;" font-size="10px">bu</tspan><tspan x="14.74" y="0" style="" font-family="&apos;Montserrat-Regular&apos;" font-size="10px">d</tspan><tspan x="22.35" y="0" style="" font-family="&apos;Montserrat-Regular&apos;" font-size="10px">get</tspan></text><g><text transform="matrix(1 0 0 1 5.335 -21)" style="" font-family="&apos;Montserrat-Regular&apos;" font-size="10px">expenses</text></g><text transform="matrix(1 0 0 1 89.7954 -21)"><tspan x="0" y="0" style="" font-family="&apos;Montserrat-Regular&apos;" font-size="10px">MAINTENANCE</tspan><tspan x="23.67" y="12" style="" font-family="&apos;Montserrat-Regular&apos;" font-size="10px">FUND</tspan></text><text transform="matrix(1 0 0 1 210.4253 -21)" style="" font-family="&apos;Montserrat-Regular&apos;" font-size="10px">debt</text><text transform="matrix(1 0 0 1 287.5254 -21)"><tspan x="0" y="0" style="" font-family="&apos;Montserrat-Regular&apos;" font-size="10px">emergency</tspan><tspan x="17.94" y="12" style="" font-family="&apos;Montserrat-Regular&apos;" font-size="10px">fund</tspan></text><text transform="matrix(1 0 0 1 401.2349 -21)"><tspan x="0" y="0" style="" font-family="&apos;Montserrat-Regular&apos;" font-size="10px">f</tspan><tspan x="5.68" y="0" style="" font-family="&apos;Montserrat-Regular&apos;" font-size="10px">o</tspan><tspan x="13.58" y="0" style="" font-family="&apos;Montserrat-Regular&apos;" font-size="10px">od</tspan></text><text transform="matrix(1 0 0 1 491.1001 -21)" style="" font-family="&apos;Montserrat-Regular&apos;" font-size="10px">afford</text><text transform="matrix(1 0 0 1 -0.7744 75)" style="" font-family="&apos;Montserrat-Regular&apos;" font-size="10px">investment</text><text transform="matrix(1 0 0 1 95.1602 75)"><tspan x="0" y="0" style="" font-family="&apos;Montserrat-Regular&apos;" font-size="10px">retirement</tspan><tspan x="18.305" y="12" style="" font-family="&apos;Montserrat-Regular&apos;" font-size="10px">fund</tspan></text><text transform="matrix(1 0 0 1 196.8853 75)"><tspan x="0" y="0" style="" font-family="&apos;Montserrat-Regular&apos;" font-size="10px">financial</tspan><tspan x="0.37" y="12" style="" font-family="&apos;Montserrat-Regular&apos;" font-size="10px">sit</tspan><tspan x="15.16" y="12" style="" font-family="&apos;Montserrat-Regular&apos;" font-size="10px">u</tspan><tspan x="22.58" y="12" style="" font-family="&apos;Montserrat-Regular&apos;" font-size="10px">a</tspan><tspan x="29.17" y="12" style="" font-family="&apos;Montserrat-Regular&apos;" font-size="10px">tion</tspan></text><text transform="matrix(1 0 0 1 305.8848 75)"><tspan x="0" y="0" style="" font-family="&apos;Montserrat-Regular&apos;" font-size="10px">c</tspan><tspan x="6.95" y="0" style="" font-family="&apos;Montserrat-Regular&apos;" font-size="10px">a</tspan><tspan x="14.14" y="0" style="" font-family="&apos;Montserrat-Regular&apos;" font-size="10px">sh</tspan></text><text transform="matrix(1 0 0 1 405.8452 75)"><tspan x="0" y="0" style="" font-family="&apos;Montserrat-Regular&apos;" font-size="10px">use</tspan><tspan x="-21.695" y="12" style="" font-family="&apos;Montserrat-Regular&apos;" font-size="10px">c</tspan><tspan x="-14.745" y="12" style="" font-family="&apos;Montserrat-Regular&apos;" font-size="10px">a</tspan><tspan x="-7.685" y="12" style="" font-family="&apos;Montserrat-Regular&apos;" font-size="10px">utiously</tspan></text><text transform="matrix(1 0 0 1 493.2402 75)"><tspan x="0" y="0" style="" font-family="&apos;Montserrat-Regular&apos;" font-size="10px">g</tspan><tspan x="7.51" y="0" style="" font-family="&apos;Montserrat-Regular&apos;" font-size="10px">o</tspan><tspan x="15.41" y="0" style="" font-family="&apos;Montserrat-Regular&apos;" font-size="10px">ods</tspan><tspan x="-15.605" y="12" style="" font-family="&apos;Montserrat-Regular&apos;" font-size="10px">and se</tspan><tspan x="22.735" y="12" style="" font-family="&apos;Montserrat-Regular&apos;" font-size="10px">r</tspan><tspan x="29.885" y="12" style="" font-family="&apos;Montserrat-Regular&apos;" font-size="10px">vice</tspan></text><text transform="matrix(1 0 0 1 16.0151 171)"><tspan x="0" y="0" style="" font-family="&apos;Montserrat-Regular&apos;" font-size="10px">home</tspan><tspan x="-14.33" y="12" style="" font-family="&apos;Montserrat-Regular&apos;" font-size="10px">insurance</tspan></text><text transform="matrix(1 0 0 1 106.9702 171)"><tspan x="0" y="0" style="" font-family="&apos;Montserrat-Regular&apos;" font-size="10px">bu</tspan><tspan x="14.74" y="0" style="" font-family="&apos;Montserrat-Regular&apos;" font-size="10px">d</tspan><tspan x="22.35" y="0" style="" font-family="&apos;Montserrat-Regular&apos;" font-size="10px">get</tspan><tspan x="2.85" y="12" style="" font-family="&apos;Montserrat-Regular&apos;" font-size="10px">house</tspan></text><text transform="matrix(1 0 0 1 206.96 171)"><tspan x="0" y="0" style="" font-family="&apos;Montserrat-Regular&apos;" font-size="10px">so</tspan><tspan x="14.28" y="0" style="" font-family="&apos;Montserrat-Regular&apos;" font-size="10px">l</tspan><tspan x="19.59" y="0" style="" font-family="&apos;Montserrat-Regular&apos;" font-size="10px">ar</tspan><tspan x="-2.675" y="12" style="" font-family="&apos;Montserrat-Regular&apos;" font-size="10px">p</tspan><tspan x="3.625" y="12" style="" font-family="&apos;Montserrat-Regular&apos;" font-size="10px">anels</tspan></text><text transform="matrix(1 0 0 1 295.8804 171)"><tspan x="0" y="0" style="" font-family="&apos;Montserrat-Regular&apos;" font-size="10px">housing</tspan><tspan x="-5.705" y="12" style="" font-family="&apos;Montserrat-Regular&apos;" font-size="10px">do</tspan><tspan x="9.805" y="12" style="" font-family="&apos;Montserrat-Regular&apos;" font-size="10px">cument</tspan></text><text transform="matrix(1 0 0 1 391.8804 171)"><tspan x="0" y="0" style="" font-family="&apos;Montserrat-Regular&apos;" font-size="10px">housing</tspan><tspan x="10.51" y="12" style="" font-family="&apos;Montserrat-Regular&apos;" font-size="10px">p</tspan><tspan x="17.22" y="12" style="" font-family="&apos;Montserrat-Regular&apos;" font-size="10px">l</tspan><tspan x="22.529" y="12" style="" font-family="&apos;Montserrat-Regular&apos;" font-size="10px">an</tspan></text><text transform="matrix(1 0 0 1 493.8203 171)"><tspan x="0" y="0" style="" font-family="&apos;Montserrat-Regular&apos;" font-size="10px">house</tspan><tspan x="0.81" y="12" style="" font-family="&apos;Montserrat-Regular&apos;" font-size="10px">a</tspan><tspan x="7.9" y="12" style="" font-family="&apos;Montserrat-Regular&apos;" font-size="10px">gent</tspan></text><text transform="matrix(1 0 0 1 17.3501 267)"><tspan x="0" y="0" style="" font-family="&apos;Montserrat-Regular&apos;" font-size="10px">open</tspan><tspan x="-3.53" y="12" style="" font-family="&apos;Montserrat-Regular&apos;" font-size="10px">house</tspan></text><text transform="matrix(1 0 0 1 97.2202 267)" style="" font-family="&apos;Montserrat-Regular&apos;" font-size="10px">marketing</text><text transform="matrix(1 0 0 1 205.8154 267)" style="" font-family="&apos;Montserrat-Regular&apos;" font-size="10px">profit</text><text transform="matrix(1 0 0 1 304.0151 267)"><tspan x="0" y="0" style="" font-family="&apos;Montserrat-Regular&apos;" font-size="10px">home</tspan><tspan x="-5.31" y="12" style="" font-family="&apos;Montserrat-Regular&apos;" font-size="10px">m</tspan><tspan x="4.08" y="12" style="" font-family="&apos;Montserrat-Regular&apos;" font-size="10px">o</tspan><tspan x="12.11" y="12" style="" font-family="&apos;Montserrat-Regular&apos;" font-size="10px">ving</tspan></text><text transform="matrix(1 0 0 1 397.8203 267)"><tspan x="0" y="0" style="" font-family="&apos;Montserrat-Regular&apos;" font-size="10px">house</tspan><tspan x="-7.33" y="12" style="" font-family="&apos;Montserrat-Regular&apos;" font-size="10px">for rent</tspan></text><text transform="matrix(1 0 0 1 493.8203 267)"><tspan x="0" y="0" style="" font-family="&apos;Montserrat-Regular&apos;" font-size="10px">house</tspan><tspan x="-12.81" y="12" style="" font-family="&apos;Montserrat-Regular&apos;" font-size="10px">inspection</tspan></text></g><path d="M61.707,20.293l-15-15c-0.391-0.391-1.023-0.391-1.414,0L42,8.586l-3.293-3.293c-0.391-0.391-1.023-0.391-1.414,0l-15,15  c-0.391,0.391-0.391,1.023,0,1.414L31.586,31h-5.77c-0.414-1.161-1.514-2-2.816-2c-1.654,0-3,1.346-3,3v7c0,1.654,1.346,3,3,3  c1.225,0,2.278-0.74,2.743-1.795l20.025,4.768C45.846,44.991,45.923,45,46,45c0.116,0,0.226-0.027,0.333-0.065  c0.028-0.01,0.054-0.022,0.082-0.034c0.104-0.048,0.203-0.108,0.286-0.19c0.002-0.002,0.004-0.002,0.006-0.004l0.003-0.003  c0.001-0.001,0.001-0.001,0.002-0.002l14.995-14.995c0.391-0.391,0.391-1.023,0-1.414L58.414,25l3.293-3.293  C62.098,21.316,62.098,20.684,61.707,20.293z M23,40c-0.551,0-1-0.448-1-1v-7c0-0.552,0.449-1,1-1s1,0.448,1,1v7  C24,39.552,23.551,40,23,40z M26,38.21V33h7.586l9.208,9.209L26,38.21z M46,42.586L34.707,31.293L24.414,21L38,7.414L59.586,29  L46,42.586z M57,23.586L43.414,10L46,7.414L59.586,21L57,23.586z"></path><path d="M21,48c-3.72,0-7.008,1.861-9,4.695V38v-2v-3.059c4.493-0.499,8-4.316,8-8.941c0-0.553-0.448-1-1-1  c-2.826,0-5.349,1.312-7,3.356V22c7.72,0,14-6.28,14-14V3c0-0.553-0.448-1-1-1h-5C12.28,2,6,8.28,6,16v5c0,0.553,0.448,1,1,1h3  v8.356C8.349,28.312,5.826,27,3,27c-0.552,0-1,0.447-1,1v2c0,4.625,3.507,8.442,8,8.941v7.415C8.349,44.312,5.826,43,3,43  c-0.552,0-1,0.447-1,1c0,4.625,3.507,8.442,8,8.941V59v2v1h2v-0.051C17.598,61.442,22,56.728,22,51v-2C22,48.447,21.552,48,21,48z   M17.916,25.084c-0.467,2.994-2.838,5.365-5.832,5.832C12.551,27.922,14.922,25.551,17.916,25.084z M8,16  c0-4.831,2.876-8.994,7-10.895v1.079C13.839,6.598,13,7.698,13,9c0,1.654,1.346,3,3,3c0.551,0,1,0.448,1,1s-0.449,1-1,1  s-1-0.448-1-1h-2c0,1.302,0.839,2.402,2,2.816V18h2v-2.184c1.161-0.414,2-1.514,2-2.816c0-1.654-1.346-3-3-3c-0.551,0-1-0.448-1-1  s0.449-1,1-1s1,0.448,1,1h2c0-1.302-0.839-2.402-2-2.816V4.395C17.961,4.146,18.963,4,20,4h4v4c0,6.617-5.383,12-12,12H8V16z M4,30  v-0.929c3.388,0.486,6,3.408,6,6.929v0.929C6.612,36.442,4,33.521,4,30z M4.084,45.084c2.994,0.467,5.365,2.838,5.832,5.832  C6.922,50.449,4.551,48.078,4.084,45.084z M20,51c0,4.625-3.506,8.445-8,8.944V59c0-4.625,3.506-8.445,8-8.944V51z"></path><rect x="14" y="45" width="2" height="2"></rect><rect x="16" y="33" width="2" height="2"></rect><rect x="14" y="37" width="2" height="2"></rect><rect x="14" y="41" width="2" height="2"></rect><path d="M37.808,19.343l-1.414,1.414l1.543,1.543c-0.19,0.398-0.3,0.831-0.3,1.286c0,0.801,0.312,1.555,0.878,2.121  c1.169,1.169,3.072,1.17,4.243,0c0.39-0.39,1.024-0.392,1.414,0c0.189,0.188,0.293,0.44,0.293,0.707  c0,0.268-0.104,0.519-0.292,0.707c-0.39,0.391-1.025,0.391-1.415,0l-1.414,1.414c0.585,0.585,1.353,0.877,2.122,0.877  c0.441,0,0.877-0.108,1.284-0.3l1.545,1.545l1.414-1.414L46.164,27.7c0.19-0.398,0.3-0.831,0.3-1.286  c0-0.801-0.312-1.555-0.878-2.121c-1.17-1.17-3.073-1.171-4.243,0c-0.39,0.39-1.024,0.392-1.414,0  c-0.189-0.188-0.293-0.44-0.293-0.707c0-0.268,0.104-0.519,0.292-0.707c0.39-0.392,1.025-0.392,1.415,0l1.414-1.414  c-0.921-0.921-2.291-1.106-3.405-0.577L37.808,19.343z"></path><path d="M46,48c-3.483,0-6.505,1.993-8,4.896C36.505,49.993,33.483,48,30,48c-0.552,0-1,0.447-1,1c0,4.625,3.507,8.442,8,8.941V62h2  v-4.059c4.493-0.499,8-4.316,8-8.941C47,48.447,46.552,48,46,48z M31.084,50.084c2.994,0.467,5.365,2.838,5.832,5.832  C33.922,55.449,31.551,53.078,31.084,50.084z M39.084,55.916c0.467-2.994,2.838-5.365,5.832-5.832  C44.449,53.078,42.078,55.449,39.084,55.916z"></path></svg>