<svg height='100px' width='100px'  fill="#000000" xmlns="http://www.w3.org/2000/svg" xmlns:xlink="http://www.w3.org/1999/xlink" version="1.1" x="0px" y="0px" viewBox="0 0 64 64" style="enable-background:new 0 0 64 64;" xml:space="preserve"><g><path d="M47,26h1h1v-1C49,11.767,38.233,1,25,1S1,11.767,1,25s10.767,24,24,24h1v-1v-1V26H47z M3.025,24   c0.217-4.834,2.003-9.265,4.858-12.799c0.912,0.706,2.934,2.059,6.209,3.153c-1.142,2.79-1.942,6.009-2.068,9.646H3.025z    M12.024,26c0.126,3.637,0.926,6.856,2.068,9.646c-3.275,1.094-5.297,2.447-6.209,3.153C5.028,35.265,3.243,30.834,3.025,26H12.024   z M16.059,14.927c2.2,0.566,4.841,0.972,7.941,1.047V24h-9.975C14.156,20.587,14.946,17.555,16.059,14.927z M26,4.071   c1.81,1.572,4.832,4.617,7.083,9.003c-1.979,0.484-4.334,0.83-7.083,0.901V4.071z M24,4.075v9.899   c-2.739-0.071-5.092-0.42-7.072-0.906C19.178,8.694,22.192,5.649,24,4.075z M26,15.974c3.103-0.075,5.746-0.482,7.947-1.049   c1.11,2.627,1.897,5.659,2.028,9.075H26V15.974z M35.908,14.354c3.275-1.094,5.297-2.447,6.209-3.153   c2.855,3.534,4.64,7.965,4.858,12.799h-8.999C37.85,20.363,37.05,17.144,35.908,14.354z M40.786,9.7   c-0.838,0.628-2.701,1.838-5.705,2.816c-2.127-4.314-4.975-7.432-7.006-9.297C33.031,3.916,37.46,6.269,40.786,9.7z M21.925,3.219   c-2.029,1.863-4.875,4.978-7.001,9.287c-2.992-0.978-4.863-2.183-5.707-2.809C12.542,6.267,16.97,3.916,21.925,3.219z M9.214,40.3   c0.838-0.628,2.701-1.838,5.705-2.816c2.127,4.314,4.975,7.432,7.006,9.297C16.969,46.084,12.54,43.731,9.214,40.3z M24,45.929   c-1.81-1.572-4.832-4.617-7.083-9.003c1.979-0.484,4.334-0.83,7.083-0.901V45.929z M24,34.026   c-3.103,0.075-5.746,0.482-7.947,1.049c-1.11-2.627-1.897-5.659-2.028-9.075H24V34.026z"></path><path d="M45,35c-5.514,0-10,4.486-10,10s4.486,10,10,10s10-4.486,10-10S50.514,35,45,35z M42,52.411V50c0-1.654,1.346-3,3-3   s3,1.346,3,3v2.411C47.073,52.788,46.061,53,45,53S42.927,52.788,42,52.411z M43,43c0-1.103,0.897-2,2-2s2,0.897,2,2s-0.897,2-2,2   S43,44.103,43,43z M50,51.235V50c0-1.723-0.876-3.245-2.206-4.145C48.536,45.129,49,44.119,49,43c0-2.206-1.794-4-4-4s-4,1.794-4,4   c0,1.119,0.464,2.129,1.206,2.855C40.876,46.755,40,48.277,40,50v1.235c-1.826-1.468-3-3.715-3-6.235c0-4.411,3.589-8,8-8   s8,3.589,8,8C53,47.52,51.826,49.768,50,51.235z"></path><path d="M63,44h-2.051C60.45,35.977,54.023,29.55,46,29.051V27h-2v2.051C35.977,29.55,29.55,35.977,29.051,44H27v2h2.051   c0.5,8.023,6.926,14.45,14.949,14.949V63h2v-2.051c8.023-0.5,14.45-6.926,14.949-14.949H63V44z M46,58.949V57h-2v1.949   C37.079,58.457,31.543,52.921,31.051,46H33v-2h-1.949C31.543,37.079,37.079,31.543,44,31.051V33h2v-1.949   C52.921,31.543,58.457,37.079,58.949,44H57v2h1.949C58.457,52.921,52.921,58.457,46,58.949z"></path></g></svg>