<svg height='100px' width='100px'  fill="#000000" xmlns="http://www.w3.org/2000/svg" xmlns:xlink="http://www.w3.org/1999/xlink" version="1.1" x="0px" y="0px" viewBox="0 0 68 68" style="enable-background:new 0 0 68 68;" xml:space="preserve"><style type="text/css">
	.st0{fill:#000000;}
</style><g><g><g><path class="st0" d="M34,44.5c4.4,0,8.1-3.6,8.1-8c0-4.4-3.6-8-8.1-8c-4.4,0-8.1,3.6-8.1,8C25.9,41,29.6,44.5,34,44.5z M34,30.6     c3.3,0,6.1,2.7,6.1,6c0,3.3-2.7,6-6.1,6c-3.3,0-6.1-2.7-6.1-6C27.9,33.3,30.7,30.6,34,30.6z"></path></g></g><g><g><path class="st0" d="M28.4,13.4l-1,5.7c-0.1,0.4,0.1,0.8,0.4,1c0.3,0.2,0.7,0.3,1.1,0.1l5.2-2.7l5.2,2.7c0.3,0.2,0.7,0.1,1.1-0.1     c0.3-0.2,0.5-0.6,0.4-1l-1-5.7l4.2-4.1c0.3-0.3,0.4-0.7,0.3-1c-0.1-0.4-0.4-0.6-0.8-0.7l-5.8-0.8l-2.6-5.2     c-0.3-0.7-1.5-0.7-1.8,0l-2.6,5.2l-5.8,0.8c-0.4,0.1-0.7,0.3-0.8,0.7c-0.1,0.4,0,0.8,0.3,1L28.4,13.4z M31.3,8.7     c0.3,0,0.6-0.3,0.8-0.5L34,4.2l1.9,3.9c0.1,0.3,0.4,0.5,0.8,0.5L41,9.3l-3.1,3c-0.2,0.2-0.3,0.6-0.3,0.9l0.7,4.3l-3.8-2     c-0.1-0.1-0.3-0.1-0.5-0.1c-0.2,0-0.3,0-0.5,0.1l-3.8,2l0.7-4.3c0.1-0.3-0.1-0.7-0.3-0.9l-3.1-3L31.3,8.7z"></path></g></g><g><g><path class="st0" d="M17.3,25.7c0.3-0.2,0.5-0.6,0.4-1l-1-5.7l4.2-4.1c0.3-0.3,0.4-0.7,0.3-1c-0.1-0.4-0.4-0.6-0.8-0.7l-5.8-0.8     L12,7.1c-0.2-0.3-0.5-0.6-0.9-0.6c-0.4,0-0.7,0.2-0.9,0.6l-2.6,5.2l-5.8,0.8c-0.4,0.1-0.7,0.3-0.8,0.7c-0.1,0.4,0,0.8,0.3,1     L5.5,19l-1,5.7c-0.1,0.4,0.1,0.8,0.4,1c0.3,0.2,0.7,0.3,1.1,0.1l5.2-2.7l5.2,2.7C16.6,26,17,25.9,17.3,25.7z M11.6,21     c-0.3-0.2-0.6-0.2-0.9,0l-3.8,2l0.7-4.3c0.1-0.3-0.1-0.7-0.3-0.9l-3.1-3l4.3-0.6c0.3,0,0.6-0.3,0.8-0.5l1.9-3.9l1.9,3.9     c0.1,0.3,0.4,0.5,0.8,0.5l4.3,0.6l-3.1,3c-0.2,0.2-0.3,0.6-0.3,0.9l0.7,4.3L11.6,21z"></path></g></g><g><g><path class="st0" d="M67,13.9c-0.1-0.4-0.4-0.6-0.8-0.7l-5.8-0.8l-2.6-5.2c-0.3-0.7-1.5-0.7-1.8,0l-2.6,5.2l-5.8,0.8     c-0.4,0.1-0.7,0.3-0.8,0.7c-0.1,0.4,0,0.8,0.3,1l4.2,4.1l-1,5.7c-0.1,0.4,0.1,0.8,0.4,1c0.3,0.2,0.7,0.3,1.1,0.1l5.2-2.7l5.2,2.7     c0.3,0.2,0.7,0.1,1.1-0.1c0.3-0.2,0.5-0.6,0.4-1l-1-5.7l4.2-4.1C67,14.6,67.1,14.2,67,13.9z M60.7,17.9c-0.2,0.2-0.3,0.6-0.3,0.9     l0.7,4.3l-3.8-2c-0.1-0.1-0.3-0.1-0.5-0.1c-0.2,0-0.3,0-0.5,0.1l-3.8,2l0.7-4.3c0.1-0.3-0.1-0.7-0.3-0.9l-3.1-3l4.3-0.6     c0.3,0,0.6-0.3,0.8-0.5l1.9-3.9l1.9,3.9c0.1,0.3,0.4,0.5,0.8,0.5l4.3,0.6L60.7,17.9z"></path></g></g><g><g><path class="st0" d="M52.8,43.5c-0.3,0-0.6,0-0.9,0c0.2-1.1,0.3-2.3,0.3-3.5c0-10-8.2-18.2-18.2-18.2c-10,0-18.2,8.1-18.2,18.2     c0,10,8.1,18.2,18.2,18.2c2.5,0,4.9-0.5,7.2-1.5C41.9,62.5,46.8,67,52.8,67c6.5,0,11.7-5.3,11.7-11.7     C64.5,48.8,59.3,43.5,52.8,43.5z M34,23.9c8.9,0,16.2,7.2,16.2,16.2c0,1.3-0.2,2.6-0.5,3.8c-2.2,0.6-4.2,1.9-5.7,3.6     c-1.9-1.6-4.2-2.4-6.7-2.4h-6.6c-3.8,0-7.3,2.1-9.1,5.4c-2.4-2.9-3.8-6.5-3.8-10.3C17.8,31.2,25.1,23.9,34,23.9z M23.1,52     c1.4-3,4.3-4.9,7.6-4.9h6.6c2.1,0,4,0.7,5.5,2c-1,1.6-1.6,3.5-1.7,5.5C35.2,57.5,28.1,56.6,23.1,52z M52.8,65     c-5.4,0-9.7-4.4-9.7-9.7s4.4-9.7,9.7-9.7s9.7,4.4,9.7,9.7S58.2,65,52.8,65z"></path></g></g><g><g><path class="st0" d="M58.4,50.9l-7.3,6.4L48.3,54c-0.4-0.4-1-0.5-1.4-0.1c-0.4,0.4-0.5,1-0.1,1.4l3.4,4.1     c0.2,0.2,0.4,0.3,0.7,0.4c0.3,0,0.5-0.1,0.7-0.2l8.1-7.1c0.4-0.4,0.5-1,0.1-1.4C59.4,50.6,58.8,50.6,58.4,50.9z"></path></g></g></g></svg>