<svg xmlns="http://www.w3.org/2000/svg" width="18.922" height="17" viewBox="0 0 18.922 17">
  <g id="Group_4351" data-name="Group 4351" transform="translate(-777.062 -375.216)">
    <path id="Path_8082" data-name="Path 8082" d="M795.985,537.532a4.284,4.284,0,0,1-.6,1.652,4,4,0,0,1-2.973,1.869,5.279,5.279,0,0,1-.663.032H781.211a4.022,4.022,0,0,1-2.831-1.065,3.822,3.822,0,0,1-1.3-2.817c-.025-1.359-.009-2.719-.006-4.079a.953.953,0,1,1,1.905.006c0,1.274,0,2.547,0,3.821a2.165,2.165,0,0,0,.337,1.227,2.011,2.011,0,0,0,1.745.97q5.472.009,10.945,0a2.089,2.089,0,0,0,2.084-2.139c.006-1.286,0-2.572,0-3.857a.938.938,0,0,1,1.058-.981.963.963,0,0,1,.836.709Z" transform="translate(0 -148.87)" fill="#3232f5"/>
    <path id="Path_8083" data-name="Path 8083" d="M868.134,384.159q0,1.282,0,2.565a1.08,1.08,0,0,1-1.149,1.2q-1.337.022-2.675,0a1.076,1.076,0,0,1-1.144-1.185q0-2.62,0-5.24c0-.287,0-.287-.3-.287-.492,0-.984,0-1.476,0a.832.832,0,0,1-.9-.675.772.772,0,0,1,.241-.72c.17-.178.347-.349.521-.523l3.731-3.732a.824.824,0,0,1,1.338,0q2.094,2.094,4.188,4.189a.8.8,0,0,1,.166,1.109.88.88,0,0,1-.774.349c-.517,0-1.033.007-1.55,0-.171,0-.221.054-.219.223C868.138,382.338,868.134,383.248,868.134,384.159Z" transform="translate(-79.117)" fill="#3232f5"/>
  </g>
</svg>
