<svg xmlns="http://www.w3.org/2000/svg" width="330.385" height="323.966" viewBox="0 0 330.385 323.966">
  <g id="Group_6338" data-name="Group 6338" transform="translate(-2923.215 -709.454)">
    <path id="Path_9397" data-name="Path 9397" d="M2939.361,778.961v84.466a165.681,165.681,0,0,1,47.458-22.837c28.326-8.471,40.382-9,40.382-9V747.393a230.1,230.1,0,0,0-46.219,10.849A184.814,184.814,0,0,0,2939.361,778.961Z" transform="translate(22.798 53.57)" fill="#fff"/>
    <path id="Path_9398" data-name="Path 9398" d="M3091.529,809.579s-19.234-2.106-30.386-13.37l-13.163,28.423s-3.936-18.541-4.957-23.042-1.153-13.4-25.646-13.259l-19.318,0s-23.042-.861-30.888,12.1-8.174,19.52-8.174,19.52L2939.718,896l-5.36,26.066h120.033l-1.3-36.252s9.824.934,17.14-8.973a105.188,105.188,0,0,0,14.392-28.5c2.106-6.689,6.675-23.712,6.675-23.712Z" transform="translate(15.734 111.352)" fill="#1a1a1a"/>
    <path id="Path_9399" data-name="Path 9399" d="M2965.6,814.4l-.2-16.242s-5.014,1.594-7.25-4.675,8.307-7.409,9.366-6.872c0,0,6.664-3.128,9.4-4.812,5.111-3.15,9.083-11.975,9.083-11.975l3.1,4.424,2.757,16.235s.937,10.791-1.512,13.367a9.333,9.333,0,0,1-7.192,2.979l.572,7.605s1.937,6.223,2.214,7.289,1.737,6.136-2.858,7.521-8.423-1.445-10.7-4.175S2965.6,814.4,2965.6,814.4Z" transform="translate(48.887 85.244)" fill="#fff"/>
    <path id="Path_9400" data-name="Path 9400" d="M2989.043,813.067l3.881-6.578s2.233-11.824,3.181-12.7,1.968-3.427,7.072-3.3a7.5,7.5,0,0,0,1.094-.745c.13-.183,9.207-10.43,9.207-10.43a3.839,3.839,0,0,1,3.584.473c1.571,1.276,1.146,3.8.34,5.217s-5.439,7.547-5.439,7.547,4.682.046,5.167,2.154l-1.932,2.031-.6,18.553s-4.568,5.555-6.831,5.97C3007.77,821.256,2993.066,817.006,2989.043,813.067Z" transform="translate(92.949 98.286)" fill="#fff"/>
    <path id="Path_9401" data-name="Path 9401" d="M2998.25,788.49a13.1,13.1,0,0,0-3.049-11.435c-4.735-5.569-19.561-.2-19.561-.2s2.113-6.52-1.008-11.669-9.9-7.139-16.025-4.067-8.391,10.975-7.185,16.392,4.932,8.7,8.391,8.847a32.1,32.1,0,0,0,.3,14.424c2,7.74,6.874,13.85,14.824,14.4l-.032-2.68s-5.979.9-6.925-4.2a6.322,6.322,0,0,1,4.271-7.521,18.694,18.694,0,0,1,3.929.191,27.594,27.594,0,0,0,15.075-9.607c.965-1.29,4.32-6.906,4.32-6.906S2997.936,786.942,2998.25,788.49Z" transform="translate(39.383 70.897)" fill="#3232f5"/>
    <path id="Path_9402" data-name="Path 9402" d="M3001.248,837.878l-2.325,85.879s33.109-20.193,37.952-49.279V791.365a33.7,33.7,0,0,0-4.771-23.191c-7.3-11.659-24.185-18.252-24.185-18.252l-.365,82.934Z" transform="translate(106.899 57.141)" fill="#fff"/>
    <path id="Path_9403" data-name="Path 9403" d="M3050.768,817.883l-1.083,84.582s-32.5,9.373-59.611,7.528-45.572-8.616-55.586-18.427-10.825-21.028-10.825-21.028l-.189-87.659s-2.214,23.512,27.828,35.02,63.727,7.087,66.8,6.77C3023.995,824.063,3050.768,817.883,3050.768,817.883Z" transform="translate(0.314 103.675)" fill="#fff"/>
    <path id="Path_9404" data-name="Path 9404" d="M2964.143,822.761s39.653-3.522,51.619-11.549v29.267s-21.264,10.094-51.619,11.5Z" transform="translate(57.788 143.682)" fill="#3232f5"/>
    <path id="Path_9405" data-name="Path 9405" d="M2991.928,795.963l2.316-3.927s-6.575-1.655-7.195-.376S2991.928,795.963,2991.928,795.963Z" transform="translate(90.064 115.39)" fill="#1a1a1a"/>
    <path id="Path_9406" data-name="Path 9406" d="M3003.055,794.222s-4.278,5.249-6.039,5.627a30.532,30.532,0,0,0,6.039,1.146Z" transform="translate(104.207 119.693)" fill="#1a1a1a"/>
    <circle id="Ellipse_3776" data-name="Ellipse 3776" cx="59.449" cy="59.449" r="59.449" transform="translate(3134.702 709.454)" fill="#3232f5"/>
    <path id="Path_9407" data-name="Path 9407" d="M3035.359,746.13a6.286,6.286,0,0,0-8.9,0l-2.424,2.424a6.283,6.283,0,0,0,0,8.9l17.723,17.726a6.29,6.29,0,0,0,8.9,0l36.489-35.6a6.292,6.292,0,0,0,0-8.9l-2.427-2.429a6.3,6.3,0,0,0-8.9,0l-29.615,28.729Z" transform="translate(139.754 23.943)" fill="#fff"/>
    <path id="Path_9408" data-name="Path 9408" d="M2947.725,776.036v25.252l-14.042,6.816V782.852Z" transform="translate(14.78 94.014)" fill="#3232f5"/>
    <path id="Path_9409" data-name="Path 9409" d="M3019.336,757.157v21.377s-8.078-4.013-15.639-5.08-13.085-1.481-13.085-1.481V750.6a61.277,61.277,0,0,1,16.79,2.253A98.736,98.736,0,0,1,3019.336,757.157Z" transform="translate(95.162 58.088)" fill="#1a1a1a"/>
    <path id="Path_9410" data-name="Path 9410" d="M3002.866,749.922l-.365,82.934s12.878-8.973,19.294-19.183,9.665-19.248,10.026-22.309,1.242-14.658-3.755-21.45S3020.973,758.789,3002.866,749.922Z" transform="translate(111.953 57.141)" fill="#3232f5"/>
    <path id="Path_9411" data-name="Path 9411" d="M2966.966,768.97c1.642,8.2.439,8.529.439,8.529h3.391l1.4-.716c.222-.736,1.891-6.768-1.032-11.594-3.121-5.15-9.9-7.139-16.025-4.067a11.64,11.64,0,0,0-1.573.97C2955.745,761.941,2965.53,761.794,2966.966,768.97Z" transform="translate(42.852 70.897)" fill="#fff"/>
    <path id="Path_9412" data-name="Path 9412" d="M2963.461,766.757c2.533.193,12.261,1.315,11.928,7.072-.384,6.607-12.147,17.029-12.183,17.063a27.656,27.656,0,0,0,2.923-1.387,32.683,32.683,0,0,0,8.04-6.838c.965-1.29,4.32-6.905,4.32-6.905s2.364,2.477,2.678,4.028a13.1,13.1,0,0,0-3.049-11.438C2975.152,764.864,2968.226,765.67,2963.461,766.757Z" transform="translate(56.467 79.597)" fill="#fff"/>
    <g id="Group_6288" data-name="Group 6288" transform="translate(3081.992 876.578)">
      <g id="Group_6282" data-name="Group 6282" transform="translate(0 11.618)">
        <path id="Path_9413" data-name="Path 9413" d="M2989.043,807.807c.543-2.586,3.461-8.107,3.493-8.164l1.92-7.48c.077-.359.166-.738.26-1.112.634-2.5,1.495-5.287,3.707-6.681a7.23,7.23,0,0,1,3.942-.811,26,26,0,0,1,5.19.572,9.528,9.528,0,0,1,2.427.8,4.069,4.069,0,0,1,2.089,5.145,4.916,4.916,0,0,1-2.926,2.559,14.878,14.878,0,0,1-4.607.714,14.011,14.011,0,0,1-6.754-1.505c2.275-.118,4.3.355,6.406.355a14.449,14.449,0,0,0,4.554-.646,3.856,3.856,0,0,0,2.267-1.932,2.935,2.935,0,0,0-1.563-3.666,8.335,8.335,0,0,0-2.137-.7,24.693,24.693,0,0,0-4.954-.543,5.586,5.586,0,0,0-3.321.632c-1.848,1.165-2.619,3.7-3.2,5.987-.094.364-.176.731-.261,1.1l-1.973,7.624c-.169.352-3.015,5.736-4.066,7.472A.582.582,0,0,1,2989.043,807.807Z" transform="translate(-2989.043 -783.559)" fill="#1a1a1a"/>
      </g>
      <g id="Group_6283" data-name="Group 6283" transform="translate(22.346 23.26)">
        <path id="Path_9414" data-name="Path 9414" d="M3001.709,799.163a3.632,3.632,0,0,1-3.2-2.921,5.662,5.662,0,0,1,.348-3.915,14.576,14.576,0,0,1,2.617-3.941c-.162,1.949-.97,3.025-1.561,4.4a4.527,4.527,0,0,0-.3,3.114c.419,1.346,1.085,2,2.154,2.113C3002.25,798.943,3002,799.163,3001.709,799.163Z" transform="translate(-2998.308 -788.386)" fill="#1a1a1a"/>
      </g>
      <g id="Group_6284" data-name="Group 6284" transform="translate(15.246)">
        <path id="Path_9415" data-name="Path 9415" d="M3002.638,793.927a13,13,0,0,1,2.808-5.106c1.978-2.472,3.52-4.4,2.852-6.971-.273-1.066-1.069-2.2-2.364-1.9a4.8,4.8,0,0,0-1.964,1.179,53.63,53.63,0,0,0-8.605,10.036,26.427,26.427,0,0,1,7.854-10.914,5.886,5.886,0,0,1,2.457-1.423c1.971-.475,3.3,1.042,3.743,2.728.808,3.131-1.068,5.48-2.72,7.55-1.437,1.811-2.528,3.2-3.6,4.59A.575.575,0,0,1,3002.638,793.927Z" transform="translate(-2995.364 -778.742)" fill="#1a1a1a"/>
      </g>
      <g id="Group_6285" data-name="Group 6285" transform="translate(22.893 13.685)">
        <path id="Path_9416" data-name="Path 9416" d="M3003.832,788c-.885-1.452-1.519-2.038-2.607-2.308a2.454,2.454,0,0,0-2.679.683c-.152-1.8,1.269-2.226,2.954-1.8a3.758,3.758,0,0,1,2.883,2.675C3003.951,787.988,3003.89,788,3003.832,788Z" transform="translate(-2998.534 -784.416)" fill="#1a1a1a"/>
      </g>
      <g id="Group_6286" data-name="Group 6286" transform="translate(15.292 20.443)">
        <path id="Path_9417" data-name="Path 9417" d="M3000.323,795.009a5.146,5.146,0,0,1-4.45-2.4c-.583-1.054-.938-2.849.685-5.4-.072,2.258-.3,3.717.325,4.838a3.966,3.966,0,0,0,3.435,1.8,4.455,4.455,0,0,0,2.933-1.471,21.715,21.715,0,0,0,1.5-1.7c.284-.347.581-.709.931-1.1.528,1.151.239,1.5-.039,1.84a23.01,23.01,0,0,1-1.58,1.775,5.533,5.533,0,0,1-3.7,1.811Z" transform="translate(-2995.383 -787.218)" fill="#1a1a1a"/>
      </g>
      <g id="Group_6287" data-name="Group 6287" transform="translate(15.464 27.028)">
        <path id="Path_9418" data-name="Path 9418" d="M2995.455,797.351a15.392,15.392,0,0,0,1.669-7.4c1.167.053,1.486,3.787-1.215,7.188A.58.58,0,0,1,2995.455,797.351Z" transform="translate(-2995.455 -789.948)" fill="#1a1a1a"/>
      </g>
    </g>
    <g id="Group_6289" data-name="Group 6289" transform="translate(3076.484 905.638)">
      <path id="Path_9419" data-name="Path 9419" d="M3017.538,806.66c-3.191,0-8.78-1.515-15.333-4.158-5.83-2.347-16.54-7.567-15.355-10.516.514-1.271,2.036-1.213,2.926-1.184a13.7,13.7,0,0,1,4.815.991,13.24,13.24,0,0,1-4.783.166c-.917-.036-1.691-.019-1.884.458-.364.9,4.5,4.9,14.716,9.016,6.327,2.547,11.893,4.072,14.9,4.074C3018.114,806.4,3017.856,806.66,3017.538,806.66Z" transform="translate(-2986.759 -790.791)" fill="#1a1a1a"/>
    </g>
    <g id="Group_6290" data-name="Group 6290" transform="translate(3025.107 860.6)">
      <path id="Path_9420" data-name="Path 9420" d="M2968.9,804.169c-1.085,0-2.255-.024-3.442-.108a11.322,11.322,0,0,1,5.347-1.068c3.21-.058,5.678-.1,7.566-1.881a6.511,6.511,0,0,0,1.445-2.024,12.4,12.4,0,0,0,.8-3.394,26.484,26.484,0,0,0,.214-4.3,69.7,69.7,0,0,0-.841-7.979c-.555-3.845-2.28-11.221-2.3-11.293,1.2.041,2.878,7.236,3.348,10.48a74.769,74.769,0,0,1,.943,8.76,26.861,26.861,0,0,1-.222,4.491,13.156,13.156,0,0,1-.9,3.714,7.643,7.643,0,0,1-1.7,2.388c-2.215,2.084-5.022,2.135-7.735,2.183C2970.228,804.159,2969.579,804.169,2968.9,804.169Z" transform="translate(-2965.459 -772.118)" fill="#1a1a1a"/>
    </g>
    <path id="Path_9421" data-name="Path 9421" d="M2965.5,775.439c.448-.13.779.027,1.124,1.657.383,1.816-.051,2.2-.466,2.238s-.9-.478-1.05-1.792S2964.919,775.61,2965.5,775.439Z" transform="translate(59.024 93.121)" fill="#1a1a1a"/>
    <path id="Path_9422" data-name="Path 9422" d="M2970.354,774.412c.442-.147.779,0,1.177,1.616.444,1.8.024,2.2-.391,2.253s-.914-.446-1.11-1.753S2969.773,774.6,2970.354,774.412Z" transform="translate(65.911 91.658)" fill="#1a1a1a"/>
    <g id="Group_6291" data-name="Group 6291" transform="translate(3034.801 861.548)">
      <path id="Path_9423" data-name="Path 9423" d="M2973.058,774.093a3.483,3.483,0,0,0-3.58-.157c1.795-1.963,2.974-1.517,3.9-.9C2973.429,774,2973.246,774.093,2973.058,774.093Z" transform="translate(-2969.478 -772.511)" fill="#1a1a1a"/>
    </g>
    <g id="Group_6292" data-name="Group 6292" transform="translate(3006.457 870.932)">
      <path id="Path_9424" data-name="Path 9424" d="M2964.322,789.589a6.594,6.594,0,1,1,2.352-12.755,3.523,3.523,0,0,1,2.217,1.493c-1.739-.3-2.342-.345-2.349-.345a5.866,5.866,0,0,0-3.37-.3,5.438,5.438,0,1,0,4.877,9.274,2.511,2.511,0,0,1-2.325,2.48A6.514,6.514,0,0,1,2964.322,789.589Z" transform="translate(-2957.727 -776.402)" fill="#1a1a1a"/>
    </g>
    <g id="Group_6293" data-name="Group 6293" transform="translate(3010.635 874.52)">
      <path id="Path_9425" data-name="Path 9425" d="M2960.817,784.56c-.4-.994,2.774-4,2.774-4l-4.132-2.465c.588-.991,5.376,1.867,5.376,1.867.1.912-3.623,4.436-3.623,4.436A.556.556,0,0,1,2960.817,784.56Z" transform="translate(-2959.46 -777.889)" fill="#1a1a1a"/>
    </g>
    <g id="Group_6294" data-name="Group 6294" transform="translate(3014.217 892.095)">
      <path id="Path_9426" data-name="Path 9426" d="M2976.829,808.9a7.6,7.6,0,0,1-2.374-.4,18,18,0,0,1-7.265-5.128,37.534,37.534,0,0,1-6.246-9.817c2.718,3.242,4.754,6.445,7.1,9.045a16.874,16.874,0,0,0,6.771,4.8,5.216,5.216,0,0,0,4.281-.229c3.729-2.185,2.4-5.8.987-9.631a18.614,18.614,0,0,1-1.322-4.747s-.026-.3-.574-7.627c1.153-.084,1.708,7.354,1.725,7.528a17.956,17.956,0,0,0,1.251,4.448c1.371,3.722,3.073,8.353-1.481,11.025A5.618,5.618,0,0,1,2976.829,808.9Z" transform="translate(-2960.944 -785.176)" fill="#1a1a1a"/>
    </g>
    <g id="Group_6295" data-name="Group 6295" transform="translate(3013.756 883.41)">
      <path id="Path_9427" data-name="Path 9427" d="M2961.477,798.387c-.574-.569-.724-16.812-.724-16.812,1.151-.012,1.3,16.228,1.3,16.228C2961.482,798.387,2961.477,798.387,2961.477,798.387Z" transform="translate(-2960.753 -781.575)" fill="#1a1a1a"/>
    </g>
    <g id="Group_6296" data-name="Group 6296" transform="translate(3032.599 899.121)">
      <path id="Path_9428" data-name="Path 9428" d="M3001.957,843.515a329.392,329.392,0,0,0-7.088-38.879,31.439,31.439,0,0,0-2.95-8.1c-4.207-7.221-12.982-7.258-20.724-7.286-.893,0-1.773-.007-2.629-.019a2.762,2.762,0,0,1,2.638-1.136c8.052.031,17.174.068,21.711,7.863a32.414,32.414,0,0,1,3.075,8.4,250.573,250.573,0,0,1,6.541,38.532C3001.991,843.515,3001.976,843.515,3001.957,843.515Z" transform="translate(-2968.565 -788.089)" fill="#1a1a1a"/>
    </g>
    <g id="Group_6297" data-name="Group 6297" transform="translate(3030.749 865.801)">
      <path id="Path_9429" data-name="Path 9429" d="M2973.177,786.71c-.109-2.651-.008-4.74-.352-5.007a6.528,6.528,0,0,0-2.745.929c-.835-.408-2.281-8.353-2.281-8.353,1.134-.207,2.446,6.985,2.446,6.985,1.122-.521,2.578-1.011,3.285-.475,1.138.883.526,4.122.212,5.475A.575.575,0,0,1,2973.177,786.71Z" transform="translate(-2967.798 -774.274)" fill="#1a1a1a"/>
    </g>
    <g id="Group_6298" data-name="Group 6298" transform="translate(2974.913 899.103)">
      <path id="Path_9430" data-name="Path 9430" d="M2945.226,817.22c-.485-.13-.649-.458-.547-.76,3.823-11.544,8.435-19.026,13.709-22.243,6.221-3.792,12.6-6.136,25.141-6.136-12.275,1.155-18.491,3.437-24.535,7.123-5.036,3.07-9.486,10.343-13.22,21.619A.58.58,0,0,1,2945.226,817.22Z" transform="translate(-2944.649 -788.081)" fill="#1a1a1a"/>
    </g>
    <g id="Group_6299" data-name="Group 6299" transform="translate(2997.862 844.69)">
      <path id="Path_9431" data-name="Path 9431" d="M2970.094,807.491c-9.74-.929-16.406-11.317-15.9-24.7.181-4.848,1.739-8.56,4.628-11.032,4.332-3.7,10.133-3.36,11.184-3.268,1.746-.741,17.038-6.891,22.231,1.066,4.059,6.206,2.593,11.672,2.53,11.9a47.124,47.124,0,0,0-3.372-4.554c-1.295,2.943-6.551,13.008-18.878,16.394a31.813,31.813,0,0,0,18.124-17.588c.975-.2,2.284.837,3.266,2.858a15.528,15.528,0,0,0-2.631-8.382c-4.868-7.453-20.792-.649-20.948-.581-.359.039-6.479-.63-10.76,3.037-2.634,2.253-4.051,5.68-4.224,10.191-.478,12.755,5.75,22.641,14.808,23.512C2970.637,807.269,2970.386,807.491,2970.094,807.491Z" transform="translate(-2954.163 -765.522)" fill="#1a1a1a"/>
    </g>
    <g id="Group_6300" data-name="Group 6300" transform="translate(3028.113 880.157)">
      <path id="Path_9432" data-name="Path 9432" d="M2970.994,784.049a3.923,3.923,0,0,1-1.814-.424,5.464,5.464,0,0,1-2.474-3.377c1.131-.241,1.582,1.623,3.007,2.352a3.689,3.689,0,0,0,3.148-.133C2972.487,783.878,2971.71,784.049,2970.994,784.049Z" transform="translate(-2966.706 -780.226)" fill="#1a1a1a"/>
    </g>
    <g id="Group_6301" data-name="Group 6301" transform="translate(2989.898 830.204)">
      <path id="Path_9433" data-name="Path 9433" d="M2959.4,787.145c-6.78-1.727-9.093-8.8-8.435-14.655.652-5.827,4.534-12.721,13.319-12.967,4.4-.113,7.773,1.146,9.974,3.77,4.289,5.118,2.619,13.476,2.544,13.83-1.112-.316.5-8.408-3.432-13.095-1.963-2.335-4.954-3.488-9.057-3.35-8.044.227-11.6,6.575-12.2,11.939s1.464,11.853,7.434,13.389C2959.9,786.969,2959.662,787.145,2959.4,787.145Z" transform="translate(-2950.862 -759.516)" fill="#1a1a1a"/>
    </g>
    <g id="Group_6302" data-name="Group 6302" transform="translate(2961.872 892.18)">
      <path id="Path_9434" data-name="Path 9434" d="M2939.242,810.6c14.788-11.327,32.451-19.515,52.181-25.393-19.281,6.951-36.843,15.089-51.856,25.292A.587.587,0,0,1,2939.242,810.6Z" transform="translate(-2939.242 -785.211)" fill="#1a1a1a"/>
    </g>
    <g id="Group_6303" data-name="Group 6303" transform="translate(3040.742 884.585)">
      <path id="Path_9435" data-name="Path 9435" d="M2971.941,784.554a23.88,23.88,0,0,1,9.188-2.492c-3.026,1.524-5.873,1.937-9.091,2.482A.689.689,0,0,1,2971.941,784.554Z" transform="translate(-2971.941 -782.062)" fill="#1a1a1a"/>
    </g>
    <g id="Group_6304" data-name="Group 6304" transform="translate(2962.161 806.197)">
      <path id="Path_9436" data-name="Path 9436" d="M2939.362,776.476c15.468-11.838,34.27-20.333,55.558-26.308q1.1-.308,2.2-.605a2.292,2.292,0,0,1-1.892,1.72c-21.167,5.936-39.856,14.378-55.548,25.089A.566.566,0,0,1,2939.362,776.476Z" transform="translate(-2939.362 -749.563)" fill="#1a1a1a"/>
    </g>
    <g id="Group_6305" data-name="Group 6305" transform="translate(3037.614 800.389)">
      <path id="Path_9437" data-name="Path 9437" d="M2970.645,750.139c4.018-1.889,8.2-2.509,12.32-2.984-3.968,1.618-8.121,2.233-12.219,2.972A.5.5,0,0,1,2970.645,750.139Z" transform="translate(-2970.645 -747.155)" fill="#1a1a1a"/>
    </g>
    <g id="Group_6306" data-name="Group 6306" transform="translate(3107.298 806.961)">
      <path id="Path_9438" data-name="Path 9438" d="M2999.786,860.546c-.576-.593.022-22.625.022-22.625,2.35-1.942,4.373-3.449,6.307-4.978l.365-82.963c.806-.526,4.679,1.163,5.951,1.758,12.219,5.724,20.258,14.392,23.256,25.073,4.971,17.716-5.632,38.573-28.534,56.781-2.138,1.7-4.125,3.182-6.2,4.65l-.591,21.742A.573.573,0,0,1,2999.786,860.546Zm7.839-109.683-.352,81.154c21.947-17.74,32.082-37.856,27.3-54.894-2.9-10.345-10.727-18.766-22.635-24.337C3011.039,752.36,3008.827,751.388,3007.625,750.862Z" transform="translate(-2999.536 -749.88)" fill="#1a1a1a"/>
    </g>
    <g id="Group_6307" data-name="Group 6307" transform="translate(3105.704 917.033)">
      <path id="Path_9439" data-name="Path 9439" d="M2998.993,859.956c-.579-.6,1.15-64.441,1.15-64.441,1.151.031-.576,63.879-.576,63.879A.574.574,0,0,1,2998.993,859.956Z" transform="translate(-2998.875 -795.515)" fill="#1a1a1a"/>
    </g>
    <g id="Group_6308" data-name="Group 6308" transform="translate(3105.822 905.451)">
      <path id="Path_9440" data-name="Path 9440" d="M2998.923,866.737c22.747-16.689,36.58-35.377,37.622-52.331.031-.728.022-23.693.022-23.693,1.153,0,1.16,22.989,1.16,22.989-1.1,18.088-15.108,37.1-38.478,52.934A.61.61,0,0,1,2998.923,866.737Z" transform="translate(-2998.923 -790.713)" fill="#1a1a1a"/>
    </g>
    <g id="Group_6309" data-name="Group 6309" transform="translate(3143.445 840.79)">
      <path id="Path_9441" data-name="Path 9441" d="M3015.117,815.744c-.577-.576-.6-51.839-.6-51.839,1.151,0,1.17,51.262,1.17,51.262A.576.576,0,0,1,3015.117,815.744Z" transform="translate(-3014.521 -763.905)" fill="#1a1a1a"/>
    </g>
    <g id="Group_6310" data-name="Group 6310" transform="translate(3049.612 987.755)">
      <path id="Path_9442" data-name="Path 9442" d="M2976.006,843.8c-.574-.586-.341-18.961-.341-18.961,1.153.017.917,18.389.917,18.389A.576.576,0,0,1,2976.006,843.8Z" transform="translate(-2975.619 -824.836)" fill="#1a1a1a"/>
    </g>
    <g id="Group_6311" data-name="Group 6311" transform="translate(3050.329 921.549)">
      <path id="Path_9443" data-name="Path 9443" d="M2976.206,834.141c-.576-.584-.115-36.754-.115-36.754,1.156.017.69,36.185.69,36.185A.571.571,0,0,1,2976.206,834.141Z" transform="translate(-2975.916 -797.387)" fill="#1a1a1a"/>
    </g>
    <g id="Group_6312" data-name="Group 6312" transform="translate(2948.21 920.671)">
      <path id="Path_9444" data-name="Path 9444" d="M2982.231,806.4c-18.765,0-35.722-3.138-48.653-9.373,24.808,10.678,63.561,11.327,101.633.639l1.078-.306a1.107,1.107,0,0,1-.76,1.418A199.677,199.677,0,0,1,2982.231,806.4Z" transform="translate(-2933.578 -797.023)" fill="#1a1a1a"/>
    </g>
    <g id="Group_6313" data-name="Group 6313" transform="translate(2923.215 886.555)">
      <path id="Path_9445" data-name="Path 9445" d="M2932.427,805.429a32.31,32.31,0,0,1-8-13.768,32.916,32.916,0,0,1-1.208-8.782c1.158,2.88,1.553,5.731,2.323,8.469a33,33,0,0,0,7.318,13.119C2932.7,805.381,2932.562,805.429,2932.427,805.429Z" transform="translate(-2923.215 -782.879)" fill="#1a1a1a"/>
    </g>
    <g id="Group_6314" data-name="Group 6314" transform="translate(2977.039 951.966)">
      <path id="Path_9446" data-name="Path 9446" d="M2965.357,812.434a147.481,147.481,0,0,1-19.826-1.29A251.5,251.5,0,0,0,2986.473,810,77.283,77.283,0,0,1,2965.357,812.434Z" transform="translate(-2945.53 -809.998)" fill="#1a1a1a"/>
    </g>
    <g id="Group_6315" data-name="Group 6315" transform="translate(2975.982 961.819)">
      <path id="Path_9447" data-name="Path 9447" d="M2965.975,816.524a146.487,146.487,0,0,1-20.883-1.442,242.551,242.551,0,0,0,42-1A77.03,77.03,0,0,1,2965.975,816.524Z" transform="translate(-2945.092 -814.083)" fill="#1a1a1a"/>
    </g>
    <g id="Group_6316" data-name="Group 6316" transform="translate(2923.215 913.915)">
      <path id="Path_9448" data-name="Path 9448" d="M2996.9,894.7a138.47,138.47,0,0,1-28.776-2.849c-23.83-5.087-39.354-16.431-43.705-31.94a32.783,32.783,0,0,1-1.2-7.931l-.012-1.182V794.222c1.15,0,1.163,57.738,1.163,57.738a31.641,31.641,0,0,0,1.16,7.641c4.228,15.08,19.438,26.129,42.835,31.124,23.531,5.022,52.461,3.3,81.47-4.838A161.931,161.931,0,0,1,2996.9,894.7Z" transform="translate(-2923.215 -794.222)" fill="#1a1a1a"/>
    </g>
    <g id="Group_6317" data-name="Group 6317" transform="translate(2923.215 887.59)">
      <path id="Path_9449" data-name="Path 9449" d="M2923.789,810.209c-.573-.576-.573-26.9-.573-26.9,1.15,0,1.15,26.324,1.15,26.324A.578.578,0,0,1,2923.789,810.209Z" transform="translate(-2923.215 -783.308)" fill="#1a1a1a"/>
    </g>
    <g id="Group_6318" data-name="Group 6318" transform="translate(2961.585 832.531)">
      <path id="Path_9450" data-name="Path 9450" d="M2939.7,845.523c-.576-.579-.576-85.042-.576-85.042,1.151,0,1.151,84.463,1.151,84.463A.577.577,0,0,1,2939.7,845.523Z" transform="translate(-2939.123 -760.481)" fill="#1a1a1a"/>
    </g>
    <g id="Group_6319" data-name="Group 6319" transform="translate(3049.425 800.963)">
      <path id="Path_9451" data-name="Path 9451" d="M2976.116,832.165c-.574-.579-.574-84.772-.574-84.772,1.151,0,1.151,84.193,1.151,84.193A.579.579,0,0,1,2976.116,832.165Z" transform="translate(-2975.542 -747.393)" fill="#1a1a1a"/>
    </g>
    <g id="Group_6320" data-name="Group 6320" transform="translate(3116.406 910.972)">
      <path id="Path_9452" data-name="Path 9452" d="M3003.311,810.6c4.422-4.742,11.4-10.627,17.525-17.6-5.318,7.8-12.354,13.736-17.173,17.475A.541.541,0,0,1,3003.311,810.6Z" transform="translate(-3003.311 -793.002)" fill="#1a1a1a"/>
    </g>
    <g id="Group_6321" data-name="Group 6321" transform="translate(3069.698 934.549)">
      <path id="Path_9453" data-name="Path 9453" d="M2983.946,865.971c20.562-1.155,31.874-39.933,36.814-63.194C3016.88,826.627,3005.316,865.971,2983.946,865.971Z" transform="translate(-2983.946 -802.777)" fill="#1a1a1a"/>
    </g>
    <g id="Group_6322" data-name="Group 6322" transform="translate(3063.699 906.917)">
      <path id="Path_9454" data-name="Path 9454" d="M2981.474,820.965c-.523-.82,12.822-29.644,12.822-29.644,1.049.485-12.3,29.308-12.3,29.308A.582.582,0,0,1,2981.474,820.965Z" transform="translate(-2981.459 -791.321)" fill="#1a1a1a"/>
    </g>
    <g id="Group_6323" data-name="Group 6323" transform="translate(3101.223 912.663)">
      <path id="Path_9455" data-name="Path 9455" d="M2997.016,801.161c2.371-2.672,4.445-4.821,5.871-7.458-.511,3.37-2.728,5.668-5.574,7.376A.572.572,0,0,1,2997.016,801.161Z" transform="translate(-2997.016 -793.703)" fill="#1a1a1a"/>
    </g>
    <g id="Group_6324" data-name="Group 6324" transform="translate(3021.931 950.191)">
      <path id="Path_9456" data-name="Path 9456" d="M2964.143,821.894c.313-1.182,36.1-4.219,51.344-12.632-14.906,9.544-50.934,12.6-51.3,12.629Z" transform="translate(-2964.143 -809.262)" fill="#1a1a1a"/>
    </g>
    <g id="Group_6325" data-name="Group 6325" transform="translate(3021.931 979.408)">
      <path id="Path_9457" data-name="Path 9457" d="M2964.143,834.007c.313-1.182,36.1-4.219,51.344-12.632-14.906,9.544-50.934,12.6-51.3,12.629Z" transform="translate(-2964.143 -821.375)" fill="#1a1a1a"/>
    </g>
    <g id="Group_6326" data-name="Group 6326" transform="translate(3021.354 962.246)">
      <path id="Path_9458" data-name="Path 9458" d="M2964.48,844.147c-.576-.579-.576-29.887-.576-29.887,1.15,0,1.15,29.308,1.15,29.308A.576.576,0,0,1,2964.48,844.147Z" transform="translate(-2963.903 -814.26)" fill="#1a1a1a"/>
    </g>
    <g id="Group_6327" data-name="Group 6327" transform="translate(3072.978 950.654)">
      <path id="Path_9459" data-name="Path 9459" d="M2985.88,839.339c-.574-.577-.574-29.885-.574-29.885,1.151,0,1.151,29.308,1.151,29.308A.576.576,0,0,1,2985.88,839.339Z" transform="translate(-2985.306 -809.454)" fill="#1a1a1a"/>
    </g>
    <g id="Group_6328" data-name="Group 6328" transform="translate(2947.252 864.158)">
      <path id="Path_9460" data-name="Path 9460" d="M2933.755,806.772c-.574-.577-.574-25.828-.574-25.828,4.631-3.29,14-7.185,14.4-7.352.347,1.1-8.849,4.932-13.247,7.67v23.9a135.976,135.976,0,0,1,13.247-6.322c.347,1.107-9.231,5.092-13.509,7.839A.591.591,0,0,1,2933.755,806.772Z" transform="translate(-2933.181 -773.593)" fill="#1a1a1a"/>
    </g>
    <g id="Group_6329" data-name="Group 6329" transform="translate(3085.198 814.384)">
      <path id="Path_9461" data-name="Path 9461" d="M2990.949,774.911c-.577-.577-.577-21.954-.577-21.954,20.577.442,29.25,5.847,29.612,6.078-.7.917-9.261-4.392-28.459-5.468v20.767A.577.577,0,0,1,2990.949,774.911Z" transform="translate(-2990.372 -752.957)" fill="#1a1a1a"/>
    </g>
    <g id="Group_6330" data-name="Group 6330" transform="translate(3085.745 836.333)">
      <path id="Path_9462" data-name="Path 9462" d="M3019.353,768.625c-.393-.147-9.132-5.567-28.753-6.566,20.029-.133,28.7,5.27,29.064,5.5C3019.731,768.528,3019.54,768.625,3019.353,768.625Z" transform="translate(-2990.6 -762.057)" fill="#1a1a1a"/>
    </g>
    <g id="Group_6334" data-name="Group 6334" transform="translate(3142.475 716.174)">
      <g id="Group_6333" data-name="Group 6333">
        <g id="Group_6332" data-name="Group 6332">
          <g id="Group_6331" data-name="Group 6331">
            <path id="Path_9463" data-name="Path 9463" d="M3066.344,819.294a53.889,53.889,0,0,1-52.225-41.728c6.455,23.4,27.943,40.572,52.225,40.572a52.372,52.372,0,1,0-44.873-79.393c8.8-16.819,25.948-26.505,44.873-26.505a53.527,53.527,0,0,1,0,107.054Z" transform="translate(-3014.119 -712.24)" fill="#1a1a1a"/>
          </g>
        </g>
      </g>
    </g>
    <g id="Group_6335" data-name="Group 6335" transform="translate(3160.179 743.02)">
      <path id="Path_9464" data-name="Path 9464" d="M3046.052,775.134a6.8,6.8,0,0,1-4.855-2.014l-17.726-17.726a6.865,6.865,0,0,1,0-9.711l2.424-2.424a6.856,6.856,0,0,1,9.713,0l10.451,10.449,29.2-28.334a6.871,6.871,0,0,1,9.708.007l2.429,2.429a6.883,6.883,0,0,1,0,9.711l-36.494,35.606A6.829,6.829,0,0,1,3046.052,775.134Zm-15.3-32.736a5.683,5.683,0,0,0-4.041,1.674l-2.424,2.426a5.7,5.7,0,0,0,0,8.078l17.723,17.731a5.718,5.718,0,0,0,8.083,0l36.5-35.6a5.732,5.732,0,0,0,0-8.075l-2.429-2.429a5.721,5.721,0,0,0-8.083,0l-29.619,28.737c-.81-.007-11.662-10.861-11.662-10.861A5.688,5.688,0,0,0,3030.75,742.4Z" transform="translate(-3021.459 -723.37)" fill="#1a1a1a"/>
    </g>
    <g id="Group_6336" data-name="Group 6336" transform="translate(2999.048 719.404)">
      <path id="Path_9465" data-name="Path 9465" d="M2956.054,797.953c-.587-.54-1.189-3-1.4-7.135,1.358,3.953,1.954,6.394,1.961,6.421C2956.15,797.948,2956.1,797.953,2956.054,797.953Zm-.758-13.227a20.786,20.786,0,0,1,.263-7.272,17.3,17.3,0,0,1,.311,6.734A.573.573,0,0,1,2955.3,784.726Zm2.393-13.049c-.47-.113-.646-.439-.552-.743a61.237,61.237,0,0,1,2.279-6.3,17.181,17.181,0,0,1-1.177,6.635A.573.573,0,0,1,2957.689,771.677Zm5.174-12.2a16.657,16.657,0,0,1,3.042-6.537,16.949,16.949,0,0,1-2.537,6.24A.575.575,0,0,1,2962.863,759.472Zm7.566-10.888a15.64,15.64,0,0,1,4.1-5.856,16.358,16.358,0,0,1-3.669,5.654A.571.571,0,0,1,2970.43,748.584Zm9.421-9.342a14.913,14.913,0,0,1,4.9-5.135,15.839,15.839,0,0,1-4.525,5A.575.575,0,0,1,2979.851,739.243Zm10.719-7.812a14.421,14.421,0,0,1,5.432-4.462,15.33,15.33,0,0,1-5.123,4.371A.57.57,0,0,1,2990.57,731.43Zm106.5-.752c-2.058-1.288-3.942-2.465-5.926-3.6a11.959,11.959,0,0,1,6.252,2.545C3097.431,730.591,3097.25,730.678,3097.067,730.678Zm-94.89-5.688a13.98,13.98,0,0,1,5.84-3.835c-1.568,1.9-3.6,2.808-5.589,3.777A.562.562,0,0,1,3002.176,724.99Zm83.361-.922c-2.212-1-4.25-1.9-6.3-2.709a11.95,11.95,0,0,1,6.546,1.609C3085.955,723.946,3085.752,724.069,3085.537,724.069Zm-71.089-4.153a13.31,13.31,0,0,1,6.209-3.075c-1.781,1.674-3.91,2.323-6.021,3.044A.5.5,0,0,1,3014.448,719.916Zm58.747-.755c-2.262-.695-4.4-1.3-6.532-1.819,2.429-.593,4.595.017,6.71.692C3073.666,719,3073.439,719.161,3073.2,719.161Zm-45.927-2.692a12.5,12.5,0,0,1,6.488-2.2,15.736,15.736,0,0,1-6.38,2.19A.539.539,0,0,1,3027.269,716.469Zm33.03-.453c-2.251-.379-4.451-.668-6.641-.88a11.887,11.887,0,0,1,6.737-.268C3060.816,715.815,3060.576,716.015,3060.3,716.015Zm-19.854-1.175a12.045,12.045,0,0,1,6.65-1.25c-2.187,1.107-4.428,1.139-6.62,1.247Z" transform="translate(-2954.655 -713.579)" fill="#1a1a1a"/>
    </g>
    <path id="Path_9466" data-name="Path 9466" d="M2953.9,812.015V831.12s-12.142.142-20.214-6.566V804.774S2939.462,810.416,2953.9,812.015Z" transform="translate(14.781 134.592)" fill="#1a1a1a"/>
    <g id="Group_6337" data-name="Group 6337" transform="translate(3116.826 930.369)">
      <path id="Path_9467" data-name="Path 9467" d="M3003.485,810.892a138.472,138.472,0,0,1,10.582-9.848c-2.583,3.866-6.291,6.855-10.241,9.737A.579.579,0,0,1,3003.485,810.892Z" transform="translate(-3003.485 -801.044)" fill="#1a1a1a"/>
    </g>
  </g>
</svg>
