<svg xmlns="http://www.w3.org/2000/svg" width="464" height="277.959" viewBox="0 0 464 277.959">
  <g id="Group_5124" data-name="Group 5124" transform="translate(-2924.211 -97.744)">
    <rect id="Rectangle_503" data-name="Rectangle 503" width="90.747" height="90.747" transform="translate(3218.052 133.249)" fill="#3232f5"/>
    <path id="Rectangle_504" data-name="Rectangle 504" d="M5.03,0H241.719a5.03,5.03,0,0,1,5.03,5.03V161.388a5.031,5.031,0,0,1-5.031,5.031H5.031A5.031,5.031,0,0,1,0,161.388V5.03A5.03,5.03,0,0,1,5.03,0Z" transform="translate(3006.384 184.435)" fill="#fefefe"/>
    <path id="Path_8622" data-name="Path 8622" d="M2952.717,193.654V176.438s-6.889,1.793-7.738-4.529,5.551-6.823,6.712-6.363,3.352,1.551,3.352,1.551,3.272-2.516,4.51-4.938,1.943-7.754,1.943-7.754,4.543,4.562,8.456,4.671a36.993,36.993,0,0,0,6.558-.345l.158,1.553a7.782,7.782,0,0,1,3.17,6.6c-.079,4.549-1.45,6.628-2.634,7.144l-.162,7.039s-.684,5.474-6.283,5.691l.863,7.431-3.872,14.768Z" transform="translate(21.808 59.718)" fill="#fefefe"/>
    <path id="Path_8623" data-name="Path 8623" d="M2969.514,176.488s-13.57,2.284-19.5,10.009-12.034,16.275-16.207,27.615-3.971,10.87-5.717,16.425a112.138,112.138,0,0,0-3.633,21.747c-.3,5.671,1.5,15.115,9.082,19.319s11.675,4.457,11.675,4.457-.063,7.016-.127,9.73.127,6.453.127,6.453h80.595s-2.329-9.218-2.754-12.765-1.064-11.888-1.064-11.888l-6.945.271s-8.657-2.991-8.908-9.728,0-20.233,0-20.233l3.354-3.463a32.028,32.028,0,0,0-7.8-12.116c-5.85-5.73-6.324-6.262-6.324-6.262s4.734-8.245,5.766-10.446,1.888-6.632,4.888-5.981l-.074-19.915-8.94-3.079Z" transform="translate(0.231 82.992)" fill="#1a1a1a"/>
    <path id="Path_8624" data-name="Path 8624" d="M2951.16,174.027l-4.78,5.571,10.826,23.613,1.938-2.347,6.883,19.481,3.177-2.533,2.833,1.6,2.684-4.466-1.547-15.783.605.84.095-20.259-4.238-6.213Z" transform="translate(23.365 79.881)" fill="#fefefe"/>
    <path id="Path_8625" data-name="Path 8625" d="M3123.348,193.075s-11.042.54-14.075-9.851,2.1-14.737,4.32-15.711,4.233-5.248,5.126-6.84,3.085-5.733,7.978-6.271,8.659.5,10.586,2.859c0,0,5.083-1.282,8.754.6a17.91,17.91,0,0,1,9.36,9.873s1.331,4.262.719,7.31-1.654,4.73-.622,6.872,1.98,3.241.444,5.427-7.092,5.554-10.58,5.733Z" transform="translate(194.062 59.569)" fill="#fefefe"/>
    <path id="Path_8626" data-name="Path 8626" d="M3120.466,190.628s4.291-6,10.561-8.224,13.571-3.985,16.426-4.112l15.975-.277s10.344-.454,14.723,1.619,8.121,2.567,13.718,14.643c0,0,6.041,11.194,7.458,14.371s6.591,15.655,7.559,22.094,3.151,17.917-3.151,27.872c0,0-3.982,6.186-6.279,6.657l-.07,25.284h-81.115a48.86,48.86,0,0,0,3.281-13.291c.62-7.092.836-10.931.836-10.931s-11.011.542-16.783-9.062c0,0-5.992-7.828-7.18-12.813a35.394,35.394,0,0,0-2.315-7.17Z" transform="translate(179.065 84.557)" fill="#1a1a1a"/>
    <path id="Path_8627" data-name="Path 8627" d="M3113.393,169.068s2.2,11.278,3.13,14.854,3,9.493,8.853,8.454c.378.493,2.087,7.361,2.087,7.361s-1.51,11.455,1.637,11.777,11.644-9.487,13.49-12.2l-4.8-18.728s5.886-1.491,4.562-6.5c0,0-.865-4.459-6.858-2.83a9.957,9.957,0,0,1-4.212-6.154c-.963-4.274-1.432-6.207-1.432-6.207a14.153,14.153,0,0,1-7.571,4.9C3117.576,164.815,3113.943,167.674,3113.393,169.068Z" transform="translate(199.388 64.444)" fill="#fefefe"/>
    <path id="Path_8628" data-name="Path 8628" d="M3120.343,193.685l-3.385,4.252-1.06-3.089S3119.428,193.111,3120.343,193.685Z" transform="translate(202.028 100.994)" fill="#fefefe"/>
    <path id="Path_8629" data-name="Path 8629" d="M3125.943,193.777l-5.12,6.08-3.862,1.132,5.451,15.9s3.932-.273,5.113-.509a20.319,20.319,0,0,1,5.2,6.735,39.721,39.721,0,0,0,6.872-5.047,86.894,86.894,0,0,0,6.351-7.343s-5.737-7.69-8.561-10.584S3132.458,194.816,3125.943,193.777Z" transform="translate(203.149 101.214)" fill="#fefefe"/>
    <path id="Path_8630" data-name="Path 8630" d="M3096.121,193.24l2.358,6.464s5.667.916,8.316.626,6.39.251,6.068,3.075a7.942,7.942,0,0,1-1.226,3.917s2.481,1.709,2.216,3.49a10.2,10.2,0,0,1-1.214,3.342,2.394,2.394,0,0,1,1.576,2.319c.137,1.945-.7,3.494-3.1,4.319s-8.7,2.22-13.9.337-6.56-11.829-6.854-15.337S3091.541,195.957,3096.121,193.24Z" transform="translate(175.076 100.648)" fill="#fefefe"/>
    <path id="Path_8631" data-name="Path 8631" d="M3038.564,169.329a12.953,12.953,0,0,0-7.723-3.444c-5.024-.534-5.254.4-5.254.4s-2.6-1.222-4.229-.4-1.28,3.253-1.28,3.253-2.389,1.454-1.163,5.983a13.816,13.816,0,0,0,2.543,8.185c2.816,3.89,3.956,5.174,4.739,6.792a34.361,34.361,0,0,1,1.584,4.486s5.693-2.8,9.7-2.923a62.1,62.1,0,0,1,8.241.4s-1.245-5.4-1.243-6.386a31,31,0,0,0-.566-6.069c-.436-1.4-1.81-4.482-1.81-4.482l-8.661-.493-5.26-5.49Z" transform="translate(99.447 71.516)" fill="#fefefe"/>
    <path id="Path_8632" data-name="Path 8632" d="M3057.944,179.22c-.018.294-.117,1.976-.117,1.976l2.557-.094Z" transform="translate(140.825 85.871)" fill="#fefefe"/>
    <path id="Path_8633" data-name="Path 8633" d="M3072.76,183.342s4.042,2.648,6.7-.692a4.934,4.934,0,0,0-.82-7.32c-1.3-.721-4.286-1.6-6.39.17a9.307,9.307,0,0,1-6.423-5.864,33.384,33.384,0,0,1-2.155-9.74s-3.235.351-5.6,6.336l-1.486,9.491s-4.742.9-5.1,2.374,3.089,4.451,3.089,4.451-1.665,9.865,7.573,10.58c0,0,1.85-3.8,4.5-4.868s4.956-1.651,5.6-2.325S3073.69,184.628,3072.76,183.342Z" transform="translate(134.113 65.505)" fill="#fefefe"/>
    <path id="Path_8634" data-name="Path 8634" d="M3116.414,201.284l9.178-10.893,3.969,3.345-8.162,9.688-3.548,1.04Z" transform="translate(202.572 97.646)" fill="#3232f5"/>
    <path id="Path_8635" data-name="Path 8635" d="M3120.882,191.308l1.5-1.786,3.893,3.022-1.427,1.81Z" transform="translate(207.281 96.729)" fill="#fefefe"/>
    <path id="Path_8636" data-name="Path 8636" d="M3098.08,207.362l-7.471-21.78H3132.9l21.009,61.5-42.017.09Z" transform="translate(175.376 92.577)" fill="#fefefe"/>
    <path id="Path_8637" data-name="Path 8637" d="M3092.627,186.439l-.7-2.031,41.971-.128,21.463,61.778h-3.587l-20.268-59.1Z" transform="translate(176.768 91.204)" fill="#3232f5"/>
    <path id="Path_8638" data-name="Path 8638" d="M3070.649,186.735a3.052,3.052,0,0,1-2.738,2.65c-2.541.353-7.384,3.019-8.211,6.119s.5,8.121,9.38,9.777,14.825.409,16.724-.54,6.11-2.711,5.632-6.965-4.523-6.542-5.336-7.23-.567-2.222-.237-3.81,3.206-11.761,3.305-12.769.7-5.8-1.857-9.376-9.257-5.182-9.257-5.182-6.708-2.288-11.147-2.14-9.057.246-10.746,3.163-3.259,5.714-1.191,10.3a10.436,10.436,0,0,1,5.969-8.277s.829,8.857,2.906,11.383,3.475,4.26,5.427,4.379a4.765,4.765,0,0,1,3.4-1.271,5.747,5.747,0,0,1,5.381,4.823s-.452,4.81-3.374,5.314S3070.649,186.735,3070.649,186.735Z" transform="translate(136.774 62.727)" fill="#1a1a1a"/>
    <path id="Path_8639" data-name="Path 8639" d="M3099.54,182.179s-9.1,1.146-12.521,4.993a47.276,47.276,0,0,0-8.218,12.535c-1.861,4.371-4.589,11.428-5.462,13.047s-2.964,6.8-8.155,5.977-5.671-4.845-6.5-7.386-9.81-29.967-9.81-29.967-5.6-4.344-14.876-2.88-13.324,7.7-13.324,7.7,2.531,15.31,4.114,21.5,4.539,16.857,7.729,23.16,10.389,17.282,21.949,19.445,19.255,0,22.164-1.183c.359.16-1.137,41.217-1.137,41.217l65.344.1-1.3-34.471s6.889,4.256,12.279.969,5.574-8.265,5.386-11.264a71.627,71.627,0,0,0-2.779-14.573,117.621,117.621,0,0,0-9.156-21.353c-4.973-8.692-11.132-17.82-11.132-17.82a23.15,23.15,0,0,0-7.567-7.261c-4.631-2.506-5.361-1.82-5.361-1.82a31.5,31.5,0,0,1-11.215,1.251A48.568,48.568,0,0,1,3099.54,182.179Z" transform="translate(101.669 84.793)" fill="#3232f5"/>
    <path id="Path_8640" data-name="Path 8640" d="M3023.247,167.322l18.93,1.065-.293,5.183-13.377-.759Z" transform="translate(104.379 73.332)" fill="#1a1a1a"/>
    <rect id="Rectangle_505" data-name="Rectangle 505" width="5.191" height="2.527" transform="translate(3146.263 246.902) rotate(-86.766)" fill="#fefefe"/>
    <path id="Path_8641" data-name="Path 8641" d="M3022.205,166.959l-6.228,2.59,4.929,2.59S3021.211,167.861,3022.205,166.959Z" transform="translate(96.718 72.949)" fill="#fefefe"/>
    <path id="Path_8642" data-name="Path 8642" d="M3076.579,196.011s-3.771,30.312-28.55,41.35l-.111-7.01s7.359-1.616,15.277-10.245S3076.579,196.011,3076.579,196.011Z" transform="translate(130.381 103.568)" fill="#1a1a1a"/>
    <path id="Path_8643" data-name="Path 8643" d="M3105.959,205.379s-1.146,5.864-6.751,6.511l-1.309-2.775S3103.306,209.388,3105.959,205.379Z" transform="translate(183.059 113.442)" fill="#b5b5b5"/>
    <rect id="Rectangle_506" data-name="Rectangle 506" width="21.984" height="21.984" transform="translate(3241.442 234.877)" fill="#fefefe"/>
    <path id="Path_8644" data-name="Path 8644" d="M3086.5,166.942a1.6,1.6,0,1,1-1.6-1.6A1.6,1.6,0,0,1,3086.5,166.942Z" transform="translate(167.659 71.241)" fill="#3232f5"/>
    <path id="Path_8645" data-name="Path 8645" d="M3040.87,151.14a1.17,1.17,0,1,1-1.168-1.171A1.169,1.169,0,0,1,3040.87,151.14Z" transform="translate(120.488 55.042)" fill="#3232f5"/>
    <rect id="Rectangle_507" data-name="Rectangle 507" width="17.204" height="36.781" transform="translate(3221.755 147.54)" fill="#1a1a1a"/>
    <path id="Path_8646" data-name="Path 8646" d="M3082.95,131.631v20.5l2.7,4,.479,8.4h13.922V131.631Z" transform="translate(167.303 35.715)" fill="#fff"/>
    <rect id="Rectangle_508" data-name="Rectangle 508" width="16.976" height="20.902" transform="translate(3278.781 179.357)" fill="#fff"/>
    <path id="Path_8647" data-name="Path 8647" d="M2958.872,204.485s3.469-5.638,4.878-8.366,2.381-5.782,2.956-6.757,1.509-1.994,3.017-1.551,1.728,1.727,1.639,3.412-1.67,5.585-1.522,6.737.584,2.935,2.936,2.288,5.116-3,6.373-4.153,6.218-6.024,6.218-6.024a3.186,3.186,0,0,1,3.59-.265,2.913,2.913,0,0,1,1.155,3.368,3.611,3.611,0,0,1,2.259,1.019c.8.93,1.148,2.629.485,3.11a1.527,1.527,0,0,0,.8,1.232c.842.577.933,2.042.355,3.28s-4.788,6.384-8.729,9.53-10.372,7.345-13.032,8.1c0,0-3.9-5.622-6.072-8.238A68.171,68.171,0,0,0,2958.872,204.485Z" transform="translate(36.531 94.813)" fill="#fefefe"/>
    <path id="Path_8648" data-name="Path 8648" d="M2950.012,165.328l-.186,3.08-2.352-3.064Z" transform="translate(24.518 71.23)" fill="#1a1a1a"/>
    <path id="Path_8649" data-name="Path 8649" d="M2954.263,171.628s4.32-3.179,5.491-6.881a25.788,25.788,0,0,0,1.273-6.034,11.624,11.624,0,0,0,9.208,4.685c6.471.3,5.907-.583,5.907-.583l.012,1.323,1.216.719a16.78,16.78,0,0,0-.18-6.143c-.75-2.81-2.892-5.075-6.386-6.846a15.22,15.22,0,0,0-8.68-1.382c-.82.292-4.724,1.325-5.4,2.175-.565.421-5.248.69-7.3,2.687s-3.43,3.658-3.837,6.938-.378,7.082.653,8.77a5.5,5.5,0,0,1,3.706-1.321A7,7,0,0,1,2954.263,171.628Z" transform="translate(22.279 55.41)" fill="#3232f5"/>
    <path id="Path_8650" data-name="Path 8650" d="M2954.165,166.3s2.225.963,2.861,2.389a4.435,4.435,0,0,1,.255,2.765,6.269,6.269,0,0,0,3.771-.288c1.765-.815,1.879-2.459,1.313-3.149s-2.033-.168-2.859-.121-1.84-.008-2.148-.781-1.023-2.4-2.2-2.259S2954.165,166.3,2954.165,166.3Z" transform="translate(31.559 70.726)" fill="#1a1a1a"/>
    <path id="Path_8651" data-name="Path 8651" d="M2953.482,189.73l4.257,5.9-.876,10.461,1.679,6.167,3.693-2.349,2.317,1.421,2.684-4.466-.773-5.5-3.4-6.237.558-6.911-5.044-7.006Z" transform="translate(30.85 87.967)" fill="#3232f5"/>
    <path id="Path_8652" data-name="Path 8652" d="M3124.869,178.243l.333,1.333s-1.758,11.613,1.456,11.7,8.8-6.279,9.806-7.415,3.865-4.716,3.865-4.716l-.442-1.13,2.75.1a40.418,40.418,0,0,1-1.552,11.479c-1.727,5.673-3.634,9.7-6.825,9.75a7.382,7.382,0,0,1-6.115-3.369,13.5,13.5,0,0,1-1.243-3.859s-5.54,5.057-8.021,4.835-4.348-2.424-2.751-6.375,6.563-11.884,6.563-11.884Z" transform="translate(201.649 84.606)" fill="#3232f5"/>
    <path id="Path_8653" data-name="Path 8653" d="M2971.508,162.257h39.814V122.445a38.864,38.864,0,0,0-28.89,12.42C2969.886,148.4,2971.508,162.257,2971.508,162.257Z" transform="translate(49.776 26.011)" fill="#1a1a1a"/>
    <path id="Path_8654" data-name="Path 8654" d="M3016.874,127.139v40.284H2976.59a40.283,40.283,0,1,0,40.284-40.284Z" transform="translate(55.205 30.981)" fill="#3232f5"/>
    <path id="Path_8655" data-name="Path 8655" d="M2960.3,151.8a15.164,15.164,0,0,0-4.989-1.425c-.072.041,11.141,5.946,7.764,13,2.1-.07,2.506-.368,2.563-.528l.012,1.22,1.216.719a16.754,16.754,0,0,0-.183-6.143C2965.938,155.839,2963.8,153.574,2960.3,151.8Z" transform="translate(32.78 55.473)" fill="#fff"/>
    <path id="Path_8656" data-name="Path 8656" d="M2957.4,154.288s-4.3,10.529-8.6,11.381l2.046,1.6c.9-.709,4.252-3.508,5.26-6.7a25.772,25.772,0,0,0,1.273-6.035C2957.506,154.7,2957.4,154.288,2957.4,154.288Z" transform="translate(25.922 59.594)" fill="#fff"/>
    <path id="Path_8657" data-name="Path 8657" d="M3060.939,162.356s.829,8.857,2.906,11.383,3.475,4.26,5.427,4.379c-6.92-4.457-6.242-18.944-6.127-20.765-3.069.253-5.776.893-6.984,2.98-1.688,2.915-3.259,5.714-1.191,10.3A10.436,10.436,0,0,1,3060.939,162.356Z" transform="translate(136.774 62.825)" fill="#fff"/>
    <path id="Path_8658" data-name="Path 8658" d="M3064.33,189.7a4.247,4.247,0,0,1-1.916-1.684,6.858,6.858,0,0,1-1.015-2.4,9.709,9.709,0,0,1,.446-6,6.268,6.268,0,0,1,2.013-2.4,23.989,23.989,0,0,1,2.582-1.43,6.505,6.505,0,0,0,1.836-1.378,5.855,5.855,0,0,0,1.31-1.812s-.357-.257-.924-.657a2.583,2.583,0,0,1-.838-.337,3.052,3.052,0,0,1-2.738,2.65c-2.54.353-7.384,3.019-8.211,6.119C3056.108,183.238,3057.2,187.724,3064.33,189.7Z" transform="translate(139.601 77.852)" fill="#fff"/>
    <path id="Path_8659" data-name="Path 8659" d="M2955.128,184.16l3.495,4.255-.217,6.737,6.723,12.047-.054-4.85-3.745-7.393.933-6.911-5.445-6.676Z" transform="translate(32.586 88.136)" fill="#fff"/>
    <g id="Group_4988" data-name="Group 4988" transform="translate(3112.297 236.677)">
      <g id="Group_4982" data-name="Group 4982" transform="translate(0 2.793)">
        <g id="Group_4979" data-name="Group 4979" transform="translate(15.3 1.268)">
          <path id="Path_8660" data-name="Path 8660" d="M3041.9,173.995c-.027,0-13.007-.729-13.007-.729.053-.935,12.565-.232,12.565-.232l.24-4.248-18.465-1.039c.053-.935,18.985.133,18.985.133.441.491.148,5.675.148,5.675A.465.465,0,0,1,3041.9,173.995Z" transform="translate(-3023.233 -167.363)" fill="#1a1a1a"/>
        </g>
        <g id="Group_4980" data-name="Group 4980" transform="translate(33.935 1.917)">
          <path id="Path_8661" data-name="Path 8661" d="M3034.859,173.8c-.027,0-2.553-.142-2.553-.142.056-.935,2.112-.82,2.112-.82l.24-4.25-2.06-.117c.056-.932,2.58-.789,2.58-.789.441.493.15,5.675.15,5.675A.469.469,0,0,1,3034.859,173.8Z" transform="translate(-3032.306 -167.679)" fill="#1a1a1a"/>
        </g>
        <g id="Group_4981" data-name="Group 4981">
          <path id="Path_8662" data-name="Path 8662" d="M3021.543,173.06c-.218-.055-5.759-2.966-5.759-2.966.047-.85,6.456-3.348,6.456-3.348.339.873-5.113,3-5.113,3l4.634,2.436C3021.872,172.969,3021.711,173.06,3021.543,173.06Z" transform="translate(-3015.784 -166.746)" fill="#1a1a1a"/>
        </g>
      </g>
      <g id="Group_4983" data-name="Group 4983" transform="translate(6.685)">
        <path id="Path_8663" data-name="Path 8663" d="M3030.149,181.341c-8.894-5.745-10.724-9.972-11.046-11.989a3.633,3.633,0,0,1,.62-2.91c1.931-2.428,5.574.076,5.728.187.163.166,7.384,8.664,11.459,10.058-4.5-.55-11.375-8.54-12.042-9.321-.39-.257-3.115-1.966-4.415-.341a2.72,2.72,0,0,0-.424,2.181c.239,1.5,1.73,5.6,10.376,11.278C3030.45,181.269,3030.3,181.341,3030.149,181.341Z" transform="translate(-3019.038 -165.386)" fill="#1a1a1a"/>
      </g>
      <g id="Group_4984" data-name="Group 4984" transform="translate(5.115 2.713)">
        <path id="Path_8664" data-name="Path 8664" d="M3027.59,184.755c-.657-.4-9.017-7.444-9.308-13.568a5.745,5.745,0,0,1,1.711-4.48,16.823,16.823,0,0,0-.777,4.434c.273,5.72,8.59,12.716,8.674,12.786C3027.857,184.7,3027.724,184.755,3027.59,184.755Z" transform="translate(-3018.274 -166.707)" fill="#1a1a1a"/>
      </g>
      <g id="Group_4985" data-name="Group 4985" transform="translate(12.213 0.269)">
        <path id="Path_8665" data-name="Path 8665" d="M3035.645,170.3c-.37-.181-3.036-3.042-5.8-3.642-2.819-.61-8.064.253-8.115.263.067-.959,5.309-1.828,8.315-1.177,3.056.663,5.828,3.646,5.946,3.771C3035.873,170.258,3035.76,170.3,3035.645,170.3Z" transform="translate(-3021.73 -165.517)" fill="#1a1a1a"/>
      </g>
      <g id="Group_4986" data-name="Group 4986" transform="translate(28.85 10.187)">
        <path id="Path_8666" data-name="Path 8666" d="M3033.85,187.524c-.506-.511-1.886-4.913-1.7-7.875a18.412,18.412,0,0,0-2.315-9.29c.916-.29,3.563,4.213,3.249,9.35-.17,2.785,1.2,7.16,1.214,7.207C3033.944,187.515,3033.895,187.524,3033.85,187.524Z" transform="translate(-3029.83 -170.346)" fill="#1a1a1a"/>
      </g>
      <g id="Group_4987" data-name="Group 4987" transform="translate(5.602 9.9)">
        <path id="Path_8667" data-name="Path 8667" d="M3028.236,189.969c-1.156-1.951-2.7-5.336-3.34-6.186-2.177-2.68-7.512-9.222-6.172-13.577-.3,4.151,4.8,10.4,6.47,12.451a46.515,46.515,0,0,1,3.471,6.657C3028.365,189.957,3028.3,189.969,3028.236,189.969Z" transform="translate(-3018.511 -170.206)" fill="#1a1a1a"/>
      </g>
    </g>
    <g id="Group_4998" data-name="Group 4998" transform="translate(3317.926 285.801)">
      <g id="Group_4991" data-name="Group 4991" transform="translate(1.377)">
        <g id="Group_4989" data-name="Group 4989" transform="translate(0 1.935)">
          <path id="Path_8668" data-name="Path 8668" d="M3121.025,204.3c-.358-.768,7.719-10.352,7.719-10.352l-3.258-2.742-8.877,10.535c-.716-.6,8.463-11.494,8.463-11.494.661-.058,4.631,3.288,4.631,3.288.058.655-8.318,10.6-8.318,10.6A.473.473,0,0,1,3121.025,204.3Z" transform="translate(-3116.568 -190.245)" fill="#1a1a1a"/>
        </g>
        <g id="Group_4990" data-name="Group 4990" transform="translate(9.034)">
          <path id="Path_8669" data-name="Path 8669" d="M3124.762,195.348c-.357-.766.972-2.344.972-2.344l-3.256-2.74-1.331,1.573c-.715-.6.916-2.535.916-2.535.662-.058,4.629,3.288,4.629,3.288.058.657-1.571,2.59-1.571,2.59A.468.468,0,0,1,3124.762,195.348Z" transform="translate(-3120.967 -189.303)" fill="#1a1a1a"/>
        </g>
      </g>
      <g id="Group_4992" data-name="Group 4992" transform="translate(4.445 21.23)">
        <path id="Path_8670" data-name="Path 8670" d="M3118.062,201.874a9.739,9.739,0,0,1,4.108-2.235,6.968,6.968,0,0,1-3.993,2.222A.556.556,0,0,1,3118.062,201.874Z" transform="translate(-3118.062 -199.639)" fill="#1a1a1a"/>
      </g>
      <g id="Group_4993" data-name="Group 4993" transform="translate(2.185 13.75)">
        <path id="Path_8671" data-name="Path 8671" d="M3116.962,199.115c2.428-1.333,5.521-1.951,7.237-3.118-1.342,2.044-4.565,2.691-7.163,3.112A.3.3,0,0,1,3116.962,199.115Z" transform="translate(-3116.962 -195.997)" fill="#1a1a1a"/>
      </g>
      <g id="Group_4994" data-name="Group 4994" transform="translate(6.139 26.794)">
        <path id="Path_8672" data-name="Path 8672" d="M3118.886,203.96a27.346,27.346,0,0,1,4.281-1.612c.165.922-1.5,1.339-4.233,1.612Z" transform="translate(-3118.886 -202.348)" fill="#1a1a1a"/>
      </g>
      <g id="Group_4995" data-name="Group 4995" transform="translate(0 7.993)">
        <path id="Path_8673" data-name="Path 8673" d="M3115.9,195.71a7.99,7.99,0,0,1,4.961-2.516c.037.937-2.543,1.128-4.716,2.45A.462.462,0,0,1,3115.9,195.71Z" transform="translate(-3115.897 -193.194)" fill="#1a1a1a"/>
      </g>
      <g id="Group_4996" data-name="Group 4996" transform="translate(11.116 9.272)">
        <path id="Path_8674" data-name="Path 8674" d="M3141.365,211.144c-.458-.29-9.074-11.383-11.233-13.215a18.423,18.423,0,0,0-8.821-3.73c.318-.906,5.509-.318,9.429,3.015,2.229,1.9,10.638,12.716,11,13.176C3141.566,211.114,3141.465,211.144,3141.365,211.144Z" transform="translate(-3121.31 -193.817)" fill="#1a1a1a"/>
      </g>
      <g id="Group_4997" data-name="Group 4997" transform="translate(7.614 31.321)">
        <path id="Path_8675" data-name="Path 8675" d="M3130.182,212.219c-2.5-3.724-4.81-6.7-5.443-6.733a23.121,23.121,0,0,1-5.135.509,14.32,14.32,0,0,1,4.135-1.3,6.79,6.79,0,0,1,1-.144c1.5,0,4.586,4.866,5.844,6.959C3130.347,212.2,3130.264,212.219,3130.182,212.219Z" transform="translate(-3119.604 -204.552)" fill="#1a1a1a"/>
      </g>
    </g>
    <g id="Group_5000" data-name="Group 5000" transform="translate(3188.451 247.689)">
      <g id="Group_4999" data-name="Group 4999">
        <path id="Path_8676" data-name="Path 8676" d="M3054.076,176.284c-.141-.906.107-.91.639-1a3.4,3.4,0,0,0,2.424-1.81,1.867,1.867,0,0,0,.28-1.413c-1.2-.17-1.389.06-1.6.325a2.9,2.9,0,0,1-.887.828,2.143,2.143,0,0,1-2.068-.23,8.817,8.817,0,0,1,1.631-.6c.846-.9,1.13-1.249,1.581-1.464a1.73,1.73,0,0,1,1.306-.082,1.562,1.562,0,0,1,.885.83,2.625,2.625,0,0,1-.3,2.245,4.337,4.337,0,0,1-3.106,2.3A5.032,5.032,0,0,1,3054.076,176.284Z" transform="translate(-3052.861 -170.747)" fill="#1a1a1a"/>
      </g>
    </g>
    <g id="Group_5001" data-name="Group 5001" transform="translate(2924.211 259.326)">
      <path id="Path_8677" data-name="Path 8677" d="M2949.45,276.9c-10.422,0-22.164-6.225-24.51-16.713-3.05-13.642,4.309-34.794,6.639-40.947,4.584-12.127,6.925-16.614,12.1-24.8,8.216-13.01,16.337-16.614,26-18.025-9.544,2.337-17.165,5.776-25.214,18.525-5.129,8.127-7.453,12.587-12.014,24.635-2.3,6.092-9.59,27.022-6.6,40.409,2.489,11.151,16.15,17.263,26.853,15.762,19.786-2.76,53.666-38.374,56.513-41.4a32.97,32.97,0,0,0-6.026-9.688c-5.7-6.723-9.222-8.737-10.075-9.161-2.993,1.861-36.472,22.924-48.065,40.625,11.412-19.132,47.424-41.332,47.788-41.555.569.025,4.307,1.516,11.067,9.483,4.964,5.864,6.242,10.1,6.293,10.284-1.582,2.035-36.476,39.428-57.363,42.34A24.249,24.249,0,0,1,2949.45,276.9Z" transform="translate(-2924.211 -176.413)" fill="#1a1a1a"/>
    </g>
    <g id="Group_5005" data-name="Group 5005" transform="translate(2984.824 235.152)">
      <g id="Group_5003" data-name="Group 5003">
        <g id="Group_5002" data-name="Group 5002">
          <path id="Path_8678" data-name="Path 8678" d="M2959.08,172.261a5.294,5.294,0,0,1-5.17-4.057,3.278,3.278,0,0,1,.233-2.787,1.791,1.791,0,0,1,1.676-.758,2.636,2.636,0,0,1,1.982,1.6c.536,1.144.669,1.2.964,1.31s.433.173,1.6-.3a2.636,2.636,0,0,1,2.541.177,1.822,1.822,0,0,1,.71,1.7,3.436,3.436,0,0,1-1.766,2.327A5.262,5.262,0,0,1,2959.08,172.261Zm-3.463-6.677a1.914,1.914,0,0,0-.806,2.372,4.511,4.511,0,0,0,2.606,3.048,4.379,4.379,0,0,0,3.944-.331,2.607,2.607,0,0,0,1.327-1.619.9.9,0,0,0-.337-.859,1.727,1.727,0,0,0-1.634-.062c-1.382.557-1.727.534-2.294.31s-.836-.433-1.473-1.791a1.742,1.742,0,0,0-1.239-1.066A.749.749,0,0,0,2955.617,165.583Z" transform="translate(-2953.721 -164.643)" fill="#1a1a1a"/>
        </g>
      </g>
      <g id="Group_5004" data-name="Group 5004" transform="translate(0.381 2.224)">
        <path id="Path_8679" data-name="Path 8679" d="M2957.676,170.966c.424-4.04-3.6-5.129-3.769-5.172a3.746,3.746,0,0,1,4.223,4.821A.468.468,0,0,1,2957.676,170.966Z" transform="translate(-2953.907 -165.726)" fill="#1a1a1a"/>
      </g>
    </g>
    <g id="Group_5006" data-name="Group 5006" transform="translate(2954.829 287.518)">
      <path id="Path_8680" data-name="Path 8680" d="M2939.117,230.016c8.235-17.611,10.361-39.658,10.384-39.877.91.31-1.235,22.534-9.968,39.625A.465.465,0,0,1,2939.117,230.016Z" transform="translate(-2939.117 -190.139)" fill="#1a1a1a"/>
    </g>
    <g id="Group_5007" data-name="Group 5007" transform="translate(2981.463 233.908)">
      <path id="Path_8681" data-name="Path 8681" d="M2959.847,177.3q-1.476,0-3.2-.138a19.294,19.294,0,0,1-4.558-.867,12.282,12.282,0,0,1,4.632-.066c5.274.413,8.583-.117,10.411-1.686a5.785,5.785,0,0,0,1.843-4.2c.092-1.255.179-3.966.2-6.306a15.525,15.525,0,0,1,.735,6.373,6.666,6.666,0,0,1-2.169,4.843C2966.132,176.635,2963.587,177.3,2959.847,177.3Z" transform="translate(-2952.084 -164.038)" fill="#1a1a1a"/>
    </g>
    <g id="Group_5008" data-name="Group 5008" transform="translate(2997.952 218.433)">
      <path id="Path_8682" data-name="Path 8682" d="M2960.641,158.226a3.292,3.292,0,0,1-.528-1.721c.932-.045.994,1.234.994,1.234A5.771,5.771,0,0,1,2960.641,158.226Z" transform="translate(-2960.113 -156.503)" fill="#1a1a1a"/>
    </g>
    <g id="Group_5009" data-name="Group 5009" transform="translate(2974.056 236.155)">
      <path id="Path_8683" data-name="Path 8683" d="M2948.947,183.2c-.469-.466-.469-18.064-.469-18.064.937,0,.937,17.6.937,17.6A.466.466,0,0,1,2948.947,183.2Z" transform="translate(-2948.479 -165.132)" fill="#1a1a1a"/>
    </g>
    <g id="Group_5010" data-name="Group 5010" transform="translate(2966.32 224.789)">
      <path id="Path_8684" data-name="Path 8684" d="M2950.828,171.845a6.122,6.122,0,0,1-.734-12.2,6.026,6.026,0,0,1,4.507,1.265,6.113,6.113,0,0,1,1.894,2.512,8.69,8.69,0,0,1-2.471-1.779,5.054,5.054,0,0,0-3.816-1.066,5.118,5.118,0,0,0-3.455,1.943,5.181,5.181,0,0,0,7.312,7.244A3.063,3.063,0,0,1,2950.828,171.845Z" transform="translate(-2944.712 -159.598)" fill="#1a1a1a"/>
    </g>
    <g id="Group_5011" data-name="Group 5011" transform="translate(2992.104 246.529)">
      <path id="Path_8685" data-name="Path 8685" d="M2958.59,178.028c-.464-.413-1.324-7.844-1.324-7.844.932-.107,1.789,7.324,1.789,7.324C2958.625,178.028,2958.607,178.028,2958.59,178.028Z" transform="translate(-2957.266 -170.182)" fill="#1a1a1a"/>
    </g>
    <g id="Group_5012" data-name="Group 5012" transform="translate(2976.541 214.119)">
      <path id="Path_8686" data-name="Path 8686" d="M2949.688,167.789c6.139-5.363,6.293-13.305,6.293-13.386,1.046-.012,6,6.277,15.466,3.839-7.691,2.941-12.779-.947-14.608-2.728-.269,2.448-1.48,8.388-6.88,12.192A.478.478,0,0,1,2949.688,167.789Z" transform="translate(-2949.688 -154.403)" fill="#1a1a1a"/>
    </g>
    <g id="Group_5013" data-name="Group 5013" transform="translate(2970.643 227.887)">
      <path id="Path_8687" data-name="Path 8687" d="M2946.883,167.571c-.216-.881,3.551-2.853,3.551-2.853l-3.617-3.537c.656-.668,4.733,3.321,4.733,3.321-.111.746-4.449,3.015-4.449,3.015A.487.487,0,0,1,2946.883,167.571Z" transform="translate(-2946.816 -161.106)" fill="#1a1a1a"/>
    </g>
    <g id="Group_5014" data-name="Group 5014" transform="translate(2978.645 208.692)">
      <path id="Path_8688" data-name="Path 8688" d="M2953.43,154.813a35.3,35.3,0,0,1-2.718-2.968c.719-.6,3.075,2.2,3.075,2.2C2953.644,154.776,2953.537,154.813,2953.43,154.813Z" transform="translate(-2950.712 -151.761)" fill="#1a1a1a"/>
    </g>
    <g id="Group_5015" data-name="Group 5015" transform="translate(2967.01 205.411)">
      <path id="Path_8689" data-name="Path 8689" d="M2946.339,171.491c-.551-.649-2.939-8.36.641-13.782,1.863-2.818,4.993-4.474,9.31-4.917.9-.725,6.493-4.773,15.171-1.126,7.32,3.069,7.351,9.929,6.716,13.745-.206-4.482-.688-10.2-7.08-12.886-8.719-3.66-14.084.875-14.31,1.07-4.358.5-7.305,2.025-9.027,4.63-3.337,5.053-1,12.583-.977,12.658C2946.433,171.483,2946.385,171.491,2946.339,171.491Z" transform="translate(-2945.048 -150.163)" fill="#1a1a1a"/>
    </g>
    <g id="Group_5016" data-name="Group 5016" transform="translate(2971.308 236.751)">
      <path id="Path_8690" data-name="Path 8690" d="M2950.362,168.926a13.443,13.443,0,0,1-3.22-3.43c.807-.479,2.048,1.479,3.5,2.59C2950.643,168.862,2950.5,168.926,2950.362,168.926Z" transform="translate(-2947.141 -165.422)" fill="#1a1a1a"/>
    </g>
    <g id="Group_5017" data-name="Group 5017" transform="translate(2992.371 224.758)">
      <path id="Path_8691" data-name="Path 8691" d="M2959.035,170.874c.688-1.214,1.031-1.337,1.339-1.51a1.583,1.583,0,0,0,.826-.955,1.179,1.179,0,0,0-.193-.877,2.045,2.045,0,0,0-1.395-.82c-.1-.014-.882-.076-1.064-.08-.522-.433-1.153-6.965-1.153-6.965l.931-.084.59,6.113c1.735.244,2.452.682,2.871,1.323a2.1,2.1,0,0,1,.327,1.588,2.458,2.458,0,0,1-1.278,1.571,7.354,7.354,0,0,1-1.163.493A2.293,2.293,0,0,1,2959.035,170.874Z" transform="translate(-2957.396 -159.583)" fill="#1a1a1a"/>
    </g>
    <g id="Group_5018" data-name="Group 5018" transform="translate(3194.379 233.932)">
      <path id="Path_8692" data-name="Path 8692" d="M3059.741,166.039a3.357,3.357,0,0,0-3.994-.789c.439-1.339,2.615-1.844,4.337,0C3059.969,166,3059.858,166.039,3059.741,166.039Z" transform="translate(-3055.747 -164.049)" fill="#1a1a1a"/>
    </g>
    <path id="Path_8693" data-name="Path 8693" d="M3056.539,166.13c-.374-.062-.624.1-.737,1.444-.124,1.5.265,1.766.6,1.754s.675-.472.663-1.545S3057.028,166.21,3056.539,166.13Z" transform="translate(138.665 72.063)" fill="#1a1a1a"/>
    <g id="Group_5019" data-name="Group 5019" transform="translate(3205.74 239.321)">
      <path id="Path_8694" data-name="Path 8694" d="M3065.2,177.8a5.547,5.547,0,0,1-3.194-1.009,14.188,14.188,0,0,1,3.177.074,4.63,4.63,0,1,0-3.9-7.092c.238-2.13,2-3.1,3.923-3.1a5.564,5.564,0,1,1,0,11.128Z" transform="translate(-3061.278 -166.673)" fill="#1a1a1a"/>
    </g>
    <g id="Group_5020" data-name="Group 5020" transform="translate(3207.165 241.882)">
      <path id="Path_8695" data-name="Path 8695" d="M3065.736,173.7c-.256-.074-3.764-2.393-3.764-2.393-.023-.768,3.506-3.385,3.506-3.385.556.754-2.434,2.972-2.434,2.972l2.953,1.951C3066.037,173.626,3065.891,173.7,3065.736,173.7Z" transform="translate(-3061.972 -167.92)" fill="#1a1a1a"/>
    </g>
    <g id="Group_5021" data-name="Group 5021" transform="translate(3198.288 265.067)">
      <path id="Path_8696" data-name="Path 8696" d="M3058.013,181.675c-.466-.5-.351-2.467-.351-2.467.937.051.817,2.027.817,2.027A.463.463,0,0,1,3058.013,181.675Z" transform="translate(-3057.65 -179.208)" fill="#1a1a1a"/>
    </g>
    <g id="Group_5022" data-name="Group 5022" transform="translate(3177.036 333.539)">
      <path id="Path_8697" data-name="Path 8697" d="M3047.429,254.608c-.583-9.475,1.038-41.74,1.055-42.063.916.37-.7,32.6-.587,41.588C3047.434,254.608,3047.431,254.608,3047.429,254.608Z" transform="translate(-3047.303 -212.545)" fill="#1a1a1a"/>
    </g>
    <g id="Group_5025" data-name="Group 5025" transform="translate(3024.495 151.857)">
      <g id="Group_5023" data-name="Group 5023" transform="translate(0.468 0.468)">
        <path id="Path_8698" data-name="Path 8698" d="M3013.523,165.042h-40.26c0-.932,39.791-.932,39.791-.932V124.318c.937,0,.937,40.257.937,40.257A.468.468,0,0,1,3013.523,165.042Z" transform="translate(-2973.263 -124.318)" fill="#1a1a1a"/>
      </g>
      <g id="Group_5024" data-name="Group 5024">
        <path id="Path_8699" data-name="Path 8699" d="M3013.764,205.543a40.729,40.729,0,1,1,27.463-10.652c7.605-8.218,12.328-18.927,12.328-30.076a39.752,39.752,0,1,0-32.931,39.2A12.552,12.552,0,0,1,3013.764,205.543Z" transform="translate(-2973.035 -124.09)" fill="#1a1a1a"/>
      </g>
    </g>
    <g id="Group_5026" data-name="Group 5026" transform="translate(2997.167 260)">
      <path id="Path_8700" data-name="Path 8700" d="M2968.934,180.493a23.906,23.906,0,0,0-9.2-3.66c3.323-.435,6.195.711,9.455,2.8C2969.239,180.415,2969.086,180.493,2968.934,180.493Z" transform="translate(-2959.731 -176.741)" fill="#1a1a1a"/>
    </g>
    <g id="Group_5027" data-name="Group 5027" transform="translate(3021.757 351.201)">
      <path id="Path_8701" data-name="Path 8701" d="M2975.99,245.646c-2.371-6.069-3.667-14.207-4.287-24.5,1.551,10.159,2.829,18.21,4.731,23.883C2976.091,245.637,2976.039,245.646,2975.99,245.646Z" transform="translate(-2971.703 -221.144)" fill="#1a1a1a"/>
    </g>
    <g id="Group_5028" data-name="Group 5028" transform="translate(2944.825 359.02)">
      <path id="Path_8702" data-name="Path 8702" d="M2934.869,241.633a99.652,99.652,0,0,1-.467-16.682c.926.148.374,8.347.933,16.181C2934.889,241.633,2934.877,241.633,2934.869,241.633Z" transform="translate(-2934.247 -224.951)" fill="#1a1a1a"/>
    </g>
    <g id="Group_5029" data-name="Group 5029" transform="translate(2993.242 219.344)">
      <path id="Path_8703" data-name="Path 8703" d="M2962.351,172.333a2.815,2.815,0,0,1-1.322-.288c.69-.7.979-.651,1.374-.645,1.9-.039,3.443-3.167,3.368-6.829s-1.752-6.71-3.642-6.69c-.885.016-1.723.7-2.364,1.925a10.342,10.342,0,0,0-1.006,4.9,8.973,8.973,0,0,0,.852,4c-1.431-.7-1.752-2.185-1.789-3.983a11.328,11.328,0,0,1,1.115-5.363,3.862,3.862,0,0,1,3.171-2.422c2.522,0,4.512,3.323,4.6,7.6.086,4.311-1.8,7.731-4.286,7.782Z" transform="translate(-2957.82 -156.947)" fill="#1a1a1a"/>
    </g>
    <g id="Group_5030" data-name="Group 5030" transform="translate(2981.908 219.122)">
      <path id="Path_8704" data-name="Path 8704" d="M2956.847,172.221c-2.464,0-4.457-3.321-4.543-7.6a11.325,11.325,0,0,1,1.115-5.359c.806-1.536,1.933-2.4,3.171-2.42a3.215,3.215,0,0,1,2.264.98c1.384,1.327,2.28,3.863,2.335,6.62a11.278,11.278,0,0,1-1.115,5.363,3.855,3.855,0,0,1-3.171,2.42Zm-.2-14.45a3,3,0,0,0-2.4,1.92,10.316,10.316,0,0,0-1.007,4.907c.07,3.642,1.719,6.69,3.607,6.69a3,3,0,0,0,2.4-1.925,10.338,10.338,0,0,0,1.006-4.9c-.052-2.518-.834-4.8-2.048-5.967A2.255,2.255,0,0,0,2956.65,157.771Z" transform="translate(-2952.302 -156.839)" fill="#1a1a1a"/>
    </g>
    <g id="Group_5031" data-name="Group 5031" transform="translate(3350.165 308.292)">
      <path id="Path_8705" data-name="Path 8705" d="M3154.415,223.489c-5.965-9.964-18.966-20.65-22.821-23.236,4.422,1.842,17.586,12.665,23.228,22.536C3154.571,223.469,3154.493,223.489,3154.415,223.489Z" transform="translate(-3131.594 -200.253)" fill="#1a1a1a"/>
    </g>
    <g id="Group_5032" data-name="Group 5032" transform="translate(3272.536 321.908)">
      <path id="Path_8706" data-name="Path 8706" d="M3119.539,236.331a18.767,18.767,0,0,1-3.931-.425c-9.937-2.146-18.111-16.123-21.808-29.024,4.516,12.375,12.446,26.048,22.006,28.11a17.818,17.818,0,0,0,4.7.376C3120.216,236.321,3119.878,236.331,3119.539,236.331Z" transform="translate(-3093.799 -206.882)" fill="#1a1a1a"/>
    </g>
    <g id="Group_5033" data-name="Group 5033" transform="translate(3330.324 262.394)">
      <path id="Path_8707" data-name="Path 8707" d="M3160.669,267.959c-14.349,0-33.122-19.968-38.735-26.33,16.187,16.937,31.093,26.611,40.615,25.264,9.58-1.356,15.24-12.782,15.7-22.84.464-10.151-2.648-22.39-9.249-36.371-1.335-2.832-2.851-5.628-4.315-8.331-.861-1.592-1.726-3.182-2.558-4.79q-.385-.746-.763-1.5c-1.787-3.514-3.636-7.15-6.733-9.68-6.737-5.507-17.085-5.024-21.226-4.562,4.153-1.4,14.8-1.894,21.819,3.835,3.25,2.658,5.141,6.382,6.971,9.984.254.5.507.994.762,1.487.832,1.6,1.69,3.192,2.551,4.775,1.469,2.717,2.991,5.525,4.338,8.378,6.667,14.123,9.81,26.508,9.335,36.813-.476,10.434-6.424,22.3-16.505,23.727A14.436,14.436,0,0,1,3160.669,267.959Z" transform="translate(-3121.934 -177.907)" fill="#1a1a1a"/>
    </g>
    <g id="Group_5034" data-name="Group 5034" transform="translate(3299.531 262.376)">
      <path id="Path_8708" data-name="Path 8708" d="M3106.942,191.175c5.256-8.07,13.254-10.65,19.59-12.077.212-.045,4.971-1.015,7.388-1.2a41.338,41.338,0,0,1-7.191,2.114c-6.174,1.393-13.973,3.9-19.418,10.982A.466.466,0,0,1,3106.942,191.175Z" transform="translate(-3106.942 -177.898)" fill="#1a1a1a"/>
    </g>
    <g id="Group_5035" data-name="Group 5035" transform="translate(3312.329 233.364)">
      <path id="Path_8709" data-name="Path 8709" d="M3123.983,187.7a7,7,0,0,1-1.01-.068,6.262,6.262,0,0,1-4.792-3.685,23.5,23.5,0,0,1-2.2-6.495c-.22-1.08-.5-2.518-.8-4.059-.721-3.683-1.614-8.263-2-9.619,1.3,1.138,2.161,5.546,2.921,9.438.3,1.54.581,2.97.8,4.05a22.582,22.582,0,0,0,2.111,6.244,5.408,5.408,0,0,0,4.087,3.2,9.94,9.94,0,0,0,3.765-.374c1.5-.4,3.685-1.056,5.162-1.633-1.276,1.5-3.5,2.163-4.924,2.539A12.485,12.485,0,0,1,3123.983,187.7Z" transform="translate(-3113.173 -163.773)" fill="#1a1a1a"/>
    </g>
    <g id="Group_5036" data-name="Group 5036" transform="translate(3333.853 234.685)">
      <path id="Path_8710" data-name="Path 8710" d="M3126.9,175.107a5.293,5.293,0,0,1-1.61-.251,6.926,6.926,0,0,1,2.639-.807,4.41,4.41,0,1,0-4.276-7.269,2.226,2.226,0,0,1,2-2.214,5.343,5.343,0,1,1,2.49,10.391A5.217,5.217,0,0,1,3126.9,175.107Z" transform="translate(-3123.652 -164.416)" fill="#1a1a1a"/>
    </g>
    <g id="Group_5037" data-name="Group 5037" transform="translate(3334.68 236.749)">
      <path id="Path_8711" data-name="Path 8711" d="M3127.955,171.425c-.218-.055-3.9-1.994-3.9-1.994-.119-.737,3-4.009,3-4.009.675.647-2.015,3.473-2.015,3.473l3.13,1.649C3128.288,171.332,3128.121,171.425,3127.955,171.425Z" transform="translate(-3124.055 -165.421)" fill="#1a1a1a"/>
    </g>
    <g id="Group_5038" data-name="Group 5038" transform="translate(3350.376 286.428)">
      <path id="Path_8712" data-name="Path 8712" d="M3137.178,215.58a83.274,83.274,0,0,0-5.482-25.968c.913-.24,5.952,11.925,5.952,25.5A.47.47,0,0,1,3137.178,215.58Z" transform="translate(-3131.697 -189.608)" fill="#1a1a1a"/>
    </g>
    <g id="Group_5039" data-name="Group 5039" transform="translate(3323.788 246.043)">
      <path id="Path_8713" data-name="Path 8713" d="M3118.752,174.037c.579-.861,1.407-1.076,1.959-1.616a3.529,3.529,0,0,0,.828-2.475c.937.01,1.07,1.92-.168,3.138A3.582,3.582,0,0,1,3118.752,174.037Z" transform="translate(-3118.752 -169.946)" fill="#1a1a1a"/>
    </g>
    <g id="Group_5040" data-name="Group 5040" transform="translate(3295.723 340.042)">
      <path id="Path_8714" data-name="Path 8714" d="M3105.088,250.534c3.749-9.754,3.492-34.572,3.487-34.823.949,1.015,1.2,25.27-3.062,34.554A.464.464,0,0,1,3105.088,250.534Z" transform="translate(-3105.088 -215.711)" fill="#1a1a1a"/>
    </g>
    <g id="Group_5041" data-name="Group 5041" transform="translate(3265.173 293.518)">
      <path id="Path_8715" data-name="Path 8715" d="M3104.316,222.61c-4.874,0-8.756-1.163-10.366-3.221a16.05,16.05,0,0,1-2.74-6.1,33.583,33.583,0,0,1-.776-11.931c.512-4.377,5.313-8.144,5.517-8.3.527.778-4.125,4.424-4.587,8.409a33.061,33.061,0,0,0,.755,11.6,15.125,15.125,0,0,0,2.569,5.751c1.5,1.91,6.231,3.461,13.432,2.633,2.157-.251,6.058-1.894,5.747-4.738a2.514,2.514,0,0,0-1.333-1.957c1.462-.271,2.138.729,2.263,1.857.368,3.375-3.7,5.437-6.573,5.765A34.119,34.119,0,0,1,3104.316,222.61Z" transform="translate(-3090.214 -193.06)" fill="#1a1a1a"/>
    </g>
    <g id="Group_5042" data-name="Group 5042" transform="translate(3270.285 299.22)">
      <path id="Path_8716" data-name="Path 8716" d="M3105.3,205.785a69.243,69.243,0,0,1-10.959-1.084c1.12-.571,10.042.4,12.044.1,1.214-.16,2.528-.333,2.986-1.066a3.759,3.759,0,0,0,.437-3.249,4.052,4.052,0,0,0-2.007-2.124,5.073,5.073,0,0,0-2.748-.331c-10.412.277-12.184-1.865-12.354-2.111.807-.489,2.563,1.436,11.577,1.21,1.8-.1,2.912-.166,3.972.407a4.944,4.944,0,0,1,2.44,2.635,4.666,4.666,0,0,1-.523,4.057c-.688,1.109-2.268,1.317-3.313,1.454A10.24,10.24,0,0,1,3105.3,205.785Z" transform="translate(-3092.703 -195.836)" fill="#1a1a1a"/>
    </g>
    <g id="Group_5043" data-name="Group 5043" transform="translate(3271.747 308.358)">
      <path id="Path_8717" data-name="Path 8717" d="M3102.863,208.293a78.2,78.2,0,0,1-9.448-.668c.205-.914,7.613.129,12.989-.431,1.937-.2,3.93-1.458,3.728-3.767a4.629,4.629,0,0,0-2.017-3.143,3.2,3.2,0,0,1,2.947,3.06c.261,2.939-2.183,4.541-4.564,4.784C3105.348,208.246,3104.106,208.293,3102.863,208.293Z" transform="translate(-3093.415 -200.285)" fill="#1a1a1a"/>
    </g>
    <g id="Group_5044" data-name="Group 5044" transform="translate(3324.686 245.141)">
      <path id="Path_8718" data-name="Path 8718" d="M3123.264,200.782c-3.56-1.111-2.593-9.992-2.336-11.987l-1.74-7.606c.912-.205,2.671,7.476,2.671,7.476-.542,4.377-.585,10.561,1.045,11.126,2.426.871,9.251-6.694,13.068-11.773l-4.749-18.51c.908-.234,5.71,18.494,5.71,18.494C3135.865,189.728,3127.491,200.782,3123.264,200.782Z" transform="translate(-3119.188 -169.507)" fill="#1a1a1a"/>
    </g>
    <g id="Group_5051" data-name="Group 5051" transform="translate(2969.322 253.454)">
      <g id="Group_5045" data-name="Group 5045">
        <path id="Path_8719" data-name="Path 8719" d="M2957.655,204.164c-.425-.273-11.481-24.391-11.481-24.391.066-.493,4.845-6.219,4.845-6.219.695-.025,15.019,14.8,15.019,14.8l3.792-14.466c.84-.144,4.605,5.429,4.605,5.429.082.265.082,20.747.082,20.747-.848.273-8.2-9.933-8.2-9.933l-8.261,13.809A.47.47,0,0,1,2957.655,204.164Zm-10.508-24.512,10.564,23.041,7.984-13.349-14.293-14.79Zm19.642,9.532,6.789,9.426V179.724l-3.108-4.6Z" transform="translate(-2946.174 -173.554)" fill="#1a1a1a"/>
      </g>
      <g id="Group_5046" data-name="Group 5046" transform="translate(12.755 27.461)">
        <path id="Path_8720" data-name="Path 8720" d="M2959.7,206.7c-3.407-9.986-7.278-19.675-7.316-19.771.906-.251,4.792,9.473,7.764,19.17C2959.79,206.694,2959.743,206.7,2959.7,206.7Z" transform="translate(-2952.384 -186.924)" fill="#1a1a1a"/>
      </g>
      <g id="Group_5047" data-name="Group 5047" transform="translate(26.756 25.682)">
        <path id="Path_8721" data-name="Path 8721" d="M2961.208,201.962c-1.155-11.223-2-15.859-2.007-15.9.929-.127,1.781,4.549,2.473,15.4C2961.228,201.962,2961.218,201.962,2961.208,201.962Z" transform="translate(-2959.2 -186.058)" fill="#1a1a1a"/>
      </g>
      <g id="Group_5048" data-name="Group 5048" transform="translate(14.632 22.69)">
        <path id="Path_8722" data-name="Path 8722" d="M2957.933,192.521c-.382-.193-4.635-6.094-4.635-6.094.758-.544,4.857,5.137,4.857,5.137l4.669-.444.525-6.519c.935.072.376,6.988.376,6.988-.424.429-5.751.932-5.751.932Z" transform="translate(-2953.298 -184.601)" fill="#1a1a1a"/>
      </g>
      <g id="Group_5049" data-name="Group 5049" transform="translate(18.254 30.107)">
        <path id="Path_8723" data-name="Path 8723" d="M2955.2,200.176c-.466-.5.409-11.964.409-11.964.934.072.06,11.535.06,11.535A.469.469,0,0,1,2955.2,200.176Z" transform="translate(-2955.061 -188.212)" fill="#1a1a1a"/>
      </g>
      <g id="Group_5050" data-name="Group 5050" transform="translate(24.173 29.833)">
        <path id="Path_8724" data-name="Path 8724" d="M2962.16,195.973c-.417-.257-4.217-7.877-4.217-7.877.838-.421,4.637,7.2,4.637,7.2C2962.3,195.958,2962.231,195.973,2962.16,195.973Z" transform="translate(-2957.943 -188.079)" fill="#1a1a1a"/>
      </g>
    </g>
    <g id="Group_5052" data-name="Group 5052" transform="translate(2928.974 374.768)">
      <path id="Path_8725" data-name="Path 8725" d="M3385.488,233.553H2926.53c0-.935,458.958-.935,458.958-.935C3385.957,233.341,3385.747,233.553,3385.488,233.553Z" transform="translate(-2926.53 -232.618)" fill="#1a1a1a"/>
    </g>
    <path id="Path_8726" data-name="Path 8726" d="M3115.043,165.814c.354-.136.633-.029,1.013,1.267.427,1.444.1,1.781-.232,1.838s-.759-.329-.962-1.38S3114.581,165.991,3115.043,165.814Z" transform="translate(200.767 71.695)" fill="#1a1a1a"/>
    <path id="Path_8727" data-name="Path 8727" d="M3120.154,164.587c.358-.123.635-.012.982,1.294.385,1.454.049,1.783-.284,1.83s-.75-.347-.924-1.4S3119.687,164.751,3120.154,164.587Z" transform="translate(206.136 70.408)" fill="#1a1a1a"/>
    <g id="Group_5053" data-name="Group 5053" transform="translate(3375.983 350.273)">
      <path id="Path_8728" data-name="Path 8728" d="M3144.632,246c-.157-6.918-.464-25.12-.469-25.3.939.17,1.249,18.4.937,24.863A.467.467,0,0,1,3144.632,246Z" transform="translate(-3144.164 -220.692)" fill="#1a1a1a"/>
    </g>
    <g id="Group_5054" data-name="Group 5054" transform="translate(3121.918 262.568)">
      <path id="Path_8729" data-name="Path 8729" d="M3063.091,251.974c-8.212,0-16.46-2.633-22.865-9.167-7.472-7.624-11.153-18.145-13.769-27.433-2.849-10.1-4.235-18.288-5.99-28.653.117-.908,3.413-7.546,14.967-8.588,10.394-.93,13.873,2.988,14.014,3.155.089.156,10.009,30.47,10.009,30.47.784,2.43,1.527,4.732,3.736,5.993a6,6,0,0,0,6.866-.739c1.945-1.625,3.038-4,4.075-6.5.509-1.224,1-2.463,1.5-3.7A112.454,112.454,0,0,1,3081,194.833c2.989-5.484,6.675-9.224,10.956-11.116a23.365,23.365,0,0,1,8.635-1.844c-2.924,1.105-5.477,1.471-8.259,2.7-4.087,1.805-7.622,5.408-10.512,10.707a111.815,111.815,0,0,0-5.316,11.882c-.5,1.241-1,2.481-1.508,3.714-1.04,2.5-2.233,5.1-4.34,6.858a6.931,6.931,0,0,1-7.93.834c-2.526-1.446-3.356-4.026-4.161-6.519l-3.447-10.549-6.441-19.658c-.472-.47-3.989-3.609-13.164-2.771-10.135.91-13.648,6.412-14.155,7.308,1.781,10.524,3.16,18.691,6,28.745,2.586,9.173,6.215,19.558,13.538,27.032,11.4,11.627,28.862,10.514,41.107,4.252A32.873,32.873,0,0,1,3063.091,251.974Z" transform="translate(-3020.468 -177.992)" fill="#1a1a1a"/>
    </g>
    <g id="Group_5055" data-name="Group 5055" transform="translate(3222.775 268.099)">
      <path id="Path_8730" data-name="Path 8730" d="M3089.3,288.288c-.489-.661-2.83-24.6-1.664-42.168,1.167-17.5.013-41.2,0-41.436-.178-3.617-2.031-8-4-12.2a23.283,23.283,0,0,0-5.5-7.76,17.74,17.74,0,0,0-8.567-4.038,12.537,12.537,0,0,1,9.183,3.338,24.064,24.064,0,0,1,5.727,8.06c2.016,4.285,3.906,8.774,4.093,12.548.013.238,1.171,23.994,0,41.545-1.164,17.489,1.171,41.354,1.194,41.594C3089.333,288.288,3089.319,288.288,3089.3,288.288Z" transform="translate(-3069.572 -180.684)" fill="#1a1a1a"/>
    </g>
    <g id="Group_5056" data-name="Group 5056" transform="translate(3161.144 295.102)">
      <path id="Path_8731" data-name="Path 8731" d="M3043.475,235.317c-1.27,0-2.567-.053-3.909-.164,37.493,2.235,46.43-40.888,46.516-41.321C3086.913,194.439,3078.442,235.317,3043.475,235.317Z" transform="translate(-3039.565 -193.831)" fill="#1a1a1a"/>
    </g>
    <g id="Group_5057" data-name="Group 5057" transform="translate(3232.582 273.367)">
      <path id="Path_8732" data-name="Path 8732" d="M3090.323,253.389a14.978,14.978,0,0,1-7.817-2.493c.883-.522,8.871,5.108,15.246-1.931,8.727-9.647-8.168-47.224-23.4-65.716,16.522,18.576,33.281,56.194,24.1,66.342A10.646,10.646,0,0,1,3090.323,253.389Z" transform="translate(-3074.347 -183.249)" fill="#1a1a1a"/>
    </g>
    <g id="Group_5058" data-name="Group 5058" transform="translate(3185.132 224.723)">
      <path id="Path_8733" data-name="Path 8733" d="M3062.118,193.945a8.281,8.281,0,0,1-6.252-3.12c-2.122-2.861-1.7-6.69-1.536-7.731-.742-.707-3.105-3.085-3.085-4.654.02-1.729,3.586-2.516,5.147-2.775l1.125-8.351c.117-.364,2.389-6.854,6.26-7.747.577.583,1.052,14.489,8.774,15.822-7.737-.386-8.926-11.882-9.106-14.733-3.055,1.263-5,6.817-5.022,6.877l-1.15,8.6c-2.656.737-5.083,1.588-5.092,2.319-.014,1.008,1.816,3.069,2.97,4.133.133.481-.707,4.759,1.466,7.69a7.391,7.391,0,0,0,5.542,2.738C3062.56,193.766,3062.356,193.945,3062.118,193.945Z" transform="translate(-3051.245 -159.566)" fill="#1a1a1a"/>
    </g>
    <g id="Group_5059" data-name="Group 5059" transform="translate(3190.204 219.53)">
      <path id="Path_8734" data-name="Path 8734" d="M3077.644,206.962a41.247,41.247,0,0,1-10.222-1.434,13.6,13.6,0,0,1-5.646-2.689,6.924,6.924,0,0,1-2.575-5.745c.308-3.336,3.4-5.751,5.958-6.807.458-.187.989-.343,1.547-.509,2.159-.637,3.695-1.212,3.761-2.83.836,2.448-1.567,3.159-3.494,3.726a14.806,14.806,0,0,0-1.457.481c-2.314.955-5.114,3.108-5.387,6.026a6.092,6.092,0,0,0,2.259,4.952,12.747,12.747,0,0,0,5.272,2.487c5.338,1.4,12.969,2.469,18.977-.4a8.878,8.878,0,0,0,3.824-3.145c2.2-3.492-.525-6.55-3.139-8.824-1.018-.848-2.134-1.768-2.012-2.927.3-2.834,1.471-7.641,3.483-14.3.733-4.6.017-7.98-1.994-10.492-3.176-3.964-8.571-4.434-8.625-4.439a19.34,19.34,0,0,0-4.689-1.29c-11.829-2.015-16.7-.474-18.613,5.889-.783,2.6.649,7.335.661,7.38-.955.07-2.422-4.777-1.557-7.647,2.358-7.836,9.273-8.312,19.664-6.542a19.1,19.1,0,0,1,4.687,1.284c.744.072,5.942.717,9.2,4.775,2.183,2.721,2.965,6.343,2.333,10.765-2.654,8.8-3.416,12.8-3.616,14.712-.07.655.813,1.384,1.4,1.869,2.968,2.574,6.218,6.141,3.617,10.28a9.793,9.793,0,0,1-4.213,3.492A21.833,21.833,0,0,1,3077.644,206.962Z" transform="translate(-3053.714 -157.038)" fill="#1a1a1a"/>
    </g>
    <g id="Group_5060" data-name="Group 5060" transform="translate(3093.931 242.282)">
      <path id="Path_8735" data-name="Path 8735" d="M3006.846,188.256c-.329-.795,19.017-20.141,19.017-20.141.66.659-18.684,20.005-18.684,20.005A.465.465,0,0,1,3006.846,188.256Z" transform="translate(-3006.842 -168.115)" fill="#1a1a1a"/>
    </g>
    <g id="Group_5061" data-name="Group 5061" transform="translate(3081.595 255.695)">
      <path id="Path_8736" data-name="Path 8736" d="M3007.711,181.374c-.329-.136-6.875-6.682-6.875-6.682.659-.661,7.207,5.887,7.207,5.887C3007.951,181.33,3007.832,181.374,3007.711,181.374Z" transform="translate(-3000.836 -174.645)" fill="#1a1a1a"/>
    </g>
    <g id="Group_5062" data-name="Group 5062" transform="translate(3058.853 255.009)">
      <path id="Path_8737" data-name="Path 8737" d="M2989.768,193.4c-.331-.795,17.969-19.093,17.969-19.093.662.659-17.639,18.958-17.639,18.958A.459.459,0,0,1,2989.768,193.4Z" transform="translate(-2989.764 -174.311)" fill="#1a1a1a"/>
    </g>
    <g id="Group_5063" data-name="Group 5063" transform="translate(3038.928 260.096)">
      <path id="Path_8738" data-name="Path 8738" d="M2994.576,191.129c-.33-.138-14.513-14.318-14.513-14.318.662-.659,14.842,13.521,14.842,13.521C2994.817,191.083,2994.7,191.129,2994.576,191.129Z" transform="translate(-2980.063 -176.788)" fill="#1a1a1a"/>
    </g>
    <g id="Group_5064" data-name="Group 5064" transform="translate(3075.562 248.717)">
      <path id="Path_8739" data-name="Path 8739" d="M3001.92,179.293a4.023,4.023,0,1,1,4.022-4.022A4.027,4.027,0,0,1,3001.92,179.293Zm0-7.111a3.088,3.088,0,1,0,3.085,3.089A3.09,3.09,0,0,0,3001.92,172.183Z" transform="translate(-2997.899 -171.248)" fill="#1a1a1a"/>
    </g>
    <g id="Group_5065" data-name="Group 5065" transform="translate(3087.35 260.597)">
      <path id="Path_8740" data-name="Path 8740" d="M3007.662,185.071a4.02,4.02,0,1,1,4.021-4.018A4.025,4.025,0,0,1,3007.662,185.071Zm0-7.107a3.087,3.087,0,1,0,3.085,3.089A3.092,3.092,0,0,0,3007.662,177.964Z" transform="translate(-3003.637 -177.032)" fill="#1a1a1a"/>
    </g>
    <g id="Group_5066" data-name="Group 5066" transform="translate(3052.071 272.492)">
      <path id="Path_8741" data-name="Path 8741" d="M2990.485,190.862a4.02,4.02,0,1,1,4.02-4.015A4.023,4.023,0,0,1,2990.485,190.862Zm0-7.1a3.086,3.086,0,1,0,3.083,3.089A3.092,3.092,0,0,0,2990.485,183.758Z" transform="translate(-2986.462 -182.823)" fill="#1a1a1a"/>
    </g>
    <g id="Group_5067" data-name="Group 5067" transform="translate(3032.696 252.951)">
      <path id="Path_8742" data-name="Path 8742" d="M2981.05,181.352a4.022,4.022,0,1,1,4.024-4.024A4.026,4.026,0,0,1,2981.05,181.352Zm0-7.111a3.088,3.088,0,1,0,3.084,3.087A3.091,3.091,0,0,0,2981.05,174.241Z" transform="translate(-2977.028 -173.309)" fill="#1a1a1a"/>
    </g>
    <g id="Group_5068" data-name="Group 5068" transform="translate(3265.544 277.692)">
      <path id="Path_8743" data-name="Path 8743" d="M3154.273,247.945h-42.29c-.443-.314-6.258-17.268-6.258-17.268.885-.306,6.591,16.335,6.591,16.335h41.3l-20.825-60.725h-41.3l7.267,21.193c-.883.306-8.364-21.507-8.364-21.507.442-.618,42.732-.618,42.732-.618.442.312,21.589,61.97,21.589,61.97C3154.566,247.871,3154.425,247.945,3154.273,247.945Z" transform="translate(-3090.395 -185.355)" fill="#1a1a1a"/>
    </g>
    <g id="Group_5069" data-name="Group 5069" transform="translate(3268.258 275.145)">
      <path id="Path_8744" data-name="Path 8744" d="M3155.594,246.7h-3.586c0-.935,2.931-.935,2.931-.935l-20.823-60.721h-41.3l.483,1.409c-.884.306-1.579-1.721-1.579-1.721.443-.622,42.732-.622,42.732-.622.442.314,21.587,61.97,21.587,61.97C3155.887,246.631,3155.746,246.7,3155.594,246.7Z" transform="translate(-3091.716 -184.115)" fill="#1a1a1a"/>
    </g>
    <g id="Group_5070" data-name="Group 5070" transform="translate(3311.367 222.807)">
      <path id="Path_8745" data-name="Path 8745" d="M3112.865,172.832c-.47-.688-.435-6.012,7.784-8.448,7.655-2.272,9.695-5.718,9.713-5.751.881.3,1.635,10.483,6.045,12.461-4.38-.941-5.639-8.142-5.984-11.021-1.177,1.282-3.9,3.549-9.508,5.211-7.5,2.222-7.585,6.883-7.583,7.078C3112.867,172.832,3112.867,172.832,3112.865,172.832Z" transform="translate(-3112.705 -158.633)" fill="#1a1a1a"/>
    </g>
    <g id="Group_5071" data-name="Group 5071" transform="translate(3301.977 213.232)">
      <path id="Path_8746" data-name="Path 8746" d="M3145.316,193.975c2.8-1.444,9.168-3.785,10.836-6.856a2.8,2.8,0,0,0,.156-2.572c-.123-.294-.277-.575-.431-.861a9.084,9.084,0,0,1-.54-1.105c-.668-1.746-.263-3.486.125-5.17a18.663,18.663,0,0,0,.406-2.109,17.358,17.358,0,0,0-1.142-8.36,14.209,14.209,0,0,0-10.27-8.791,17.747,17.747,0,0,0-4.876-.355c-1.941.329-2.2.337-2.417.1-2.59-2.705-7.333-3.732-11.293-2.422a10.733,10.733,0,0,0-5.881,4.541c-.394.674-.746,1.395-1.086,2.091-.374.768-.758,1.561-1.212,2.313a15.4,15.4,0,0,1-4.506,4.457c-.444.327-.9.663-1.358,1.025a6.322,6.322,0,0,0-1.758,2.5,15.145,15.145,0,0,0-.807,7.965c1.07,7.524,6.587,12.683,13.49,12.683-7.154,1.193-13.259-4.389-14.417-12.55a16.053,16.053,0,0,1,.875-8.47,7.209,7.209,0,0,1,2.039-2.859c.468-.366.929-.711,1.381-1.043a14.431,14.431,0,0,0,4.26-4.192c.434-.711.807-1.483,1.171-2.231.349-.717.708-1.454,1.121-2.159a11.678,11.678,0,0,1,6.4-4.954c4.22-1.407,9.292-.327,12.145,2.545.286-.016.945-.129,1.249-.181a18.558,18.558,0,0,1,5.682.29,15.135,15.135,0,0,1,10.939,9.358,18.281,18.281,0,0,1,1.2,8.807,19.218,19.218,0,0,1-.423,2.218c-.372,1.619-.729,3.145-.164,4.626a8.167,8.167,0,0,0,.489.994,10.219,10.219,0,0,1,.474.947,3.748,3.748,0,0,1-.2,3.379c-1.986,3.658-9.181,5.973-11.576,6.4A.4.4,0,0,1,3145.316,193.975Z" transform="translate(-3108.133 -153.971)" fill="#1a1a1a"/>
    </g>
    <g id="Group_5072" data-name="Group 5072" transform="translate(3313.305 233.806)">
      <path id="Path_8747" data-name="Path 8747" d="M3113.674,166.256c-.231-.881,1.134-1.939,2.829-2.268-1.29,1.2-2.526,2.161-2.539,2.167A.469.469,0,0,1,3113.674,166.256Z" transform="translate(-3113.648 -163.988)" fill="#1a1a1a"/>
    </g>
    <g id="Group_5073" data-name="Group 5073" transform="translate(3322.432 231.177)">
      <path id="Path_8748" data-name="Path 8748" d="M3118.1,164.831c-.2-.916,2.483-3.206,6.561-1.52a8.076,8.076,0,0,0-6.252,1.4A.447.447,0,0,1,3118.1,164.831Z" transform="translate(-3118.092 -162.708)" fill="#1a1a1a"/>
    </g>
    <g id="Group_5074" data-name="Group 5074" transform="translate(3329.932 307.072)">
      <path id="Path_8749" data-name="Path 8749" d="M3123.4,219.186a1.625,1.625,0,0,1-1.263-.479c-.965-1.062-.16-3.212,2.385-6.4-1.736,3.666-2.113,5.3-1.692,5.77.3.337,1.5.277,3.876-1.006a46.418,46.418,0,0,0,13.8-12.509c1.51-2.235,1.687-3.422,1.38-3.759-.442-.485-1.555-.236-3.405.76,1.234-1.727,3.083-2.5,4.1-1.386.766.844.329,2.5-1.3,4.907a47.371,47.371,0,0,1-14.133,12.81A8.712,8.712,0,0,1,3123.4,219.186Z" transform="translate(-3121.743 -199.659)" fill="#1a1a1a"/>
    </g>
    <g id="Group_5075" data-name="Group 5075" transform="translate(3317.492 235.921)">
      <path id="Path_8750" data-name="Path 8750" d="M3118.708,175.972a3.328,3.328,0,0,1-2.684-1.043,1.708,1.708,0,0,1-.15-1.81c.534-1.191.936-6.252,1.048-8.1.891.756.507,6.924-.2,8.485a.8.8,0,0,0,.041.863,3.049,3.049,0,0,0,2.677.612C3119.283,175.947,3118.992,175.972,3118.708,175.972Z" transform="translate(-3115.686 -165.018)" fill="#1a1a1a"/>
    </g>
    <g id="Group_5076" data-name="Group 5076" transform="translate(3270.195 270.311)">
      <path id="Path_8751" data-name="Path 8751" d="M3097.92,194.6a3.731,3.731,0,0,1-2.567-1.286,9.678,9.678,0,0,1-2.253-4.085c-1.021-3.547-.212-6.788,1.84-7.378,1.912-.54,4.161,1.45,5.276,4.634-1.818-2.358-3.644-4.124-5.016-3.734-1.5.429-2.048,3.278-1.2,6.219a8.715,8.715,0,0,0,2.017,3.687,2.459,2.459,0,0,0,2.3.947C3098.364,194.563,3098.147,194.6,3097.92,194.6Z" transform="translate(-3092.659 -181.761)" fill="#1a1a1a"/>
    </g>
    <g id="Group_5077" data-name="Group 5077" transform="translate(3283.159 270.311)">
      <path id="Path_8752" data-name="Path 8752" d="M3104.231,194.6a3.727,3.727,0,0,1-2.567-1.286,9.678,9.678,0,0,1-2.253-4.085c-1.019-3.547-.212-6.788,1.84-7.378,1.912-.54,4.161,1.45,5.276,4.634-1.815-2.358-3.642-4.124-5.015-3.734-1.5.429-2.048,3.278-1.2,6.219a8.706,8.706,0,0,0,2.017,3.687,2.461,2.461,0,0,0,2.3.947C3104.675,194.563,3104.457,194.6,3104.231,194.6Z" transform="translate(-3098.971 -181.761)" fill="#1a1a1a"/>
    </g>
    <g id="Group_5078" data-name="Group 5078" transform="translate(3296.223 270.311)">
      <path id="Path_8753" data-name="Path 8753" d="M3110.591,194.6a3.725,3.725,0,0,1-2.57-1.286,10.5,10.5,0,0,1-2.516-8.744,3.319,3.319,0,0,1,2.1-2.719c1.92-.54,4.161,1.45,5.275,4.634-1.816-2.358-3.634-4.124-5.014-3.734-.688.2-1.2.916-1.449,2.027a9.6,9.6,0,0,0,2.267,7.879,2.464,2.464,0,0,0,2.3.947C3111.032,194.563,3110.815,194.6,3110.591,194.6Z" transform="translate(-3105.331 -181.761)" fill="#1a1a1a"/>
    </g>
    <g id="Group_5079" data-name="Group 5079" transform="translate(3276.44 287.816)">
      <path id="Path_8754" data-name="Path 8754" d="M3122.594,191.216h-26.9c0-.933,26.9-.933,26.9-.933C3123.063,191.007,3122.851,191.216,3122.594,191.216Z" transform="translate(-3095.699 -190.284)" fill="#1a1a1a"/>
    </g>
    <g id="Group_5080" data-name="Group 5080" transform="translate(3278.864 294.995)">
      <path id="Path_8755" data-name="Path 8755" d="M3123.772,194.714H3096.88c0-.934,26.892-.934,26.892-.934C3124.24,194.5,3124.031,194.714,3123.772,194.714Z" transform="translate(-3096.88 -193.779)" fill="#1a1a1a"/>
    </g>
    <g id="Group_5081" data-name="Group 5081" transform="translate(3287.71 308.399)">
      <path id="Path_8756" data-name="Path 8756" d="M3123.872,201.238h-22.685c0-.933,22.685-.933,22.685-.933C3124.341,201.028,3124.133,201.238,3123.872,201.238Z" transform="translate(-3101.187 -200.305)" fill="#1a1a1a"/>
    </g>
    <g id="Group_5082" data-name="Group 5082" transform="translate(3287.113 302.032)">
      <path id="Path_8757" data-name="Path 8757" d="M3122.021,198.14H3100.9c0-.935,21.125-.935,21.125-.935C3122.489,197.928,3122.279,198.14,3122.021,198.14Z" transform="translate(-3100.896 -197.205)" fill="#1a1a1a"/>
    </g>
    <g id="Group_5083" data-name="Group 5083" transform="translate(3288.945 315.43)">
      <path id="Path_8758" data-name="Path 8758" d="M3125.609,204.665h-23.821c0-.937,23.821-.937,23.821-.937C3126.078,204.453,3125.866,204.665,3125.609,204.665Z" transform="translate(-3101.788 -203.728)" fill="#1a1a1a"/>
    </g>
    <g id="Group_5084" data-name="Group 5084" transform="translate(3288.243 322.468)">
      <path id="Path_8759" data-name="Path 8759" d="M3128.34,208.087h-26.894c0-.932,26.894-.932,26.894-.932C3128.808,207.878,3128.6,208.087,3128.34,208.087Z" transform="translate(-3101.446 -207.155)" fill="#1a1a1a"/>
    </g>
    <g id="Group_5085" data-name="Group 5085" transform="translate(3240.975 234.412)">
      <path id="Path_8760" data-name="Path 8760" d="M3100.884,187.2H3078.9c-.468-.466-.468-22.448-.468-22.448.468-.466,22.451-.466,22.451-.466.469.466.469,22.448.469,22.448A.47.47,0,0,1,3100.884,187.2Zm-21.515-.933h21.047V165.215h-21.047Z" transform="translate(-3078.433 -164.283)" fill="#1a1a1a"/>
    </g>
    <g id="Group_5086" data-name="Group 5086" transform="translate(3148.609 202.247)">
      <path id="Path_8761" data-name="Path 8761" d="M3055.917,171.541h-21.986c-.468-.466-.468-22.452-.468-22.452.468-.466,22.454-.466,22.454-.466.469.466.469,22.452.469,22.452A.471.471,0,0,1,3055.917,171.541Zm-21.517-.935h21.047V149.558H3034.4Z" transform="translate(-3033.463 -148.623)" fill="#1a1a1a"/>
    </g>
    <g id="Group_5087" data-name="Group 5087" transform="translate(3158.065 204.06)">
      <path id="Path_8762" data-name="Path 8762" d="M3040.191,153.747a2.121,2.121,0,1,1,2.124-2.12A2.124,2.124,0,0,1,3040.191,153.747Zm0-3.307a1.187,1.187,0,1,0,1.185,1.187A1.188,1.188,0,0,0,3040.191,150.441Z" transform="translate(-3038.067 -149.506)" fill="#1a1a1a"/>
    </g>
    <g id="Group_5088" data-name="Group 5088" transform="translate(3164.445 211.935)">
      <path id="Path_8763" data-name="Path 8763" d="M3043.651,154.273h-2.479c0-.933,2.479-.933,2.479-.933C3044.12,154.063,3043.911,154.273,3043.651,154.273Z" transform="translate(-3041.173 -153.34)" fill="#1a1a1a"/>
    </g>
    <g id="Group_5089" data-name="Group 5089" transform="translate(3153.45 211.935)">
      <path id="Path_8764" data-name="Path 8764" d="M3041.612,154.273h-5.792c0-.933,5.792-.933,5.792-.933C3042.08,154.063,3041.871,154.273,3041.612,154.273Z" transform="translate(-3035.82 -153.34)" fill="#1a1a1a"/>
    </g>
    <g id="Group_5090" data-name="Group 5090" transform="translate(3153.45 216.499)">
      <path id="Path_8765" data-name="Path 8765" d="M3049.293,156.5H3035.82c0-.935,13.474-.935,13.474-.935C3049.762,156.287,3049.552,156.5,3049.293,156.5Z" transform="translate(-3035.82 -155.562)" fill="#1a1a1a"/>
    </g>
    <g id="Group_5091" data-name="Group 5091" transform="translate(3250.429 236.221)">
      <path id="Path_8766" data-name="Path 8766" d="M3085.16,169.405a2.121,2.121,0,1,1,2.122-2.12A2.123,2.123,0,0,1,3085.16,169.405Zm0-3.3a1.186,1.186,0,1,0,1.185,1.185A1.186,1.186,0,0,0,3085.16,166.1Z" transform="translate(-3083.035 -165.164)" fill="#1a1a1a"/>
    </g>
    <g id="Group_5092" data-name="Group 5092" transform="translate(3245.816 244.096)">
      <path id="Path_8767" data-name="Path 8767" d="M3094.264,169.93H3080.79c0-.932,13.474-.932,13.474-.932C3094.732,169.721,3094.523,169.93,3094.264,169.93Z" transform="translate(-3080.79 -168.998)" fill="#1a1a1a"/>
    </g>
    <g id="Group_5093" data-name="Group 5093" transform="translate(3245.816 248.662)">
      <path id="Path_8768" data-name="Path 8768" d="M3087.229,172.154h-6.439c0-.933,6.439-.933,6.439-.933C3087.7,171.944,3087.488,172.154,3087.229,172.154Z" transform="translate(-3080.79 -171.221)" fill="#1a1a1a"/>
    </g>
    <g id="Group_5094" data-name="Group 5094" transform="translate(3074.671 310.319)">
      <path id="Path_8769" data-name="Path 8769" d="M3007.894,202.172h-10.429c0-.932,10.429-.932,10.429-.932C3008.363,201.963,3008.153,202.172,3007.894,202.172Z" transform="translate(-2997.465 -201.24)" fill="#1a1a1a"/>
    </g>
    <g id="Group_5095" data-name="Group 5095" transform="translate(3030.446 310.319)">
      <path id="Path_8770" data-name="Path 8770" d="M3015.245,202.172h-39.312c0-.932,39.312-.932,39.312-.932C3015.714,201.963,3015.5,202.172,3015.245,202.172Z" transform="translate(-2975.933 -201.24)" fill="#1a1a1a"/>
    </g>
    <g id="Group_5096" data-name="Group 5096" transform="translate(3030.446 318.646)">
      <path id="Path_8771" data-name="Path 8771" d="M3018.1,206.229h-42.171c0-.935,42.171-.935,42.171-.935C3018.573,206.019,3018.361,206.229,3018.1,206.229Z" transform="translate(-2975.933 -205.294)" fill="#1a1a1a"/>
    </g>
    <g id="Group_5097" data-name="Group 5097" transform="translate(3060.135 326.973)">
      <path id="Path_8772" data-name="Path 8772" d="M3015.354,210.283h-24.966c0-.935,24.966-.935,24.966-.935C3015.822,210.071,3015.612,210.283,3015.354,210.283Z" transform="translate(-2990.388 -209.348)" fill="#1a1a1a"/>
    </g>
    <g id="Group_5098" data-name="Group 5098" transform="translate(3030.446 326.973)">
      <path id="Path_8773" data-name="Path 8773" d="M2987.065,210.283h-11.132c0-.935,11.132-.935,11.132-.935C2987.533,210.071,2987.324,210.283,2987.065,210.283Z" transform="translate(-2975.933 -209.348)" fill="#1a1a1a"/>
    </g>
    <g id="Group_5099" data-name="Group 5099" transform="translate(3112.696 310.319)">
      <path id="Path_8774" data-name="Path 8774" d="M3030.01,202.172h-14.032c0-.932,14.032-.932,14.032-.932C3030.479,201.963,3030.267,202.172,3030.01,202.172Z" transform="translate(-3015.978 -201.24)" fill="#1a1a1a"/>
    </g>
    <g id="Group_5100" data-name="Group 5100" transform="translate(3112.696 318.646)">
      <path id="Path_8775" data-name="Path 8775" d="M3039.286,206.229h-23.308c0-.935,23.308-.935,23.308-.935C3039.754,206.019,3039.542,206.229,3039.286,206.229Z" transform="translate(-3015.978 -205.294)" fill="#1a1a1a"/>
    </g>
    <g id="Group_5101" data-name="Group 5101" transform="translate(3112.696 326.973)">
      <path id="Path_8776" data-name="Path 8776" d="M3042.365,210.283h-26.387c0-.935,26.387-.935,26.387-.935C3042.833,210.071,3042.622,210.283,3042.365,210.283Z" transform="translate(-3015.978 -209.348)" fill="#1a1a1a"/>
    </g>
    <g id="Group_5102" data-name="Group 5102" transform="translate(3242.209 342.125)">
      <path id="Path_8777" data-name="Path 8777" d="M3079.033,225.921c5.321-.932,9.524-4.256,10.465-9.2C3089.392,222.3,3084.816,225.921,3079.033,225.921Z" transform="translate(-3079.033 -216.725)" fill="#1a1a1a"/>
    </g>
    <g id="Group_5103" data-name="Group 5103" transform="translate(3252.968 261.528)">
      <path id="Path_8778" data-name="Path 8778" d="M3084.74,224.851c-.469-.466-.469-47.366-.469-47.366.937,0,.937,46.9.937,46.9A.468.468,0,0,1,3084.74,224.851Z" transform="translate(-3084.272 -177.485)" fill="#1a1a1a"/>
    </g>
    <g id="Group_5104" data-name="Group 5104" transform="translate(3104.656 183.969)">
      <path id="Path_8779" data-name="Path 8779" d="M3160.844,186.012c-.468-.466-.468-34.593-.468-34.593a10.545,10.545,0,0,0-10.285-10.761H3012.064c0-.935,138.027-.935,138.027-.935a11.478,11.478,0,0,1,11.221,11.7v34.126A.469.469,0,0,1,3160.844,186.012Z" transform="translate(-3012.064 -139.724)" fill="#1a1a1a"/>
    </g>
    <g id="Group_5105" data-name="Group 5105" transform="translate(3005.902 183.969)">
      <path id="Path_8780" data-name="Path 8780" d="M2964.452,238.552c-.469-.466-.469-87.133-.469-87.133a11.478,11.478,0,0,1,11.221-11.7h8.665c0,.935-8.665.935-8.665.935a10.543,10.543,0,0,0-10.284,10.761v86.666A.469.469,0,0,1,2964.452,238.552Z" transform="translate(-2963.984 -139.724)" fill="#1a1a1a"/>
    </g>
    <g id="Group_5106" data-name="Group 5106" transform="translate(3005.902 320.895)">
      <path id="Path_8781" data-name="Path 8781" d="M3136.22,236.814H2975.2a11.476,11.476,0,0,1-11.221-11.693V206.389c.937,0,.937,18.732.937,18.732a10.543,10.543,0,0,0,10.284,10.761H3136.22C3136.688,236.6,3136.477,236.814,3136.22,236.814Z" transform="translate(-2963.984 -206.389)" fill="#1a1a1a"/>
    </g>
    <g id="Group_5112" data-name="Group 5112" transform="translate(3213.029 128.06)">
      <g id="Group_5107" data-name="Group 5107">
        <path id="Path_8782" data-name="Path 8782" d="M3156.041,204.182h-13.057c0-.935,12.587-.935,12.587-.935V113.439h-89.807V168.3c-.937,0-.937-55.329-.937-55.329.469-.466,91.214-.466,91.214-.466.468.466.468,91.21.468,91.21A.468.468,0,0,1,3156.041,204.182Z" transform="translate(-3064.827 -112.504)" fill="#1a1a1a"/>
      </g>
      <g id="Group_5108" data-name="Group 5108" transform="translate(41.079 90.743)">
        <path id="Path_8783" data-name="Path 8783" d="M3121.9,157.619h-37.078c0-.935,37.078-.935,37.078-.935C3122.375,157.409,3122.166,157.619,3121.9,157.619Z" transform="translate(-3084.826 -156.684)" fill="#1a1a1a"/>
      </g>
      <g id="Group_5109" data-name="Group 5109" transform="translate(8.487 19.011)">
        <path id="Path_8784" data-name="Path 8784" d="M3086.4,159.01c-.468-.466-.468-36.316-.468-36.316H3069.9v35.85c-.937,0-.937-36.316-.937-36.316.468-.468,17.442-.468,17.442-.468.468.468.468,36.784.468,36.784A.467.467,0,0,1,3086.4,159.01Z" transform="translate(-3068.959 -121.76)" fill="#1a1a1a"/>
      </g>
      <g id="Group_5110" data-name="Group 5110" transform="translate(36.885 38.922)">
        <path id="Path_8785" data-name="Path 8785" d="M3100.229,165.2h-13.25c0-.932,12.782-.932,12.782-.932V132.391h-16.037v20.071c-.938,0-.938-20.539-.938-20.539.468-.468,17.444-.468,17.444-.468.469.468.469,33.278.469,33.278A.469.469,0,0,1,3100.229,165.2Z" transform="translate(-3082.785 -131.454)" fill="#1a1a1a"/>
      </g>
      <g id="Group_5111" data-name="Group 5111" transform="translate(65.285 50.839)">
        <path id="Path_8786" data-name="Path 8786" d="M3114.054,159.083H3097.08c-.469-.466-.469-21.359-.469-21.359.469-.468,17.442-.468,17.442-.468.469.468.469,21.361.469,21.361A.47.47,0,0,1,3114.054,159.083Zm-16.5-.932h16.037v-19.96h-16.037Z" transform="translate(-3096.612 -137.256)" fill="#1a1a1a"/>
      </g>
    </g>
    <g id="Group_5113" data-name="Group 5113" transform="translate(2990.205 226.134)">
      <path id="Path_8787" data-name="Path 8787" d="M2956.448,162.29c-.37-.758.25-1.738,1.39-1.982a2.913,2.913,0,0,1,2.271.54,7.643,7.643,0,0,1-2.068.374,2.116,2.116,0,0,0-1.2.85A.466.466,0,0,1,2956.448,162.29Z" transform="translate(-2956.341 -160.253)" fill="#1a1a1a"/>
    </g>
    <g id="Group_5118" data-name="Group 5118" transform="translate(2995.403 282.101)">
      <g id="Group_5117" data-name="Group 5117">
        <g id="Group_5114" data-name="Group 5114" transform="translate(12.971 5.729)">
          <path id="Path_8788" data-name="Path 8788" d="M2965.193,217.188c-.384-.729,17.138-26.268,17.138-26.268a2.858,2.858,0,0,1,2.662-.47,3.371,3.371,0,0,1,1.206.854,2.746,2.746,0,0,1,.464,3.418,3.484,3.484,0,0,1,1.417,4.038c-1.189,4.059-16.07,17.331-22.813,18.422A.3.3,0,0,1,2965.193,217.188Zm17.845-25.648-16.771,24.44c7.084-2.212,19.977-14.275,20.916-17.481a2.62,2.62,0,0,0-1.4-3.2c.544-1.555.5-2.535-.267-3.356a2.473,2.473,0,0,0-.871-.622A1.877,1.877,0,0,0,2983.038,191.54Z" transform="translate(-2965.187 -190.291)" fill="#1a1a1a"/>
        </g>
        <g id="Group_5115" data-name="Group 5115">
          <path id="Path_8789" data-name="Path 8789" d="M2958.872,205.164c1.388-3.081,5.514-10.9,6.432-13,.155-.353.286-.739.422-1.138.6-1.74,1.358-3.882,4.153-3.475a2.07,2.07,0,0,1,1.474,1.039c.787,1.327.7,3.775-.23,6.388-1.3,3.633-.971,4.589.078,5.092,1.477.707,5.166-2.126,6.38-3.056a67,67,0,0,0,5.1-4.771c.466-.468.858-.861,1.125-1.117,1.436-1.378,3.6-3.463,5.969-1.265a2.89,2.89,0,0,1,1.06,2.136c0,1.526-1.446,2.853-2.5,3.82a86.611,86.611,0,0,1-8.764,7.337c-.2.07-20.655,2.011-20.655,2.011Zm10.314-16.731c-1.471,0-1.971,1.128-2.575,2.9-.144.423-.286.836-.448,1.21a119.769,119.769,0,0,1-6.33,11.6l19.332-1.834a84.673,84.673,0,0,0,7.934-6.614c1.53-1.413,2.8-2.576,2.8-3.7a1.968,1.968,0,0,0-.758-1.444c-1.456-1.349-2.719-.631-4.685,1.251-.265.253-.651.643-1.111,1.1a67.882,67.882,0,0,1-5.195,4.86c-2.657,2.023-5.609,3.979-7.349,3.153-1.994-.949-1.715-3.009-.559-6.248.813-2.288.937-4.535.306-5.595a1.124,1.124,0,0,0-.813-.592A3.859,3.859,0,0,0,2969.186,188.433Z" transform="translate(-2958.872 -187.501)" fill="#1a1a1a"/>
        </g>
        <g id="Group_5116" data-name="Group 5116" transform="translate(23.596 10.012)">
          <path id="Path_8790" data-name="Path 8790" d="M2970.385,202.525c-.294-.83,2.14-2.8,4.854-5.02a45.128,45.128,0,0,0,4.925-5.129c1.027.1,1.117.384,1,.614-1.2,1.085-3.405,3.662-5.33,5.24-2.719,2.229-5.153,4.192-5.153,4.192A.461.461,0,0,1,2970.385,202.525Z" transform="translate(-2970.361 -192.376)" fill="#1a1a1a"/>
        </g>
      </g>
    </g>
    <g id="Group_5119" data-name="Group 5119" transform="translate(3316.839 262.592)">
      <path id="Path_8791" data-name="Path 8791" d="M3134.393,199.832c-5.874,0-7.462-4.613-7.881-6.688-1.391,1.384-4.679,4.317-7.515,4.317a3.564,3.564,0,0,1-2.878-1.446c-3.457-4.488,6.131-17.253,6.542-17.8-1.926,4.1-8.31,13.971-5.8,17.224a2.547,2.547,0,0,0,2.021,1.08c3.332,0,7.567-4.656,7.61-4.7.828.567,1.263,7.076,7.9,7.076,5.531,0,7.776-15.082,8.173-20.895C3143.438,178.956,3141.925,199.832,3134.393,199.832Z" transform="translate(-3115.369 -178.003)" fill="#1a1a1a"/>
    </g>
    <g id="Group_5120" data-name="Group 5120" transform="translate(3157.215 105.708)">
      <path id="Path_8792" data-name="Path 8792" d="M3087.837,143.743c-.536-.93-.846-2.861-1.694-5.585a11.227,11.227,0,0,1,2.159,5.051C3087.88,143.743,3087.857,143.743,3087.837,143.743Zm-3.151-10.3c-1.144-1.9-1.959-3.494-2.849-5.026a9.048,9.048,0,0,1,3.278,4.371C3084.815,133.43,3084.75,133.445,3084.686,133.445Zm-5.406-9.294c-1.436-1.623-2.581-3-3.774-4.295a9.007,9.007,0,0,1,4.151,3.551C3079.478,124.12,3079.377,124.15,3079.28,124.15Zm-7.291-7.893c-1.647-1.278-3.058-2.381-4.507-3.4a9.109,9.109,0,0,1,4.813,2.576C3072.25,116.2,3072.118,116.257,3071.989,116.257Zm-8.791-6.17c-1.735-.906-3.335-1.713-4.993-2.457a9.406,9.406,0,0,1,5.223,1.584C3063.518,110,3063.36,110.087,3063.2,110.087Zm-9.8-4.4c-1.786-.6-3.5-1.126-5.26-1.592a9.646,9.646,0,0,1,5.417.682C3053.772,105.562,3053.592,105.683,3053.4,105.683ZM3043.02,102.9c-1.775-.337-3.549-.626-5.367-.865a9.956,9.956,0,0,1,5.458-.064C3043.435,102.752,3043.24,102.9,3043.02,102.9Z" transform="translate(-3037.653 -101.621)" fill="#1a1a1a"/>
    </g>
    <g id="Group_5121" data-name="Group 5121" transform="translate(3079.078 104.438)">
      <path id="Path_8793" data-name="Path 8793" d="M2999.749,144.571c-.427-.68.153-2.625,1.526-5.7a40.949,40.949,0,0,1-1.08,5.367A.463.463,0,0,1,2999.749,144.571Zm4.354-9.875a14.453,14.453,0,0,1,2.378-5.348,12.978,12.978,0,0,1-1.969,5.1A.462.462,0,0,1,3004.1,134.7Zm5.892-9.015a13.147,13.147,0,0,1,3.122-4.9,13.13,13.13,0,0,1-2.752,4.724A.463.463,0,0,1,3010,125.681Zm7.267-7.934a11.962,11.962,0,0,1,3.837-4.3,13.2,13.2,0,0,1-3.523,4.174A.455.455,0,0,1,3017.263,117.747Zm8.538-6.538a11.007,11.007,0,0,1,4.472-3.527,13.347,13.347,0,0,1-4.225,3.457A.461.461,0,0,1,3025.8,111.209Zm9.588-4.845a10.345,10.345,0,0,1,4.954-2.656,13.317,13.317,0,0,1-4.781,2.627A.587.587,0,0,1,3035.389,106.364Zm10.307-3.025a9.9,9.9,0,0,1,5.256-1.771,13.094,13.094,0,0,1-5.164,1.764C3045.757,103.334,3045.726,103.338,3045.7,103.338Zm10.677-1.288A2.8,2.8,0,0,1,3058.8,101a2.8,2.8,0,0,1-2.4,1.048Z" transform="translate(-2999.611 -101.003)" fill="#1a1a1a"/>
    </g>
    <g id="Group_5122" data-name="Group 5122" transform="translate(3311.527 169.515)">
      <path id="Path_8794" data-name="Path 8794" d="M3174.383,222.321a20.333,20.333,0,0,1,2.576-5.2,9.766,9.766,0,0,1-2.2,5.01A.458.458,0,0,1,3174.383,222.321Zm5.64-9.177a23.308,23.308,0,0,1,1.91-5.507,9.578,9.578,0,0,1-1.5,5.256A.466.466,0,0,1,3180.023,213.144Zm4.322-9.865a27.933,27.933,0,0,1,1.136-5.728,9.41,9.41,0,0,1-.694,5.418A.468.468,0,0,1,3184.345,203.279Zm2.734-10.405a36.807,36.807,0,0,1,.184-5.843,9.206,9.206,0,0,1,.277,5.453A.47.47,0,0,1,3187.079,192.874Zm.765-10.718a56.814,56.814,0,0,1-.915-5.765,9.022,9.022,0,0,1,1.382,5.285A5.51,5.51,0,0,1,3187.844,182.156Zm-1.486-10.65c-.89-2.06-1.426-3.771-2.048-5.435a9.06,9.06,0,0,1,2.5,4.854C3186.436,171.5,3186.4,171.507,3186.358,171.507Zm-3.765-10.06c-1.2-1.822-2.081-3.383-3.038-4.9a9.31,9.31,0,0,1,3.457,4.229C3182.735,161.434,3182.663,161.446,3182.593,161.446Zm-5.718-9.1c-1.456-1.592-2.633-2.945-3.862-4.2a8.917,8.917,0,0,1,4.231,3.447C3177.076,152.312,3176.975,152.343,3176.875,152.343Zm-7.511-7.676c-1.66-1.206-3.122-2.243-4.634-3.186a8.934,8.934,0,0,1,4.927,2.354C3169.634,144.606,3169.5,144.668,3169.364,144.668Zm-9.108-5.7c-1.781-.8-3.44-1.481-5.131-2.077a9.167,9.167,0,0,1,5.33,1.187C3160.6,138.873,3160.431,138.97,3160.256,138.97Zm-47.473-2.878c-.051-.941,1.892-1.5,5.174-2.105a34.429,34.429,0,0,1-5.045,2.089A.408.408,0,0,1,3112.783,136.092Zm37.339-.707c-1.783-.427-3.543-.781-5.351-1.064a9.506,9.506,0,0,1,5.464.144C3150.525,135.246,3150.332,135.386,3150.122,135.386Zm-26.755-1.28a10.122,10.122,0,0,1,5.336-1.419,12.419,12.419,0,0,1-5.278,1.415A.285.285,0,0,1,3123.367,134.106Zm16.128-.4c-1.8-.136-3.594-.212-5.383-.222a9.692,9.692,0,0,1,5.42-.711C3139.941,133.519,3139.737,133.7,3139.5,133.7Z" transform="translate(-3112.782 -132.687)" fill="#1a1a1a"/>
    </g>
    <g id="Group_5123" data-name="Group 5123" transform="translate(3139.808 97.744)">
      <path id="Path_8795" data-name="Path 8795" d="M3036.827,113.038a7.647,7.647,0,1,1,7.647-7.645A7.657,7.657,0,0,1,3036.827,113.038Zm0-14.355a6.709,6.709,0,1,0,6.71,6.71A6.717,6.717,0,0,0,3036.827,98.683Z" transform="translate(-3029.178 -97.744)" fill="#1a1a1a"/>
    </g>
  </g>
</svg>
