<svg xmlns="http://www.w3.org/2000/svg" width="385.384" height="338.492" viewBox="0 0 385.384 338.492">
  <g id="Group_4872" data-name="Group 4872" transform="translate(-1121.651 -131.598)">
    <path id="Path_8400" data-name="Path 8400" d="M1487.546,700.187c-6.043,8.581-21.32,14.033-29.178,15.633-24.628,5.015-53.112-.268-77.973-1.7-31.391-1.8-62.808-3.328-94.262-3.2-29.777.123-58.017,4.386-87.437,8.216-18.61,2.423-38.425,3.6-56.449-2.67-9.158-3.183-21.213-11.972-20.573-22.829,1.394-23.659,39.919-18.379,54.175-16.678,55.014,6.56,110.668-.135,165.883,1.331,18.885.5,38.094.419,57.069-.74,17.95-1.1,35.607-2.984,53.727-3,11.717-.006,29.368-.427,35.869,11.858A12.361,12.361,0,0,1,1487.546,700.187Z" transform="translate(0 -250.998)" fill="#eceff1" style="mix-blend-mode: multiply;isolation: isolate"/>
    <g id="Group_4725" data-name="Group 4725" transform="translate(1140.105 193.199)">
      <path id="Path_8401" data-name="Path 8401" d="M1821.182,256.142a9.985,9.985,0,1,1-9.985-9.985A9.988,9.988,0,0,1,1821.182,256.142Z" transform="translate(-1454.252 -246.157)" fill="#3232f5"/>
      <path id="Path_8402" data-name="Path 8402" d="M1356.085,287.757a9.984,9.984,0,1,1-9.985-9.985A9.984,9.984,0,0,1,1356.085,287.757Z" transform="translate(-1239.248 -260.772)" fill="#3232f5"/>
      <path id="Path_8403" data-name="Path 8403" d="M1427.437,356.269a6.586,6.586,0,1,1-6.585-6.588A6.586,6.586,0,0,1,1427.437,356.269Z" transform="translate(-1275.374 -294.014)" fill="#fff"/>
      <path id="Path_8404" data-name="Path 8404" d="M1703.418,356.269a6.586,6.586,0,1,1-6.584-6.588A6.584,6.584,0,0,1,1703.418,356.269Z" transform="translate(-1402.956 -294.014)" fill="#fff"/>
      <path id="Path_8405" data-name="Path 8405" d="M1169.141,442.126a6.586,6.586,0,1,1-6.584-6.587A6.585,6.585,0,0,1,1169.141,442.126Z" transform="translate(-1155.97 -333.705)" fill="#fff"/>
    </g>
    <g id="Group_4727" data-name="Group 4727" transform="translate(1141.255 292.274)">
      <g id="Group_4726" data-name="Group 4726" transform="translate(0 0)">
        <path id="Path_8406" data-name="Path 8406" d="M1165.378,444.935a7.266,7.266,0,1,1,2.97-.638A7.277,7.277,0,0,1,1165.378,444.935Zm0-13.452a6.187,6.187,0,1,0,5.648,3.656A6.145,6.145,0,0,0,1165.374,431.483Z" transform="translate(-1158.109 -430.408)" fill="#1a1a1a"/>
      </g>
    </g>
    <g id="Group_4729" data-name="Group 4729" transform="translate(1276.841 250.456)">
      <g id="Group_4728" data-name="Group 4728" transform="translate(0 0)">
        <path id="Path_8407" data-name="Path 8407" d="M1417.527,367.165a7.264,7.264,0,1,1,2.969-.637A7.278,7.278,0,0,1,1417.527,367.165Zm-.008-13.451a6.187,6.187,0,1,0,5.647,3.656A6.148,6.148,0,0,0,1417.519,353.714Z" transform="translate(-1410.259 -352.638)" fill="#1a1a1a"/>
      </g>
    </g>
    <g id="Group_4731" data-name="Group 4731" transform="translate(1233.601 207.015)">
      <g id="Group_4730" data-name="Group 4730" transform="translate(0 0)">
        <path id="Path_8408" data-name="Path 8408" d="M1340.319,292.8a10.481,10.481,0,1,1,4.28-.92A10.376,10.376,0,0,1,1340.319,292.8Zm-.011-19.97a9.5,9.5,0,1,0,8.668,5.609A9.427,9.427,0,0,0,1340.308,272.826Z" transform="translate(-1329.844 -271.852)" fill="#1a1a1a"/>
      </g>
    </g>
    <g id="Group_4732" data-name="Group 4732" transform="translate(1250.818 223.775)">
      <path id="Path_8409" data-name="Path 8409" d="M1389.593,333.716a.53.53,0,0,1-.4-.174l-3.64-3.965a.538.538,0,0,1,.793-.728l3.64,3.965a.537.537,0,0,1-.4.9Zm-7.565-8.241a.531.531,0,0,1-.4-.174l-3.925-4.276a.538.538,0,0,1,.793-.728l3.925,4.276a.539.539,0,0,1-.033.76A.533.533,0,0,1,1382.027,325.475Zm-7.851-8.55a.53.53,0,0,1-.4-.174l-3.925-4.276a.538.538,0,1,1,.792-.728l3.925,4.276a.538.538,0,0,1-.033.76A.532.532,0,0,1,1374.177,316.924Zm-7.851-8.552a.53.53,0,0,1-.4-.174L1362,303.922a.538.538,0,1,1,.792-.728l3.925,4.276a.537.537,0,0,1-.4.9Z" transform="translate(-1361.863 -303.02)" fill="#1a1a1a"/>
    </g>
    <g id="Group_4733" data-name="Group 4733" transform="translate(1152.738 222.632)">
      <path id="Path_8410" data-name="Path 8410" d="M1180,373.583a.538.538,0,0,1-.353-.945l4.385-3.8a.539.539,0,1,1,.705.814l-4.385,3.8A.541.541,0,0,1,1180,373.583Zm8.771-7.605a.538.538,0,0,1-.353-.945l4.385-3.8a.539.539,0,1,1,.705.815l-4.385,3.8A.541.541,0,0,1,1188.773,365.977Zm8.77-7.606a.538.538,0,0,1-.353-.945l4.386-3.8a.539.539,0,0,1,.705.815l-4.386,3.8A.542.542,0,0,1,1197.543,358.372Zm8.771-7.6a.538.538,0,0,1-.353-.945l4.385-3.8a.539.539,0,0,1,.705.815l-4.385,3.8A.542.542,0,0,1,1206.314,350.768Zm8.771-7.606a.538.538,0,0,1-.353-.945l4.385-3.8a.539.539,0,1,1,.705.815l-4.385,3.8A.541.541,0,0,1,1215.086,343.163Zm8.769-7.6a.538.538,0,0,1-.353-.945l4.386-3.8a.539.539,0,1,1,.706.814l-4.387,3.8A.544.544,0,0,1,1223.855,335.558Zm8.771-7.606a.538.538,0,0,1-.353-.945l4.385-3.8a.539.539,0,1,1,.706.814l-4.385,3.8A.545.545,0,0,1,1232.626,327.952Zm8.771-7.6a.538.538,0,0,1-.353-.945l4.385-3.8a.539.539,0,0,1,.706.815l-4.385,3.8A.543.543,0,0,1,1241.4,320.347Zm8.77-7.606a.538.538,0,0,1-.353-.945l4.387-3.8a.539.539,0,1,1,.705.814l-4.386,3.8A.542.542,0,0,1,1250.167,312.741Zm8.771-7.6a.538.538,0,0,1-.353-.945l3.653-3.168a.539.539,0,1,1,.705.815l-3.652,3.168A.543.543,0,0,1,1258.938,305.137Z" transform="translate(-1179.464 -300.894)" fill="#1a1a1a"/>
    </g>
    <g id="Group_4735" data-name="Group 4735" transform="translate(1424.646 245.879)">
      <g id="Group_4734" data-name="Group 4734" transform="translate(0 0)">
        <path id="Path_8411" data-name="Path 8411" d="M1692.4,358.654a7.266,7.266,0,1,1,2.969-.637A7.28,7.28,0,0,1,1692.4,358.654Zm-.009-13.453a6.125,6.125,0,0,0-2.527.544,6.188,6.188,0,0,0,2.536,11.833,6.188,6.188,0,0,0,5.639-8.72A6.2,6.2,0,0,0,1692.391,345.2Z" transform="translate(-1685.133 -344.126)" fill="#1a1a1a"/>
      </g>
    </g>
    <g id="Group_4737" data-name="Group 4737" transform="translate(1480.387 191.33)">
      <g id="Group_4736" data-name="Group 4736" transform="translate(0)">
        <path id="Path_8412" data-name="Path 8412" d="M1799.277,263.627a10.47,10.47,0,0,1-4.29-20.024,10.379,10.379,0,0,1,4.281-.921,10.472,10.472,0,0,1,.009,20.945Zm-.009-19.97a9.5,9.5,0,1,0,8.667,5.611A9.431,9.431,0,0,0,1799.268,243.657Z" transform="translate(-1788.795 -242.682)" fill="#1a1a1a"/>
      </g>
    </g>
    <g id="Group_4738" data-name="Group 4738" transform="translate(1413.444 233.004)">
      <path id="Path_8413" data-name="Path 8413" d="M1676.613,334.088a.538.538,0,0,1-.4-.174l-3.927-4.276a.539.539,0,0,1,.8-.728l3.926,4.276a.538.538,0,0,1-.4.9Zm-7.849-8.552a.54.54,0,0,1-.4-.174l-3.926-4.276a.539.539,0,0,1,.8-.728l3.926,4.276a.538.538,0,0,1-.4.9Z" transform="translate(-1664.299 -320.183)" fill="#1a1a1a"/>
    </g>
    <g id="Group_4739" data-name="Group 4739" transform="translate(1436.125 207.49)">
      <path id="Path_8414" data-name="Path 8414" d="M1707.019,314.17a.537.537,0,0,1-.351-.945l4.386-3.8a.538.538,0,1,1,.7.814l-4.386,3.8A.537.537,0,0,1,1707.019,314.17Zm8.77-7.605a.537.537,0,0,1-.352-.945l4.387-3.8a.538.538,0,1,1,.7.815l-4.386,3.8A.535.535,0,0,1,1715.788,306.564Zm8.773-7.6a.537.537,0,0,1-.352-.945l4.384-3.8a.538.538,0,1,1,.7.814l-4.383,3.8A.537.537,0,0,1,1724.561,298.959Zm8.769-7.606a.537.537,0,0,1-.351-.945l4.386-3.8a.538.538,0,1,1,.7.815l-4.386,3.8A.536.536,0,0,1,1733.33,291.354Zm8.77-7.6a.537.537,0,0,1-.351-.945l4.386-3.8a.538.538,0,1,1,.7.815l-4.386,3.8A.537.537,0,0,1,1742.1,283.75Zm8.773-7.606a.537.537,0,0,1-.352-.945l2.69-2.333a.538.538,0,1,1,.7.814l-2.689,2.334A.537.537,0,0,1,1750.873,276.144Z" transform="translate(-1706.481 -272.735)" fill="#1a1a1a"/>
    </g>
    <g id="Group_4740" data-name="Group 4740" transform="translate(1288.659 236.336)">
      <path id="Path_8415" data-name="Path 8415" d="M1432.776,343.91a.537.537,0,0,1-.352-.945l4.385-3.8a.539.539,0,0,1,.705.815l-4.385,3.8A.54.54,0,0,1,1432.776,343.91Zm8.771-7.6a.538.538,0,0,1-.353-.945l4.385-3.8a.539.539,0,1,1,.705.814l-4.385,3.8A.541.541,0,0,1,1441.547,336.3Zm8.771-7.6a.532.532,0,0,1-.405-.185.539.539,0,0,1,.053-.76l1.435-1.245a.538.538,0,1,1,.705.813l-1.435,1.246A.542.542,0,0,1,1450.318,328.7Z" transform="translate(-1432.238 -326.381)" fill="#1a1a1a"/>
    </g>
    <path id="Path_8416" data-name="Path 8416" d="M1263.543,291.019s-6.663,15.733-12.674,17.807c0,0,2.936,7.487,1.009,10.185l6.488,3.121,1.859-6.822s7.821-.687,7.3-8.734c0,0,2.131-1.018,2.159-2.06s-3.136-3.341-3.136-3.341-2.148-9.207-2.77-10.156Z" transform="translate(-59.735 -73.697)" fill="#fff"/>
    <path id="Path_8417" data-name="Path 8417" d="M1228.7,302.746s4.453,9.446,0,12.376-11.219,5.171-16.874-2.639,1.98-15.635,6.577-16.74c0,0-1.446-11.211,1.61-13.637s6.457-3.522,15.673-4.518c7.867-.852,6.04,7.194,6.04,7.194S1236.172,299.565,1228.7,302.746Z" transform="translate(-40.759 -67.459)" opacity="0.2"/>
    <path id="Path_8418" data-name="Path 8418" d="M1275.608,322.116a.164.164,0,0,0-.191.247c.583.839,1.7,2.3,2.585,2.578a19.4,19.4,0,0,0,.519-2.2A16.866,16.866,0,0,1,1275.608,322.116Z" transform="translate(-71.07 -88.067)"/>
    <path id="Path_8419" data-name="Path 8419" d="M1229.027,349.681a23.248,23.248,0,0,1,13.548,8.366c5.765,7.242,4.313,10.433,12.921,18.5a46.008,46.008,0,0,0,18.324,10.479l7.767,14.673s-13,1.316-18.859.16l7.7,4.893-1.227,14.793s-15.02-3.258-24.386-9.909l.7,14.412-37.278-4.834s3.986-32.581,4.051-38.559-.755-16.018,1.16-21.414,4.011-9.419,5.065-10.426A20.276,20.276,0,0,0,1229.027,349.681Z" transform="translate(-40.029 -100.815)" fill="#1a1a1a"/>
    <path id="Path_8420" data-name="Path 8420" d="M1323.1,458.716l-.645,9.234,6.1,1.542,4.467-5.816Z" transform="translate(-92.829 -151.22)" fill="#fff"/>
    <path id="Path_8421" data-name="Path 8421" d="M1337.688,431.674l10.441.112s4.907,3.469,7.324,3.491,10.553-5.033,10.453-5.415.693-1.775-1.466-1.689-4.487.214-4.487.214l-6.432-2.871,3.606-4.694s-4.828-1.1-12.68,3.993l-11.907-2.565Z" transform="translate(-97.49 -133.656)" fill="#fff"/>
    <path id="Path_8422" data-name="Path 8422" d="M1190.34,610.551l-5.588,50.817s15.629,4.667,22.584,3.515l-12.978-4.865,12.978-48.054Z" transform="translate(-29.17 -221.41)" fill="#fff"/>
    <path id="Path_8423" data-name="Path 8423" d="M1271.465,611.963l16.047-1.411,9.969,49.556,13.506,4.958s-7.685,1.19-23.084-3.7Z" transform="translate(-69.256 -221.41)" fill="#fff"/>
    <path id="Path_8424" data-name="Path 8424" d="M1183.787,705.055s16.973,4.921,23.084,3.7c0,0,7.165,2,6.983,3.035s-2.77.732-2.77.732l-28.42-.27Z" transform="translate(-28.205 -265.098)" fill="#3a3a3a"/>
    <path id="Path_8425" data-name="Path 8425" d="M1302.036,705.055s18.725,4.921,23.554,3.87c0,0,7,2.229,6.49,3.062s-3.387.533-3.387.533h-24.1Z" transform="translate(-83.389 -265.098)" fill="#3a3a3a"/>
    <path id="Path_8426" data-name="Path 8426" d="M1199.583,482.717s-4.046,22.081-4.211,27.236.509,18.28-1.584,22.88-4.276,18.237-4.276,18.237,19.2,2.31,30.949,2.136,28.384-1.25,31.684-2.068l-15.285-63.586Z" transform="translate(-31.371 -162.315)" fill="#3232f5"/>
    <path id="Path_8427" data-name="Path 8427" d="M1521.5,187.87h21.04s.481-5.383-.886-9.353c0,0,.149-7.531,7.762-8.081s7.763,7.764,7.763,7.764-1.7,7.63-.886,9.67h21.248V166.787s6.252-.728,9.668.885c0,0,8.412-.4,7.756-8.055s-7.5-7.466-7.5-7.466-6.385,1.775-9.923.881v-21.2l-21.248-.232s-.572,6.286.886,9.9c0,0-.382,8.168-8.032,7.762s-7.492-7.762-7.492-7.762,1.756-6.733.883-9.671H1521.5Z" transform="translate(-184.841)" fill="#3232f5"/>
    <path id="Path_8428" data-name="Path 8428" d="M1535.913,279.166s-.51,10.635-.8,12.1-1.645,7.335.388,10.5,6.23,2.2,6.23,2.2l.049,2.643s-.239,4.941,7.228,4.957,10.364-7.175,10.364-7.175l-.046-10.714s4.735-.557,4.884-4.912-5.642-6.147-7.955-3.353c0,0-.2-6.61-2.437-7.892C1553.819,277.524,1538.823,273.633,1535.913,279.166Z" transform="translate(-190.807 -66.844)" fill="#fff"/>
    <path id="Path_8429" data-name="Path 8429" d="M1483,236.248,1495.453,249s-10.24,12.669-9.357,22.151,7.865,20.452,18.786,20.189l5.894-4.372,8.22,61.33,9.388-62.107,5.322,5.255s12.139.253,17.918-9.379,4.626-16.845,1.4-22.468-6.755-10.6-6.755-10.6l12.459-12.749s12.649,15.3,14.9,28.245.19,34.536-19.408,46.353l2.692,56.449s-7.044,5.569-37.22,5.1-34.78-4.388-34.78-4.388L1487.5,311.1s-14.438-8.9-18.669-26.049C1463.419,263.118,1473.688,248.44,1483,236.248Z" transform="translate(-159.8 -48.378)" fill="#1a1a1a"/>
    <path id="Path_8430" data-name="Path 8430" d="M1557.653,270.818s2.878,3.511,2.278,7.688a6.4,6.4,0,0,1,6.22-.541s3.392-7.9-3.155-11.3c0,0-3.715-5.3-8.666-4.848-8.86.8-10.844,3.67-11.257,8.56C1543.073,270.375,1546.906,268.014,1557.653,270.818Z" transform="translate(-194.815 -60.184)" opacity="0.2"/>
    <path id="Path_8431" data-name="Path 8431" d="M1557.576,305.853s.812-3.176-1.337-2.978-1.365,3.39-2.748,3.777-4.384,0-4.458,2.246,4.523,2.159,6.174,1.533C1555.207,310.431,1553.9,306.565,1557.576,305.853Z" transform="translate(-197.57 -79.174)" fill="#3a3a3a"/>
    <path id="Path_8432" data-name="Path 8432" d="M1635.375,676.47c-.018.283.109,15.113.109,15.113l12.7-23.132-.513-2.251,1.716.022s2.064-3.29,1.847-3.427-5.35-4.088-5.35-4.088Z" transform="translate(-237.484 -243.672)" fill="#3a3a3a"/>
    <path id="Path_8433" data-name="Path 8433" d="M1572.824,707.028l.2,6.3,4.113.028.669-1.34,1.865,1.427,26.862.3-12.652-6.859Z" transform="translate(-208.568 -265.942)" fill="#3a3a3a"/>
    <path id="Path_8434" data-name="Path 8434" d="M1735.659,629.533c0,1.57-11.7,2.841-26.126,2.841s-26.125-1.271-26.125-2.841c0-1.119,5.938-2.086,14.571-2.551,1.358-.073,2.912.93,4.392.884,1.635-.052,3.211-1.149,4.965-1.166q1.087-.009,2.2-.009C1723.961,626.69,1735.659,627.963,1735.659,629.533Z" transform="translate(-259.689 -228.871)" fill="#3a3a3a"/>
    <path id="Path_8435" data-name="Path 8435" d="M1753,486.483s-11.8-4.328-14.216,7.573c-.9,4.46-.345,10.313-3.32,14.021-1.439,1.8-3.47,3.011-5.291,4.421a31.515,31.515,0,0,0-10.113,14.23,25.4,25.4,0,0,0-1.023,2.919,7.791,7.791,0,0,1-.674-.829c-1.828-2.633-1.178-6.54-1.579-9.583-1.069-8.113-9.2-5.754-9.2-5.754s-8.363,1.354-5.851,9.143c.939,2.921,3.2,6.174,2.677,9.335a19.652,19.652,0,0,1-1.651,4.344,21.243,21.243,0,0,0-1.244,11.7c1.346,8.128,7.958,18.318,17.552,16a11.327,11.327,0,0,0,6.071-3.67,12.978,12.978,0,0,0,1.5-2.189,21.687,21.687,0,0,0,4.5,2.035,16.8,16.8,0,0,0,10.523-.334c8.6-3.136,14.726-12.954,16.79-21.647a31.548,31.548,0,0,0-.644-17.445c-.749-2.18-1.781-4.306-2-6.6-.451-4.733,3.227-9.318,4.921-13.543C1765.234,489.343,1753,486.483,1753,486.483Z" transform="translate(-267.911 -163.702)" opacity="0.1"/>
    <path id="Path_8436" data-name="Path 8436" d="M1686.24,661.04s2.086,2.671,23.8,2.671,25.3-2.119,25.3-2.119-1.324,14.65-10.8,21.527a70.406,70.406,0,0,1-27.273.091S1689.278,678.49,1686.24,661.04Z" transform="translate(-260.998 -244.751)" fill="#fff"/>
    <path id="Path_8437" data-name="Path 8437" d="M1508.375,220.246s5.941-8.3,2.1-9.068c-3.327-.662-8.873,15.683-8.873,15.683l7.514,8.306s7.722-5.547,8.6-8.539l-9.482.233Z" transform="translate(-175.645 -36.779)" fill="#fff"/>
    <path id="Path_8438" data-name="Path 8438" d="M1610.668,220.088s-5.68-7.879-2.254-8.962c3.233-1.023,9.407,16.4,9.407,16.4l-7.906,7.994s-7.722-5.547-8.6-8.54l9.2-.155Z" transform="translate(-221.742 -36.744)" fill="#fff"/>
    <path id="Path_8439" data-name="Path 8439" d="M1410.481,443.21l-16.846-12.946c-3.561,2.8-5.493,7.722-5.718,8.314a7.409,7.409,0,0,1-11.748-9.029c.515-.37,4.775-3.507,6.659-7.226-.1-.441-16.781-13.262-16.781-13.262a.354.354,0,0,0-.5.066L1331.4,453.559a.355.355,0,0,0,.066.5l16.684,12.822c3.559-2.8,5.491-7.722,5.715-8.314a7.41,7.41,0,0,1,11.751,9.029c-.514.37-4.776,3.506-6.661,7.226.1.44,16.945,13.386,16.945,13.386a.348.348,0,0,0,.215.073.373.373,0,0,0,.281-.138l12.848-16.717c-2.795-3.562-7.722-5.494-8.314-5.72a7.409,7.409,0,0,1,9.031-11.748c.368.513,3.506,4.775,7.226,6.661.438-.1,13.358-16.909,13.358-16.909a.356.356,0,0,0-.065-.5Z" transform="translate(-96.93 -128.232)" fill="#3232f5"/>
    <g id="Group_4741" data-name="Group 4741" transform="translate(1397.732 428.477)">
      <path id="Path_8440" data-name="Path 8440" d="M1635.423,690.812a.329.329,0,0,1-.161-.042.339.339,0,0,1-.14-.462l3.464-6.424a.345.345,0,0,1,.463-.138.338.338,0,0,1,.14.461l-3.463,6.425A.345.345,0,0,1,1635.423,690.812Z" transform="translate(-1635.08 -683.705)" fill="#fff"/>
    </g>
    <g id="Group_4742" data-name="Group 4742" transform="translate(1397.791 432.283)">
      <path id="Path_8441" data-name="Path 8441" d="M1635.533,697.89a.332.332,0,0,1-.162-.042.339.339,0,0,1-.14-.462l3.466-6.422a.342.342,0,0,1,.6.324l-3.466,6.422A.343.343,0,0,1,1635.533,697.89Z" transform="translate(-1635.19 -690.784)" fill="#fff"/>
    </g>
    <g id="Group_4743" data-name="Group 4743" transform="translate(1379.093 441.617)">
      <path id="Path_8442" data-name="Path 8442" d="M1608.059,708.826h-7.3a.342.342,0,1,1,0-.684h7.3a.342.342,0,0,1,0,.684Z" transform="translate(-1600.418 -708.142)" fill="#fff"/>
    </g>
    <g id="Group_4744" data-name="Group 4744" transform="translate(1382.417 443.478)">
      <path id="Path_8443" data-name="Path 8443" d="M1614.239,712.286h-7.3a.342.342,0,0,1,0-.684h7.3a.342.342,0,1,1,0,.684Z" transform="translate(-1606.598 -711.602)" fill="#fff"/>
    </g>
    <path id="Path_8444" data-name="Path 8444" d="M1506.969,484.475s-2.03,30.185-2.2,41.464-.15,24.039,1.032,28.014,5.776,7.545,31.842,22.963l.37,26.953h29.362l.65-7.909,5.048,3.167,15.049-25.684-18.947-12.629-.3-76.768s-16.781,3.889-30.767,2.926S1512.253,486.625,1506.969,484.475Z" transform="translate(-177.07 -162.93)" fill="#fff"/>
    <g id="Group_4748" data-name="Group 4748" transform="translate(1209.752 160.151)">
      <g id="Group_4745" data-name="Group 4745" transform="translate(0 7.036)">
        <path id="Path_8445" data-name="Path 8445" d="M1291.942,204.768a.541.541,0,0,1-.381-.157l-5.911-5.91a.539.539,0,0,1,.762-.761l5.911,5.91a.538.538,0,0,1-.381.919Z" transform="translate(-1285.493 -197.784)" fill="#1a1a1a"/>
      </g>
      <g id="Group_4746" data-name="Group 4746" transform="translate(0 7.036)">
        <path id="Path_8446" data-name="Path 8446" d="M1286.031,204.768a.538.538,0,0,1-.381-.919l5.911-5.91a.538.538,0,0,1,.761.761l-5.911,5.91A.543.543,0,0,1,1286.031,204.768Z" transform="translate(-1285.493 -197.784)" fill="#1a1a1a"/>
      </g>
      <g id="Group_4747" data-name="Group 4747" transform="translate(11.235)">
        <path id="Path_8447" data-name="Path 8447" d="M1308.614,189.152a2.227,2.227,0,1,1,2.226-2.226A2.229,2.229,0,0,1,1308.614,189.152Zm0-3.377a1.151,1.151,0,1,0,1.15,1.151A1.154,1.154,0,0,0,1308.614,185.775Z" transform="translate(-1306.386 -184.699)" fill="#1a1a1a"/>
      </g>
    </g>
    <g id="Group_4750" data-name="Group 4750" transform="translate(1478.652 265.14)">
      <g id="Group_4749" data-name="Group 4749">
        <path id="Path_8448" data-name="Path 8448" d="M1787.794,384.4a2.227,2.227,0,1,1,2.226-2.226A2.228,2.228,0,0,1,1787.794,384.4Zm0-3.377a1.151,1.151,0,1,0,1.15,1.151A1.153,1.153,0,0,0,1787.794,381.022Z" transform="translate(-1785.568 -379.946)" fill="#1a1a1a"/>
      </g>
    </g>
    <g id="Group_4751" data-name="Group 4751" transform="translate(1396.284 312.333)">
      <path id="Path_8449" data-name="Path 8449" d="M1690.206,468.787h-57.281a.538.538,0,0,1,0-1.076h57.281a.538.538,0,1,1,0,1.076Z" transform="translate(-1632.388 -467.711)" fill="#1a1a1a"/>
    </g>
    <g id="Group_4752" data-name="Group 4752" transform="translate(1310.063 312.333)">
      <path id="Path_8450" data-name="Path 8450" d="M1487.087,468.787H1472.58a.538.538,0,0,1,0-1.076h14.507a.538.538,0,0,1,0,1.076Z" transform="translate(-1472.042 -467.711)" fill="#1a1a1a"/>
    </g>
    <g id="Group_4753" data-name="Group 4753" transform="translate(1204.651 312.333)">
      <path id="Path_8451" data-name="Path 8451" d="M1279.39,468.787h-2.846a.538.538,0,0,1,0-1.076h2.846a.538.538,0,0,1,0,1.076Z" transform="translate(-1276.006 -467.711)" fill="#1a1a1a"/>
    </g>
    <g id="Group_4754" data-name="Group 4754" transform="translate(1122.01 312.333)">
      <path id="Path_8452" data-name="Path 8452" d="M1169.5,468.787h-46.638a.538.538,0,0,1,0-1.076H1169.5a.538.538,0,1,1,0,1.076Z" transform="translate(-1122.32 -467.711)" fill="#1a1a1a"/>
    </g>
    <path id="Path_8453" data-name="Path 8453" d="M1540.464,293.463a.63.63,0,0,1-.594-.656l.093-1.754a.624.624,0,0,1,1.247.064l-.09,1.755A.626.626,0,0,1,1540.464,293.463Z" transform="translate(-193.334 -73.44)"/>
    <path id="Path_8454" data-name="Path 8454" d="M1558.828,293.532a.624.624,0,0,1-.59-.654l.09-1.755a.624.624,0,1,1,1.246.066l-.09,1.753A.626.626,0,0,1,1558.828,293.532Z" transform="translate(-201.825 -73.472)"/>
    <g id="Group_4756" data-name="Group 4756" transform="translate(1350.394 236.98)">
      <g id="Group_4755" data-name="Group 4755">
        <path id="Path_8455" data-name="Path 8455" d="M1547.583,329.4a.537.537,0,0,1-.538-.538v-.743a.538.538,0,0,1,1.076,0v.743A.537.537,0,0,1,1547.583,329.4Z" transform="translate(-1547.045 -327.577)" fill="#1a1a1a"/>
      </g>
    </g>
    <g id="Group_4758" data-name="Group 4758" transform="translate(1367.982 226.023)">
      <g id="Group_4757" data-name="Group 4757" transform="translate(0)">
        <path id="Path_8456" data-name="Path 8456" d="M1580.62,319.525a.538.538,0,0,1-.538-.522l-.327-11.249a.536.536,0,0,1,.523-.553.526.526,0,0,1,.553.522l.326,11.249a.536.536,0,0,1-.522.553Z" transform="translate(-1579.755 -307.201)" fill="#1a1a1a"/>
      </g>
    </g>
    <g id="Group_4760" data-name="Group 4760" transform="translate(1343.068 211.735)">
      <g id="Group_4759" data-name="Group 4759" transform="translate(0 0)">
        <path id="Path_8457" data-name="Path 8457" d="M1542.33,306.988a12.4,12.4,0,0,1-5.428-1.1c-4.517-2.212-3.553-7.967-2.978-11.406.1-.593.189-1.125.239-1.57.342-2.97.755-11.678.759-11.765a.57.57,0,0,1,.563-.513.539.539,0,0,1,.512.563c-.018.359-.419,8.832-.765,11.838-.053.458-.142,1.01-.245,1.624-.563,3.347-1.408,8.4,2.387,10.262,4.29,2.1,10.489.2,10.551.179a.538.538,0,0,1,.324,1.026A21.742,21.742,0,0,1,1542.33,306.988Z" transform="translate(-1533.422 -280.63)" fill="#1a1a1a"/>
      </g>
    </g>
    <g id="Group_4762" data-name="Group 4762" transform="translate(1350.924 223.037)">
      <g id="Group_4761" data-name="Group 4761" transform="translate(0 0)">
        <path id="Path_8458" data-name="Path 8458" d="M1552.292,310.9c-1.837,0-3.64-.935-4.1-2.125a2.016,2.016,0,0,1,.174-1.91,2.819,2.819,0,0,1,2.674-1.036,9.719,9.719,0,0,0,.992.067.894.894,0,0,0,.73-.218c.261-.2.382-.293.6-1.623a2.606,2.606,0,0,1,2.328-2.412,2.112,2.112,0,0,1,1.263.441,3.55,3.55,0,0,1,1.079,2.834,5.9,5.9,0,0,1-2.2,4.765A5.778,5.778,0,0,1,1552.292,310.9Zm-1.638-4.015a1.688,1.688,0,0,0-1.4.589.945.945,0,0,0-.059.912,3.5,3.5,0,0,0,3.1,1.436,4.718,4.718,0,0,0,2.879-.993,4.829,4.829,0,0,0,1.781-3.9,2.628,2.628,0,0,0-.641-1.977c-.815-.591-1.7.115-1.89,1.276-.249,1.523-.448,1.878-1.007,2.305a1.907,1.907,0,0,1-1.384.438,10.493,10.493,0,0,1-1.1-.073C1550.834,306.894,1550.743,306.889,1550.654,306.889Z" transform="translate(-1548.031 -301.648)" fill="#1a1a1a"/>
      </g>
    </g>
    <g id="Group_4764" data-name="Group 4764" transform="translate(1357.254 226.407)">
      <g id="Group_4763" data-name="Group 4763" transform="translate(0)">
        <path id="Path_8459" data-name="Path 8459" d="M1560.432,312.615a.38.38,0,0,1-.361-.258,3.4,3.4,0,0,1,.115-2.921,3.6,3.6,0,0,1,2.3-1.517.39.39,0,0,1,.441.311.383.383,0,0,1-.31.441,2.854,2.854,0,0,0-1.781,1.158,2.682,2.682,0,0,0-.047,2.281.379.379,0,0,1-.36.5Z" transform="translate(-1559.803 -307.914)" fill="#1a1a1a"/>
      </g>
    </g>
    <g id="Group_4766" data-name="Group 4766" transform="translate(1356.543 213.425)">
      <g id="Group_4765" data-name="Group 4765" transform="translate(0 0)">
        <path id="Path_8460" data-name="Path 8460" d="M1561.263,286.141a.543.543,0,0,1-.373-.15,5.34,5.34,0,0,0-2-1.159.537.537,0,0,1-.392-.653.546.546,0,0,1,.652-.392,6.343,6.343,0,0,1,2.488,1.427.539.539,0,0,1-.373.927Z" transform="translate(-1558.48 -283.772)" fill="#1a1a1a"/>
      </g>
    </g>
    <g id="Group_4768" data-name="Group 4768" transform="translate(1346.66 213.573)">
      <g id="Group_4767" data-name="Group 4767" transform="translate(0 0)">
        <path id="Path_8461" data-name="Path 8461" d="M1540.64,286.117a.537.537,0,0,1-.4-.895,4.515,4.515,0,0,1,2.438-1.167.516.516,0,0,1,.612.451.537.537,0,0,1-.451.612,3.525,3.525,0,0,0-1.8.819A.53.53,0,0,1,1540.64,286.117Z" transform="translate(-1540.102 -284.047)" fill="#1a1a1a"/>
      </g>
    </g>
    <g id="Group_4770" data-name="Group 4770" transform="translate(1348.777 217.055)">
      <g id="Group_4769" data-name="Group 4769" transform="translate(0 0)">
        <path id="Path_8462" data-name="Path 8462" d="M1544.576,300.166a.527.527,0,0,1-.27-.073.538.538,0,0,1-.258-.568l1.679-8.571a.548.548,0,0,1,.631-.425.541.541,0,0,1,.426.633l-1.383,7.055.836-.71a.537.537,0,1,1,.7.818l-2.008,1.713A.53.53,0,0,1,1544.576,300.166Z" transform="translate(-1544.038 -290.522)" fill="#1a1a1a"/>
      </g>
    </g>
    <g id="Group_4772" data-name="Group 4772" transform="translate(1363.929 216.653)">
      <g id="Group_4771" data-name="Group 4771">
        <path id="Path_8463" data-name="Path 8463" d="M1577.007,300.221a5.2,5.2,0,0,1-2.838-.838.538.538,0,0,1,.585-.9,4.147,4.147,0,1,0,2.253-7.627,4.165,4.165,0,0,0-3.765,2.406.538.538,0,1,1-.976-.454,5.223,5.223,0,1,1,4.741,7.417Z" transform="translate(-1572.216 -289.776)" fill="#1a1a1a"/>
      </g>
    </g>
    <g id="Group_4775" data-name="Group 4775" transform="translate(1343.424 201.032)">
      <g id="Group_4773" data-name="Group 4773" transform="translate(0 0)">
        <path id="Path_8464" data-name="Path 8464" d="M1561.822,277.822a.545.545,0,0,1-.218-.045.539.539,0,0,1-.274-.71c3.389-7.665-2.456-10.464-2.7-10.581a.513.513,0,0,1-.245-.227c-2.724-4.93-10.566-5.286-17.129-3.454-2.8.783-4.657,2.159-5.521,4.089-1.473,3.284.379,7.133.4,7.17a.536.536,0,0,1-.246.721.543.543,0,0,1-.718-.246c-.087-.177-2.092-4.346-.417-8.086,1-2.237,3.09-3.813,6.211-4.685,6.913-1.926,15.2-1.481,18.279,3.825,1.045.569,6.556,4.039,3.075,11.907A.536.536,0,0,1,1561.822,277.822Z" transform="translate(-1534.083 -260.725)" fill="#1a1a1a"/>
      </g>
      <g id="Group_4774" data-name="Group 4774" transform="translate(1.144 7.651)">
        <path id="Path_8465" data-name="Path 8465" d="M1556.759,285.37a.551.551,0,0,1-.535-.6c.006-.055.628-5.422-2.008-7.536-1.308-.322-14.176-3.339-17,1.581a.539.539,0,0,1-.933-.538c3.37-5.858,17.7-2.218,18.31-2.058a.5.5,0,0,1,.187.092c3.229,2.44,2.546,8.339,2.515,8.589A.54.54,0,0,1,1556.759,285.37Z" transform="translate(-1536.21 -274.953)" fill="#1a1a1a"/>
      </g>
    </g>
    <g id="Group_4777" data-name="Group 4777" transform="translate(1365.533 205.775)">
      <g id="Group_4776" data-name="Group 4776">
        <path id="Path_8466" data-name="Path 8466" d="M1575.738,272.28a.538.538,0,0,1-.333-.96l2.111-1.662a.538.538,0,1,1,.665.845l-2.111,1.662A.532.532,0,0,1,1575.738,272.28Z" transform="translate(-1575.2 -269.544)" fill="#1a1a1a"/>
      </g>
    </g>
    <g id="Group_4779" data-name="Group 4779" transform="translate(1339.424 237.724)">
      <g id="Group_4778" data-name="Group 4778" transform="translate(0)">
        <path id="Path_8467" data-name="Path 8467" d="M1546.549,392.672a.538.538,0,0,1-.495-.326l-14.173-33.163a.542.542,0,0,1-.025-.348l1.975-7.543-6.771-1.576a.538.538,0,0,1-.395-.673l3.886-13.541a.512.512,0,0,1,.164-.258l7.085-6.151a.538.538,0,0,1,.886.334l8.375,62.474a.54.54,0,0,1-.485.772C1546.555,392.669,1546.555,392.67,1546.549,392.672Zm-13.607-33.743,12.547,29.358-7.737-57.73-6.211,5.392-3.684,12.845,6.758,1.573a.533.533,0,0,1,.339.246.539.539,0,0,1,.059.415Z" transform="translate(-1526.645 -328.96)" fill="#1a1a1a"/>
      </g>
    </g>
    <g id="Group_4781" data-name="Group 4781" transform="translate(1358.791 237.272)">
      <g id="Group_4780" data-name="Group 4780" transform="translate(0 0)">
        <path id="Path_8468" data-name="Path 8468" d="M1563.2,392.284c-.408-.1-.572-.351-.532-.618l9.519-63.088a.539.539,0,0,1,.921-.292l6.326,6.6a.529.529,0,0,1,.127.224l3.889,13.543a.539.539,0,0,1-.395.673l-6.774,1.576,1.974,7.543a.547.547,0,0,1-.025.353l-14.536,33.164A.542.542,0,0,1,1563.2,392.284Zm9.889-62.463-8.751,57.988,12.829-29.271-2.067-7.9a.539.539,0,0,1,.059-.415.533.533,0,0,1,.339-.246l6.761-1.573-3.7-12.87Z" transform="translate(-1562.661 -328.12)" fill="#1a1a1a"/>
      </g>
    </g>
    <g id="Group_4783" data-name="Group 4783" transform="translate(1350.436 237.274)">
      <g id="Group_4782" data-name="Group 4782" transform="translate(0)">
        <path id="Path_8469" data-name="Path 8469" d="M1554.269,336.13a6.5,6.5,0,0,1-7.144-6.712.538.538,0,0,1,1.076.036,6.057,6.057,0,0,0,1.582,4.038,6.337,6.337,0,0,0,4.846,1.556c6.787-.217,10.128-6.57,10.162-6.634a.547.547,0,0,1,.724-.233.537.537,0,0,1,.233.724c-.146.284-3.653,6.979-11.083,7.218C1554.533,336.129,1554.4,336.13,1554.269,336.13Z" transform="translate(-1547.124 -328.125)" fill="#1a1a1a"/>
      </g>
    </g>
    <g id="Group_4784" data-name="Group 4784" transform="translate(1201.944 225.206)">
      <path id="Path_8470" data-name="Path 8470" d="M1271.648,308.194a.524.524,0,0,0,.482-.561l-.11-1.469a.524.524,0,0,0-1.045.079l.112,1.469A.525.525,0,0,0,1271.648,308.194Z" transform="translate(-1270.973 -305.68)"/>
    </g>
    <g id="Group_4786" data-name="Group 4786" transform="translate(1198.093 241.075)">
      <g id="Group_4785" data-name="Group 4785">
        <path id="Path_8471" data-name="Path 8471" d="M1264.348,343.091c-.429-.1-.6-.393-.519-.679l1.859-6.822a.538.538,0,1,1,1.038.283l-1.859,6.822A.537.537,0,0,1,1264.348,343.091Z" transform="translate(-1263.811 -335.193)" fill="#1a1a1a"/>
      </g>
    </g>
    <g id="Group_4798" data-name="Group 4798" transform="translate(1332.192 133.502)">
      <g id="Group_4788" data-name="Group 4788" transform="translate(20.157 0)">
        <g id="Group_4787" data-name="Group 4787">
          <path id="Path_8472" data-name="Path 8472" d="M1558.982,153.65a8.31,8.31,0,0,1-8.3-8.3.454.454,0,0,1,.025-.159c.016-.053,1.632-5.363.867-9.413a.537.537,0,0,1,.429-.629.531.531,0,0,1,.628.43c.771,4.083-.657,9.123-.874,9.848a7.225,7.225,0,0,0,14.449,0c-.217-.724-1.648-5.767-.876-9.848a.523.523,0,0,1,.628-.43.537.537,0,0,1,.429.629c-.765,4.05.854,9.358.87,9.413a.542.542,0,0,1,.025.159A8.309,8.309,0,0,1,1558.982,153.65Z" transform="translate(-1550.682 -135.138)" fill="#1a1a1a"/>
        </g>
      </g>
      <g id="Group_4790" data-name="Group 4790" transform="translate(20.157 38.609)">
        <g id="Group_4789" data-name="Group 4789">
          <path id="Path_8473" data-name="Path 8473" d="M1565.859,225.448a.536.536,0,0,1-.529-.438c-.768-4.083.659-9.124.876-9.848a7.225,7.225,0,0,0-14.449,0c.217.724,1.647,5.767.877,9.848a.527.527,0,0,1-.628.429.537.537,0,0,1-.43-.628c.765-4.051-.854-9.359-.87-9.413a.539.539,0,0,1-.025-.159,8.3,8.3,0,1,1,16.6,0,.449.449,0,0,1-.025.159c-.016.053-1.632,5.363-.87,9.413a.537.537,0,0,1-.429.628A.6.6,0,0,1,1565.859,225.448Z" transform="translate(-1550.682 -206.939)" fill="#1a1a1a"/>
        </g>
      </g>
      <g id="Group_4793" data-name="Group 4793" transform="translate(34.795 0.002)">
        <g id="Group_4791" data-name="Group 4791">
          <path id="Path_8474" data-name="Path 8474" d="M1599.691,177.641a.537.537,0,0,1-.538-.538v-6.466a.538.538,0,0,1,.438-.529c4.073-.779,9.121.657,9.846.873a7.224,7.224,0,0,0,0-14.447c-.722.215-5.764,1.643-9.846.876a.536.536,0,0,1-.438-.528V136.218h-20.71a.538.538,0,1,1,0-1.076h21.248a.537.537,0,0,1,.538.538v20.747c3.991.572,8.919-.929,8.972-.946a.538.538,0,0,1,.158-.023,8.3,8.3,0,0,1,0,16.6.538.538,0,0,1-.158-.023c-.053-.017-4.986-1.523-8.972-.944V177.1A.537.537,0,0,1,1599.691,177.641Z" transform="translate(-1577.905 -135.142)" fill="#1a1a1a"/>
        </g>
        <g id="Group_4792" data-name="Group 4792" transform="translate(0 49.302)">
          <path id="Path_8475" data-name="Path 8475" d="M1599.691,234.644h-21.248a.538.538,0,1,1,0-1.075h20.71v-6.2a.538.538,0,0,1,1.076,0v6.738A.537.537,0,0,1,1599.691,234.644Z" transform="translate(-1577.905 -226.83)" fill="#1a1a1a"/>
        </g>
      </g>
      <g id="Group_4797" data-name="Group 4797" transform="translate(0 0.002)">
        <g id="Group_4794" data-name="Group 4794" transform="translate(0 49.425)">
          <path id="Path_8476" data-name="Path 8476" d="M1534.777,234.749h-21.043a.537.537,0,0,1-.538-.538V227.6a.538.538,0,0,1,1.075,0v6.078h20.505a.538.538,0,1,1,0,1.075Z" transform="translate(-1513.196 -227.058)" fill="#1a1a1a"/>
        </g>
        <g id="Group_4795" data-name="Group 4795" transform="translate(0 24.829)">
          <path id="Path_8477" data-name="Path 8477" d="M1513.734,198.975a.537.537,0,0,1-.538-.538V181.855a.538.538,0,0,1,1.075,0v16.582A.537.537,0,0,1,1513.734,198.975Z" transform="translate(-1513.196 -181.317)" fill="#1a1a1a"/>
        </g>
        <g id="Group_4796" data-name="Group 4796">
          <path id="Path_8478" data-name="Path 8478" d="M1513.734,145.743a.538.538,0,0,1-.538-.538V135.68a.537.537,0,0,1,.538-.538h21.04a.538.538,0,0,1,0,1.076h-20.5V145.2A.537.537,0,0,1,1513.734,145.743Z" transform="translate(-1513.196 -135.142)" fill="#1a1a1a"/>
        </g>
      </g>
    </g>
    <g id="Group_4809" data-name="Group 4809" transform="translate(1232.861 276.331)">
      <g id="Group_4800" data-name="Group 4800" transform="translate(42.631 12.822)">
        <g id="Group_4799" data-name="Group 4799">
          <path id="Path_8479" data-name="Path 8479" d="M1416.038,445.3a8.3,8.3,0,0,1-6.573-13.357.623.623,0,0,1,.117-.112c.045-.031,4.562-3.255,6.424-6.932a.538.538,0,0,1,.961.485c-1.877,3.708-6.083,6.834-6.7,7.277a7.226,7.226,0,0,0,11.457,8.806c.271-.707,2.206-5.577,5.305-8.344a.538.538,0,1,1,.718.8c-3.079,2.748-5.023,7.943-5.042,7.994a.515.515,0,0,1-.08.141A8.294,8.294,0,0,1,1416.038,445.3Z" transform="translate(-1407.75 -424.603)" fill="#1a1a1a"/>
        </g>
      </g>
      <g id="Group_4802" data-name="Group 4802" transform="translate(16.683 46.018)">
        <g id="Group_4801" data-name="Group 4801">
          <path id="Path_8480" data-name="Path 8480" d="M1370.94,507.036a.538.538,0,0,1-.481-.78c1.878-3.709,6.082-6.834,6.695-7.278a7.225,7.225,0,0,0-11.457-8.8c-.269.706-2.207,5.574-5.3,8.342a.538.538,0,0,1-.718-.8c3.073-2.747,5.025-7.941,5.044-7.992a.532.532,0,0,1,.078-.141,8.3,8.3,0,1,1,13.165,10.116.592.592,0,0,1-.117.112c-.045.031-4.562,3.255-6.424,6.932A.537.537,0,0,1,1370.94,507.036Z" transform="translate(-1359.495 -486.339)" fill="#1a1a1a"/>
        </g>
      </g>
      <g id="Group_4803" data-name="Group 4803" transform="translate(61.735 21.205)">
        <path id="Path_8481" data-name="Path 8481" d="M1447.745,471.026a.537.537,0,0,1-.427-.866l12.59-16.383-16.418-12.62a.539.539,0,1,1,.656-.855l16.846,12.948a.538.538,0,0,1,.1.755l-12.918,16.811A.538.538,0,0,1,1447.745,471.026Z" transform="translate(-1443.279 -440.193)" fill="#1a1a1a"/>
      </g>
      <g id="Group_4804" data-name="Group 4804" transform="translate(46.04 42.764)">
        <path id="Path_8482" data-name="Path 8482" d="M1425.873,500.465a.539.539,0,0,1-.4-.179c-2.749-3.079-7.943-5.026-7.994-5.044a.544.544,0,0,1-.141-.077A8.3,8.3,0,1,1,1427.454,482a.618.618,0,0,1,.112.117c.031.045,3.255,4.562,6.931,6.424a.539.539,0,0,1-.488.96c-3.7-1.878-6.83-6.082-7.273-6.694a7.225,7.225,0,0,0-8.805,11.457c.707.269,5.576,2.206,8.344,5.305a.538.538,0,0,1-.4.9Z" transform="translate(-1414.091 -480.287)" fill="#1a1a1a"/>
      </g>
      <g id="Group_4805" data-name="Group 4805" transform="translate(27.59 61.869)">
        <path id="Path_8483" data-name="Path 8483" d="M1397.161,533.608a.543.543,0,0,1-.328-.111l-16.845-12.945a.539.539,0,0,1,.656-.855l16.417,12.617,12.518-16.29a.539.539,0,0,1,.854.656L1397.588,533.4a.54.54,0,0,1-.357.205A.529.529,0,0,1,1397.161,533.608Z" transform="translate(-1379.778 -515.815)" fill="#1a1a1a"/>
      </g>
      <g id="Group_4808" data-name="Group 4808">
        <g id="Group_4806" data-name="Group 4806" transform="translate(0 21.908)">
          <path id="Path_8484" data-name="Path 8484" d="M1345.691,477.926a.54.54,0,0,1-.328-.11l-16.683-12.822a.539.539,0,0,1-.1-.755l17.312-22.528a.539.539,0,1,1,.854.657l-16.984,22.1,16.255,12.494a.538.538,0,0,1-.328.965Z" transform="translate(-1328.469 -441.501)" fill="#1a1a1a"/>
        </g>
        <g id="Group_4807" data-name="Group 4807" transform="translate(26.237)">
          <path id="Path_8485" data-name="Path 8485" d="M1402.393,414.656a.541.541,0,0,1-.328-.11l-16.252-12.492-7.583,9.867a.539.539,0,1,1-.855-.655l7.911-10.295a.54.54,0,0,1,.358-.205.525.525,0,0,1,.4.106l16.679,12.82a.538.538,0,0,1-.328.965Z" transform="translate(-1377.263 -400.758)" fill="#1a1a1a"/>
        </g>
      </g>
    </g>
    <g id="Group_4811" data-name="Group 4811" transform="translate(1306.668 187.327)">
      <g id="Group_4810" data-name="Group 4810">
        <path id="Path_8486" data-name="Path 8486" d="M1518.389,372.464c-31,0-34.5-4.477-34.8-4.988a.546.546,0,0,1-.071-.3l2.695-56.492c-12.1-6.78-16.2-17.718-19.094-27.453-6.964-23.432,14.521-47.572,14.742-47.813a.5.5,0,0,1,.4-.177.536.536,0,0,1,.386.162l12.457,12.749a.54.54,0,0,1,.046.7c-6.143,8.225-11.828,17.11-8.1,27.3,1.993,5.447,6.957,14.539,17.527,14.179a.553.553,0,0,1,.557.521.539.539,0,0,1-.519.555c-11.254.418-16.483-9.166-18.578-14.885-3.851-10.527,2.027-19.928,7.977-27.941l-11.726-12c-2.826,3.331-20.418,25.205-14.132,46.35,2.855,9.609,6.9,20.41,18.873,26.98a.541.541,0,0,1,.28.5l-2.7,56.615c.665.616,5.872,4.37,33.789,4.37,27.757,0,35.862-3.7,37.245-4.475l-2.7-56.51a.54.54,0,0,1,.28-.5c11.971-6.571,16.019-17.373,18.873-26.98,6.282-21.145-11.307-43.02-14.132-46.35l-11.729,12c5.953,8.008,11.834,17.405,7.98,27.941-3.239,8.844-12.388,15.287-21.264,15a.538.538,0,0,1-.519-.555.517.517,0,0,1,.556-.521c8.416.294,17.129-5.866,20.213-14.29,3.731-10.194-1.958-19.073-8.1-27.3a.54.54,0,0,1,.047-.7L1557.6,235.4a.426.426,0,0,1,.395-.162.535.535,0,0,1,.388.177c.221.241,21.7,24.381,14.741,47.813-2.891,9.734-6.991,20.672-19.093,27.453l2.7,56.492a.539.539,0,0,1-.211.455C1556.252,367.832,1549.792,372.464,1518.389,372.464Z" transform="translate(-1465.728 -235.238)" fill="#1a1a1a"/>
      </g>
    </g>
    <g id="Group_4813" data-name="Group 4813" transform="translate(1198.623 216.572)">
      <g id="Group_4812" data-name="Group 4812" transform="translate(0)">
        <path id="Path_8487" data-name="Path 8487" d="M1265.336,315.3a.538.538,0,0,1-.032-1.075c3.159-.194,5.42-1.167,6.723-2.891a7.287,7.287,0,0,0,1.154-5.406.538.538,0,0,1,.321-.612,5.167,5.167,0,0,0,2.109-1.338,10.17,10.17,0,0,0-1.306-1.149c-1.1-.884-1.771-1.465-1.864-2.1a48.387,48.387,0,0,0-2.807-10.362.538.538,0,0,1,.992-.418,48.57,48.57,0,0,1,2.878,10.622c.064.28.982,1.02,1.476,1.418a5.32,5.32,0,0,1,1.649,1.693c.374,1.02-1.146,1.926-2.324,2.457a8.193,8.193,0,0,1-1.419,5.842c-1.5,1.985-4.03,3.1-7.517,3.317Z" transform="translate(-1264.797 -289.625)" fill="#1a1a1a"/>
      </g>
    </g>
    <g id="Group_4815" data-name="Group 4815" transform="translate(1168.477 209.584)">
      <g id="Group_4814" data-name="Group 4814" transform="translate(0 0)">
        <path id="Path_8488" data-name="Path 8488" d="M1222,317.847a15.747,15.747,0,0,1-4.58-.622,13.328,13.328,0,0,1-7.887-7.1,10.687,10.687,0,0,1,.087-8.352c.92-2.162,3.012-5.053,7.751-6.737-.342-1.806-1.34-8.269.836-12.655,2-4.038,17.424-7.611,24.433-4.666,2.45,1.029,5.007,3.3,3.272,8.291a.548.548,0,0,1-.686.331.539.539,0,0,1-.331-.686c1.172-3.37.273-5.707-2.674-6.945-6.717-2.825-21.448.918-23.052,4.153-2.328,4.694-.671,12.342-.654,12.418a.538.538,0,0,1-.358.628c-3.7,1.211-6.312,3.385-7.55,6.289a9.694,9.694,0,0,0-.107,7.464,12.25,12.25,0,0,0,7.234,6.542,18.527,18.527,0,0,0,9.119,0,7.4,7.4,0,0,0,4.968-3.342c1.072-1.984.577-4.192-.075-6.471l-.082-.312a29.363,29.363,0,0,0-.985-3.336.522.522,0,0,1-.143-.2.537.537,0,0,1,.289-.7c6.912-2.89,12.747-17.6,12.806-17.748a.538.538,0,0,1,1,.392c-.238.608-5.784,14.58-12.859,18.1.194.529.473,1.475.931,3.216l.078.291c.715,2.5,1.251,4.939-.012,7.277a8.55,8.55,0,0,1-5.673,3.879A22.719,22.719,0,0,1,1222,317.847Z" transform="translate(-1208.733 -276.629)" fill="#1a1a1a"/>
      </g>
    </g>
    <g id="Group_4817" data-name="Group 4817" transform="translate(1157.603 319.863)">
      <g id="Group_4816" data-name="Group 4816" transform="translate(0)">
        <path id="Path_8489" data-name="Path 8489" d="M1222.55,553.278a262.461,262.461,0,0,1-33.578-2.139.538.538,0,0,1-.445-.664c.056-.22,5.541-22.152,5.739-33.939.276-16.577,4.288-34.226,4.33-34.4a.523.523,0,0,1,.592-.414l37.491,4.834a.538.538,0,0,1,.454.405l8.493,34.811a.537.537,0,1,1-1.044.255l-8.406-34.452-36.636-4.723c-.639,2.922-3.948,18.759-4.2,33.7-.181,10.822-4.75,30.016-5.627,33.6,4.55.6,34.563,4.288,61.733.012l-4.024-16.5a.537.537,0,1,1,1.044-.254l4.162,17.062a.536.536,0,0,1-.073.424.544.544,0,0,1-.364.235A188.935,188.935,0,0,1,1222.55,553.278Z" transform="translate(-1188.511 -481.715)" fill="#1a1a1a"/>
      </g>
    </g>
    <g id="Group_4819" data-name="Group 4819" transform="translate(1164.623 390.016)">
      <g id="Group_4818" data-name="Group 4818">
        <path id="Path_8490" data-name="Path 8490" d="M1202.1,661.4c-.427-.1-.6-.392-.519-.677l13.005-48.144a.538.538,0,1,1,1.038.28l-13,48.144A.537.537,0,0,1,1202.1,661.4Z" transform="translate(-1201.567 -612.179)" fill="#1a1a1a"/>
      </g>
    </g>
    <g id="Group_4821" data-name="Group 4821" transform="translate(1153.922 388.603)">
      <g id="Group_4820" data-name="Group 4820" transform="translate(0)">
        <path id="Path_8491" data-name="Path 8491" d="M1212.685,668.909H1182.2a.537.537,0,0,1-.534-.594l.9-8.726,5.807-49.562a.538.538,0,0,1,1.069.125l-5.807,49.556-.84,8.125h29.885a.171.171,0,0,0,.059-.331l-20.025-7.352a.538.538,0,1,1,.37-1.01l20.025,7.352a1.247,1.247,0,0,1-.429,2.417Z" transform="translate(-1181.665 -609.552)" fill="#1a1a1a"/>
      </g>
    </g>
    <g id="Group_4823" data-name="Group 4823" transform="translate(1191.923 245.353)">
      <g id="Group_4822" data-name="Group 4822" transform="translate(0 0)">
        <path id="Path_8492" data-name="Path 8492" d="M1262.23,354.816a.54.54,0,0,1-.51-.366l-2.575-7.6-6.476-2.669a.538.538,0,0,1,.41-.995l6.7,2.762a.537.537,0,0,1,.3.324l2.655,7.828a.54.54,0,0,1-.338.682A.567.567,0,0,1,1262.23,354.816Z" transform="translate(-1252.337 -343.148)" fill="#1a1a1a"/>
      </g>
    </g>
    <g id="Group_4826" data-name="Group 4826" transform="translate(1167.674 248.46)">
      <g id="Group_4824" data-name="Group 4824" transform="translate(0 1.002)">
        <path id="Path_8493" data-name="Path 8493" d="M1245.269,427.1c-.068,0-37.559-4.839-37.559-4.839a.535.535,0,0,1-.465-.606c.048-.354,4.817-35.609,4.08-44.879-1.405-17.645,6.026-25.5,6.344-25.824a.538.538,0,0,1,.771.751c-.073.076-7.405,7.87-6.042,24.989.705,8.863-3.39,39.92-4.014,44.571l36.281,4.679c-.359-3.638-1.867-20.469.079-29.313a.538.538,0,0,1,1.051.23c-2.106,9.57-.011,29.447.009,29.646a.538.538,0,0,1-.534.6Z" transform="translate(-1207.24 -350.791)" fill="#1a1a1a"/>
      </g>
      <g id="Group_4825" data-name="Group 4825" transform="translate(16.189 0)">
        <path id="Path_8494" data-name="Path 8494" d="M1284.781,402.619c-39.022,0-47.334-33.744-47.42-34.113a.536.536,0,0,1,.4-.645.544.544,0,0,1,.645.4c.09.389,9.529,38.556,55.8,32.658l-7.3-13.79c-2.143-.659-18.893-6.221-25.9-20.583-4.656-9.538-10.747-15.107-18.108-16.557a.538.538,0,0,1-.424-.633.545.545,0,0,1,.632-.424c7.71,1.519,14.058,7.287,18.867,17.141,7.238,14.839,25.266,20.035,25.446,20.087a.529.529,0,0,1,.331.266l7.767,14.673a.538.538,0,0,1-.4.785A76.334,76.334,0,0,1,1284.781,402.619Z" transform="translate(-1237.346 -348.928)" fill="#1a1a1a"/>
      </g>
    </g>
    <g id="Group_4828" data-name="Group 4828" transform="translate(1204.25 300.508)">
      <g id="Group_4827" data-name="Group 4827" transform="translate(0 0)">
        <path id="Path_8495" data-name="Path 8495" d="M1300.186,466.482a68.469,68.469,0,0,1-24.69-10,.536.536,0,0,1-.139-.748.529.529,0,0,1,.748-.138,68.181,68.181,0,0,0,23.595,9.7l1.148-13.837a53.9,53.9,0,0,1-7.5-4.8.538.538,0,0,1,.721-.8c1.937,1.75,7.541,4.789,7.6,4.818a.542.542,0,0,1,.28.519l-1.227,14.793a.539.539,0,0,1-.214.385A.544.544,0,0,1,1300.186,466.482Z" transform="translate(-1275.262 -445.72)" fill="#1a1a1a"/>
      </g>
    </g>
    <g id="Group_4830" data-name="Group 4830" transform="translate(1155.042 439.419)">
      <g id="Group_4829" data-name="Group 4829">
        <path id="Path_8496" data-name="Path 8496" d="M1206.061,709.132c-6.775,0-21.237-3.84-21.911-4.02a.539.539,0,1,1,.277-1.041c.182.051,18.155,4.826,23.318,3.862a.53.53,0,0,1,.626.431.536.536,0,0,1-.43.626A10.531,10.531,0,0,1,1206.061,709.132Z" transform="translate(-1183.75 -704.053)" fill="#1a1a1a"/>
      </g>
    </g>
    <g id="Group_4832" data-name="Group 4832" transform="translate(1217.718 388.602)">
      <g id="Group_4831" data-name="Group 4831" transform="translate(0)">
        <path id="Path_8497" data-name="Path 8497" d="M1310.815,660.182a.537.537,0,0,1-.527-.432l-9.97-49.556a.536.536,0,0,1,.422-.632.526.526,0,0,1,.633.421l9.969,49.556a.536.536,0,0,1-.421.633A.524.524,0,0,1,1310.815,660.182Z" transform="translate(-1300.307 -609.55)" fill="#1a1a1a"/>
      </g>
    </g>
    <g id="Group_4834" data-name="Group 4834" transform="translate(1201.671 390.016)">
      <g id="Group_4833" data-name="Group 4833" transform="translate(0)">
        <path id="Path_8498" data-name="Path 8498" d="M1316.8,670.124H1290a.538.538,0,0,1-.514-.375l-2.773-8.726-16.216-48.135a.538.538,0,1,1,1.02-.345l16.219,48.144,2.657,8.36H1316.8a.17.17,0,0,0,.059-.331l-20.025-7.352a.538.538,0,1,1,.37-1.01l20.026,7.352a1.247,1.247,0,0,1-.431,2.417Z" transform="translate(-1270.464 -612.18)" fill="#1a1a1a"/>
      </g>
    </g>
    <g id="Group_4836" data-name="Group 4836" transform="translate(1218.108 439.419)">
      <g id="Group_4835" data-name="Group 4835">
        <path id="Path_8499" data-name="Path 8499" d="M1323.346,709.132c-6.776,0-21.237-3.84-21.911-4.02a.539.539,0,1,1,.276-1.041c.182.051,18.161,4.826,23.319,3.862a.524.524,0,0,1,.626.431.537.537,0,0,1-.43.626A10.528,10.528,0,0,1,1323.346,709.132Z" transform="translate(-1301.034 -704.053)" fill="#1a1a1a"/>
      </g>
    </g>
    <g id="Group_4837" data-name="Group 4837" transform="translate(1325.421 173.86)">
      <path id="Path_8500" data-name="Path 8500" d="M1501.142,226.953a.493.493,0,0,1-.183-.033.539.539,0,0,1-.323-.69c.55-1.506,5.458-14.754,8.58-15.934a1.356,1.356,0,0,1,1.159.054,2.417,2.417,0,0,1,1.253,1.688c.625,2.915-3.127,7.877-3.286,8.087a.539.539,0,0,1-.858-.652c1.007-1.322,3.526-5.19,3.094-7.211a1.35,1.35,0,0,0-.718-.967.281.281,0,0,0-.264.008c-2,.757-5.937,9.783-7.946,15.3A.54.54,0,0,1,1501.142,226.953Z" transform="translate(-1500.604 -210.193)" fill="#1a1a1a"/>
    </g>
    <g id="Group_4838" data-name="Group 4838" transform="translate(1332.935 189.542)">
      <path id="Path_8501" data-name="Path 8501" d="M1515.115,248.741a.538.538,0,0,1-.271-1c.056-.032,5.633-3.292,8.4-8.107a.537.537,0,0,1,.932.535c-2.913,5.073-8.555,8.367-8.791,8.506A.554.554,0,0,1,1515.115,248.741Z" transform="translate(-1514.576 -239.357)" fill="#1a1a1a"/>
    </g>
    <g id="Group_4839" data-name="Group 4839" transform="translate(1385.067 173.864)">
      <path id="Path_8502" data-name="Path 8502" d="M1622.539,227.415a.538.538,0,0,1-.5-.347c-2.164-5.692-6.363-15-8.406-15.761a.292.292,0,0,0-.252-.008,1.383,1.383,0,0,0-.728.981c-.429,2,2.027,5.784,3.012,7.074a.539.539,0,0,1-.858.653c-.155-.2-3.827-5.059-3.208-7.95a2.435,2.435,0,0,1,1.265-1.7A1.359,1.359,0,0,1,1614,210.3c3.174,1.173,8.449,14.832,9.04,16.387a.538.538,0,0,1-.311.695A.566.566,0,0,1,1622.539,227.415Z" transform="translate(-1611.526 -210.2)" fill="#1a1a1a"/>
    </g>
    <g id="Group_4840" data-name="Group 4840" transform="translate(1378.987 189.542)">
      <path id="Path_8503" data-name="Path 8503" d="M1609.354,248.741a.556.556,0,0,1-.271-.071c-.236-.139-5.878-3.432-8.791-8.506a.538.538,0,0,1,.933-.535c2.773,4.823,8.344,8.075,8.4,8.107a.538.538,0,0,1-.27,1Z" transform="translate(-1600.22 -239.357)" fill="#1a1a1a"/>
    </g>
    <g id="Group_4841" data-name="Group 4841" transform="translate(1239.887 297.653)">
      <path id="Path_8504" data-name="Path 8504" d="M1352.092,441.488h-10.018a.538.538,0,0,1,0-1.076h10.018a.538.538,0,0,1,0,1.076Z" transform="translate(-1341.536 -440.412)" fill="#1a1a1a"/>
    </g>
    <g id="Group_4842" data-name="Group 4842" transform="translate(1234.513 288.052)">
      <path id="Path_8505" data-name="Path 8505" d="M1343.985,426.2c-.113-.013-12.02-2.577-12.02-2.577a.535.535,0,0,1-.412-.639.525.525,0,0,1,.639-.412l11.906,2.564a.538.538,0,0,1-.114,1.064Z" transform="translate(-1331.54 -422.556)" fill="#1a1a1a"/>
    </g>
    <g id="Group_4843" data-name="Group 4843" transform="translate(1228.992 315.928)">
      <path id="Path_8506" data-name="Path 8506" d="M1328.013,477.279c-.151-.022-6.353-1.828-6.353-1.828a.538.538,0,0,1,.3-1.032l6.2,1.806a.538.538,0,0,1-.151,1.054Z" transform="translate(-1321.273 -474.397)" fill="#1a1a1a"/>
    </g>
    <g id="Group_4844" data-name="Group 4844" transform="translate(1229.863 307.02)">
      <path id="Path_8507" data-name="Path 8507" d="M1333.229,463.8a.538.538,0,0,1-.241-.056l-9.8-4.9a.541.541,0,0,1-.241-.723.535.535,0,0,1,.723-.241l9.8,4.9a.538.538,0,0,1-.241,1.02Z" transform="translate(-1322.894 -457.831)" fill="#1a1a1a"/>
    </g>
    <g id="Group_4845" data-name="Group 4845" transform="translate(1246.419 286.386)">
      <path id="Path_8508" data-name="Path 8508" d="M1365.315,435.224c-1.52,0-6.063-1.847-7.8-3.649a.538.538,0,0,1,.774-.746,15.293,15.293,0,0,0,7.036,3.325c5.655-1.587,9.917-4.864,9.815-5.652-.472-.607-2.2-.4-3.46-.241a13.04,13.04,0,0,1-1.583.132c-1.516-.028-6.5-2.685-7.059-2.988a.537.537,0,0,1-.172-.8l3.083-4.014c-4.688-.631-11.351,4.03-11.42,4.08a.539.539,0,0,1-.622-.88c.325-.226,7.962-5.557,13.14-4.071a.539.539,0,0,1,.279.845l-3.219,4.189c2.077,1.088,5.145,2.547,6.008,2.563a13.81,13.81,0,0,0,1.435-.126c1.685-.2,3.6-.44,4.452.673a1.11,1.11,0,0,1,.143,1.063c-.622,1.876-5.745,4.92-10.543,6.264A1.068,1.068,0,0,1,1365.315,435.224Z" transform="translate(-1353.682 -419.459)" fill="#1a1a1a"/>
    </g>
    <g id="Group_4846" data-name="Group 4846" transform="translate(1200.004 222.512)">
      <path id="Path_8509" data-name="Path 8509" d="M1267.9,303.01a.538.538,0,0,1-.353-.945,7.256,7.256,0,0,1,2.636-1.38.539.539,0,1,1,.268,1.044,6.1,6.1,0,0,0-2.2,1.151A.55.55,0,0,1,1267.9,303.01Z" transform="translate(-1267.365 -300.672)" fill="#1a1a1a"/>
    </g>
    <g id="Group_4847" data-name="Group 4847" transform="translate(1423.181 400.124)">
      <path id="Path_8510" data-name="Path 8510" d="M1695.5,669.851a.526.526,0,0,1-.3-.094c-12.742-8.647-12.795-37.04-12.792-38.245a.538.538,0,1,1,1.075,0c0,.289.05,29.026,12.32,37.353a.538.538,0,0,1-.3.982Z" transform="translate(-1682.408 -630.977)" fill="#1a1a1a"/>
    </g>
    <g id="Group_4848" data-name="Group 4848" transform="translate(1463.009 400.124)">
      <path id="Path_8511" data-name="Path 8511" d="M1757.014,669.76a.538.538,0,0,1-.308-.979c12.146-8.442,12.193-36.976,12.193-37.264a.538.538,0,1,1,1.075,0c0,1.2-.046,29.39-12.653,38.15A.538.538,0,0,1,1757.014,669.76Z" transform="translate(-1756.476 -630.977)" fill="#1a1a1a"/>
    </g>
    <g id="Group_4849" data-name="Group 4849" transform="translate(1444.718 346.612)">
      <path id="Path_8512" data-name="Path 8512" d="M1723,549.685c-.419-.087-.594-.38-.522-.668a15.222,15.222,0,0,1,.7-2.075c.109-.28.224-.571.342-.9a31.909,31.909,0,0,1,10.29-14.472.538.538,0,1,1,.659.851,30.8,30.8,0,0,0-9.935,13.988c-.125.338-.243.637-.354.926a14.5,14.5,0,0,0-.653,1.942A.539.539,0,0,1,1723,549.685Z" transform="translate(-1722.46 -531.46)" fill="#1a1a1a"/>
    </g>
    <g id="Group_4850" data-name="Group 4850" transform="translate(1452.314 319.823)">
      <path id="Path_8513" data-name="Path 8513" d="M1746.437,557.877a18.226,18.226,0,0,1-4.956-.706,22.611,22.611,0,0,1-4.625-2.075.538.538,0,1,1,.54-.93,22.006,22.006,0,0,0,4.377,1.969,16.313,16.313,0,0,0,10.191-.323c8.617-3.14,14.474-12.943,16.454-21.265a30.826,30.826,0,0,0-.631-17.145c-.19-.55-.395-1.1-.6-1.643a19.77,19.77,0,0,1-1.423-5.081c-.333-3.476,1.408-6.772,3.09-9.959a41.023,41.023,0,0,0,1.865-3.836c1.243-3.1,1.278-5.825.1-8.08-2.1-4.038-7.4-5.318-7.448-5.33-.115-.037-5.254-1.87-9.22.348-2.22,1.242-3.681,3.533-4.343,6.81a40.912,40.912,0,0,0-.547,4.237,35.2,35.2,0,0,1-.921,5.986.548.548,0,0,1-.662.375.542.542,0,0,1-.376-.664,34.063,34.063,0,0,0,.886-5.8,42.573,42.573,0,0,1,.562-4.349c.731-3.6,2.372-6.137,4.881-7.537,4.393-2.459,9.814-.517,10.047-.435.174.037,5.77,1.389,8.095,5.861,1.328,2.548,1.309,5.568-.055,8.978a43.3,43.3,0,0,1-1.915,3.937c-1.607,3.048-3.27,6.2-2.972,9.354a18.7,18.7,0,0,0,1.362,4.8c.211.558.42,1.115.616,1.674a31.885,31.885,0,0,1,.656,17.744c-2.045,8.6-8.135,18.75-17.132,22.027A17.093,17.093,0,0,1,1746.437,557.877Z" transform="translate(-1736.587 -481.641)" fill="#1a1a1a"/>
    </g>
    <g id="Group_4851" data-name="Group 4851" transform="translate(1453.634 326.501)">
      <path id="Path_8514" data-name="Path 8514" d="M1739.579,571.6c-.442-.109-.6-.41-.516-.695l23.284-76.464a.539.539,0,0,1,1.032.314l-23.284,76.464A.54.54,0,0,1,1739.579,571.6Z" transform="translate(-1739.041 -494.06)" fill="#1a1a1a"/>
    </g>
    <g id="Group_4854" data-name="Group 4854" transform="translate(1426.875 347.276)">
      <g id="Group_4852" data-name="Group 4852" transform="translate(0)">
        <path id="Path_8515" data-name="Path 8515" d="M1704.948,584.952c-8.667,0-14.191-9.818-15.348-16.787a21.658,21.658,0,0,1,1.281-12c.155-.372.326-.738.494-1.107a12.283,12.283,0,0,0,1.119-3.117c.342-2.058-.618-4.231-1.548-6.332-.419-.951-.817-1.851-1.11-2.752a7.219,7.219,0,0,1,.4-6.184c1.815-2.964,5.714-3.626,5.879-3.653a10.342,10.342,0,0,1,2.633-.326c2.366,0,6.444.85,7.193,6.542a29.363,29.363,0,0,1,.177,2.959c.059,2.3.124,4.672,1.312,6.387a12.426,12.426,0,0,0,2.344,2.333c.311.26.622.521.923.79a21.622,21.622,0,0,1,6.3,10.291c1.65,5.776,1.414,13.817-2.832,18.76a11.844,11.844,0,0,1-6.351,3.844A12.24,12.24,0,0,1,1704.948,584.952Zm-6.2-51.179a9.661,9.661,0,0,0-2.4.3c-.1.019-3.65.63-5.2,3.171a6.2,6.2,0,0,0-.286,5.287,28.045,28.045,0,0,0,1.069,2.646c.992,2.246,2.021,4.568,1.625,6.943a13.444,13.444,0,0,1-1.2,3.391c-.165.358-.33.715-.485,1.076a20.6,20.6,0,0,0-1.206,11.4c1.091,6.6,6.246,15.887,14.285,15.888a11.064,11.064,0,0,0,2.608-.32,10.8,10.8,0,0,0,5.792-3.5c3.985-4.639,4.184-12.264,2.614-17.763a20.584,20.584,0,0,0-5.981-9.783c-.293-.262-.6-.514-.9-.767a13.35,13.35,0,0,1-2.537-2.546c-1.374-1.977-1.439-4.516-1.5-6.97a28.029,28.029,0,0,0-.171-2.849C1704.264,534.744,1701.2,533.773,1698.745,533.773Z" transform="translate(-1689.278 -532.696)" fill="#1a1a1a"/>
      </g>
      <g id="Group_4853" data-name="Group 4853" transform="translate(7.297 4.371)">
        <path id="Path_8516" data-name="Path 8516" d="M1714.939,593.218a.539.539,0,0,1-.525-.419l-11.552-51.317a.539.539,0,0,1,.407-.644.531.531,0,0,1,.644.407l11.552,51.317a.535.535,0,0,1-.525.655Z" transform="translate(-1702.849 -540.824)" fill="#1a1a1a"/>
      </g>
    </g>
    <g id="Group_4855" data-name="Group 4855" transform="translate(1423.181 397.281)">
      <path id="Path_8517" data-name="Path 8517" d="M1709.071,632.45c-1.088,0-26.663-.037-26.663-3.379,0-.566,0-2.29,15.22-3.1a.529.529,0,0,1,.566.51.538.538,0,0,1-.509.566c-9.258.491-13.418,1.442-14.135,2.022,1.156.972,10.539,2.3,25.522,2.3s24.375-1.33,25.526-2.3c-1.15-.973-10.536-2.305-25.526-2.305-.733,0-1.461,0-2.176.01a.538.538,0,1,1-.009-1.076c.719-.006,1.445-.009,2.185-.009,1.088,0,26.663.037,26.663,3.381S1710.159,632.45,1709.071,632.45Z" transform="translate(-1682.408 -625.69)" fill="#1a1a1a"/>
    </g>
    <g id="Group_4856" data-name="Group 4856" transform="translate(1435.737 437.832)">
      <path id="Path_8518" data-name="Path 8518" d="M1719.791,703.341c-2.885,0-12.407-.086-13.825-1.185a.538.538,0,0,1,.659-.852c.479.372,4.48.961,13.166.961,8.912,0,12.919-.625,13.439-1.045a.538.538,0,1,1,.678.836C1732.43,703.25,1722.728,703.341,1719.791,703.341Z" transform="translate(-1705.757 -701.102)" fill="#1a1a1a"/>
    </g>
    <g id="Group_4857" data-name="Group 4857" transform="translate(1425.248 418.372)">
      <path id="Path_8519" data-name="Path 8519" d="M1710.774,668.713c-2.509,0-24.522-.09-24.522-3.211a.538.538,0,0,1,1.076,0c.615.815,9.338,2.136,23.446,2.136,14.188,0,22.973-1.323,23.619-2.236a.486.486,0,0,1,.526-.488.573.573,0,0,1,.525.589C1735.444,668.678,1711.781,668.713,1710.774,668.713Z" transform="translate(-1686.252 -664.913)" fill="#1a1a1a"/>
    </g>
    <g id="Group_4858" data-name="Group 4858" transform="translate(1365.791 218.57)">
      <path id="Path_8520" data-name="Path 8520" d="M1579.083,299.307a.532.532,0,0,1-.271-.073l-2.866-1.67a.536.536,0,0,1-.1-.852l3.336-3.222a.537.537,0,1,1,.746.774l-2.823,2.728,2.25,1.312a.537.537,0,0,1,.2.735A.544.544,0,0,1,1579.083,299.307Z" transform="translate(-1575.679 -293.34)" fill="#1a1a1a"/>
    </g>
    <g id="Group_4860" data-name="Group 4860" transform="translate(1363.717 440.4)">
      <g id="Group_4859" data-name="Group 4859">
        <path id="Path_8521" data-name="Path 8521" d="M1605.891,713.927l-26.762-.43a.535.535,0,0,1-.352-.139l-1.34-1.209-.323.944a.534.534,0,0,1-.519.362l-3.892-.062a.538.538,0,0,1-.529-.508l-.351-6.436a.539.539,0,0,1,1.075-.059l.323,5.936,3,.048.463-1.344a.541.541,0,0,1,.376-.345.532.532,0,0,1,.495.121l1.793,1.62,24.391.392-10.728-5.927a.539.539,0,1,1,.522-.942l12.618,6.971a.538.538,0,0,1-.261,1.009Z" transform="translate(-1571.823 -705.878)" fill="#1a1a1a"/>
      </g>
    </g>
    <g id="Group_4862" data-name="Group 4862" transform="translate(1397.055 414.877)">
      <g id="Group_4861" data-name="Group 4861" transform="translate(0)">
        <path id="Path_8522" data-name="Path 8522" d="M1634.36,691.985c-.382-.087-.544-.308-.538-.554l.466-15.231a.5.5,0,0,1,.553-.521.538.538,0,0,1,.522.555l-.4,13.072,12.106-21.18-.475-2.367a.542.542,0,0,1,.149-.487.518.518,0,0,1,.488-.146l1.393.286,1.489-2.6-5.085-3.407a.538.538,0,1,1,.6-.9l5.5,3.687a.537.537,0,0,1,.168.715l-1.93,3.38a.518.518,0,0,1-.575.26l-.979-.2.358,1.767a.54.54,0,0,1-.062.373l-13.277,23.229A.533.533,0,0,1,1634.36,691.985Z" transform="translate(-1633.822 -658.414)" fill="#1a1a1a"/>
      </g>
    </g>
    <g id="Group_4864" data-name="Group 4864" transform="translate(1353.074 341.799)">
      <g id="Group_4863" data-name="Group 4863" transform="translate(0)">
        <path id="Path_8523" data-name="Path 8523" d="M1565.163,523.585h-12.6a.538.538,0,0,1,0-1.076h12.6a.538.538,0,0,1,0,1.076Z" transform="translate(-1552.029 -522.509)" fill="#1a1a1a"/>
      </g>
    </g>
    <g id="Group_4865" data-name="Group 4865" transform="translate(1391.767 320.579)">
      <path id="Path_8524" data-name="Path 8524" d="M1624.526,560.487a.537.537,0,0,1-.538-.538l.021-76.365a.538.538,0,0,1,1.076,0l-.022,76.365A.537.537,0,0,1,1624.526,560.487Z" transform="translate(-1623.988 -483.047)" fill="#1a1a1a"/>
    </g>
    <g id="Group_4866" data-name="Group 4866" transform="translate(1360.031 413.449)">
      <path id="Path_8525" data-name="Path 8525" d="M1595.236,683.786h-29.362a.537.537,0,0,1-.538-.53l-.37-26.953a.538.538,0,1,1,1.076-.016l.364,26.422h28.336l.606-7.414a.527.527,0,0,1,.581-.493.543.543,0,0,1,.495.58l-.65,7.909A.541.541,0,0,1,1595.236,683.786Z" transform="translate(-1564.967 -655.758)" fill="#1a1a1a"/>
    </g>
    <g id="Group_4867" data-name="Group 4867" transform="translate(1359.126 342.107)">
      <path id="Path_8526" data-name="Path 8526" d="M1564.286,557.782a.536.536,0,0,1-.538-.53l-.463-33.625a.538.538,0,0,1,1.075-.016l.464,33.625a.538.538,0,0,1-.532.545Z" transform="translate(-1563.285 -523.082)" fill="#1a1a1a"/>
    </g>
    <g id="Group_4869" data-name="Group 4869" transform="translate(1333.737 375.73)">
      <g id="Group_4868" data-name="Group 4868">
        <path id="Path_8527" data-name="Path 8527" d="M1578.33,646.617a.536.536,0,0,1-.286-.083l-61.723-38.715a.538.538,0,1,1,.572-.911l61.254,38.42,14.511-24.767L1541.7,586.6a.538.538,0,1,1,.6-.9l51.384,34.244a.537.537,0,0,1,.165.72l-15.049,25.684a.527.527,0,0,1-.336.251A.5.5,0,0,1,1578.33,646.617Z" transform="translate(-1516.069 -585.611)" fill="#1a1a1a"/>
      </g>
    </g>
    <g id="Group_4870" data-name="Group 4870" transform="translate(1328.116 321.006)">
      <path id="Path_8528" data-name="Path 8528" d="M1506.154,504.3a.545.545,0,0,1-.538-.568c.606-10.885,1.237-19.311,1.243-19.4a.539.539,0,0,1,1.076.081c-.006.083-.64,8.5-1.244,19.373A.539.539,0,0,1,1506.154,504.3Z" transform="translate(-1505.616 -483.841)" fill="#1a1a1a"/>
    </g>
    <g id="Group_4871" data-name="Group 4871" transform="translate(1326.983 358.76)">
      <path id="Path_8529" data-name="Path 8529" d="M1510.8,593.312a.534.534,0,0,1-.33-.113c-3.677-2.862-5.014-4.433-5.732-6.721-1.215-3.881-1.532-14.616-.941-31.9a.515.515,0,0,1,.556-.519.538.538,0,0,1,.519.556c-.584,17.167-.285,27.779.893,31.544.578,1.843,1.489,3.175,5.366,6.194a.539.539,0,0,1,.1.755A.547.547,0,0,1,1510.8,593.312Z" transform="translate(-1503.508 -554.053)" fill="#1a1a1a"/>
    </g>
  </g>
</svg>
