<svg xmlns="http://www.w3.org/2000/svg" width="352.511" height="299.4" viewBox="0 0 352.511 299.4">
  <g id="Group_5202" data-name="Group 5202" transform="translate(-3969.121 -692.043)">
    <path id="Path_8796" data-name="Path 8796" d="M4165.091,785.714a71.3,71.3,0,1,1-71.3-71.3A71.3,71.3,0,0,1,4165.091,785.714Z" transform="translate(40.854 17.124)" fill="#fff"/>
    <path id="Path_8797" data-name="Path 8797" d="M4030.867,882.294h10.384L4033.744,820l-5.784-1.972s-1.361,17.762.016,33.12,3.074,31.953,3.074,31.953Z" transform="translate(44.584 96.449)" fill="#fff"/>
    <rect id="Rectangle_509" data-name="Rectangle 509" width="141.097" height="267.498" transform="translate(4140.184 720.652)" fill="#1a1a1a"/>
    <rect id="Rectangle_510" data-name="Rectangle 510" width="122.662" height="228.131" transform="translate(4148.061 732.392)" fill="#fff"/>
    <rect id="Rectangle_511" data-name="Rectangle 511" width="107.598" height="37.641" transform="translate(4153.071 841.202)" fill="#3232f5"/>
    <path id="Path_8798" data-name="Path 8798" d="M4188.187,728.789a36.448,36.448,0,1,1-36.45-36.448A36.449,36.449,0,0,1,4188.187,728.789Z" transform="translate(111.903 0.228)" fill="#fff"/>
    <g id="Group_5125" data-name="Group 5125" transform="translate(4181.988 849.768)">
      <path id="Path_8799" data-name="Path 8799" d="M4089.687,781.377h7.158a5.757,5.757,0,0,1,4.172,1.412,3.6,3.6,0,0,1,1.071,2.689,3.8,3.8,0,0,1-2.279,3.558c1.87.639,3.167,1.709,3.167,3.921,0,2.85-2.347,4.377-5.9,4.377h-7.389Zm6.588,6.723c1.8,0,3.01-.706,3.01-2.211,0-1.255-1-2.03-2.8-2.03h-4.035V788.1Zm.825,6.748c1.914,0,3.075-.752,3.075-2.233,0-1.344-1.072-2.143-3.282-2.143h-4.447v4.377Z" transform="translate(-4089.687 -781.377)" fill="#fff"/>
      <path id="Path_8800" data-name="Path 8800" d="M4100.155,790.563v-9.186h2.808v9.072c0,2.964,1.524,4.56,4.03,4.56,2.488,0,4.015-1.5,4.015-4.446v-9.186h2.8v9.049c0,4.767-2.689,7.159-6.863,7.159C4102.8,797.585,4100.155,795.193,4100.155,790.563Z" transform="translate(-4081.674 -781.377)" fill="#fff"/>
      <path id="Path_8801" data-name="Path 8801" d="M4116.77,791.044l-6.338-9.667h3.305l4.469,7.066,4.515-7.066h3.213l-6.338,9.6v6.361h-2.825Z" transform="translate(-4073.807 -781.377)" fill="#fff"/>
    </g>
    <path id="Path_8802" data-name="Path 8802" d="M4033.506,745.333s.98,9.449-17.251,18.056c-.486.242-2.154-1.9-5.636-1.035s-4.351,6.2-3.327,9.19,4.149,7.488,9.451,5.011c0,0,2.483,8.062,2.163,14.176a84.05,84.05,0,0,1-.831,9.01l9.36,3.194,2.783-10.438s10.91-2.934,11.972-10.17.12-7.871.12-7.871,5.853-4.539,6.353-5.348.629-1.485,0-2.025-9.47-7.189-9.47-7.189S4036.7,747.641,4033.506,745.333Z" transform="translate(28.915 40.797)" fill="#fff"/>
    <path id="Path_8803" data-name="Path 8803" d="M4075.6,811.9s10.544-2.038,12.775-3.143,2.165-.579,5.623-5.562c3.624-5.231,10.986-8.323,13.8-9.956s9.731-4.4,9.731-4.4,4.136,3.249,2.251,5.019c-1.573,1.481-7.513,2.6-7.5,4.236s4.454,9.015,3.521,12.076-2.812,8.482-13.771,7.855l-21.113,9.6Z" transform="translate(81.52 74.103)" fill="#fff"/>
    <path id="Path_8804" data-name="Path 8804" d="M3993.5,841.587s2.083,21.78,1.083,36.666-2.857,33.773-6.978,44.847h79.734s-4.08-36.876-4.587-47.783-.75-22.783.27-28.657c0,0,21.415,7.786,40.641,5.175s46.128-13.3,46.128-13.3l-7.547-22.08s-18.68,5.318-44.388-.984-32.676-20.021-37.125-22.333-10.919-12.024-30.523-12.512a60,60,0,0,1-14.352,12.827c-8.968,5.7-10.627,18.8-11.877,23.611S4004.946,844.35,3993.5,841.587Z" transform="translate(14.147 67.817)" fill="#3232f5"/>
    <path id="Path_8805" data-name="Path 8805" d="M3979.579,814.476l5.295.157a14.947,14.947,0,0,1-2.087-6.275Z" transform="translate(8.004 89.047)" fill="#3232f5"/>
    <path id="Path_8806" data-name="Path 8806" d="M3985.325,814.156s-17.819,36.026-15.782,49.86c0,0-.53,8.65,11.636,11.238Z" transform="translate(0.198 93.486)" fill="#3232f5"/>
    <rect id="Rectangle_512" data-name="Rectangle 512" width="57.424" height="10.79" transform="translate(4238.539 888.912)" fill="#fff"/>
    <rect id="Rectangle_513" data-name="Rectangle 513" width="20.975" height="20.978" transform="translate(4230.746 914.917)" fill="#3232f5"/>
    <rect id="Rectangle_514" data-name="Rectangle 514" width="45.486" height="20.767" transform="translate(4240.886 897.743)" fill="#fff"/>
    <rect id="Rectangle_515" data-name="Rectangle 515" width="83.693" height="12.815" transform="translate(4224.148 918.455)" fill="#fff"/>
    <rect id="Rectangle_516" data-name="Rectangle 516" width="76.8" height="25.192" transform="translate(4227.984 929.39)" fill="#fff"/>
    <rect id="Rectangle_517" data-name="Rectangle 517" width="103.51" height="12.991" transform="translate(4217.596 954.582)" fill="#fff"/>
    <rect id="Rectangle_518" data-name="Rectangle 518" width="99.266" height="26.171" transform="translate(4219.552 964.746)" fill="#fff"/>
    <path id="Path_8807" data-name="Path 8807" d="M4112.822,851.732a6.672,6.672,0,1,1-6.673-6.672A6.673,6.673,0,0,1,4112.822,851.732Z" transform="translate(99.796 117.145)" fill="#fff"/>
    <rect id="Rectangle_519" data-name="Rectangle 519" width="40.554" height="23.312" transform="translate(4264.23 931.27)" fill="#3232f5"/>
    <rect id="Rectangle_520" data-name="Rectangle 520" width="45.098" height="12.875" transform="translate(4262.625 918.455)" fill="#3232f5"/>
    <rect id="Rectangle_521" data-name="Rectangle 521" width="36.326" height="12.991" transform="translate(4284.78 954.582)" fill="#3232f5"/>
    <rect id="Rectangle_522" data-name="Rectangle 522" width="36.377" height="23.344" transform="translate(4282.442 967.573)" fill="#3232f5"/>
    <rect id="Rectangle_523" data-name="Rectangle 523" width="13.422" height="18.742" transform="translate(4279.815 899.714)" fill="#3232f5"/>
    <rect id="Rectangle_524" data-name="Rectangle 524" width="13.134" height="10.79" transform="translate(4282.829 888.912)" fill="#3232f5"/>
    <path id="Path_8808" data-name="Path 8808" d="M4034.9,768.758s3.275-3.3,7.476-7.17,11.673-14.008,6.333-18.786-15.165-4.961-25.422-2.977c-10.025,1.939-17.548,5.523-20.7,8.438s-3.478,13.528-2.588,18.454,3.6,17.643,4.164,25.426-1.232,18.217-8.1,31.281-7.515,17.451-10.465,23.63-6.789,19.866.45,23.629c10.8,5.609,15.881,2.021,16.5-2.83s1.385-24.008,4.93-30,3.418-8.994,14.833-16.436a26.218,26.218,0,0,0,11.919-21.791c.03-2.613.821-11.586-1.331-17.271,0,0-5.505.337-6.874-8.178,0,0-.4-5.408,4.4-6.831C4033.694,766.378,4034.9,768.758,4034.9,768.758Z" transform="translate(9.782 35.67)" fill="#1a1a1a"/>
    <path id="Path_8809" data-name="Path 8809" d="M4178.748,725.935a29.864,29.864,0,1,1-29.863-29.866A29.863,29.863,0,0,1,4178.748,725.935Z" transform="translate(114.758 3.082)" fill="#3232f5"/>
    <rect id="Rectangle_525" data-name="Rectangle 525" width="20.978" height="20.978" transform="translate(4160.854 914.917)" fill="#3232f5"/>
    <rect id="Rectangle_526" data-name="Rectangle 526" width="20.978" height="20.978" transform="translate(4189.244 905.959)" fill="#3232f5"/>
    <path id="Path_8810" data-name="Path 8810" d="M3996.678,811.947l-18.453-.112-5.455,75.535h27.835Z" transform="translate(2.793 91.709)" fill="#fff"/>
    <path id="Path_8811" data-name="Path 8811" d="M4074.848,725.778h-5.941v8.734s-20.5,2.029-21.632,23.122c-1.266,23.579,23.768,27.231,27.707,28.747v-20.31s-10.521-1.543-10.24-9.124,6.81-8.932,10.24-9.214Z" transform="translate(59.795 25.826)" fill="#3232f5"/>
    <path id="Path_8812" data-name="Path 8812" d="M4076.26,802.585h-5.946l.041-11.534s-13.263-.646-19.091-10.126c-5.611-9.128-5.6-13.236-5.6-13.236l15.1-3.824s1.746,13.164,15.416,13.334Z" transform="translate(58.6 54.984)" fill="#3232f5"/>
    <g id="Group_5128" data-name="Group 5128" transform="translate(4035.268 802.31)">
      <g id="Group_5126" data-name="Group 5126">
        <path id="Path_8813" data-name="Path 8813" d="M4013.988,770.74a6.136,6.136,0,0,1-2.7-.616,9.056,9.056,0,0,1-4.51-6.5c-.655-3.789.281-8.152,4.863-9.035,3.611-.682,5.693,2.818,5.78,2.968a.526.526,0,0,1-.909.53c-.073-.125-1.812-3.024-4.674-2.461-4.826.927-4.3,6.218-4.022,7.82a8.058,8.058,0,0,0,3.931,5.736c1.712.832,3.668.66,5.812-.507a.527.527,0,0,1,.5.927A8.584,8.584,0,0,1,4013.988,770.74Z" transform="translate(-4006.586 -754.497)" fill="#1a1a1a"/>
      </g>
      <g id="Group_5127" data-name="Group 5127" transform="translate(3.909 3.588)">
        <path id="Path_8814" data-name="Path 8814" d="M4011.006,765.517c-.594-.441-.549-.77-.316-.944l3.731-2.818L4009,757.468a.526.526,0,0,1,.655-.824l5.956,4.709c-.011.832-4.287,4.059-4.287,4.059A.507.507,0,0,1,4011.006,765.517Z" transform="translate(-4008.8 -756.529)" fill="#1a1a1a"/>
      </g>
    </g>
    <path id="Path_8815" data-name="Path 8815" d="M4021.8,757.323a.734.734,0,0,0,.7-.768l-.106-2.062a.733.733,0,1,0-1.464.076l.105,2.06A.732.732,0,0,0,4021.8,757.323Z" transform="translate(39.658 47.277)" fill="#1a1a1a"/>
    <g id="Group_5130" data-name="Group 5130" transform="translate(4056.098 832.417)">
      <g id="Group_5129" data-name="Group 5129">
        <path id="Path_8816" data-name="Path 8816" d="M4018.911,783.481a.543.543,0,0,1-.516-.63l2.244-10.88a.527.527,0,0,1,1.033.212l-2.246,10.879A.524.524,0,0,1,4018.911,783.481Z" transform="translate(-4018.384 -771.549)" fill="#1a1a1a"/>
      </g>
    </g>
    <g id="Group_5132" data-name="Group 5132" transform="translate(4055.824 785.349)">
      <g id="Group_5131" data-name="Group 5131">
        <path id="Path_8817" data-name="Path 8817" d="M4018.756,793.36a.525.525,0,0,1-.065-1.047c6.144-.768,10.458-2.964,12.816-6.527,3.251-4.912,1.635-10.789,1.618-10.846,3.906-3.127,7.036-5.973,6.906-6.672-.249-.561-2.618-2.18-4.521-3.478-3.386-2.313-5.473-3.782-5.694-4.817-2.259-10.609-5.231-14.177-5.259-14.215a.525.525,0,0,1,.8-.685c.129.147,3.166,3.752,5.493,14.681.145.674,3.222,2.774,5.259,4.165,2.8,1.914,4.538,3.127,4.893,3.934.713,1.619-3.794,5.1-6.767,7.17.326,1.435,1.226,6.707-1.844,11.344-2.538,3.831-7.1,6.183-13.564,6.99C4018.8,793.358,4018.779,793.36,4018.756,793.36Z" transform="translate(-4018.229 -744.89)" fill="#1a1a1a"/>
      </g>
    </g>
    <g id="Group_5134" data-name="Group 5134" transform="translate(4046.463 840.013)">
      <g id="Group_5133" data-name="Group 5133">
        <path id="Path_8818" data-name="Path 8818" d="M4028.184,788.741c-.462-.275-4.905-8.459-4.905-8.459l-10-3.406a.527.527,0,0,1,.341-1l10.189,3.473c.293.249,4.832,8.612,4.832,8.612a.525.525,0,0,1-.463.777Z" transform="translate(-4012.927 -775.852)" fill="#1a1a1a"/>
      </g>
    </g>
    <g id="Group_5135" data-name="Group 5135" transform="translate(4075.872 913.905)">
      <path id="Path_8819" data-name="Path 8819" d="M4035.194,895.241a.526.526,0,0,1-.522-.463c-1.2-9.857-7.029-59.867-4.424-76.626a.516.516,0,0,1,.6-.441.529.529,0,0,1,.441.6c-2.583,16.625,3.234,66.509,4.43,76.34a.53.53,0,0,1-.461.586C4035.236,895.24,4035.215,895.241,4035.194,895.241Z" transform="translate(-4029.585 -817.704)" fill="#1a1a1a"/>
    </g>
    <g id="Group_5136" data-name="Group 5136" transform="translate(4001.222 908.941)">
      <path id="Path_8820" data-name="Path 8820" d="M3987.828,897.394c-.44-.117-.59-.417-.5-.692,3.789-11.414,9.578-37.149,5.771-81.237a.524.524,0,0,1,.477-.569.512.512,0,0,1,.572.479c3.822,44.277-2.006,70.166-5.819,81.659A.526.526,0,0,1,3987.828,897.394Z" transform="translate(-3987.303 -814.892)" fill="#1a1a1a"/>
    </g>
    <g id="Group_5137" data-name="Group 5137" transform="translate(4039.192 847.92)">
      <path id="Path_8821" data-name="Path 8821" d="M4078.031,852.962a86.179,86.179,0,0,1-39.006-8.92c-20.225-10.143-30.037-25.5-30.135-25.656a.526.526,0,0,1,.892-.558c.1.15,9.783,15.293,29.762,25.3,18.376,9.2,49.473,15.807,93.361-4.834l-6.944-20.546c-5.012.869-49.837,7.708-76.239-18.824-16.444-16.531-29.194-17.183-35.318-17.5l-.851-.044a.53.53,0,0,1-.5-.556.553.553,0,0,1,.557-.494l.843.044c6.259.32,19.281.985,36.011,17.8,27.451,27.587,75.268,18.542,75.743,18.452a.538.538,0,0,1,.6.346l7.237,21.422a.528.528,0,0,1-.271.646C4112.14,849.284,4093.556,852.962,4078.031,852.962Z" transform="translate(-4008.809 -780.33)" fill="#1a1a1a"/>
    </g>
    <g id="Group_5138" data-name="Group 5138" transform="translate(4057.625 796.768)">
      <path id="Path_8822" data-name="Path 8822" d="M4019.746,755.115c-.581-.365-.578-.7-.369-.9a13.251,13.251,0,0,1,4.657-2.825.514.514,0,0,1,.661.339.525.525,0,0,1-.338.662,12.325,12.325,0,0,0-4.242,2.574A.522.522,0,0,1,4019.746,755.115Z" transform="translate(-4019.249 -751.358)" fill="#1a1a1a"/>
    </g>
    <g id="Group_5139" data-name="Group 5139" transform="translate(4156.597 862.258)">
      <path id="Path_8823" data-name="Path 8823" d="M4081.095,828.289c-.6-.574-.483-.885-.219-1l20.865-9.488c2.195.305,8.436.184,11.892-3.242,3.544-3.512,1-9.253-.682-13.055-.988-2.235-1.535-3.469-.729-4.008a29.341,29.341,0,0,1,4.579-2.352c.688-.3,1.382-.609,2.064-.941a3.052,3.052,0,0,0,.733-.443,2.21,2.21,0,0,0,.5-.768,3.4,3.4,0,0,0,.314-1.88,1.906,1.906,0,0,0-1.056-1.483,2.369,2.369,0,0,0-1.393-.041,21.867,21.867,0,0,0-5.084,2l-.727.357c-1.505.729-2.975,1.526-4.339,2.279-.79.434-1.576.892-2.357,1.352a50.95,50.95,0,0,1-4.95,2.664c-2.433,1.081-6.237,5.253-7.824,8.586-1.7,3.558-15.237,5.667-16.774,5.9a.527.527,0,1,1-.156-1.042c4.026-.6,14.744-2.719,15.978-5.305,1.705-3.577,5.685-7.913,8.346-9.1a49.883,49.883,0,0,0,4.847-2.61c.791-.464,1.584-.929,2.379-1.37,1.38-.757,2.869-1.563,4.392-2.3l.723-.355a22.966,22.966,0,0,1,5.329-2.082,3.384,3.384,0,0,1,2.007.1,2.918,2.918,0,0,1,1.7,2.292,4.472,4.472,0,0,1-.387,2.472,3.243,3.243,0,0,1-.763,1.125,4.045,4.045,0,0,1-.98.611c-.694.336-1.4.645-2.1.953a28.871,28.871,0,0,0-4.343,2.212,12.619,12.619,0,0,0,1.032,2.759c1.688,3.817,4.516,10.207.458,14.229-3.909,3.874-10.544,3.775-12.338,3.517l-20.724,9.421A.5.5,0,0,1,4081.095,828.289Z" transform="translate(-4075.306 -788.451)" fill="#1a1a1a"/>
    </g>
    <g id="Group_5140" data-name="Group 5140" transform="translate(3989.493 773.636)">
      <path id="Path_8824" data-name="Path 8824" d="M3999.244,874.616c-.335,0-.656-.011-.952-.023-8.277-.374-13.418-2.712-15.284-6.944-6.741-15.3,2.38-29.226,10.426-41.518,3.6-5.494,6.994-10.685,8.678-15.528,4.431-12.749,1.638-26.711-.4-36.9-.472-2.354-.917-4.575-1.236-6.572-.581-3.642-1.175-10.655,1.374-16.725,2.845-6.76,31.293-15.625,46.315-10.736,7.509,2.445,10.5,7.915,8.633,15.811a.525.525,0,1,1-1.022-.24c1.739-7.387-.93-12.288-7.938-14.57-14.636-4.771-42.283,3.646-45.017,10.143-2.449,5.828-1.868,12.62-1.305,16.15.316,1.978.76,4.19,1.229,6.533,2.064,10.313,4.891,24.436.365,37.458-1.725,4.965-5.158,10.207-8.791,15.758-7.9,12.066-16.854,25.746-10.345,40.516,1.691,3.837,6.526,5.961,14.372,6.315a9.472,9.472,0,0,0,5.464-1.054c2.934-1.88,3.386-5.9,3.594-9.852.412-7.678,1.272-16.653,4.575-24.99a27,27,0,0,1,6.006-9.695,56.458,56.458,0,0,1,7.235-5.641c3.117-2.168,6.4-4.716,8.7-8.261a28.287,28.287,0,0,0,4.021-10.5c1.061-6.128.53-13.145-1.625-21.443a.526.526,0,0,1,.378-.639.52.52,0,0,1,.641.374c2.193,8.447,2.729,15.608,1.645,21.89a29.406,29.406,0,0,1-4.177,10.89,31.425,31.425,0,0,1-8.78,8.409,57.439,57.439,0,0,0-7.308,5.675,25.1,25.1,0,0,0-5.765,9.327c-3.243,8.2-4.094,17.066-4.5,24.66-.217,4.04-.726,8.533-4.081,10.682A9.524,9.524,0,0,1,3999.244,874.616Z" transform="translate(-3980.66 -738.257)" fill="#1a1a1a"/>
    </g>
    <g id="Group_5141" data-name="Group 5141" transform="translate(4044.242 785.351)">
      <path id="Path_8825" data-name="Path 8825" d="M4012.11,764.5c-.6-.554-.494-.87-.233-1,18.534-9.146,17.587-17.926,17.576-18.01a.527.527,0,1,1,1.043-.143c.051.39,1.054,9.622-18.155,19.1A.527.527,0,0,1,4012.11,764.5Z" transform="translate(-4011.669 -744.891)" fill="#1a1a1a"/>
    </g>
    <g id="Group_5142" data-name="Group 5142" transform="translate(4134.118 717.635)">
      <path id="Path_8826" data-name="Path 8826" d="M4063.1,871.75a.527.527,0,0,1-.527-.526V707.064a.526.526,0,0,1,.527-.526h89.87a.526.526,0,1,1,0,1.052h-89.344V871.223A.526.526,0,0,1,4063.1,871.75Z" transform="translate(-4062.574 -706.538)" fill="#1a1a1a"/>
    </g>
    <g id="Group_5143" data-name="Group 5143" transform="translate(4134.118 919.572)">
      <path id="Path_8827" data-name="Path 8827" d="M4142.509,881.417H4063.1a.526.526,0,0,1-.527-.526V821.439a.526.526,0,0,1,1.052,0v58.926h78.883a.526.526,0,0,1,0,1.052Z" transform="translate(-4062.574 -820.913)" fill="#1a1a1a"/>
    </g>
    <g id="Group_5144" data-name="Group 5144" transform="translate(4273.969 766.981)">
      <path id="Path_8828" data-name="Path 8828" d="M4142.311,854.744a.528.528,0,0,1-.527-.526v-119.2a.528.528,0,0,1,1.055,0v119.2A.529.529,0,0,1,4142.311,854.744Z" transform="translate(-4141.784 -734.487)" fill="#1a1a1a"/>
    </g>
    <g id="Group_5145" data-name="Group 5145" transform="translate(4144.971 728.491)">
      <path id="Path_8829" data-name="Path 8829" d="M4069.249,867.042a.527.527,0,0,1-.527-.526v-153.3a.525.525,0,0,1,.527-.526h79.016a.526.526,0,1,1,0,1.052h-78.49V866.516A.526.526,0,0,1,4069.249,867.042Z" transform="translate(-4068.722 -712.687)" fill="#1a1a1a"/>
    </g>
    <g id="Group_5146" data-name="Group 5146" transform="translate(4144.971 916.451)">
      <path id="Path_8830" data-name="Path 8830" d="M4137.8,858.676h-68.555a.525.525,0,0,1-.527-.526V819.671a.526.526,0,0,1,1.052,0v37.953h68.03a.526.526,0,0,1,0,1.052Z" transform="translate(-4068.722 -819.145)" fill="#1a1a1a"/>
    </g>
    <g id="Group_5147" data-name="Group 5147" transform="translate(4263.111 769.568)">
      <path id="Path_8831" data-name="Path 8831" d="M4136.163,853.622a.53.53,0,0,1-.529-.526V736.478a.528.528,0,0,1,1.056,0V853.1A.528.528,0,0,1,4136.163,853.622Z" transform="translate(-4135.634 -735.952)" fill="#1a1a1a"/>
    </g>
    <g id="Group_5148" data-name="Group 5148" transform="translate(4150.198 835.383)">
      <path id="Path_8832" data-name="Path 8832" d="M4179.9,812.695h-60.8a.525.525,0,1,1,0-1.05h60.273V774.281H4072.735v37.363h23.154a.525.525,0,1,1,0,1.05h-23.68a.527.527,0,0,1-.528-.524V773.755a.528.528,0,0,1,.528-.526H4179.9a.527.527,0,0,1,.527.526v38.415A.527.527,0,0,1,4179.9,812.695Z" transform="translate(-4071.681 -773.229)" fill="#1a1a1a"/>
    </g>
    <g id="Group_5149" data-name="Group 5149" transform="translate(4184.326 721.83)">
      <path id="Path_8833" data-name="Path 8833" d="M4131.2,713.139h-39.662a.526.526,0,0,1-.526-.526V709.44a.526.526,0,0,1,.526-.526H4131.2a.526.526,0,1,1,0,1.052h-39.134v2.12H4131.2a.526.526,0,1,1,0,1.052Z" transform="translate(-4091.012 -708.914)" fill="#1a1a1a"/>
    </g>
    <g id="Group_5150" data-name="Group 5150" transform="translate(4197.372 959.652)">
      <path id="Path_8834" data-name="Path 8834" d="M4105.6,858.01a7.2,7.2,0,1,1,7.2-7.2A7.208,7.208,0,0,1,4105.6,858.01Zm0-13.342a6.145,6.145,0,1,0,6.143,6.144A6.15,6.15,0,0,0,4105.6,844.668Z" transform="translate(-4098.4 -843.614)" fill="#1a1a1a"/>
    </g>
    <g id="Group_5151" data-name="Group 5151" transform="translate(4273.969 835.667)">
      <path id="Path_8835" data-name="Path 8835" d="M4151.934,774.442h-9.623a.526.526,0,1,1,0-1.052h9.623a.526.526,0,1,1,0,1.052Z" transform="translate(-4141.784 -773.39)" fill="#1a1a1a"/>
    </g>
    <g id="Group_5152" data-name="Group 5152" transform="translate(4273.969 839.643)">
      <path id="Path_8836" data-name="Path 8836" d="M4151.934,776.693h-9.623a.525.525,0,1,1,0-1.05h9.623a.525.525,0,1,1,0,1.05Z" transform="translate(-4141.784 -775.642)" fill="#1a1a1a"/>
    </g>
    <g id="Group_5153" data-name="Group 5153" transform="translate(4226.665 692.043)">
      <path id="Path_8837" data-name="Path 8837" d="M4151.966,765.989a36.973,36.973,0,1,1,36.978-36.971A37.015,37.015,0,0,1,4151.966,765.989Zm0-72.893a35.921,35.921,0,1,0,35.922,35.922A35.962,35.962,0,0,0,4151.966,693.1Z" transform="translate(-4114.992 -692.043)" fill="#1a1a1a"/>
    </g>
    <g id="Group_5154" data-name="Group 5154" transform="translate(4193.553 910.797)">
      <path id="Path_8838" data-name="Path 8838" d="M4117.743,837.974h-20.977a.528.528,0,0,1-.529-.526V816.469a.528.528,0,0,1,.529-.526h20.977a.527.527,0,0,1,.527.526v20.978A.527.527,0,0,1,4117.743,837.974Zm-20.451-1.052h19.923V817h-19.923Z" transform="translate(-4096.237 -815.943)" fill="#1a1a1a"/>
    </g>
    <g id="Group_5155" data-name="Group 5155" transform="translate(4158.076 910.797)">
      <path id="Path_8839" data-name="Path 8839" d="M4097.647,837.974h-20.976a.528.528,0,0,1-.528-.526V816.469a.528.528,0,0,1,.528-.526h20.976a.528.528,0,0,1,.528.526v20.978A.528.528,0,0,1,4097.647,837.974Zm-20.448-1.052h19.921V817H4077.2Z" transform="translate(-4076.144 -815.943)" fill="#1a1a1a"/>
    </g>
    <g id="Group_5156" data-name="Group 5156" transform="translate(4229.031 910.797)">
      <path id="Path_8840" data-name="Path 8840" d="M4116.859,824.181a.529.529,0,0,1-.528-.526v-7.186a.528.528,0,0,1,.528-.526h11.673a.526.526,0,1,1,0,1.052h-11.144v6.66A.53.53,0,0,1,4116.859,824.181Z" transform="translate(-4116.331 -815.943)" fill="#1a1a1a"/>
    </g>
    <g id="Group_5163" data-name="Group 5163" transform="translate(4173.166 760.846)">
      <g id="Group_5162" data-name="Group 5162">
        <g id="Group_5158" data-name="Group 5158" transform="translate(11.176 47.045)">
          <g id="Group_5157" data-name="Group 5157">
            <path id="Path_8841" data-name="Path 8841" d="M4096.924,769.464a5.9,5.9,0,1,1,5.905-5.9A5.91,5.91,0,0,1,4096.924,769.464Zm0-10.752a4.85,4.85,0,1,0,4.85,4.854A4.855,4.855,0,0,0,4096.924,758.712Z" transform="translate(-4091.02 -757.658)" fill="#1a1a1a"/>
          </g>
        </g>
        <g id="Group_5160" data-name="Group 5160" transform="translate(41.588 47.045)">
          <g id="Group_5159" data-name="Group 5159">
            <path id="Path_8842" data-name="Path 8842" d="M4114.151,769.464a5.9,5.9,0,1,1,5.9-5.9A5.91,5.91,0,0,1,4114.151,769.464Zm0-10.752a4.85,4.85,0,1,0,4.847,4.854A4.859,4.859,0,0,0,4114.151,758.712Z" transform="translate(-4108.246 -757.658)" fill="#1a1a1a"/>
          </g>
        </g>
        <g id="Group_5161" data-name="Group 5161">
          <path id="Path_8843" data-name="Path 8843" d="M4137.682,777.731h-40.422a2.026,2.026,0,0,1-2.025-2.023V735.061h-8.519a2.024,2.024,0,1,1,0-4.048h10.544a2.025,2.025,0,0,1,2.024,2.023V742h48.974a3.446,3.446,0,0,1,3.334,5.307l-7.241,15.03a10.771,10.771,0,0,1-7.628,5.418l-34.569,3.918a5.016,5.016,0,0,1-2.87-.5v2.516h38.4a2.023,2.023,0,1,1,0,4.047Zm-50.966-45.668a.973.973,0,0,0,0,1.946h9.048a.527.527,0,0,1,.525.526v41.173a.974.974,0,0,0,.971.973h40.422a.972.972,0,0,0,0-1.944h-38.925a.526.526,0,0,1-.526-.526V770.2a15.606,15.606,0,0,0,3.8.422l34.568-3.916a9.757,9.757,0,0,0,6.8-4.829l7.24-15.029a2.417,2.417,0,0,0-2.388-3.8h-49.5a.527.527,0,0,1-.526-.526v-9.486a.972.972,0,0,0-.971-.973Z" transform="translate(-4084.69 -731.012)" fill="#1a1a1a"/>
        </g>
      </g>
    </g>
    <g id="Group_5164" data-name="Group 5164" transform="translate(4283.59 763.886)">
      <path id="Path_8844" data-name="Path 8844" d="M4147.853,856.086a.529.529,0,0,1-.527-.526l-.093-122.3a.528.528,0,0,1,1.057,0l.091,122.3a.526.526,0,0,1-.527.526Z" transform="translate(-4147.233 -732.734)" fill="#1a1a1a"/>
    </g>
    <g id="Group_5165" data-name="Group 5165" transform="translate(3971.434 990.391)">
      <path id="Path_8845" data-name="Path 8845" d="M4124.878,862.076H3970.958a.526.526,0,0,1,0-1.052h153.921a.526.526,0,0,1,0,1.052Z" transform="translate(-3970.432 -861.024)" fill="#1a1a1a"/>
    </g>
    <g id="Group_5166" data-name="Group 5166" transform="translate(3969.121 906.604)">
      <path id="Path_8846" data-name="Path 8846" d="M3981.373,876.23c-3.125-.786-7.43-2.853-9.808-5.581-7.916-9.066,5.209-39.471,13.738-56.788a.526.526,0,1,1,.945.464c-8.413,17.082-21.4,47.024-13.889,55.63,2.13,2.445,6.215,4.486,9.144,5.238a.526.526,0,0,1-.129,1.036Z" transform="translate(-3969.122 -813.568)" fill="#1a1a1a"/>
    </g>
    <g id="Group_5167" data-name="Group 5167" transform="translate(3987.043 897.156)">
      <path id="Path_8847" data-name="Path 8847" d="M3979.793,815.145c-.5-.187-.6-.5-.469-.763,2.581-5.14,3.075-5.9,3.1-5.932a.529.529,0,0,1,.729-.146.52.52,0,0,1,.148.724c-.023.039-.531.846-3.033,5.828A.527.527,0,0,1,3979.793,815.145Z" transform="translate(-3979.272 -808.217)" fill="#1a1a1a"/>
    </g>
    <g id="Group_5189" data-name="Group 5189" transform="translate(4217.111 888.641)">
      <g id="Group_5186" data-name="Group 5186">
        <g id="Group_5171" data-name="Group 5171" transform="translate(44.985 29.342)">
          <g id="Group_5168" data-name="Group 5168" transform="translate(1.703 12.762)">
            <path id="Path_8848" data-name="Path 8848" d="M4136.55,851.6a.527.527,0,0,1-.526-.526V827.767a.527.527,0,0,1,1.054,0v23.311A.528.528,0,0,1,4136.55,851.6Z" transform="translate(-4136.024 -827.241)" fill="#1a1a1a"/>
          </g>
          <g id="Group_5169" data-name="Group 5169" transform="translate(42.16 12.762)">
            <path id="Path_8849" data-name="Path 8849" d="M4159.467,851.6a.528.528,0,0,1-.528-.526V827.767a.528.528,0,0,1,1.056,0v23.311A.528.528,0,0,1,4159.467,851.6Z" transform="translate(-4158.939 -827.241)" fill="#1a1a1a"/>
          </g>
          <g id="Group_5170" data-name="Group 5170">
            <path id="Path_8850" data-name="Path 8850" d="M4180.807,833.827h-45.22a.527.527,0,0,1-.527-.526V820.539a.528.528,0,0,1,.527-.526h45.22a.528.528,0,0,1,.527.526V833.3A.527.527,0,0,1,4180.807,833.827Zm-44.69-1.052h44.163V821.065h-44.163Z" transform="translate(-4135.06 -820.013)" fill="#1a1a1a"/>
          </g>
        </g>
        <g id="Group_5172" data-name="Group 5172" transform="translate(1.916 78.405)">
          <path id="Path_8851" data-name="Path 8851" d="M4174.08,872.2h-62.888a.527.527,0,0,1-.526-.526V848.328a.527.527,0,0,1,1.055,0v22.818h61.832V848.328a.528.528,0,0,1,1.056,0v23.344A.528.528,0,0,1,4174.08,872.2Z" transform="translate(-4110.666 -847.802)" fill="#1a1a1a"/>
        </g>
        <g id="Group_5173" data-name="Group 5173" transform="translate(0 65.414)">
          <path id="Path_8852" data-name="Path 8852" d="M4213.576,854.487H4110.106a.526.526,0,0,1-.526-.526V840.97a.528.528,0,0,1,.526-.526h103.469a.528.528,0,0,1,.526.526v12.991A.527.527,0,0,1,4213.576,854.487Zm-102.942-1.052h102.415V841.5H4110.634Z" transform="translate(-4109.581 -840.444)" fill="#1a1a1a"/>
        </g>
        <g id="Group_5180" data-name="Group 5180" transform="translate(20.901)">
          <g id="Group_5176" data-name="Group 5176">
            <g id="Group_5174" data-name="Group 5174" transform="translate(44.289 0.035)">
              <path id="Path_8853" data-name="Path 8853" d="M4147.031,814.966a.53.53,0,0,1-.528-.526v-10.5a.528.528,0,0,1,1.056,0v10.5A.529.529,0,0,1,4147.031,814.966Z" transform="translate(-4146.503 -803.414)" fill="#1a1a1a"/>
            </g>
            <g id="Group_5175" data-name="Group 5175">
              <path id="Path_8854" data-name="Path 8854" d="M4168.521,815.013H4121.98a.586.586,0,0,1-.562-.558v-10.5a.588.588,0,0,1,.562-.561h46.541a.589.589,0,0,1,.561.561.546.546,0,0,1-.715.493h-45.894v9.515h45.894a.543.543,0,0,1,.715.493A.587.587,0,0,1,4168.521,815.013Z" transform="translate(-4121.418 -803.394)" fill="#1a1a1a"/>
            </g>
          </g>
          <g id="Group_5179" data-name="Group 5179">
            <g id="Group_5177" data-name="Group 5177" transform="translate(44.289 0.035)">
              <path id="Path_8855" data-name="Path 8855" d="M4147.031,814.966a.53.53,0,0,1-.528-.526v-10.5a.528.528,0,0,1,1.056,0v10.5A.529.529,0,0,1,4147.031,814.966Z" transform="translate(-4146.503 -803.414)" fill="none" stroke="#000" stroke-linecap="round" stroke-linejoin="round" stroke-width="0.425"/>
            </g>
            <g id="Group_5178" data-name="Group 5178">
              <path id="Path_8856" data-name="Path 8856" d="M4168.521,815.013H4121.98a.586.586,0,0,1-.562-.558v-10.5a.588.588,0,0,1,.562-.561h46.541a.589.589,0,0,1,.561.561.546.546,0,0,1-.715.493h-45.894v9.515h45.894a.543.543,0,0,1,.715.493A.587.587,0,0,1,4168.521,815.013Z" transform="translate(-4121.418 -803.394)" fill="none" stroke="#000" stroke-linecap="round" stroke-linejoin="round" stroke-width="0.425"/>
            </g>
          </g>
        </g>
        <g id="Group_5181" data-name="Group 5181" transform="translate(67.508 0.042)">
          <path id="Path_8857" data-name="Path 8857" d="M4159.161,814.995h-10.815a.525.525,0,1,1,0-1.051h10.288V804.47h-10.288a.526.526,0,1,1,0-1.052h10.815a.528.528,0,0,1,.528.526V814.47A.527.527,0,0,1,4159.161,814.995Z" transform="translate(-4147.816 -803.418)" fill="#1a1a1a"/>
        </g>
        <g id="Group_5182" data-name="Group 5182" transform="translate(75.598 10.569)">
          <path id="Path_8858" data-name="Path 8858" d="M4152.925,829.153a.529.529,0,0,1-.527-.526v-18.72a.529.529,0,0,1,1.057,0v18.72A.53.53,0,0,1,4152.925,829.153Z" transform="translate(-4152.398 -809.38)" fill="#1a1a1a"/>
        </g>
        <g id="Group_5183" data-name="Group 5183" transform="translate(6.51 29.342)">
          <path id="Path_8859" data-name="Path 8859" d="M4152.271,833.827H4113.8a.527.527,0,0,1-.528-.526V820.539a.528.528,0,0,1,.528-.526h38.475a.526.526,0,1,1,0,1.052h-37.947v11.709h37.947a.526.526,0,1,1,0,1.052Z" transform="translate(-4113.268 -820.013)" fill="#1a1a1a"/>
        </g>
        <g id="Group_5184" data-name="Group 5184" transform="translate(67.143 65.414)">
          <path id="Path_8860" data-name="Path 8860" d="M4148.136,854.487a.527.527,0,0,1-.528-.526V840.97a.528.528,0,0,1,1.056,0v12.991A.529.529,0,0,1,4148.136,854.487Z" transform="translate(-4147.608 -840.444)" fill="#1a1a1a"/>
        </g>
        <g id="Group_5185" data-name="Group 5185" transform="translate(64.802 78.405)">
          <path id="Path_8861" data-name="Path 8861" d="M4183.189,872.2h-36.377a.526.526,0,1,1,0-1.052h35.849V848.328a.528.528,0,0,1,1.056,0v23.344A.528.528,0,0,1,4183.189,872.2Z" transform="translate(-4146.283 -847.802)" fill="#1a1a1a"/>
        </g>
      </g>
      <g id="Group_5187" data-name="Group 5187" transform="translate(23.593 10.569)">
        <path id="Path_8862" data-name="Path 8862" d="M4123.47,829.206a.529.529,0,0,1-.528-.526V809.906a.528.528,0,0,1,1.055,0V828.68A.529.529,0,0,1,4123.47,829.206Z" transform="translate(-4122.942 -809.38)" fill="#1a1a1a"/>
      </g>
      <g id="Group_5188" data-name="Group 5188" transform="translate(10.346 42.104)">
        <path id="Path_8863" data-name="Path 8863" d="M4115.966,851.6a.528.528,0,0,1-.526-.526V827.767a.528.528,0,0,1,1.055,0v23.311A.528.528,0,0,1,4115.966,851.6Z" transform="translate(-4115.44 -827.241)" fill="#1a1a1a"/>
      </g>
    </g>
    <g id="Group_5196" data-name="Group 5196" transform="translate(3980.105 902.992)">
      <g id="Group_5190" data-name="Group 5190" transform="translate(102.318 12.932)">
        <path id="Path_8864" data-name="Path 8864" d="M4041.33,882.192a.527.527,0,0,1-.522-.462l-7.51-62.3a.525.525,0,0,1,.459-.584.535.535,0,0,1,.588.459l7.507,62.3a.528.528,0,0,1-.459.586Z" transform="translate(-4033.294 -818.847)" fill="#1a1a1a"/>
      </g>
      <g id="Group_5191" data-name="Group 5191" transform="translate(99.447 75.227)">
        <path id="Path_8865" data-name="Path 8865" d="M4032.195,855.22a.526.526,0,0,1,0-1.052l10.379-.037a.525.525,0,1,1,0,1.05l-10.38.039Z" transform="translate(-4031.668 -854.13)" fill="#1a1a1a"/>
      </g>
      <g id="Group_5192" data-name="Group 5192" transform="translate(0 75.506)">
        <path id="Path_8866" data-name="Path 8866" d="M3975.868,855.42a.526.526,0,0,1,0-1.052l24.3-.079a.526.526,0,0,1,0,1.052l-24.3.079Z" transform="translate(-3975.342 -854.288)" fill="#1a1a1a"/>
      </g>
      <g id="Group_5193" data-name="Group 5193" transform="translate(0)">
        <path id="Path_8867" data-name="Path 8867" d="M3975.868,888.16a.534.534,0,0,1-.524-.563l5.4-75.582a.493.493,0,0,1,.563-.487.527.527,0,0,1,.487.563l-5.4,75.581A.526.526,0,0,1,3975.868,888.16Z" transform="translate(-3975.342 -811.522)" fill="#1a1a1a"/>
      </g>
      <g id="Group_5194" data-name="Group 5194" transform="translate(13.19 1.564)">
        <path id="Path_8868" data-name="Path 8868" d="M3986.242,887.4a.528.528,0,0,1-.526-.507l-2.9-73.94a.527.527,0,0,1,.5-.547.507.507,0,0,1,.547.507l2.9,73.942a.529.529,0,0,1-.507.545Z" transform="translate(-3982.814 -812.408)" fill="#1a1a1a"/>
      </g>
      <g id="Group_5195" data-name="Group 5195" transform="translate(5.403 0.005)">
        <path id="Path_8869" data-name="Path 8869" d="M3985.615,812.653l-6.693-.076a.526.526,0,0,1,.007-1.052l6.692.078a.525.525,0,0,1-.006,1.05Z" transform="translate(-3978.403 -811.525)" fill="#1a1a1a"/>
      </g>
    </g>
    <g id="Group_5197" data-name="Group 5197" transform="translate(4064.324 817.155)">
      <path id="Path_8870" data-name="Path 8870" d="M4028.806,770.389a5.718,5.718,0,0,1-4.934-2.648,3.907,3.907,0,0,1-.537-3.789,2,2,0,0,1,1.28-1c1.033-.237,2.161.392,3.233,1.105a3.919,3.919,0,0,0,2.2.592.52.52,0,0,1,.565.484.526.526,0,0,1-.481.565,4.884,4.884,0,0,1-2.867-.763c-.546-.364-1.677-1.118-2.412-.955a.978.978,0,0,0-.613.5,3.007,3.007,0,0,0,.519,2.687,4.744,4.744,0,0,0,4.7,2.128.526.526,0,0,1,.1,1.047A7.511,7.511,0,0,1,4028.806,770.389Z" transform="translate(-4023.043 -762.905)" fill="#1a1a1a"/>
    </g>
    <g id="Group_5198" data-name="Group 5198" transform="translate(4279.515 899.21)">
      <path id="Path_8871" data-name="Path 8871" d="M4145.454,829.206a.529.529,0,0,1-.528-.526V809.906a.527.527,0,0,1,1.054,0V828.68A.527.527,0,0,1,4145.454,829.206Z" transform="translate(-4144.926 -809.38)" fill="#1a1a1a"/>
    </g>
    <g id="Group_5199" data-name="Group 5199" transform="translate(4071.746 825.826)">
      <path id="Path_8872" data-name="Path 8872" d="M4088.506,811.973a66.879,66.879,0,0,1-61.225-43.444.526.526,0,1,1,.984-.374,65.828,65.828,0,0,0,60.254,42.766.526.526,0,0,1-.014,1.052Z" transform="translate(-4027.247 -767.816)" fill="#1a1a1a"/>
    </g>
    <g id="Group_5200" data-name="Group 5200" transform="translate(4068.004 735.718)">
      <path id="Path_8873" data-name="Path 8873" d="M4025.654,776.008a.537.537,0,0,1-.521-.591,66.848,66.848,0,0,1,64.128-58.636.526.526,0,1,1,.04,1.05,65.805,65.805,0,0,0-63.125,57.718A.525.525,0,0,1,4025.654,776.008Z" transform="translate(-4025.128 -716.78)" fill="#1a1a1a"/>
    </g>
    <g id="Group_5201" data-name="Group 5201" transform="translate(4245.196 715.499)">
      <path id="Path_8874" data-name="Path 8874" d="M4140.459,713.421c0,5-2.9,8.136-7.488,8.136s-7.484-3.132-7.484-8.136c0-4.963,2.9-8.093,7.484-8.093S4140.459,708.458,4140.459,713.421Zm-10.655,0c0,2.751,1.183,4.432,3.167,4.432s3.169-1.681,3.169-4.432-1.182-4.389-3.169-4.389S4129.8,710.672,4129.8,713.421Zm26.768-7.979-19.055,26.77h-6.376l19.054-26.77Zm5.8,18.788c0,5-2.9,8.134-7.483,8.134s-7.486-3.132-7.486-8.134c0-4.967,2.9-8.1,7.486-8.1S4162.377,719.264,4162.377,724.23Zm-10.655,0c0,2.749,1.185,4.43,3.171,4.43s3.17-1.681,3.17-4.43-1.184-4.393-3.17-4.393S4151.722,721.481,4151.722,724.23Z" transform="translate(-4125.487 -705.328)" fill="#fff"/>
    </g>
  </g>
</svg>
