<svg xmlns="http://www.w3.org/2000/svg" width="395.477" height="349.7" viewBox="0 0 395.477 349.7">
  <g id="Group_4706" data-name="Group 4706" transform="translate(-198.797 -895.465)">
    <path id="Path_8243" data-name="Path 8243" d="M592.4,1510.016c-6.128,8.7-21.613,14.225-29.579,15.847-24.966,5.085-53.844-.27-79.046-1.721-31.825-1.83-63.674-3.375-95.559-3.245-30.188.125-58.817,4.448-88.64,8.333-18.867,2.454-38.956,3.643-57.228-2.707-9.285-3.23-21.5-12.139-20.856-23.143,1.413-23.987,40.468-18.632,54.921-16.911,55.772,6.65,112.192-.134,168.168,1.349,19.144.508,38.616.428,57.854-.749,18.2-1.111,36.1-3.025,54.467-3.037,11.879-.009,29.774-.434,36.363,12.02A12.53,12.53,0,0,1,592.4,1510.016Z" transform="translate(-11.019 -286.038)" fill="#eceff1" style="mix-blend-mode: multiply;isolation: isolate"/>
    <rect id="Rectangle_500" data-name="Rectangle 500" width="262.291" height="171.497" transform="translate(292.697 1009.095)" fill="#fff"/>
    <path id="Path_8244" data-name="Path 8244" d="M585.271,1112.016l29.318-19.99H720.262v20.207Z" transform="translate(-187.824 -95.527)" fill="#3a3a3a"/>
    <path id="Path_8245" data-name="Path 8245" d="M841.454,1082.061c-.192-5.274,3.138-12.977-3.016-17.538s-14.054-2.342-14.054-2.342c-13.311-3.269-15.9,9.691-15.9,9.691l11.065,1.055,1.081-2.585c-.422,1.234-.973,2.858-.973,2.858l-7.413-.87-.352,1.9s-1-.184-1.01,1.117-.47,1.183-.47,1.183.019,3.842-.042,2.689l-4.811,2.713s.3,1.575,3.138,2.939c0,0,.449,9.013,7.665,10.243a13.256,13.256,0,0,1-1.375,1.064c15.528,2.755,30.989-1.9,30.989-1.9C839.261,1088.188,841.645,1087.333,841.454,1082.061Z" transform="translate(-294.884 -80.761)" fill="#3232f5"/>
    <path id="Path_8246" data-name="Path 8246" d="M414.784,1091.743H350.11V1110.9h85.03l12.844-18.995S442.392,1087.113,414.784,1091.743Z" transform="translate(-73.537 -94.41)" fill="#3a3a3a"/>
    <path id="Path_8247" data-name="Path 8247" d="M504.24,1039.73l-9.35,6.4-.183,3.037-4.606.116-17.454,11.845s-2.9,3.423-1.888,7.245,9.707,14.8,9.707,14.8a6.645,6.645,0,0,0,7.554,1.887c4.919-1.67,69.648-47.275,69.648-47.275l33.457-22.855,18.864-12.8s3.489-4.942,1.324-8.106S601.425,980,601.425,980a8.617,8.617,0,0,0-4.394-2.021c-2.276-.142-6.53,2.766-6.53,2.766l-71.618,48.972Z" transform="translate(-132.068 -40.1)" fill="#fff"/>
    <path id="Path_8248" data-name="Path 8248" d="M828.47,1513.236s-19.394,5.914-24.354,4.377l-7.192,2.5s-.178,1.4.909,1.48,30.743-.642,30.743-.642Z" transform="translate(-290.681 -300.233)" fill="#3a3a3a"/>
    <path id="Path_8249" data-name="Path 8249" d="M785.238,1150.413l-5.948-4.969-9.533,9.093,5.773,7.521-2.066,3.364-19.6-10.758-8.82,11.709s9.431,9.521,17.834,16.258,12.677,8.222,17.348,7.3l-4.952,25.176s23.376-1.53,40.557.52l-.88-58.561s-1.877-9.56-8.549-16.162C806.4,1140.907,792.778,1141.15,785.238,1150.413Z" transform="translate(-265.474 -119.283)" fill="#1a1a1a"/>
    <path id="Path_8250" data-name="Path 8250" d="M821.106,1075.934c.024-.134-1.446,4.21-1.446,4.21l-7.413-.87-.352,1.9s.936.25.924.832c-.013,1.3-.749,6.154-.749,6.154s-.429.737-.994.47c-.255-.122-.791-.149-.89-.526-.12-.458.221-1.308.187-1.94l-4.811,2.713s.3,1.575,3.138,2.939c0,0,.45,9.1,7.774,10.264a9.412,9.412,0,0,0,4.887-4.674,10.7,10.7,0,0,0,1.141-7.943C822.171,1087.487,820.743,1078.014,821.106,1075.934Z" transform="translate(-294.884 -87.705)" fill="#fff"/>
    <path id="Path_8251" data-name="Path 8251" d="M830.639,1129.714l.443,4.131,8.445-3.8-8.667-.333Z" transform="translate(-307.071 -113.844)" fill="#fff"/>
    <path id="Path_8252" data-name="Path 8252" d="M792.83,1138.406l-2.781-2.274-4.264-9.957s-7.17-2.755-10.033-2.306c0,0-.448.52.431,1.144s3.615,1.937,4.318,2.993,1.376,5.911,1.376,5.911-4.07-5.239-4.948-5.459.689,4.109,2.233,6.808a11.03,11.03,0,0,0,5.072,5.075,7.1,7.1,0,0,1,3.21,3.534l5.646-5.563Z" transform="translate(-280.341 -110.979)" fill="#fff"/>
    <path id="Path_8253" data-name="Path 8253" d="M740.881,1157.812l-3.333-1.694a11.02,11.02,0,0,0-1.419-4.9,16.773,16.773,0,0,0-3.253-4.294s-1.264-5.494-1.776-4.966-1.171,1.7-.761,4.086,1.189,5.052.623,5.168a2.009,2.009,0,0,1-2.742-1.343c-.576-1.893-1.629-5.29-1.629-5.29l-1.649-2.924s-1.982,3.979-1.22,6.2c0,0-2.471,1.881.169,6.327s11.014,10.84,11.014,10.84l6.267-7.272Z" transform="translate(-254.6 -119.645)" fill="#fff"/>
    <path id="Path_8254" data-name="Path 8254" d="M823.927,1498.55l.268,6.365-13.268,5.215s4.684.983,24.354-4.377l.354-7.914Z" transform="translate(-297.491 -292.751)" fill="#fff"/>
    <path id="Path_8255" data-name="Path 8255" d="M932.824,1394.16l9.28,4.5s2.565,19.006.247,23.491l-3.108-14.136-8.921-3.159Z" transform="translate(-355.517 -242.363)" fill="#fff"/>
    <path id="Path_8256" data-name="Path 8256" d="M547.584,957.162l1.71-8.368.357-8.371s4.659-.024,5.625-3.058a36.329,36.329,0,0,0,1.439-12.534c-.21-5.468-.28-7.233-.28-7.233s-5.789,1.42-15.685-4.612c0,0-2.456,8.463-3.921,10.041,0,0-4.282-2.356-5.214,2.33s4.508,5.429,4.508,5.429,3.815,11.833.181,16.691Z" transform="translate(-161.695 -8.516)" fill="#fff"/>
    <path id="Path_8257" data-name="Path 8257" d="M691.628,1042.733l6.942-4.671s.97-9.729,3.57-11.479l2.382,6.333-.474-7.283s2.649-1.067,3.263,5.961-8.607,12.662-12.221,15.553Z" transform="translate(-239.513 -63.232)" fill="#fff"/>
    <path id="Path_8258" data-name="Path 8258" d="M519.489,1077.376l-.232,8.356,3.535-.948s3.756,2.208,10.526,1.272l4.862,1.53s3.881,2.362,4.641,1.92-2.931-5.01-2.931-5.01,3.933,3.17,4.692,2.341-.728-3.375-2.026-4.74a41.176,41.176,0,0,0-4.856-3.75,15.741,15.741,0,0,1,3.254.2c.823.267,2.193.99,2.366.538s.182-2.737-2.912-3.7-6.147-.737-8.016-1.462S520.462,1076.52,519.489,1077.376Z" transform="translate(-155.742 -86.678)" fill="#fff"/>
    <path id="Path_8259" data-name="Path 8259" d="M838.312,1324.267l-.706-.8,2.324-37.829-36.248-.624s-4.52,27.128-4.738,36.188.817,14.261,7.442,17.515l2.856,56.689,24.019-1.171L835.793,1353l27.927,10.517,5.471-23.375Z" transform="translate(-291.655 -189.319)" fill="#3232f5"/>
    <path id="Path_8260" data-name="Path 8260" d="M823.559,1143.556l-2.271-7.4,14.358-6.026,5.973-.413,1.838,5.753S835.357,1134.338,823.559,1143.556Z" transform="translate(-302.527 -113.844)" fill="#fff"/>
    <path id="Path_8261" data-name="Path 8261" d="M717.777,1117.193l3.032,7.482s1.275,6.852,4.04,6.745c1.845-.068,0-5.673,0-5.673s-.9-3.126.516-3.308,1.945,4.386,1.945,4.386,4.946,4.119,4.8,9.174l3.1,2.062,2.351-2.936,14.87,8.041H757.1l-2.471-6.543-1.436-1.408.708-.642-2.3-5.988a17.641,17.641,0,0,1-4.53-6.532c-1.508-3.979-1.9-4.73-1.82-4.861a30.056,30.056,0,0,1,2.875,2.326l-1.46-4.413s-2.389-1.563-2.459-2.125,1.554-.618,1.554-.618l-4.214-11.013L711.5,1100.7Z" transform="translate(-249.169 -99.745)" fill="#3232f5"/>
    <path id="Path_8262" data-name="Path 8262" d="M507.451,1144.176a8.294,8.294,0,1,1-8.294-8.294A8.292,8.292,0,0,1,507.451,1144.176Z" transform="translate(-141.942 -116.841)" fill="#3232f5"/>
    <path id="Path_8263" data-name="Path 8263" d="M566.121,975.036s.57,1.563,2.451-.829-.05-8.374-.05-8.374l-2.049.273Z" transform="translate(-178.517 -34.199)" fill="#3a3a3a"/>
    <path id="Path_8264" data-name="Path 8264" d="M531.981,904.165s9.343,5.563,17.024,5.459v6.428a28.532,28.532,0,0,0-.4-11.039c-1.4-6.324-6.069-9.747-14.528-7.964,0,0-8.435-1.569-12.824,5.212s-2.494,8.971-2.247,14.76,1,20.8-2.79,25.143l3.22-1.346a3.434,3.434,0,0,0,2.855,1.958c3.46,0,4.376-2.844,5.452-5.019s-1.105-15.55-1.105-15.55-3.11-1.881-2.67-4.514c.631-3.768,3.722-3.049,3.722-3.049S531.981,907.677,531.981,904.165Z" transform="translate(-154.266 -0.541)" fill="#1a1a1a"/>
    <g id="Group_4567" data-name="Group 4567" transform="translate(287.881 1045.048)">
      <path id="Path_8265" data-name="Path 8265" d="M522.959,1186.658a3.255,3.255,0,0,0-1.065-.178h-1.9a3.261,3.261,0,0,0-3.264,3.263l-.853,5.911-.774,5.387-3.068,21.315-.776,5.391-3.068,21.315-.78,5.387-3.069,21.315-.774,5.388-3.07,21.318-.774,5.387-3.074,21.315-.774,5.387-4.7,32.619a3.261,3.261,0,0,0,3.26,3.26h1.91a3.046,3.046,0,0,1,1.136,0l.03-.22a3.256,3.256,0,0,0,2.1-3.04l25.55-177.437A3.265,3.265,0,0,0,522.959,1186.658Z" transform="translate(-429.975 -1186.48)" fill="#3232f5"/>
      <path id="Path_8266" data-name="Path 8266" d="M438.74,1329.173H386.013l3.074-21.315h52.726l.774-5.387H389.861l3.237-21.318h52.559l.774-5.388H393.7l3.258-21.315H449.5l.778-5.387H397.551l3.276-21.315h52.52l.774-5.391H401.109l3.414-21.315h52.669l.774-5.387H405.239c1.826-7.682-.716-9.173-.716-9.173h-3.6a3.262,3.262,0,0,0-3.264,3.263L372.11,1367.18a3.259,3.259,0,0,0,3.259,3.26h3.087s2.257-1.587,2.257-3.388l4.526-32.491h52.727Z" transform="translate(-372.11 -1186.48)" fill="#3232f5"/>
    </g>
    <path id="Path_8267" data-name="Path 8267" d="M531.151,988.582c-11.094-8.315-13.847-7.423-13.847-7.423s-.995,2.338-4.157.9l-2.067,7.717-11.28-9.684s-5.746,6.9-9.435,1.314c0,0-15.176,5.8-24.013,20.427s-12.459,20.156-8.131,33.38,19.987,15.8,29.609,14.98l1.108-18.364s7.909-3.667,11.14-3.486a49.683,49.683,0,0,1,6.534.882,11.09,11.09,0,0,1,4.809,1.525l35.61-24.266A56.893,56.893,0,0,0,531.151,988.582ZM478.806,1022.9c-.135-6.558,4.721-11.783,4.721-11.783l2.274,18.864S478.941,1029.462,478.806,1022.9Z" transform="translate(-125.19 -41.127)" fill="#3232f5"/>
    <path id="Path_8268" data-name="Path 8268" d="M673.158,1058.957l6,6.983-8.081,6.983H653.622Z" transform="translate(-221.042 -79.456)" fill="#3232f5"/>
    <path id="Path_8269" data-name="Path 8269" d="M364.533,1104.6a2.431,2.431,0,1,1-2.431-2.431A2.43,2.43,0,0,1,364.533,1104.6Z" transform="translate(-78.184 -100.456)" fill="#3232f5"/>
    <path id="Path_8270" data-name="Path 8270" d="M378.293,1104.6a2.431,2.431,0,1,1-2.431-2.431A2.43,2.43,0,0,1,378.293,1104.6Z" transform="translate(-84.871 -100.456)" fill="#3232f5"/>
    <path id="Path_8271" data-name="Path 8271" d="M391.95,1104.6a2.432,2.432,0,1,1-2.432-2.431A2.431,2.431,0,0,1,391.95,1104.6Z" transform="translate(-91.508 -100.456)" fill="#3232f5"/>
    <path id="Path_8272" data-name="Path 8272" d="M307.73,1433.827a64.4,64.4,0,0,1-13.674,1.144c-11.014,0-19.94-1.723-19.94-3.851s8.927-3.851,19.94-3.851a69.623,69.623,0,0,1,13.7,1.055Z" transform="translate(-36.605 -258.454)" fill="#3a3a3a"/>
    <path id="Path_8273" data-name="Path 8273" d="M262.775,1186.48l14.163,71.515S229.474,1243.448,262.775,1186.48Z" transform="translate(-25.334 -141.432)" fill="#fff"/>
    <path id="Path_8274" data-name="Path 8274" d="M198.8,1302.77s14.784,56.87,35.133,42.161C253.686,1330.646,215.915,1305.177,198.8,1302.77Z" transform="translate(0 -197.948)" fill="#fff"/>
    <path id="Path_8275" data-name="Path 8275" d="M334.411,1302.77s-6.839,60.1-29.356,48.987C283.194,1340.973,317.935,1308,334.411,1302.77Z" transform="translate(-48.232 -197.948)" fill="#fff"/>
    <path id="Path_8276" data-name="Path 8276" d="M279.512,1474.175s2.464,2.838,18.384,2.838,16.155-3.257,16.155-3.257L311.641,1498s-2.255,2.525-14.962,2.525-14.873-2.573-14.873-2.573Z" transform="translate(-39.227 -281.046)" fill="#3232f5"/>
    <rect id="Rectangle_501" data-name="Rectangle 501" width="40.68" height="40.678" transform="translate(421.009 1037.786)" fill="#3232f5"/>
    <g id="Group_4568" data-name="Group 4568" transform="translate(396.997 1089.438)">
      <path id="Path_8277" data-name="Path 8277" d="M624.451,1273.934H584.94a.547.547,0,0,1,0-1.094h39.51a.547.547,0,0,1,0,1.094Z" transform="translate(-584.395 -1272.84)" fill="#1a1a1a"/>
    </g>
    <g id="Group_4569" data-name="Group 4569" transform="translate(396.997 1095.994)">
      <path id="Path_8278" data-name="Path 8278" d="M624.451,1286.687H584.94a.547.547,0,0,1,0-1.093h39.51a.547.547,0,0,1,0,1.093Z" transform="translate(-584.395 -1285.594)" fill="#1a1a1a"/>
    </g>
    <g id="Group_4570" data-name="Group 4570" transform="translate(396.997 1102.549)">
      <path id="Path_8279" data-name="Path 8279" d="M624.451,1299.441H584.94a.547.547,0,0,1,0-1.094h39.51a.547.547,0,0,1,0,1.094Z" transform="translate(-584.395 -1298.347)" fill="#1a1a1a"/>
    </g>
    <g id="Group_4574" data-name="Group 4574" transform="translate(382.389 1143.967)">
      <g id="Group_4571" data-name="Group 4571" transform="translate(0 0)">
        <path id="Path_8280" data-name="Path 8280" d="M596.03,1380.02H556.52a.547.547,0,0,1,0-1.094H596.03a.547.547,0,0,1,0,1.094Z" transform="translate(-555.975 -1378.926)" fill="#1a1a1a"/>
      </g>
      <g id="Group_4572" data-name="Group 4572" transform="translate(0 6.558)">
        <path id="Path_8281" data-name="Path 8281" d="M596.03,1392.779H556.52a.547.547,0,0,1,0-1.094H596.03a.547.547,0,0,1,0,1.094Z" transform="translate(-555.975 -1391.685)" fill="#1a1a1a"/>
      </g>
      <g id="Group_4573" data-name="Group 4573" transform="translate(0 13.117)">
        <path id="Path_8282" data-name="Path 8282" d="M596.03,1405.538H556.52a.547.547,0,0,1,0-1.094H596.03a.547.547,0,0,1,0,1.094Z" transform="translate(-555.975 -1404.445)" fill="#1a1a1a"/>
      </g>
    </g>
    <g id="Group_4578" data-name="Group 4578" transform="translate(447.772 1143.967)">
      <g id="Group_4575" data-name="Group 4575" transform="translate(0 0)">
        <path id="Path_8283" data-name="Path 8283" d="M723.235,1380.02H683.724a.547.547,0,0,1,0-1.094h39.511a.547.547,0,0,1,0,1.094Z" transform="translate(-683.179 -1378.926)" fill="#1a1a1a"/>
      </g>
      <g id="Group_4576" data-name="Group 4576" transform="translate(0 6.558)">
        <path id="Path_8284" data-name="Path 8284" d="M723.235,1392.779H683.724a.547.547,0,0,1,0-1.094h39.511a.547.547,0,0,1,0,1.094Z" transform="translate(-683.179 -1391.685)" fill="#1a1a1a"/>
      </g>
      <g id="Group_4577" data-name="Group 4577" transform="translate(0 13.117)">
        <path id="Path_8285" data-name="Path 8285" d="M723.235,1405.538H683.724a.547.547,0,0,1,0-1.094h39.511a.547.547,0,0,1,0,1.094Z" transform="translate(-683.179 -1404.445)" fill="#1a1a1a"/>
      </g>
    </g>
    <g id="Group_4579" data-name="Group 4579" transform="translate(330.92 960.157)">
      <path id="Path_8286" data-name="Path 8286" d="M485.379,1070.809c-13.233,0-19.839-3.911-23.076-7.293-7.548-7.886-7.942-21.072-3.963-29.264a100,100,0,0,1,7.292-12.691.546.546,0,1,1,.9.618,98.874,98.874,0,0,0-7.212,12.549c-3.815,7.857-3.448,20.492,3.77,28.034,4.607,4.812,13.281,7.3,24.454,6.921a.581.581,0,0,1,.562.529.549.549,0,0,1-.529.565C486.826,1070.8,486.092,1070.809,485.379,1070.809Z" transform="translate(-455.842 -1021.323)" fill="#1a1a1a"/>
    </g>
    <g id="Group_4580" data-name="Group 4580" transform="translate(348.375 939.732)">
      <path id="Path_8287" data-name="Path 8287" d="M490.347,993.571a.547.547,0,0,1-.389-.93,44.508,44.508,0,0,1,16.458-11.025.546.546,0,0,1,.369,1.029,43.391,43.391,0,0,0-16.048,10.763A.552.552,0,0,1,490.347,993.571Z" transform="translate(-489.802 -981.587)" fill="#1a1a1a"/>
    </g>
    <g id="Group_4581" data-name="Group 4581" transform="translate(353.069 963.698)">
      <path id="Path_8288" data-name="Path 8288" d="M509.612,1055.76a.538.538,0,0,1-.223-.048c-.617-.277-1.3-.547-2-.826-3.006-1.194-6.412-2.549-7.727-5.262-3.74-7.718,8.117-20.689,8.623-21.238a.547.547,0,0,1,.8.743c-.119.128-11.86,12.968-8.445,20.02,1.13,2.33,4.328,3.6,7.148,4.722.721.288,1.415.564,2.044.844a.548.548,0,0,1-.223,1.047Z" transform="translate(-498.933 -1028.213)" fill="#1a1a1a"/>
    </g>
    <g id="Group_4582" data-name="Group 4582" transform="translate(357.79 969.445)">
      <path id="Path_8289" data-name="Path 8289" d="M510.939,1059.351a.548.548,0,0,1-.542-.481l-2.275-18.864a.545.545,0,0,1,.477-.606.534.534,0,0,1,.608.475l2.275,18.864a.545.545,0,0,1-.477.606A.5.5,0,0,1,510.939,1059.351Z" transform="translate(-508.118 -1039.394)" fill="#1a1a1a"/>
    </g>
    <g id="Group_4583" data-name="Group 4583" transform="translate(401.72 952.629)">
      <path id="Path_8290" data-name="Path 8290" d="M597.539,1031.318a.557.557,0,0,1-.542-.6c1.466-14.1-3.3-23.145-3.347-23.234a.545.545,0,1,1,.96-.517c.2.377,4.976,9.408,3.472,23.865A.547.547,0,0,1,597.539,1031.318Z" transform="translate(-593.584 -1006.679)" fill="#1a1a1a"/>
    </g>
    <g id="Group_4584" data-name="Group 4584" transform="translate(391.971 939.576)">
      <path id="Path_8291" data-name="Path 8291" d="M604.486,1007.608a.547.547,0,0,1-.469-.271c-10.74-18.2-22.767-23.461-28.982-24.973a.544.544,0,0,1-.4-.657.528.528,0,0,1,.66-.4c6.381,1.551,18.721,6.927,29.663,25.479a.545.545,0,0,1-.192.746A.561.561,0,0,1,604.486,1007.608Z" transform="translate(-574.618 -981.284)" fill="#1a1a1a"/>
    </g>
    <path id="Path_8292" data-name="Path 8292" d="M576.708,936.418a.533.533,0,0,0,.542-.523l.028-1.5a.534.534,0,0,0-1.067-.018l-.027,1.5A.531.531,0,0,0,576.708,936.418Z" transform="translate(-183.408 -18.658)"/>
    <path id="Path_8293" data-name="Path 8293" d="M559.55,936.1a.532.532,0,0,0,.542-.52l.027-1.5a.532.532,0,0,0-1.064-.021l-.028,1.5A.533.533,0,0,0,559.55,936.1Z" transform="translate(-175.069 -18.503)"/>
    <g id="Group_4585" data-name="Group 4585" transform="translate(369.158 913.182)">
      <path id="Path_8294" data-name="Path 8294" d="M534.548,939.474a3.687,3.687,0,0,1-1.755-.434,5.274,5.274,0,0,1-2.49-3.889c-.379-2.847.808-4.829,3.1-5.179,2.167-.348,3.35,1.806,3.4,1.9a.546.546,0,0,1-.964.511c-.034-.063-.86-1.554-2.272-1.329-2.463.372-2.292,3.121-2.181,3.955a4.2,4.2,0,0,0,1.922,3.07,3.179,3.179,0,0,0,3-.157.546.546,0,0,1,.481.981A5.058,5.058,0,0,1,534.548,939.474Z" transform="translate(-530.234 -929.933)" fill="#1a1a1a"/>
    </g>
    <g id="Group_4586" data-name="Group 4586" transform="translate(371.393 915.138)">
      <path id="Path_8295" data-name="Path 8295" d="M535.888,939.264a.547.547,0,0,1-.312-1l1.856-1.293-2.658-2.276a.545.545,0,1,1,.71-.826l3.194,2.734a.54.54,0,0,1,.19.439.549.549,0,0,1-.233.422l-2.435,1.7A.546.546,0,0,1,535.888,939.264Z" transform="translate(-534.583 -933.74)" fill="#1a1a1a"/>
    </g>
    <g id="Group_4590" data-name="Group 4590" transform="translate(270.485 952.997)">
      <g id="Group_4587" data-name="Group 4587" transform="translate(0 7.159)">
        <path id="Path_8296" data-name="Path 8296" d="M344.826,1028.429a.543.543,0,0,1-.386-.16l-6.015-6.015a.546.546,0,1,1,.773-.773l6.015,6.015a.547.547,0,0,1-.387.933Z" transform="translate(-338.266 -1021.321)" fill="#1a1a1a"/>
      </g>
      <g id="Group_4588" data-name="Group 4588" transform="translate(0 7.159)">
        <path id="Path_8297" data-name="Path 8297" d="M338.812,1028.429a.547.547,0,0,1-.387-.933l6.015-6.015a.546.546,0,0,1,.773.773l-6.015,6.015A.544.544,0,0,1,338.812,1028.429Z" transform="translate(-338.266 -1021.321)" fill="#1a1a1a"/>
      </g>
      <g id="Group_4589" data-name="Group 4589" transform="translate(11.437)">
        <path id="Path_8298" data-name="Path 8298" d="M362.779,1011.926a2.266,2.266,0,1,1,2.265-2.267A2.269,2.269,0,0,1,362.779,1011.926Zm0-3.438a1.172,1.172,0,1,0,1.174,1.171A1.173,1.173,0,0,0,362.779,1008.488Z" transform="translate(-360.516 -1007.394)" fill="#1a1a1a"/>
      </g>
    </g>
    <g id="Group_4592" data-name="Group 4592" transform="translate(570.342 1027.679)">
      <g id="Group_4591" data-name="Group 4591" transform="translate(0 0)">
        <path id="Path_8299" data-name="Path 8299" d="M923.9,1157.22a2.266,2.266,0,1,1,2.264-2.267A2.27,2.27,0,0,1,923.9,1157.22Zm0-3.438a1.172,1.172,0,1,0,1.174,1.171A1.175,1.175,0,0,0,923.9,1153.782Z" transform="translate(-921.639 -1152.688)" fill="#1a1a1a"/>
      </g>
    </g>
    <g id="Group_4594" data-name="Group 4594" transform="translate(383.176 922.155)">
      <g id="Group_4593" data-name="Group 4593">
        <path id="Path_8300" data-name="Path 8300" d="M561.466,953.281a3.987,3.987,0,0,1-1.719-.392,4.046,4.046,0,0,1-2.16-2.871,2.512,2.512,0,0,1,.343-2.125,1.747,1.747,0,0,1,2.886.823c.29.749.357.779.505.85.107.05.119.053.159.053a4.047,4.047,0,0,0,.811-.2,2.02,2.02,0,0,1,2.145.452,1.527,1.527,0,0,1,.324,1.254C564.6,952.143,563.206,953.281,561.466,953.281Zm-2.388-4.841a.44.44,0,0,0-.332.178,1.587,1.587,0,0,0-.092,1.18,3.013,3.013,0,0,0,1.558,2.1,2.929,2.929,0,0,0,1.253.288,2.349,2.349,0,0,0,2.215-1.239.438.438,0,0,0-.076-.374.965.965,0,0,0-.975-.122c-1.169.383-1.5.223-1.777.1-.466-.219-.671-.448-1.055-1.441A.942.942,0,0,0,559.078,948.44Z" transform="translate(-557.506 -947.391)" fill="#1a1a1a"/>
      </g>
    </g>
    <g id="Group_4595" data-name="Group 4595" transform="translate(518.939 995.807)">
      <path id="Path_8301" data-name="Path 8301" d="M822.127,1093.238a.535.535,0,0,1-.492-.57l.115-1.495a.532.532,0,0,1,1.061.081l-.113,1.495A.534.534,0,0,1,822.127,1093.238Z" transform="translate(-821.634 -1090.682)"/>
    </g>
    <g id="Group_4596" data-name="Group 4596" transform="translate(510.13 997.585)">
      <path id="Path_8302" data-name="Path 8302" d="M815.956,1111.474c-7.5-1.444-8.095-8.751-8.133-10.392-3.4-2.134-3.343-2.829-3.323-3.094.046-.555.687-.972,2.262-1.943a16.271,16.271,0,0,0,2.511-1.75.546.546,0,0,1,.766.779,16.975,16.975,0,0,1-2.705,1.9,16.524,16.524,0,0,0-1.673,1.114,17.016,17.016,0,0,0,2.992,2.226.544.544,0,0,1,.259.484c-.014.333-.225,8.163,7.148,9.593a.546.546,0,0,1-.1,1.082Z" transform="translate(-804.497 -1094.14)" fill="#1a1a1a"/>
    </g>
    <g id="Group_4597" data-name="Group 4597" transform="translate(516.465 991.255)">
      <path id="Path_8303" data-name="Path 8303" d="M817.366,1084.584c-.41-.078-.6-.369-.533-.663.2-.936.351-1.661.351-1.661a.545.545,0,1,1,1.07.214s-.149.734-.354,1.679A.548.548,0,0,1,817.366,1084.584Z" transform="translate(-816.821 -1081.824)" fill="#1a1a1a"/>
    </g>
    <g id="Group_4598" data-name="Group 4598" transform="translate(523.022 1015.324)">
      <path id="Path_8304" data-name="Path 8304" d="M830.565,1133.649a.548.548,0,0,1-.542-.485l-.443-3.9a.543.543,0,0,1,.481-.6.529.529,0,0,1,.6.478l.443,3.905a.545.545,0,0,1-.482.6A.513.513,0,0,1,830.565,1133.649Z" transform="translate(-829.577 -1128.651)" fill="#1a1a1a"/>
    </g>
    <path id="Path_8305" data-name="Path 8305" d="M816.671,1109.736c-.193-.181-2.789,1.242-3.969,1.073a5.039,5.039,0,0,0,.391,1.756C814.4,1112,816.859,1109.911,816.671,1109.736Z" transform="translate(-298.354 -104.127)"/>
    <g id="Group_4599" data-name="Group 4599" transform="translate(538.696 1015.327)">
      <path id="Path_8306" data-name="Path 8306" d="M862.305,1135.5a.545.545,0,0,1-.523-.392l-1.69-5.753a.545.545,0,0,1,1.046-.309l1.69,5.753a.55.55,0,0,1-.523.7Z" transform="translate(-860.071 -1128.656)" fill="#1a1a1a"/>
    </g>
    <g id="Group_4600" data-name="Group 4600" transform="translate(517.915 1015.637)">
      <path id="Path_8307" data-name="Path 8307" d="M822.841,1144.113a.545.545,0,0,1-.514-.365l-2.654-7.5a.544.544,0,0,1,.288-.677c.089-.042,8.891-4.029,14.968-6.279a.545.545,0,1,1,.38,1.022c-5.251,1.943-12.558,5.2-14.44,6.044l2.486,7.025a.545.545,0,0,1-.332.7A.57.57,0,0,1,822.841,1144.113Z" transform="translate(-819.642 -1129.26)" fill="#1a1a1a"/>
    </g>
    <g id="Group_4601" data-name="Group 4601" transform="translate(513.271 980.166)">
      <path id="Path_8308" data-name="Path 8308" d="M828.845,1096.835a97.547,97.547,0,0,1-11.676-.716.546.546,0,0,1-.111-1.054c.321-.116,7.867-2.966,7.53-11.34a34.616,34.616,0,0,0-.7-4.8,35.469,35.469,0,0,1-.883-7.759,8.907,8.907,0,0,0-.357,1.438.535.535,0,0,1-.6.464l-10.959-1.287a.544.544,0,0,1-.469-.653c.022-.107,2.4-10.873,11.98-10.873a15.384,15.384,0,0,1,3.9.535,29.287,29.287,0,0,1,4.142-.283c3.661,0,8.668.657,11.739,3.78a10.163,10.163,0,0,1,2.718,7.607c-.067,3.917-.361,6.781-.6,9.081-.606,5.9-.768,7.486,4.318,12.474a.546.546,0,0,1-.26.922,111.518,111.518,0,0,1-15.41,2.35C831.773,1096.8,830.328,1096.835,828.845,1096.835Zm-9.713-1.59c2.059.208,5.661.5,9.713.5,1.463,0,2.889-.039,4.237-.113a105.643,105.643,0,0,0,14.258-2.115c-4.734-4.838-4.519-6.936-3.93-12.653.234-2.282.526-5.12.593-8.989a9.114,9.114,0,0,0-2.406-6.823c-2.8-2.856-7.509-3.456-10.961-3.456a27.829,27.829,0,0,0-4.083.285.5.5,0,0,1-.23-.012,14.527,14.527,0,0,0-3.725-.526c-7.56,0-10.16,7.269-10.766,9.426l9.835,1.156a30.238,30.238,0,0,1,2.747-6.561c.113-.223.241-.458.379-.689a.538.538,0,0,1,.743-.2.547.547,0,0,1,.2.743s-.141.25-.361.66c-2.075,4.1-1.193,8.743-.413,12.841a35.438,35.438,0,0,1,.716,4.962A12.563,12.563,0,0,1,819.132,1095.245Z" transform="translate(-810.606 -1060.252)" fill="#1a1a1a"/>
    </g>
    <g id="Group_4602" data-name="Group 4602" transform="translate(467.603 1021.46)">
      <path id="Path_8309" data-name="Path 8309" d="M734.8,1165.345a.54.54,0,0,1-.355-.134c-.346-.293-8.519-7.31-11.179-10.861a6.2,6.2,0,0,1-.835-6.867c-.572-2.443,1.493-6.428,1.585-6.6a.635.635,0,0,1,.5-.294.552.552,0,0,1,.48.324l1.385,3.106c.552,2.546,1.873,6.053,3.2,6.219.566.068.689-.027.689-.027a3.894,3.894,0,0,0-.267-1.373,13.323,13.323,0,0,1-.413-1.706l-.046-.294c-.376-2.419-.8-5.165.8-5.59a1,1,0,0,1,.761.114c.7.419,1.025,1.622,1.45,3.411a8.951,8.951,0,0,0,.449,1.56c4.373,4.538,4.707,7.866,4.674,8.975l2.8,1.67a.546.546,0,0,1-.558.939l-3.095-1.846a.549.549,0,0,1-.258-.57c0-.026.5-3.372-4.365-8.427a5.013,5.013,0,0,1-.713-2.047c-.194-.82-.6-2.529-.949-2.728-.575.181-.116,3.12.079,4.374l.046.294a12.3,12.3,0,0,0,.382,1.566c.285.978.531,1.821.048,2.389a1.812,1.812,0,0,1-1.654.4c-2.615-.327-3.948-6.288-4.09-6.965l-.862-1.914c-.626,1.462-1.364,3.688-.952,4.951a.555.555,0,0,1-.064.472c-.072.107-1.708,2.666.667,5.833,2.587,3.453,10.931,10.614,11.016,10.689a.546.546,0,0,1-.355.96Z" transform="translate(-721.761 -1140.588)" fill="#1a1a1a"/>
    </g>
    <g id="Group_4603" data-name="Group 4603" transform="translate(514.754 1069.98)">
      <path id="Path_8310" data-name="Path 8310" d="M814.039,1236.176a.546.546,0,0,1-.162-1.067,1.852,1.852,0,0,0,.178-.066.535.535,0,0,1,.729.253.543.543,0,0,1-.251.728,2.264,2.264,0,0,1-.333.125A.524.524,0,0,1,814.039,1236.176Z" transform="translate(-813.493 -1234.984)" fill="#1a1a1a"/>
    </g>
    <g id="Group_4604" data-name="Group 4604" transform="translate(364.628 921.726)">
      <path id="Path_8311" data-name="Path 8311" d="M525.272,967.611a4.672,4.672,0,0,1-1.82-.345,3.621,3.621,0,0,1-2-1.981.549.549,0,0,1,.339-.7.557.557,0,0,1,.692.339,2.537,2.537,0,0,0,1.412,1.343c1.235.5,3.006.226,5.122-.791,6.216-3,1.76-18.07,1.714-18.222a.546.546,0,0,1,1.046-.315c.2.657,4.765,16.121-2.288,19.518A9.949,9.949,0,0,1,525.272,967.611Z" transform="translate(-521.422 -946.556)" fill="#1a1a1a"/>
    </g>
    <g id="Group_4605" data-name="Group 4605" transform="translate(374.341 931.361)">
      <path id="Path_8312" data-name="Path 8312" d="M551.866,983.133a.537.537,0,0,1-.352-.131l-11-9.29a.545.545,0,1,1,.7-.832l10.3,8.695,1.41-6.906.462-8.852a.546.546,0,0,1,.545-.517.554.554,0,0,1,.545.576l-.473,8.933-1.6,7.886a.557.557,0,0,1-.535.437Z" transform="translate(-540.318 -965.301)" fill="#1a1a1a"/>
    </g>
    <g id="Group_4606" data-name="Group 4606" transform="translate(382.117 908.531)">
      <path id="Path_8313" data-name="Path 8313" d="M561.555,944.7c-.4,0-.813-.018-1.26-.057a39.047,39.047,0,0,1-4.409-.591.546.546,0,0,1,.214-1.07,38.309,38.309,0,0,0,4.288.574,8.65,8.65,0,0,0,3.386-.249,4.806,4.806,0,0,0,3.091-3.426c1.021-3.117.967-6.508.917-9.786l-.007-.467c-.028-1.783-.086-3.566-.145-5.351l-.086-2.722a.54.54,0,0,1,.4-.657.548.548,0,0,1,.659.4,1.692,1.692,0,0,1,.036.241l.086,2.7c.058,1.792.117,3.581.144,5.37l.007.466c.052,3.37.107,6.853-.97,10.142a5.824,5.824,0,0,1-3.8,4.127A8.343,8.343,0,0,1,561.555,944.7Z" transform="translate(-555.447 -920.884)" fill="#1a1a1a"/>
    </g>
    <g id="Group_4607" data-name="Group 4607" transform="translate(388.456 913.402)">
      <path id="Path_8314" data-name="Path 8314" d="M568.641,939.533a.546.546,0,0,1-.027-1.091c.686-.036,1.481-.107,2-.185a14.8,14.8,0,0,1-2.416-5.753,7.358,7.358,0,0,0-.373-1.388.545.545,0,0,1,1-.422,8.235,8.235,0,0,1,.438,1.593,14.219,14.219,0,0,0,2.619,5.917.653.653,0,0,1,.042.606c-.126.255-.283.57-3.258.719A.077.077,0,0,1,568.641,939.533Z" transform="translate(-567.78 -930.361)" fill="#1a1a1a"/>
    </g>
    <g id="Group_4608" data-name="Group 4608" transform="translate(374.341 904.157)">
      <path id="Path_8315" data-name="Path 8315" d="M540.864,923.625a.546.546,0,0,1-.438-.87,30.554,30.554,0,0,0,4.221-9.872.5.5,0,0,1,.262-.437.522.522,0,0,1,.531.006l.172.089c8.076,4.214,13.368,4.214,15.106,4.214a.547.547,0,0,1,0,1.094c-4.778,0-9.741-1.343-15.157-4.1A30.488,30.488,0,0,1,541.3,923.4.543.543,0,0,1,540.864,923.625Z" transform="translate(-540.318 -912.376)" fill="#1a1a1a"/>
    </g>
    <g id="Group_4609" data-name="Group 4609" transform="translate(413.604 1030.342)">
      <path id="Path_8316" data-name="Path 8316" d="M657.823,1199.536H617.249a.547.547,0,0,1-.545-.546v-40.575a.547.547,0,0,1,.545-.547h40.574a.547.547,0,0,1,.545.547v40.575A.547.547,0,0,1,657.823,1199.536Zm-40.029-1.093h39.484v-39.481H617.794Z" transform="translate(-616.704 -1157.868)" fill="#1a1a1a"/>
    </g>
    <g id="Group_4610" data-name="Group 4610" transform="translate(362.276 999.085)">
      <path id="Path_8317" data-name="Path 8317" d="M517.392,1104.545a.547.547,0,0,1-.308-1l9.35-6.394a.546.546,0,0,1,.615.9l-9.35,6.395A.557.557,0,0,1,517.392,1104.545Z" transform="translate(-516.845 -1097.058)" fill="#1a1a1a"/>
    </g>
    <g id="Group_4611" data-name="Group 4611" transform="translate(386.268 937.266)">
      <path id="Path_8318" data-name="Path 8318" d="M564.07,1029.689a.547.547,0,0,1-.308-1l74.049-50.633a7.311,7.311,0,0,1,10.13,1.9l8.476,12.4a7.3,7.3,0,0,1-1.9,10.133l-9.167,6.267a.553.553,0,0,1-.758-.142.547.547,0,0,1,.143-.761l9.167-6.267a6.2,6.2,0,0,0,1.617-8.612l-8.477-12.4a6.216,6.216,0,0,0-8.615-1.617l-74.049,50.633A.557.557,0,0,1,564.07,1029.689Z" transform="translate(-563.523 -976.789)" fill="#1a1a1a"/>
    </g>
    <g id="Group_4612" data-name="Group 4612" transform="translate(337.745 974.085)">
      <path id="Path_8319" data-name="Path 8319" d="M484.9,1120.38a7.289,7.289,0,0,1-6.031-3.171l-8.476-12.4a7.3,7.3,0,0,1,1.9-10.133l17.2-11.759a.547.547,0,0,1,.615.9l-17.2,11.759a6.2,6.2,0,0,0-1.617,8.611l8.477,12.4a6.209,6.209,0,0,0,8.618,1.62l102.031-69.7a.546.546,0,0,1,.615.9L489,1119.114A7.261,7.261,0,0,1,484.9,1120.38Z" transform="translate(-469.12 -1048.42)" fill="#1a1a1a"/>
    </g>
    <g id="Group_4613" data-name="Group 4613" transform="translate(348.374 1018.497)">
      <path id="Path_8320" data-name="Path 8320" d="M498.647,1152.5a8.837,8.837,0,1,1,4.98-1.542A8.841,8.841,0,0,1,498.647,1152.5Zm-.015-16.587a7.747,7.747,0,1,0,6.4,3.376A7.7,7.7,0,0,0,498.632,1135.915Z" transform="translate(-489.799 -1134.824)" fill="#1a1a1a"/>
    </g>
    <g id="Group_4614" data-name="Group 4614" transform="translate(389.053 954.924)">
      <path id="Path_8321" data-name="Path 8321" d="M569.486,1056.1a.547.547,0,0,1-.307-1l64.143-43.861a.547.547,0,0,1,.615.9L569.794,1056A.556.556,0,0,1,569.486,1056.1Z" transform="translate(-568.94 -1011.143)" fill="#1a1a1a"/>
    </g>
    <g id="Group_4615" data-name="Group 4615" transform="translate(386.268 1000.036)">
      <path id="Path_8322" data-name="Path 8322" d="M564.069,1100.654a.546.546,0,0,1-.309-1l.948-.651a.538.538,0,0,1,.759.14.544.544,0,0,1-.141.758l-.948.651A.546.546,0,0,1,564.069,1100.654Z" transform="translate(-563.523 -1098.908)" fill="#1a1a1a"/>
    </g>
    <g id="Group_4616" data-name="Group 4616" transform="translate(365.918 1002.158)">
      <path id="Path_8323" data-name="Path 8323" d="M524.477,1116.576a.547.547,0,0,1-.308-1l18.2-12.448a.547.547,0,0,1,.615.9l-18.2,12.448A.554.554,0,0,1,524.477,1116.576Z" transform="translate(-523.93 -1103.036)" fill="#1a1a1a"/>
    </g>
    <g id="Group_4617" data-name="Group 4617" transform="translate(371.914 963.695)">
      <path id="Path_8324" data-name="Path 8324" d="M536.143,1088.979a.547.547,0,0,1-.307-1l87.279-59.678a.546.546,0,0,1,.615.9l-87.279,59.679A.559.559,0,0,1,536.143,1088.979Z" transform="translate(-535.597 -1028.208)" fill="#1a1a1a"/>
    </g>
    <g id="Group_4618" data-name="Group 4618" transform="translate(371.135 1191.851)">
      <path id="Path_8325" data-name="Path 8325" d="M679.946,1473.179H534.626a.547.547,0,0,1,0-1.094h145.32a.547.547,0,0,1,0,1.094Z" transform="translate(-534.081 -1472.085)" fill="#1a1a1a"/>
    </g>
    <g id="Group_4619" data-name="Group 4619" transform="translate(541.544 1014.868)">
      <path id="Path_8326" data-name="Path 8326" d="M866.157,1136.234a.547.547,0,0,1-.545-.547v-7.375a.545.545,0,1,1,1.091,0v7.375A.547.547,0,0,1,866.157,1136.234Z" transform="translate(-865.612 -1127.765)" fill="#1a1a1a"/>
    </g>
    <g id="Group_4620" data-name="Group 4620" transform="translate(372.184 1170.161)">
      <path id="Path_8327" data-name="Path 8327" d="M679.852,1430.981H536.667a.547.547,0,0,1,0-1.093H679.852a.547.547,0,0,1,0,1.093Z" transform="translate(-536.122 -1429.888)" fill="#1a1a1a"/>
    </g>
    <g id="Group_4621" data-name="Group 4621" transform="translate(287.446 1131.338)">
      <path id="Path_8328" data-name="Path 8328" d="M376.45,1394.273h-4.642a.547.547,0,0,1-.545-.546V1354.9a.547.547,0,0,1,.545-.546h9.673a.547.547,0,0,1,0,1.093h-9.127v37.731h4.1a.547.547,0,0,1,0,1.093Z" transform="translate(-371.263 -1354.356)" fill="#1a1a1a"/>
    </g>
    <g id="Group_4622" data-name="Group 4622" transform="translate(376.225 1131.338)">
      <path id="Path_8329" data-name="Path 8329" d="M675.048,1355.449H544.529a.547.547,0,0,1,0-1.093H675.048a.547.547,0,0,1,0,1.093Z" transform="translate(-543.984 -1354.356)" fill="#1a1a1a"/>
    </g>
    <g id="Group_4623" data-name="Group 4623" transform="translate(379.212 1114.433)">
      <path id="Path_8330" data-name="Path 8330" d="M679.351,1322.56H550.339a.547.547,0,0,1,0-1.093H679.351a.547.547,0,0,1,0,1.093Z" transform="translate(-549.794 -1321.467)" fill="#1a1a1a"/>
    </g>
    <g id="Group_4624" data-name="Group 4624" transform="translate(287.882 1114.433)">
      <path id="Path_8331" data-name="Path 8331" d="M381.894,1322.56h-9.236a.547.547,0,0,1,0-1.093h9.236a.547.547,0,0,1,0,1.093Z" transform="translate(-372.113 -1321.467)" fill="#1a1a1a"/>
    </g>
    <g id="Group_4625" data-name="Group 4625" transform="translate(287.446 1012.072)">
      <path id="Path_8332" data-name="Path 8332" d="M371.808,1214.683a.547.547,0,0,1-.545-.547v-91.264a.545.545,0,1,1,1.091,0v91.264A.547.547,0,0,1,371.808,1214.683Z" transform="translate(-371.263 -1122.325)" fill="#1a1a1a"/>
    </g>
    <g id="Group_4626" data-name="Group 4626" transform="translate(403.133 1012.072)">
      <path id="Path_8333" data-name="Path 8333" d="M659.969,1123.419h-63.09a.547.547,0,0,1,0-1.094h63.09a.547.547,0,0,1,0,1.094Z" transform="translate(-596.333 -1122.325)" fill="#1a1a1a"/>
    </g>
    <g id="Group_4627" data-name="Group 4627" transform="translate(270.485 992.92)">
      <path id="Path_8334" data-name="Path 8334" d="M420.937,1105.311H338.812a.547.547,0,0,1-.545-.547v-19.152a.547.547,0,0,1,.545-.547H400.6a.547.547,0,0,1,0,1.094H339.358v18.058h81.579a.547.547,0,0,1,0,1.094Z" transform="translate(-338.267 -1085.065)" fill="#1a1a1a"/>
    </g>
    <g id="Group_4628" data-name="Group 4628" transform="translate(431.126 992.92)">
      <path id="Path_8335" data-name="Path 8335" d="M736.678,1086.159H651.338a.547.547,0,0,1,0-1.094h85.339a.547.547,0,0,1,0,1.094Z" transform="translate(-650.793 -1085.065)" fill="#1a1a1a"/>
    </g>
    <g id="Group_4629" data-name="Group 4629" transform="translate(518.985 993.214)">
      <path id="Path_8336" data-name="Path 8336" d="M825.451,1088.736a.545.545,0,0,1-.509-.354,2.463,2.463,0,0,0-2.6-1.644.546.546,0,0,1-.149-1.082,3.565,3.565,0,0,1,3.77,2.339.547.547,0,0,1-.315.7A.564.564,0,0,1,825.451,1088.736Z" transform="translate(-821.723 -1085.635)" fill="#1a1a1a"/>
    </g>
    <g id="Group_4638" data-name="Group 4638" transform="translate(461.782 1000.411)">
      <g id="Group_4637" data-name="Group 4637">
        <g id="Group_4630" data-name="Group 4630" transform="translate(41.956 25.56)">
          <path id="Path_8337" data-name="Path 8337" d="M793.782,1160.731a.551.551,0,0,1-.434-.214l-1.177-1.536a.549.549,0,0,1,.06-.731l9.325-8.74a.554.554,0,0,1,.7-.038l6.231,4.672a.545.545,0,1,1-.654.873l-5.866-4.4-8.63,8.089.878,1.144a.547.547,0,0,1-.434.879Z" transform="translate(-792.059 -1149.365)" fill="#1a1a1a"/>
        </g>
        <g id="Group_4631" data-name="Group 4631" transform="translate(43.132 35.839)">
          <path id="Path_8338" data-name="Path 8338" d="M799.49,1176.434a.546.546,0,0,1-.433-.214l-4.6-5.982a.546.546,0,1,1,.865-.666l4.6,5.982a.546.546,0,0,1-.1.766A.556.556,0,0,1,799.49,1176.434Z" transform="translate(-794.348 -1169.362)" fill="#1a1a1a"/>
        </g>
        <g id="Group_4632" data-name="Group 4632" transform="translate(32.665 11.931)">
          <path id="Path_8339" data-name="Path 8339" d="M786.491,1143.806a.549.549,0,0,1-.455-.244,13.958,13.958,0,0,0-3.117-3.376c-.294-.178-.589-.327-.878-.472l-.362-.184a7,7,0,0,1-3.458-3.745l-.472-1.007c-2.787-5.938-3.129-7.052-2.286-7.447.306-.151.787-.38,3.679,2.767.248.27.769.847,1.27,1.453-.2-1.62-.714-3.6-1.863-4.294-.642-.392-1.3-.8-1.911-1.186-2.275-1.465-2.677-1.991-2.652-2.5a.717.717,0,0,1,.41-.61c.135-.068.36-.178,1.787-.047.086.009,8.629.981,9.443,2.767.586,1.284,3.644,8.62,4.078,9.663l2.6,2.377a.536.536,0,0,1,.2.419.57.57,0,0,1-.917.4l-2.711-2.475a.58.58,0,0,1-.135-.193c-.036-.086-3.5-8.406-4.109-9.744-.4-.639-4.953-1.78-8.555-2.13-.225-.021-.411-.036-.565-.044a20.319,20.319,0,0,0,1.715,1.2c.6.383,1.252.784,1.888,1.171,2.566,1.566,2.506,6.9,2.5,7.129a.547.547,0,0,1-.463.529.513.513,0,0,1-.6-.365,16.054,16.054,0,0,0-2.218-2.781,25.955,25.955,0,0,0-2-1.991c.455,1.328,1.629,3.83,2.4,5.471l.473,1.01a5.965,5.965,0,0,0,2.97,3.236l.352.178c.314.16.63.321.948.511a14.794,14.794,0,0,1,3.465,3.706.547.547,0,0,1-.454.85Z" transform="translate(-773.984 -1122.849)" fill="#1a1a1a"/>
        </g>
        <g id="Group_4633" data-name="Group 4633" transform="translate(41.228 35.836)">
          <path id="Path_8340" data-name="Path 8340" d="M795.654,1177.323l-4.479-.122a.547.547,0,0,1-.53-.561.494.494,0,0,1,.56-.532l3.657.1-2.278-6.116a.546.546,0,1,1,1.034-.35l2.548,6.843a.546.546,0,0,1-.511.737Z" transform="translate(-790.644 -1169.356)" fill="#1a1a1a"/>
        </g>
        <g id="Group_4634" data-name="Group 4634" transform="translate(40.065 27.581)">
          <path id="Path_8341" data-name="Path 8341" d="M791.266,1160.683a.547.547,0,0,1-.511-.357l-2.34-6.294a.545.545,0,0,1,1.022-.38l2.34,6.294a.545.545,0,0,1-.321.7A.524.524,0,0,1,791.266,1160.683Z" transform="translate(-788.38 -1153.296)" fill="#1a1a1a"/>
        </g>
        <g id="Group_4635" data-name="Group 4635" transform="translate(35.066 14.147)">
          <path id="Path_8342" data-name="Path 8342" d="M781.01,1133.109a.546.546,0,0,1-.511-.357l-1.808-4.856a.545.545,0,0,1,1.022-.38l1.808,4.856a.545.545,0,0,1-.321.7A.526.526,0,0,1,781.01,1133.109Z" transform="translate(-778.656 -1127.16)" fill="#1a1a1a"/>
        </g>
        <g id="Group_4636" data-name="Group 4636">
          <path id="Path_8343" data-name="Path 8343" d="M718.994,1121.78a.545.545,0,0,1-.51-.354l-8.014-21.048a.546.546,0,0,1,.064-.508.474.474,0,0,1,.458-.231l30.046.648a.546.546,0,0,1,.5.357l4.22,11.34a.545.545,0,1,1-1.022.38l-4.09-10.992-28.866-.624,7.726,20.294a.546.546,0,0,1-.509.74Z" transform="translate(-710.434 -1099.637)" fill="#1a1a1a"/>
        </g>
      </g>
    </g>
    <g id="Group_4645" data-name="Group 4645" transform="translate(505.699 1204.543)">
      <g id="Group_4640" data-name="Group 4640" transform="translate(20.191 0.713)">
        <g id="Group_4639" data-name="Group 4639">
          <path id="Path_8344" data-name="Path 8344" d="M835.97,1505.62a.547.547,0,0,1-.545-.523l-.269-6.365a.546.546,0,0,1,1.091-.047l.268,6.365a.544.544,0,0,1-.523.568A.064.064,0,0,1,835.97,1505.62Z" transform="translate(-835.156 -1498.164)" fill="#1a1a1a"/>
        </g>
      </g>
      <g id="Group_4642" data-name="Group 4642" transform="translate(0)">
        <g id="Group_4641" data-name="Group 4641">
          <path id="Path_8345" data-name="Path 8345" d="M797.792,1514.241a2.111,2.111,0,0,1-1.9-1.4.876.876,0,0,1,.581-1.01l20.207-7.94a.539.539,0,0,1,.707.309.545.545,0,0,1-.309.707l-20.015,7.866a1.4,1.4,0,0,0,.734.374l29.736-.728.241-15.105a.545.545,0,1,1,1.09.018l-.248,15.631a.547.547,0,0,1-.534.538l-30.26.74Z" transform="translate(-795.875 -1496.777)" fill="#1a1a1a"/>
        </g>
      </g>
      <g id="Group_4644" data-name="Group 4644" transform="translate(6.356 7.857)">
        <g id="Group_4643" data-name="Group 4643">
          <path id="Path_8346" data-name="Path 8346" d="M810.176,1518.006a9.334,9.334,0,0,1-1.475-.1.545.545,0,0,1-.454-.624.538.538,0,0,1,.626-.451c5.3.837,24.979-4.7,25.178-4.755a.559.559,0,0,1,.673.377.546.546,0,0,1-.376.674C833.592,1513.343,817.043,1518.006,810.176,1518.006Z" transform="translate(-808.24 -1512.062)" fill="#1a1a1a"/>
        </g>
      </g>
    </g>
    <g id="Group_4646" data-name="Group 4646" transform="translate(512.134 1095.081)">
      <path id="Path_8347" data-name="Path 8347" d="M813.848,1395.373a.547.547,0,0,1-.545-.523L808.4,1284.386a.546.546,0,0,1,1.09-.047l4.882,109.916,22.986-1.12,4.374-68.968.753-18.531a.546.546,0,1,1,1.091.042l-.755,18.545-4.406,69.467a.541.541,0,0,1-.517.508l-24.02,1.171A.082.082,0,0,1,813.848,1395.373Z" transform="translate(-808.395 -1283.819)" fill="#1a1a1a"/>
    </g>
    <g id="Group_4647" data-name="Group 4647" transform="translate(546.711 1095.774)">
      <path id="Path_8348" data-name="Path 8348" d="M876.211,1294.761a.551.551,0,0,1-.545-.567l.346-8.5a.546.546,0,1,1,1.091.042l-.346,8.5A.547.547,0,0,1,876.211,1294.761Z" transform="translate(-875.665 -1285.166)" fill="#1a1a1a"/>
    </g>
    <g id="Group_4657" data-name="Group 4657" transform="translate(506.722 1095.154)">
      <g id="Group_4654" data-name="Group 4654" transform="translate(67.537 56.099)">
        <g id="Group_4649" data-name="Group 4649" transform="translate(0 10.697)">
          <g id="Group_4648" data-name="Group 4648">
            <path id="Path_8349" data-name="Path 8349" d="M938.9,1418.267a.574.574,0,0,1-.184-.033l-9.1-3.263a.546.546,0,0,1,.369-1.028l9.1,3.263a.546.546,0,0,1-.185,1.061Z" transform="translate(-929.26 -1413.912)" fill="#1a1a1a"/>
          </g>
        </g>
        <g id="Group_4651" data-name="Group 4651" transform="translate(2.503)">
          <g id="Group_4650" data-name="Group 4650">
            <path id="Path_8350" data-name="Path 8350" d="M946.413,1429.979a1.248,1.248,0,0,1-1.236-1.01l-4.443-21.25a.546.546,0,0,1,.422-.648.561.561,0,0,1,.645.421l4.443,21.253c.021.1.1.167.177.142a.159.159,0,0,0,.169-.151l3.908-26.6-8.019-3.908-8.053-4.1a.547.547,0,0,1,.5-.975l8.044,4.095,8.368,4.08a.544.544,0,0,1,.3.571l-3.966,26.994a1.25,1.25,0,0,1-1.216,1.081Z" transform="translate(-934.129 -1393.101)" fill="#1a1a1a"/>
          </g>
        </g>
        <g id="Group_4653" data-name="Group 4653" transform="translate(11.782 4.499)">
          <g id="Group_4652" data-name="Group 4652">
            <path id="Path_8351" data-name="Path 8351" d="M953.143,1427.241a.611.611,0,0,1-.175-.03.547.547,0,0,1-.342-.692c1.728-5.073-.417-23.865-.44-24.055a.546.546,0,0,1,1.085-.125c.091.782,2.194,19.229.389,24.53A.545.545,0,0,1,953.143,1427.241Z" transform="translate(-952.182 -1401.854)" fill="#1a1a1a"/>
          </g>
        </g>
      </g>
      <g id="Group_4655" data-name="Group 4655">
        <path id="Path_8352" data-name="Path 8352" d="M806.223,1338.964a.541.541,0,0,1-.282-.08c-4.061-2.451-5.6-3.878-6.6-6.1-4.59-10.246,2.971-46.835,3.3-48.39a.56.56,0,0,1,.645-.422.546.546,0,0,1,.422.648c-.077.375-7.814,37.793-3.368,47.718.8,1.792,1.885,3.028,6.169,5.616a.546.546,0,0,1-.283,1.013Z" transform="translate(-797.867 -1283.961)" fill="#1a1a1a"/>
      </g>
      <g id="Group_4656" data-name="Group 4656" transform="translate(36.949 38.639)">
        <path id="Path_8353" data-name="Path 8353" d="M898.146,1400.084a.531.531,0,0,1-.18-.033c-.14-.048-14.157-4.933-27.874-10.484a.545.545,0,0,1,.411-1.01c12.121,4.906,24.481,9.289,27.251,10.264l5.236-22.37-31.105-16.287a.546.546,0,0,1,.5-.968l31.48,16.483a.547.547,0,0,1,.28.609l-5.471,23.375a.551.551,0,0,1-.532.422Z" transform="translate(-869.752 -1359.134)" fill="#1a1a1a"/>
      </g>
    </g>
    <g id="Group_4658" data-name="Group 4658" transform="translate(478.811 1021.072)">
      <path id="Path_8354" data-name="Path 8354" d="M815.114,1215.656c-.363-.018-33.767-1.537-40.475-.526a.576.576,0,0,1-.475-.164.545.545,0,0,1-.141-.482l4.779-24.367a13.424,13.424,0,0,1-4.786.033c-7.514-1.652-29.357-22.724-30.282-23.621a.542.542,0,0,1-.057-.72l9.035-11.993a.547.547,0,0,1,.7-.151l19.131,10.5c14.965-25.387,33.007-24.332,33.185-24.326a.543.543,0,0,1,.339.152c.372.363,9.107,8.971,9.01,20.284-.194,23.324.577,54.505.584,54.817a.548.548,0,0,1-.545.562Zm-31.291-1.967c11.087,0,27.35.7,30.731.85-.1-4.407-.75-32.7-.569-54.273.084-10.074-7.4-18.168-8.536-19.342-1.979-.039-18.412.452-32.232,24.251a.548.548,0,0,1-.735.205L753.3,1154.848l-8.461,11.229c2.877,2.752,22.693,21.529,29.412,23.009a12.964,12.964,0,0,0,4.864-.14.536.536,0,0,1,.5-.16c.575-.306,7.2-4.2,19.353-22.726a.546.546,0,1,1,.912.6c-12.944,19.729-19.605,23.033-19.883,23.164-.032.012-4.762,24.132-4.762,24.132C777.125,1213.763,780.2,1213.688,783.823,1213.688Z" transform="translate(-743.566 -1139.834)" fill="#1a1a1a"/>
    </g>
    <g id="Group_4675" data-name="Group 4675" transform="translate(287.336 1044.501)">
      <g id="Group_4659" data-name="Group 4659" transform="translate(29.286 14.562)">
        <path id="Path_8355" data-name="Path 8355" d="M428.57,1236.153a.561.561,0,0,1-.539-.624l3.069-21.315a.545.545,0,1,1,1.079.154l-3.07,21.315A.545.545,0,0,1,428.57,1236.153Z" transform="translate(-428.025 -1213.746)" fill="#1a1a1a"/>
      </g>
      <g id="Group_4660" data-name="Group 4660" transform="translate(25.441 41.267)">
        <path id="Path_8356" data-name="Path 8356" d="M421.091,1288.109a.562.562,0,0,1-.539-.624l3.072-21.315a.539.539,0,0,1,.616-.464.547.547,0,0,1,.462.618l-3.071,21.315A.545.545,0,0,1,421.091,1288.109Z" transform="translate(-420.546 -1265.7)" fill="#1a1a1a"/>
      </g>
      <g id="Group_4661" data-name="Group 4661" transform="translate(21.595 67.97)">
        <path id="Path_8357" data-name="Path 8357" d="M413.607,1340.06a.562.562,0,0,1-.54-.624l3.068-21.315a.545.545,0,1,1,1.079.155l-3.068,21.315A.545.545,0,0,1,413.607,1340.06Z" transform="translate(-413.062 -1317.652)" fill="#1a1a1a"/>
      </g>
      <g id="Group_4662" data-name="Group 4662" transform="translate(17.751 94.674)">
        <path id="Path_8358" data-name="Path 8358" d="M406.129,1392.014a.562.562,0,0,1-.54-.624l3.07-21.318a.545.545,0,1,1,1.079.155l-3.07,21.318A.545.545,0,0,1,406.129,1392.014Z" transform="translate(-405.584 -1369.604)" fill="#1a1a1a"/>
      </g>
      <g id="Group_4663" data-name="Group 4663" transform="translate(13.903 121.379)">
        <path id="Path_8359" data-name="Path 8359" d="M398.643,1443.966a.561.561,0,0,1-.539-.623l3.074-21.315a.545.545,0,1,1,1.079.154l-3.074,21.315A.544.544,0,0,1,398.643,1443.966Z" transform="translate(-398.098 -1421.559)" fill="#1a1a1a"/>
      </g>
      <g id="Group_4664" data-name="Group 4664" transform="translate(0 0)">
        <path id="Path_8360" data-name="Path 8360" d="M376.764,1370.47h-1.911a3.81,3.81,0,0,1-3.8-3.807L396.6,1189.149a3.789,3.789,0,0,1,3.8-3.733h1.9a3.814,3.814,0,0,1,3.81,3.81l-.859,5.988a.558.558,0,0,1-.617.464.548.548,0,0,1-.462-.618l.853-5.911a2.714,2.714,0,0,0-2.725-2.639h-1.9a2.72,2.72,0,0,0-2.719,2.716L372.134,1366.74a2.709,2.709,0,0,0,2.72,2.636h1.911a2.718,2.718,0,0,0,2.719-2.713l4.7-32.7a.545.545,0,1,1,1.078.155l-4.695,32.619A3.789,3.789,0,0,1,376.764,1370.47Z" transform="translate(-371.05 -1185.416)" fill="#1a1a1a"/>
      </g>
      <g id="Group_4665" data-name="Group 4665" transform="translate(0 0)">
        <path id="Path_8361" data-name="Path 8361" d="M376.871,1370.47h-2.017a3.81,3.81,0,0,1-3.8-3.807L396.6,1189.149a3.789,3.789,0,0,1,3.8-3.733l2.55.178a.545.545,0,0,1,.5.582.521.521,0,0,1-.582.505l-2.511-.175a2.717,2.717,0,0,0-2.68,2.719L372.134,1366.74a2.709,2.709,0,0,0,2.72,2.636h2.017a.547.547,0,0,1,0,1.094Z" transform="translate(-371.05 -1185.416)" fill="#1a1a1a"/>
      </g>
      <g id="Group_4666" data-name="Group 4666" transform="translate(64.247 0.175)">
        <path id="Path_8362" data-name="Path 8362" d="M499.847,1370.635a3.81,3.81,0,0,1-3.8-3.807L521.6,1189.314a3.58,3.58,0,0,1,3.728-3.557.547.547,0,0,1,0,1.094,2.507,2.507,0,0,0-2.643,2.541l-25.554,177.514a2.709,2.709,0,0,0,2.719,2.636.547.547,0,0,1,0,1.094Z" transform="translate(-496.043 -1185.757)" fill="#1a1a1a"/>
      </g>
      <g id="Group_4667" data-name="Group 4667" transform="translate(17.409 89.284)">
        <path id="Path_8363" data-name="Path 8363" d="M461.6,1365.6H408.156a3.241,3.241,0,0,1,0-6.481h54.22a.547.547,0,0,1,0,1.094h-54.22a2.145,2.145,0,0,0-1.514,3.667,2.122,2.122,0,0,0,1.514.627H461.6a.547.547,0,0,1,0,1.093Z" transform="translate(-404.919 -1359.119)" fill="#1a1a1a"/>
      </g>
      <g id="Group_4668" data-name="Group 4668" transform="translate(61.2 0)">
        <path id="Path_8364" data-name="Path 8364" d="M495.83,1370.47h-1.911a3.812,3.812,0,0,1-3.805-3.807l25.556-177.514a3.789,3.789,0,0,1,3.8-3.733h1.9a3.814,3.814,0,0,1,3.81,3.81L499.632,1366.74A3.788,3.788,0,0,1,495.83,1370.47Zm23.643-183.96a2.72,2.72,0,0,0-2.719,2.716L491.2,1366.74a2.711,2.711,0,0,0,2.721,2.636h1.911a2.718,2.718,0,0,0,2.718-2.713L524.1,1189.149a2.714,2.714,0,0,0-2.725-2.639Z" transform="translate(-490.114 -1185.416)" fill="#1a1a1a"/>
      </g>
      <g id="Group_4669" data-name="Group 4669" transform="translate(3.046 0.175)">
        <path id="Path_8365" data-name="Path 8365" d="M380.757,1370.439a3.618,3.618,0,0,1-3.781-3.61l25.555-177.514a3.58,3.58,0,0,1,3.728-3.557.547.547,0,0,1,0,1.094,2.507,2.507,0,0,0-2.644,2.541l-25.555,177.514a2.517,2.517,0,0,0,2.7,2.439.547.547,0,0,1,0,1.094Z" transform="translate(-376.976 -1185.757)" fill="#1a1a1a"/>
      </g>
      <g id="Group_4670" data-name="Group 4670" transform="translate(21.247 62.582)">
        <path id="Path_8366" data-name="Path 8366" d="M469.074,1313.65H415.625a3.241,3.241,0,0,1,0-6.481h54.227a.547.547,0,0,1,0,1.094H415.625a2.147,2.147,0,1,0,0,4.294h53.449a.547.547,0,0,1,0,1.094Z" transform="translate(-412.386 -1307.169)" fill="#1a1a1a"/>
      </g>
      <g id="Group_4671" data-name="Group 4671" transform="translate(25.163 35.876)">
        <path id="Path_8367" data-name="Path 8367" d="M476.624,1261.7h-53.38a3.242,3.242,0,0,1,0-6.484H477.4a.547.547,0,0,1,0,1.093H423.244a2.149,2.149,0,1,0,0,4.3h53.38a.547.547,0,0,1,0,1.094Z" transform="translate(-420.005 -1255.213)" fill="#1a1a1a"/>
      </g>
      <g id="Group_4672" data-name="Group 4672" transform="translate(28.998 9.173)">
        <path id="Path_8368" data-name="Path 8368" d="M484.094,1209.744H430.7a3.24,3.24,0,0,1,0-6.481h54.163a.547.547,0,0,1,0,1.093H430.7a2.147,2.147,0,1,0,0,4.294h53.389a.547.547,0,0,1,0,1.093Z" transform="translate(-427.466 -1203.263)" fill="#1a1a1a"/>
      </g>
      <g id="Group_4673" data-name="Group 4673" transform="translate(9.782 142.693)">
        <path id="Path_8369" data-name="Path 8369" d="M446.7,1469.507H393.32a3.24,3.24,0,0,1,0-6.481h54.153a.547.547,0,0,1,0,1.093H393.32a2.147,2.147,0,1,0,0,4.295H446.7a.547.547,0,0,1,0,1.093Z" transform="translate(-390.081 -1463.026)" fill="#1a1a1a"/>
      </g>
      <g id="Group_4674" data-name="Group 4674" transform="translate(13.602 115.991)">
        <path id="Path_8370" data-name="Path 8370" d="M454.159,1417.557H400.751a3.241,3.241,0,0,1,0-6.481h54.182a.547.547,0,0,1,0,1.093H400.751a2.147,2.147,0,1,0,0,4.294h53.408a.547.547,0,0,1,0,1.094Z" transform="translate(-397.513 -1411.076)" fill="#1a1a1a"/>
      </g>
    </g>
    <g id="Group_4676" data-name="Group 4676" transform="translate(380.837 911.709)">
      <path id="Path_8371" data-name="Path 8371" d="M553.5,929.282a.538.538,0,0,1-.426-.208.544.544,0,0,1,.087-.766,6.738,6.738,0,0,1,5.282-1.1.546.546,0,0,1,.423.645.555.555,0,0,1-.645.425,5.664,5.664,0,0,0-4.382.883A.537.537,0,0,1,553.5,929.282Z" transform="translate(-552.956 -927.068)" fill="#1a1a1a"/>
    </g>
    <g id="Group_4677" data-name="Group 4677" transform="translate(391.049 911.646)">
      <path id="Path_8372" data-name="Path 8372" d="M576.651,928.757a.55.55,0,0,1-.431-.211c-.042-.05-.762-.876-2.7-.318a.553.553,0,0,1-.673-.378.546.546,0,0,1,.376-.674c2.712-.772,3.822.645,3.868.707a.547.547,0,0,1-.11.764A.537.537,0,0,1,576.651,928.757Z" transform="translate(-572.823 -926.946)" fill="#1a1a1a"/>
    </g>
    <g id="Group_4679" data-name="Group 4679" transform="translate(362.093 986.613)">
      <g id="Group_4678" data-name="Group 4678">
        <path id="Path_8373" data-name="Path 8373" d="M517.036,1095.79a.555.555,0,0,1-.545-.58l1.108-18.365a.549.549,0,0,1,.325-.467c.4-.175,9.783-4.258,13.246-3.489,2.032.47,3.655.7,5.086.895.862.121,1.622.229,2.306.365a6.732,6.732,0,0,1,3.971,3.022,1.769,1.769,0,0,1-.1,1.706c-.251.392-.951.591-1.9.086a5.517,5.517,0,0,0-1.83-.535,26.325,26.325,0,0,1,5,5.486c.685,1.073.86,1.717.587,2.166a1.9,1.9,0,0,1-1.375.918,3.26,3.26,0,0,1-1.446-.175c.6.835.939,1.59.74,2.1a1.359,1.359,0,0,1-1.077.812c-1.045.205-2.93-.407-4.609-2.178a22.894,22.894,0,0,0-4.544-1.447c-.122,0-.339.009-.627.024-2.045.092-7.367.347-9.7-1.2l-3.5.809-.575,9.539A.547.547,0,0,1,517.036,1095.79Zm14.944-10.778a26.079,26.079,0,0,1,5.056,1.569.518.518,0,0,1,.2.139c1.505,1.631,3.074,2.045,3.694,1.938.067-.012.226-.05.26-.137.009-.431-1.475-2.249-3.185-3.854a.546.546,0,0,1,.737-.8c.982.88,2.939,2.229,4.013,2.059a.8.8,0,0,0,.6-.41c-.029-.487-2.114-3.367-4.506-5.53-1.45-1.31-2.264-1.6-2.433-1.59a.525.525,0,0,1-.6-.478.546.546,0,0,1,.479-.6,9.277,9.277,0,0,1,4.75.693,1.329,1.329,0,0,0,.532.175.735.735,0,0,0-.045-.579,5.778,5.778,0,0,0-3.182-2.377c-.665-.134-1.4-.238-2.242-.354-1.381-.193-3.1-.434-5.18-.912-2.474-.561-9.408,2.068-12.256,3.29l-.444,7.358,3.423-.794a.574.574,0,0,1,.461.1c1.878,1.471,7.383,1.209,9.19,1.126A5.551,5.551,0,0,0,531.98,1085.012Z" transform="translate(-516.49 -1072.794)" fill="#1a1a1a"/>
      </g>
    </g>
    <g id="Group_4681" data-name="Group 4681" transform="translate(455.031 961.478)">
      <g id="Group_4680" data-name="Group 4680">
        <path id="Path_8374" data-name="Path 8374" d="M697.847,1046.876a.547.547,0,0,1-.294-1.007,44.724,44.724,0,0,0,4.29-2.909.534.534,0,0,1,.168-.173c8.494-5.608,8.114-13,6.726-16.121-.567-1.278-1.208-1.721-1.409-1.673a40.824,40.824,0,0,1,.495,7.111.543.543,0,0,1-.479.535.551.551,0,0,1-.594-.4,40.072,40.072,0,0,0-1.88-5.768c-1.948,1.786-2.616,8.169-2.708,10.6a.546.546,0,1,1-1.091-.042c.039-1,.462-9.821,3.538-11.723a.8.8,0,0,1,.587-.05c.166.068.578.232,1.413,2.656a18.921,18.921,0,0,0-.346-2.722,1.041,1.041,0,0,1,.794-1.251c.915-.25,1.944.639,2.677,2.288,1.514,3.408,1.979,11.423-7.05,17.425a33.247,33.247,0,0,1-4.544,3.141A.56.56,0,0,1,697.847,1046.876Z" transform="translate(-697.302 -1023.894)" fill="#1a1a1a"/>
      </g>
    </g>
    <g id="Group_4682" data-name="Group 4682" transform="translate(361.409 895.465)">
      <path id="Path_8375" data-name="Path 8375" d="M515.7,942.029a.546.546,0,0,1-.465-.832c3-4.909,3.661-13.221,2.364-29.65a14.075,14.075,0,0,1,4.56-12.336,12.161,12.161,0,0,1,11.489-3.132,16.217,16.217,0,0,1,6.777-.428c4.5.55,10.537,2.475,10.665,12.752a34.57,34.57,0,0,1-1.7,8.986.535.535,0,0,1-.686.35.547.547,0,0,1-.351-.689A33.889,33.889,0,0,0,550,908.414c-.116-9.313-5.264-11.138-9.737-11.684a15.219,15.219,0,0,0-6.482.443.527.527,0,0,1-.3-.009A11.091,11.091,0,0,0,522.92,900c-3.389,3.262-4.615,6.585-4.23,11.467,1.318,16.68.611,25.179-2.522,30.3A.548.548,0,0,1,515.7,942.029Z" transform="translate(-515.158 -895.465)" fill="#1a1a1a"/>
    </g>
    <g id="Group_4683" data-name="Group 4683" transform="translate(386.938 930.367)">
      <path id="Path_8376" data-name="Path 8376" d="M567.355,974.616a9.908,9.908,0,0,1-2.111-.244.547.547,0,0,1,.252-1.064c.842.205,3.389.523,4.035-.556s.223-5.955-.2-8.763a.549.549,0,0,1,.458-.621.557.557,0,0,1,.621.461c.117.781,1.122,7.7.057,9.482A3.452,3.452,0,0,1,567.355,974.616Z" transform="translate(-564.825 -963.368)" fill="#1a1a1a"/>
    </g>
    <g id="Group_4684" data-name="Group 4684" transform="translate(448.079 978.955)">
      <path id="Path_8377" data-name="Path 8377" d="M684.322,1072.954a.547.547,0,0,1-.1-1.085c1.379-.244,5.872-3.524,8.82-5.872l-5.664-7.221a.545.545,0,0,1,.859-.671l6,7.646a.544.544,0,0,1-.088.761c-.765.618-7.551,6.047-9.734,6.433A.51.51,0,0,1,684.322,1072.954Z" transform="translate(-683.776 -1057.894)" fill="#1a1a1a"/>
    </g>
    <g id="Group_4685" data-name="Group 4685" transform="translate(496.042 1012.072)">
      <path id="Path_8378" data-name="Path 8378" d="M798.665,1123.419H777.632a.547.547,0,0,1,0-1.094h21.033a.547.547,0,0,1,0,1.094Z" transform="translate(-777.087 -1122.325)" fill="#1a1a1a"/>
    </g>
    <g id="Group_4686" data-name="Group 4686" transform="translate(270.485 1151.884)">
      <path id="Path_8379" data-name="Path 8379" d="M358.116,1435.389h-19.3a.547.547,0,0,1-.545-.547v-39.968a.545.545,0,1,1,1.091,0V1434.3h18.758a.547.547,0,0,1,0,1.094Z" transform="translate(-338.267 -1394.328)" fill="#1a1a1a"/>
    </g>
    <g id="Group_4687" data-name="Group 4687" transform="translate(270.485 1045.122)">
      <path id="Path_8380" data-name="Path 8380" d="M338.812,1257.482a.547.547,0,0,1-.545-.546v-69.765a.545.545,0,1,1,1.091,0v69.765A.547.547,0,0,1,338.812,1257.482Z" transform="translate(-338.267 -1186.624)" fill="#1a1a1a"/>
    </g>
    <g id="Group_4688" data-name="Group 4688" transform="translate(270.485 1012.072)">
      <path id="Path_8381" data-name="Path 8381" d="M338.812,1139.026a.547.547,0,0,1-.545-.547v-15.607a.545.545,0,1,1,1.091,0v15.607A.547.547,0,0,1,338.812,1139.026Z" transform="translate(-338.267 -1122.325)" fill="#1a1a1a"/>
    </g>
    <g id="Group_4689" data-name="Group 4689" transform="translate(515.034 993.423)">
      <path id="Path_8382" data-name="Path 8382" d="M815.325,1093.825a1.629,1.629,0,0,1-.165-.012,1.3,1.3,0,0,1-1.113-1.45l.685-5.194a1.292,1.292,0,0,1,2.561.339l-.685,5.194A1.3,1.3,0,0,1,815.325,1093.825Zm.686-7.233a.748.748,0,0,0-.738.648l-.685,5.195a.746.746,0,0,0,.642.838.765.765,0,0,0,.838-.642l.685-5.194a.749.749,0,0,0-.642-.838C816.077,1086.595,816.044,1086.592,816.011,1086.592Z" transform="translate(-814.036 -1086.043)" fill="#1a1a1a"/>
    </g>
    <g id="Group_4690" data-name="Group 4690" transform="translate(517.551 997.057)">
      <path id="Path_8383" data-name="Path 8383" d="M828.384,1094.59l-9.2-.927a.273.273,0,0,1-.245-.3.253.253,0,0,1,.3-.244l9.176.924a.273.273,0,0,1-.027.544Z" transform="translate(-818.934 -1093.113)" fill="#1a1a1a"/>
    </g>
    <g id="Group_4691" data-name="Group 4691" transform="translate(249.622 1084.562)">
      <path id="Path_8384" data-name="Path 8384" d="M319.086,1264.446H298.222a.547.547,0,0,1,0-1.093h20.864a.547.547,0,0,1,0,1.093Z" transform="translate(-297.677 -1263.353)" fill="#1a1a1a"/>
    </g>
    <g id="Group_4692" data-name="Group 4692" transform="translate(212.181 1084.562)">
      <path id="Path_8385" data-name="Path 8385" d="M242.761,1264.446h-17.38a.547.547,0,0,1,0-1.093h17.38a.547.547,0,0,1,0,1.093Z" transform="translate(-224.836 -1263.353)" fill="#1a1a1a"/>
    </g>
    <g id="Group_4693" data-name="Group 4693" transform="translate(549.576 1084.562)">
      <path id="Path_8386" data-name="Path 8386" d="M906.468,1264.446H881.784a.547.547,0,0,1,0-1.093h24.684a.547.547,0,0,1,0,1.093Z" transform="translate(-881.239 -1263.353)" fill="#1a1a1a"/>
    </g>
    <g id="Group_4694" data-name="Group 4694" transform="translate(229.189 1042.873)">
      <path id="Path_8387" data-name="Path 8387" d="M284.493,1254.862a.6.6,0,0,1-.16-.024c-.174-.053-17.455-5.521-23.935-22.117-5.282-13.533-2.1-30.42,9.463-50.2a.528.528,0,0,1,.562-.262.544.544,0,0,1,.444.431L285,1254.048a.539.539,0,0,1,.07.267.548.548,0,0,1-.547.546Zm-14.414-70.533c-10.793,18.932-13.709,35.074-8.665,47.994,5.454,13.972,18.8,19.821,22.358,21.161Z" transform="translate(-257.924 -1182.248)" fill="#1a1a1a"/>
    </g>
    <g id="Group_4695" data-name="Group 4695" transform="translate(202.406 1102.649)">
      <path id="Path_8388" data-name="Path 8388" d="M234.71,1344.255c-4.4,0-8.808-2.939-13.163-8.8a.545.545,0,0,1,.876-.648c6.273,8.449,12.582,10.472,18.754,6.006,4.471-3.233,6.151-7.236,4.994-11.9-3.172-12.784-26.147-26.875-39.06-29.145.585,2.113,2.324,8.116,4.966,14.953a.546.546,0,0,1-1.019.392,164.345,164.345,0,0,1-5.221-15.88.543.543,0,0,1,.12-.5.527.527,0,0,1,.483-.178c13.008,1.83,37.455,16.653,40.791,30.1,1.275,5.138-.547,9.527-5.415,13.048A12.075,12.075,0,0,1,234.71,1344.255Z" transform="translate(-205.819 -1298.542)" fill="#1a1a1a"/>
    </g>
    <g id="Group_4696" data-name="Group 4696" transform="translate(253.417 1102.65)">
      <path id="Path_8389" data-name="Path 8389" d="M318,1350a12.739,12.739,0,0,1-5.624-1.426c-5.224-2.579-7.673-6.529-7.279-11.744,1.064-14.056,23.678-34.12,36.711-38.256a.538.538,0,0,1,.511.1.551.551,0,0,1,.2.485C342.283,1301.227,336.517,1350,318,1350Zm23.324-50.11c-12.873,4.594-34.126,23.63-35.138,37.02-.358,4.728,1.887,8.324,6.671,10.683A11.634,11.634,0,0,0,318,1348.9C334.269,1348.9,340.463,1306.49,341.328,1299.887Z" transform="translate(-305.06 -1298.543)" fill="#1a1a1a"/>
    </g>
    <g id="Group_4697" data-name="Group 4697" transform="translate(216.295 1113.682)">
      <path id="Path_8390" data-name="Path 8390" d="M266.993,1383.146a.547.547,0,0,1-.526-.4c-11.409-40.726-33.236-61.592-33.455-61.8a.546.546,0,1,1,.746-.8c.222.208,22.264,21.261,33.76,62.3a.549.549,0,0,1-.379.674A.6.6,0,0,1,266.993,1383.146Z" transform="translate(-232.84 -1320.008)" fill="#1a1a1a"/>
    </g>
    <g id="Group_4698" data-name="Group 4698" transform="translate(255.212 1148.704)">
      <path id="Path_8391" data-name="Path 8391" d="M309.1,1416.259a.552.552,0,0,1-.545-.568l1.013-27.024a.546.546,0,1,1,1.091.042l-1.013,27.023A.546.546,0,0,1,309.1,1416.259Z" transform="translate(-308.553 -1388.142)" fill="#1a1a1a"/>
    </g>
    <g id="Group_4699" data-name="Group 4699" transform="translate(255.213 1114.394)">
      <path id="Path_8392" data-name="Path 8392" d="M309.625,1340.3a.546.546,0,0,1-.545-.532l-.526-17.817a.546.546,0,1,1,1.091-.03l.526,17.818a.546.546,0,0,1-.529.562Z" transform="translate(-308.554 -1321.391)" fill="#1a1a1a"/>
    </g>
    <g id="Group_4700" data-name="Group 4700" transform="translate(260.988 1111.584)">
      <path id="Path_8393" data-name="Path 8393" d="M321.509,1381.287a.551.551,0,0,1-.539-.461c-6.952-43.118,19.091-64.57,19.354-64.781a.545.545,0,1,1,.684.85c-.258.208-25.808,21.291-18.959,63.758a.545.545,0,0,1-.453.624A.46.46,0,0,1,321.509,1381.287Z" transform="translate(-319.791 -1315.926)" fill="#1a1a1a"/>
    </g>
    <g id="Group_4701" data-name="Group 4701" transform="translate(236.966 1168.268)">
      <path id="Path_8394" data-name="Path 8394" d="M293.541,1435c-8.234,0-20.486-1.171-20.486-4.4s12.251-4.4,20.486-4.4a76,76,0,0,1,13.68,1.043.544.544,0,0,1,.436.636.524.524,0,0,1-.638.434,75.091,75.091,0,0,0-13.478-1.019c-12.733,0-19.4,2.151-19.4,3.3s6.663,3.3,19.4,3.3a77.326,77.326,0,0,0,13.6-1.04.525.525,0,0,1,.636.434.543.543,0,0,1-.437.636A78.007,78.007,0,0,1,293.541,1435Z" transform="translate(-273.055 -1426.205)" fill="#1a1a1a"/>
    </g>
    <g id="Group_4702" data-name="Group 4702" transform="translate(241.943 1216.04)">
      <path id="Path_8395" data-name="Path 8395" d="M298.247,1523.13c-5.364,0-15.509-.719-15.509-3.438a.545.545,0,1,1,1.091,0c0,.8,5.089,2.345,14.418,2.345s14.417-1.548,14.417-2.345a.545.545,0,1,1,1.091,0C313.754,1522.411,303.611,1523.13,298.247,1523.13Z" transform="translate(-282.738 -1519.145)" fill="#1a1a1a"/>
    </g>
    <g id="Group_4703" data-name="Group 4703" transform="translate(239.698 1195.016)">
      <path id="Path_8396" data-name="Path 8396" d="M296.123,1482.271c-8.558,0-17.366-1.138-17.751-3.679a.3.3,0,0,1,.253-.344.308.308,0,0,1,.344.255c.233,1.533,6.324,3.162,17.153,3.162,10.325,0,16.9-1.634,17.072-3.15a.28.28,0,0,1,.335-.267.3.3,0,0,1,.266.333C313.509,1481.115,304.433,1482.271,296.123,1482.271Z" transform="translate(-278.369 -1478.241)" fill="#1a1a1a"/>
    </g>
    <g id="Group_4704" data-name="Group 4704" transform="translate(236.965 1172.116)">
      <path id="Path_8397" data-name="Path 8397" d="M278.577,1478.708a.547.547,0,0,1-.542-.484l-4.978-43.92a.545.545,0,0,1,.482-.6.522.522,0,0,1,.6.479l4.977,43.92a.544.544,0,0,1-.482.6A.427.427,0,0,1,278.577,1478.708Z" transform="translate(-273.053 -1433.69)" fill="#1a1a1a"/>
    </g>
    <g id="Group_4705" data-name="Group 4705" transform="translate(272.112 1192.095)">
      <path id="Path_8398" data-name="Path 8398" d="M341.733,1497.354a.309.309,0,0,1-.3-.336l2.743-24.189a.3.3,0,0,1,.3-.27.309.309,0,0,1,.3.336l-2.743,24.189A.3.3,0,0,1,341.733,1497.354Z" transform="translate(-341.431 -1472.559)" fill="#1a1a1a"/>
    </g>
  </g>
</svg>
