<svg xmlns="http://www.w3.org/2000/svg" width="332.79" height="312.064" viewBox="0 0 332.79 312.064">
  <g id="Group_4502" data-name="Group 4502" transform="translate(-1182.705 -947.764)">
    <path id="Path_8188" data-name="Path 8188" d="M1652.3,970.847l-57.727-20.457a34.471,34.471,0,0,0-22.974,0l-57.728,20.457a32.371,32.371,0,0,0-21.849,30.23v95.414c0,21.642,10.221,42.4,30.384,61.68,15.2,14.531,32.777,25.086,44.848,31.379a34.4,34.4,0,0,0,13.467,3.778c.054,0,1.83.062,2.971.062.639,0,1.248-.019,1.727-.062a34.408,34.408,0,0,0,13.5-3.778c12.073-6.293,29.656-16.848,44.849-31.379,20.163-19.284,30.383-40.035,30.383-61.68v-95.414A32.371,32.371,0,0,0,1652.3,970.847Z" transform="translate(-158.651 -0.301)" fill="#3232f5"/>
    <path id="Path_8189" data-name="Path 8189" d="M1655.971,1009.911l-48.4-17.151a28.918,28.918,0,0,0-19.266,0l-48.4,17.151a27.149,27.149,0,0,0-18.321,25.352v80c0,18.149,8.572,35.547,25.48,51.717,12.738,12.185,27.478,21.032,37.6,26.312a28.886,28.886,0,0,0,11.294,3.168c.044,0,1.532.053,2.492.053.532,0,1.044-.015,1.445-.053a28.866,28.866,0,0,0,11.319-3.168c10.124-5.28,24.863-14.127,37.6-26.312,16.907-16.169,25.479-33.568,25.479-51.717v-80A27.149,27.149,0,0,0,1655.971,1009.911Z" transform="translate(-172.22 -19.896)" fill="#fff"/>
    <path id="Path_8191" data-name="Path 8191" d="M1426.246,1238.647c-6.843-9.967-22.75-26.315-36.271-32.095l-4.521-8.475s-7.078,15.23-9.174,20.457c-3.193,7.953-11.986,32.267-11.986,32.267l-13.181-3.021,5.3-47.741-6.3,6.03s-20.293,7.375-27.186,13.658-25.55,25.633-30.67,33.946-7.389,13.373-4.5,21.967,9.729,14.6,25.051,12.8c10.365-1.217,12.734-1.7,13.184-1.892l.653,8.091-9.915,78.794s2.074.238,42.081.719,56.281-.106,56.281-.106-13-69.568-12.438-74.144a55.221,55.221,0,0,1,1.833-8.648s20.62,3.409,28.273-10.987S1433.091,1248.617,1426.246,1238.647Zm-73.9,65.311-1.232-23.691,5.3,1.739Z" transform="translate(-64.304 -114.901)" fill="#1a1a1a"/>
    <path id="Path_8193" data-name="Path 8193" d="M1432.023,1124.175s-1.93,7.325,1.453,13.783a7.863,7.863,0,0,1,6.082-1.936c3.412.569,5.97,4.169,4.835,8.409s-3.678,5.661-5.227,5.657l-.885,12.576-4.571,9.041s-8.661,5.574-17.333,3.272-7.952-4.563-7.952-4.563l.636-3.615-.02-2.233s-8.006-1.755-7.445-13.755a149.858,149.858,0,0,1,3.108-23.181l1.99-6.7a23.247,23.247,0,0,0,9.943,2.837C1423.05,1124.319,1432.023,1124.175,1432.023,1124.175Z" transform="translate(-117.132 -79.489)" fill="#fff"/>
    <path id="Path_8194" data-name="Path 8194" d="M1315.206,1296.424l16.781-.175,3.24-10.124S1320.284,1288.477,1315.206,1296.424Z" transform="translate(-77.489 -155.317)" fill="#fff"/>
    <path id="Path_8195" data-name="Path 8195" d="M1568.033,1112.849s17.083,21.608,24.429,21.526,16.085-7.227,29.69-20.366a214.842,214.842,0,0,0,22.921-26.146l16.282,4.448s-14.355,25.289-29.182,43.172-29.405,31.141-39.485,30.869-20.688-5.7-29.2-21.839-10.521-28.442-10.521-28.442S1566.616,1112.223,1568.033,1112.849Z" transform="translate(-186.63 -64.309)" fill="#3232f5"/>
    <path id="Path_8196" data-name="Path 8196" d="M1410.726,1261.351l7.78-20.513-1.845-7.981,5.121-7.087,3.817,8.876-3.088,7.3-1.556,21.236Z" transform="translate(-121.335 -127.612)" fill="#3232f5"/>
    <path id="Path_8197" data-name="Path 8197" d="M1406.023,1351.419l1.193,22.928,4.069-21.952Z" transform="translate(-119.177 -185.288)" fill="#3232f5"/>
    <path id="Path_8198" data-name="Path 8198" d="M1657,1331.084c-2.456.579-4.92,1.12-7.394,1.6a1.261,1.261,0,0,0-1.163,1.308c-.279,2.321-.582,4.644-.995,6.946a2.594,2.594,0,0,1-1,1.482c-1.861,1.332-3.778,2.593-5.711,3.822a2.081,2.081,0,0,1-1.395.3c-2.549-.538-5.073-1.194-7.622-1.726a1.481,1.481,0,0,0-1.254.453c-1.482,2.146-2.862,4.363-4.319,6.527a1.075,1.075,0,0,0,.082,1.5c1.57,1.964,3.114,3.953,4.606,5.98a2.306,2.306,0,0,1,.4,1.5q-.461,3.471-1.114,6.915a2.423,2.423,0,0,1-.847,1.445c-1.973,1.339-4,2.6-6.039,3.831a1.234,1.234,0,0,0-.735,1.573c.594,2.452,1.123,4.916,1.6,7.393a1.263,1.263,0,0,0,1.313,1.158c2.324.268,4.632.647,6.956.912a1.958,1.958,0,0,1,1.62,1.095c1.148,1.883,2.38,3.718,3.7,5.479a1.981,1.981,0,0,1,.4,1.908c-.62,2.4-1.145,4.814-1.758,7.209a1.152,1.152,0,0,0,.614,1.5c2.149,1.32,4.275,2.677,6.358,4.1a1.224,1.224,0,0,0,1.724-.137c1.935-1.542,3.884-3.065,5.889-4.513a2.3,2.3,0,0,1,1.61-.306q3.439.671,6.837,1.535a2.69,2.69,0,0,1,1.5.979c1.373,2.108,2.658,4.275,3.928,6.446a1.236,1.236,0,0,0,1.583.729c2.452-.588,4.919-1.114,7.39-1.6a1.147,1.147,0,0,0,1.092-1.2c.25-2.549.528-5.1.91-7.628a2.689,2.689,0,0,1,1.007-1.492c1.779-1.373,3.675-2.6,5.42-4.009a2.174,2.174,0,0,1,2.143-.516c2.27.578,4.563,1.057,6.833,1.629a1.238,1.238,0,0,0,1.614-.628q1.967-3.228,4.094-6.359a1.217,1.217,0,0,0-.122-1.716c-1.513-1.9-2.958-3.853-4.475-5.752a1.933,1.933,0,0,1-.366-1.915c.569-2.264.938-4.575,1.467-6.849a2.256,2.256,0,0,1,.87-1.288c2.154-1.385,4.347-2.709,6.555-4.006a1.178,1.178,0,0,0,.651-1.5c-.576-2.455-1.12-4.92-1.6-7.394-.156-.807-.513-1.057-1.3-1.135-2.5-.245-5-.542-7.493-.92a2.47,2.47,0,0,1-1.423-.911c-1.439-1.892-2.824-3.831-4.162-5.8a2.2,2.2,0,0,1-.357-1.5c.573-2.758,1.239-5.5,1.9-8.35-2.492-1.58-4.938-3.168-7.437-4.673a1.511,1.511,0,0,0-1.338.169c-2.026,1.489-3.984,3.075-6,4.573a2.149,2.149,0,0,1-1.4.406c-2.358-.285-4.716-.622-7.056-1.039a2.392,2.392,0,0,1-1.426-.9c-1.338-1.97-2.608-3.991-3.846-6.026A1.183,1.183,0,0,0,1657,1331.084Zm18.956,35.767a14.741,14.741,0,1,1-17.517-11.306A14.691,14.691,0,0,1,1675.959,1366.851Z" transform="translate(-218.516 -175.926)" fill="#fff"/>
    <path id="Path_8199" data-name="Path 8199" d="M1406.673,1111.827l1.171-3.941a50.372,50.372,0,0,0,14.262,3.19c7.074.309,14.57.022,14.57.022s-1.888,8.006.921,12.419a8.87,8.87,0,0,1,3.111-.541c1.673.034,2.6.456,3.806,2.192,0,0,3.688-5.657,4.482-9.708s.409-7.23-2.136-9.067a15.013,15.013,0,0,0-4.411-2.358s-2-8.207-7.179-10.136-11.6-2.111-15.234,1.151c0,0-6.192-3.359-10.63-.328-5.276,3.6-5.581,7.518-5.229,10.361A18.885,18.885,0,0,0,1406.673,1111.827Z" transform="translate(-118.281 -66.443)" fill="#1a1a1a"/>
    <g id="Group_4461" data-name="Group 4461" transform="translate(1402.253 1151.948)">
      <path id="Path_8200" data-name="Path 8200" d="M1663.4,1405.425a1.82,1.82,0,0,1-1.608-1.076c-1.2-2.058-2.5-4.256-3.916-6.427a2.132,2.132,0,0,0-1.16-.732c-2.2-.566-4.485-1.079-6.806-1.529a1.759,1.759,0,0,0-1.164.206c-2.173,1.57-4.278,3.231-5.87,4.5a1.906,1.906,0,0,1-2.408.16c-1.874-1.279-3.944-2.615-6.334-4.084a1.708,1.708,0,0,1-.866-2.133c.294-1.151.57-2.307.844-3.468.294-1.248.588-2.5.91-3.741a1.412,1.412,0,0,0-.3-1.423c-1.282-1.708-2.539-3.566-3.734-5.52a1.392,1.392,0,0,0-1.192-.829c-1.217-.137-2.43-.306-3.644-.475-1.1-.153-2.208-.307-3.312-.438a1.816,1.816,0,0,1-1.811-1.617c-.516-2.64-1.038-5.051-1.6-7.365a1.791,1.791,0,0,1,.994-2.2c1.667-1.006,3.853-2.349,6.011-3.815a1.865,1.865,0,0,0,.61-1.073c.423-2.233.795-4.55,1.107-6.887a1.7,1.7,0,0,0-.294-1.085c-1.323-1.8-2.78-3.7-4.594-5.964a1.645,1.645,0,0,1-.1-2.183c.625-.929,1.238-1.87,1.852-2.812.813-1.248,1.623-2.493,2.47-3.719a2,2,0,0,1,1.842-.691c1.314.275,2.618.581,3.925.888,1.233.291,2.462.579,3.7.841a1.561,1.561,0,0,0,.963-.225c2.214-1.4,4.022-2.608,5.689-3.8a2.071,2.071,0,0,0,.769-1.119c.444-2.5.76-5.007.988-6.915a1.816,1.816,0,0,1,1.623-1.8c2.314-.45,4.726-.973,7.372-1.6a1.776,1.776,0,0,1,2.13.885c1.016,1.67,2.374,3.863,3.834,6a1.846,1.846,0,0,0,1.051.654c2.14.382,4.438.719,7.024,1.035a1.671,1.671,0,0,0,.985-.3c.957-.71,1.9-1.439,2.84-2.167,1.051-.814,2.1-1.627,3.171-2.412a2.1,2.1,0,0,1,1.973-.193c1.973,1.185,3.916,2.423,5.871,3.672l1.576,1.006a.576.576,0,0,1,.253.613l-.516,2.214c-.481,2.065-.954,4.088-1.376,6.124a1.62,1.62,0,0,0,.269,1.064c1.433,2.1,2.787,3.987,4.143,5.773a1.93,1.93,0,0,0,1.054.688c2.305.35,4.748.651,7.459.917a1.772,1.772,0,0,1,1.811,1.595c.45,2.311.973,4.723,1.6,7.372a1.74,1.74,0,0,1-.92,2.126c-2.6,1.533-4.681,2.8-6.536,3.994a1.706,1.706,0,0,0-.622.939c-.232.994-.432,2-.632,3.006-.256,1.288-.516,2.58-.835,3.856a1.374,1.374,0,0,0,.254,1.414c.769.96,1.52,1.936,2.27,2.912.732.95,1.461,1.9,2.208,2.836a1.78,1.78,0,0,1,.15,2.4c-1.351,1.98-2.724,4.113-4.082,6.337a1.814,1.814,0,0,1-2.245.881c-1.095-.275-2.193-.528-3.29-.781-1.185-.272-2.368-.544-3.541-.844a1.566,1.566,0,0,0-1.644.4c-.979.791-2.015,1.533-3.018,2.251-.811.579-1.62,1.157-2.409,1.767a2.115,2.115,0,0,0-.788,1.122c-.41,2.681-.691,5.345-.91,7.6a1.7,1.7,0,0,1-1.548,1.7c-2.661.526-5.07,1.048-7.369,1.6A2.745,2.745,0,0,1,1663.4,1405.425Zm-13.774-10.937a2.691,2.691,0,0,1,.506.046c2.34.454,4.651.973,6.868,1.542a3.258,3.258,0,0,1,1.839,1.219c1.426,2.19,2.736,4.4,3.944,6.474.413.7.566.548.954.457,2.315-.554,4.738-1.079,7.412-1.608.489-.1.582-.2.629-.691.226-2.27.507-4.954.917-7.659a3.226,3.226,0,0,1,1.226-1.861c.8-.616,1.62-1.2,2.439-1.792.992-.707,2.014-1.439,2.968-2.211a2.707,2.707,0,0,1,2.648-.622c1.164.3,2.34.569,3.513.838,1.106.256,2.214.509,3.315.788a1.678,1.678,0,0,0,.413.063c.137,0,.307,0,.569-.432,1.366-2.24,2.753-4.385,4.113-6.383.287-.418.272-.575-.1-1.038-.75-.941-1.485-1.9-2.221-2.852s-1.491-1.939-2.255-2.893a2.49,2.49,0,0,1-.472-2.414c.312-1.257.569-2.527.822-3.8.2-1.016.407-2.033.638-3.04a2.845,2.845,0,0,1,1.12-1.642c1.87-1.2,3.959-2.48,6.577-4.019.428-.253.491-.4.381-.879-.628-2.661-1.151-5.085-1.6-7.412-.1-.516-.219-.616-.794-.669-2.736-.272-5.195-.572-7.522-.923a3.066,3.066,0,0,1-1.8-1.129c-1.37-1.8-2.737-3.706-4.182-5.827a2.783,2.783,0,0,1-.444-1.942c.426-2.043.9-4.078,1.385-6.152l.422-1.814-1.239-.788c-1.945-1.245-3.878-2.477-5.845-3.659a1.748,1.748,0,0,0-.7.138c-1.06.782-2.1,1.589-3.15,2.4-.945.732-1.892,1.464-2.855,2.177a2.66,2.66,0,0,1-1.81.517c-2.605-.317-4.926-.657-7.087-1.042a2.974,2.974,0,0,1-1.8-1.141c-1.473-2.165-2.84-4.372-3.865-6.052-.247-.413-.4-.413-.538-.413a1.651,1.651,0,0,0-.347.05c-2.659.625-5.086,1.151-7.415,1.6-.516.1-.632.238-.7.813-.225,1.92-.547,4.453-.994,6.977a3.183,3.183,0,0,1-1.232,1.851c-1.686,1.2-3.509,2.423-5.742,3.838a2.7,2.7,0,0,1-1.817.381c-1.245-.266-2.486-.557-3.725-.848-1.3-.307-2.593-.61-3.9-.882a1.09,1.09,0,0,0-.663.215c-.839,1.22-1.645,2.458-2.452,3.7-.616.944-1.232,1.889-1.864,2.827-.238.35-.232.466.054.823,1.82,2.28,3.287,4.188,4.619,6a2.84,2.84,0,0,1,.506,1.917c-.316,2.358-.691,4.7-1.12,6.949a2.979,2.979,0,0,1-1.091,1.811c-2.18,1.48-4.385,2.834-6.061,3.848-.523.315-.595.457-.475.951.566,2.33,1.094,4.757,1.61,7.415.1.51.238.629.816.7,1.117.128,2.227.284,3.34.441,1.2.166,2.409.334,3.615.472a2.513,2.513,0,0,1,2.043,1.37c1.176,1.923,2.411,3.75,3.672,5.429a2.552,2.552,0,0,1,.491,2.4c-.319,1.235-.613,2.477-.907,3.719-.275,1.164-.55,2.33-.848,3.49-.125.475-.072.607.353.87,2.405,1.476,4.492,2.821,6.383,4.11.406.278.532.294,1.045-.109,1.6-1.276,3.719-2.946,5.908-4.532A2.747,2.747,0,0,1,1649.624,1394.488Zm9.336-14.456a15.321,15.321,0,0,1-3.152-30.3,15.405,15.405,0,0,1,3.271-.353,15.315,15.315,0,0,1,3.184,30.293A15.567,15.567,0,0,1,1658.96,1380.033Zm.119-29.5a14.342,14.342,0,0,0-3.027.323,14.175,14.175,0,0,0,2.908,28.029,14.691,14.691,0,0,0,3.058-.329,14.17,14.17,0,0,0-2.94-28.022Z" transform="translate(-1619.355 -1325.202)" fill="#1a1a1a"/>
    </g>
    <g id="Group_4463" data-name="Group 4463" transform="translate(1369.665 1018.915)">
      <g id="Group_4462" data-name="Group 4462" transform="translate(0 0)">
        <path id="Path_8201" data-name="Path 8201" d="M1598.641,1158.918a22.1,22.1,0,0,1-9.148-2.114,38.366,38.366,0,0,1-14.687-12.229c-5.1-6.7-9.016-14.524-12.329-24.62-.841-2.552-1.545-5.085-2.292-7.766-.344-1.229-.688-2.467-1.048-3.716a.571.571,0,0,1,.05-.441.582.582,0,0,1,.347-.272l10.621-2.93c1.1-.3,2.211-.606,3.318-.922a1.483,1.483,0,0,1,1.74.588,103.653,103.653,0,0,0,19.424,19.55,7.7,7.7,0,0,0,7.084,1.467,25,25,0,0,0,7.568-3.465,98.627,98.627,0,0,0,16.009-13.279,296.647,296.647,0,0,0,25.245-28.636,1.836,1.836,0,0,1,2.2-.741c3.625,1.038,7.259,2.042,10.893,3.046l3.81,1.054c.181.05.36.112.557.181l.256.088a.574.574,0,0,1,.332.8l-.119.254c-.078.169-.154.328-.244.482-10.734,18.2-21.208,33.374-32.022,46.378-5.42,6.518-12.076,13.992-20.333,20.022a62.039,62.039,0,0,1-7.928,4.847A19.952,19.952,0,0,1,1598.641,1158.918Zm-38.24-50.205c.3,1.063.6,2.12.891,3.168.741,2.667,1.445,5.189,2.274,7.719,3.275,9.968,7.137,17.683,12.154,24.282a37.253,37.253,0,0,0,14.249,11.878c6.042,2.746,11.9,2.668,17.445-.237a61.25,61.25,0,0,0,7.785-4.754c8.154-5.958,14.749-13.367,20.125-19.828,10.774-12.961,21.214-28.082,31.917-46.228-.1-.112-3.91-1.166-3.91-1.166-3.637-1-7.275-2.008-10.9-3.046-.385-.113-.479-.3-.979.341a297.847,297.847,0,0,1-25.342,28.748,99.476,99.476,0,0,1-16.2,13.43,26,26,0,0,1-7.912,3.609,8.808,8.808,0,0,1-8.066-1.68,104.826,104.826,0,0,1-19.635-19.766c-.153-.21-.222-.21-.269-.21a.939.939,0,0,0-.235.044c-1.107.316-2.22.619-3.331.922Z" transform="translate(-1559.114 -1079.288)" fill="#1a1a1a"/>
      </g>
    </g>
    <g id="Group_4464" data-name="Group 4464" transform="translate(1191.537 1083.742)">
      <path id="Path_8202" data-name="Path 8202" d="M1230.417,1216.271a.575.575,0,0,1-.177-1.123l49.294-16a.575.575,0,0,1,.354,1.1l-49.295,16A.576.576,0,0,1,1230.417,1216.271Z" transform="translate(-1229.842 -1199.122)" fill="#1a1a1a"/>
    </g>
    <g id="Group_4465" data-name="Group 4465" transform="translate(1182.705 1008.503)">
      <path id="Path_8203" data-name="Path 8203" d="M1280.477,1103.5a.586.586,0,0,1-.308-.09l-66.387-42.312a.574.574,0,1,1,.616-.969l66.387,42.312a.575.575,0,0,1-.308,1.06Z" transform="translate(-1213.515 -1060.042)" fill="#1a1a1a"/>
    </g>
    <g id="Group_4466" data-name="Group 4466" transform="translate(1270.845 985.299)">
      <path id="Path_8204" data-name="Path 8204" d="M1379.847,1041.874a.578.578,0,0,1-.571-.507l-2.827-23.575a.574.574,0,0,1,.5-.638.564.564,0,0,1,.64.5l2.827,23.575a.574.574,0,0,1-.5.638A.518.518,0,0,1,1379.847,1041.874Z" transform="translate(-1376.444 -1017.149)" fill="#1a1a1a"/>
    </g>
    <g id="Group_4467" data-name="Group 4467" transform="translate(1317.648 1059.342)">
      <path id="Path_8205" data-name="Path 8205" d="M1467.67,1162.531a.569.569,0,0,1-.363-.131l-4.136-3.375a.573.573,0,0,1-.018-.873l4.492-3.991a.574.574,0,1,1,.763.857l-3.989,3.543,3.614,2.949a.575.575,0,0,1-.363,1.02Z" transform="translate(-1462.96 -1154.018)" fill="#1a1a1a"/>
    </g>
    <g id="Group_4468" data-name="Group 4468" transform="translate(1291.542 1053.156)">
      <path id="Path_8206" data-name="Path 8206" d="M1415.56,1155.622a.757.757,0,0,1-.6-.294c-.512-.644-.416-2.746,1.636-11.228.125-.523.212-.873.227-.964a.526.526,0,0,1,.538-.553.625.625,0,0,1,.605.591,5.119,5.119,0,0,1-.256,1.2c-1.715,7.093-1.946,9.37-1.871,10.074a11.69,11.69,0,0,0,3.059-1.348.574.574,0,1,1,.594.982c-.259.156-2.569,1.529-3.926,1.545Z" transform="translate(-1414.702 -1142.583)" fill="#1a1a1a"/>
    </g>
    <g id="Group_4469" data-name="Group 4469" transform="translate(1289.165 1069.297)">
      <path id="Path_8207" data-name="Path 8207" d="M1418.256,1174.406c-.133-.016-4.6-.7-7.4-.838a.574.574,0,0,1,.028-1.148c2.888.144,7.275.813,7.46.844a.574.574,0,0,1-.088,1.141Z" transform="translate(-1410.309 -1172.42)" fill="#1a1a1a"/>
    </g>
    <path id="Path_8208" data-name="Path 8208" d="M1435.964,1151.867a.957.957,0,0,1-.867-1.036l.242-2.677a.955.955,0,0,1,1.9.172L1437,1151A.956.956,0,0,1,1435.964,1151.867Z" transform="translate(-132.52 -91.587)"/>
    <path id="Path_8209" data-name="Path 8209" d="M1409.281,1149.488a.958.958,0,0,1-.865-1.038l.241-2.677a.955.955,0,0,1,1.9.173l-.241,2.677A.959.959,0,0,1,1409.281,1149.488Z" transform="translate(-120.273 -90.494)"/>
    <g id="Group_4470" data-name="Group 4470" transform="translate(1301.238 1053.146)">
      <path id="Path_8210" data-name="Path 8210" d="M1437.548,1144.01l-4.388-.3a.574.574,0,0,1-.533-.613.626.626,0,0,1,.611-.532l4.349.3a.574.574,0,0,1-.04,1.147Z" transform="translate(-1432.626 -1142.565)" fill="#1a1a1a"/>
    </g>
    <g id="Group_4471" data-name="Group 4471" transform="translate(1286.926 1052.283)">
      <path id="Path_8211" data-name="Path 8211" d="M1411.1,1142.284c-.022,0-4.377-.165-4.377-.165a.574.574,0,0,1,.022-1.148c.022,0,4.377.166,4.377.166a.574.574,0,0,1-.022,1.147Z" transform="translate(-1406.169 -1140.97)" fill="#1a1a1a"/>
    </g>
    <g id="Group_4472" data-name="Group 4472" transform="translate(1290.824 1090.595)">
      <path id="Path_8212" data-name="Path 8212" d="M1424.886,1217.748c-.161,0-.316,0-.464,0-7.546-.129-10.812-4.86-10.948-5.064a.572.572,0,0,1,.156-.794.578.578,0,0,1,.8.153c.031.044,3.094,4.441,10.014,4.553,3.563.094,11.333-.713,14.9-4.122a.575.575,0,0,1,.8.832C1436.446,1216.826,1429.033,1217.748,1424.886,1217.748Z" transform="translate(-1413.376 -1211.791)" fill="#1a1a1a"/>
    </g>
    <g id="Group_4473" data-name="Group 4473" transform="translate(1343.564 960.768)">
      <path id="Path_8213" data-name="Path 8213" d="M1634.349,1160.408a.575.575,0,0,1-.378-1.007c19.7-17.371,29.686-35.685,29.686-54.429V1010.91a17.949,17.949,0,0,0-12.248-16.651L1594.5,974.1a20.082,20.082,0,0,0-13.332,0l-56.908,20.163a17.946,17.946,0,0,0-12.244,16.651v72.215a.576.576,0,0,1-1.151,0V1010.91a19.1,19.1,0,0,1,13.014-17.733l56.908-20.163a21.105,21.105,0,0,1,14.1,0l56.908,20.163a19.1,19.1,0,0,1,13.017,17.733v94.063c0,19.087-10.121,37.69-30.08,55.291A.576.576,0,0,1,1634.349,1160.408Z" transform="translate(-1510.866 -971.803)" fill="#1a1a1a"/>
    </g>
    <g id="Group_4474" data-name="Group 4474" transform="translate(1283.889 1040.866)">
      <path id="Path_8214" data-name="Path 8214" d="M1413.755,1165.341a18.827,18.827,0,0,1-5.137-.651c-.253-.072-.508-.156-.758-.244-3.673-1.276-6.131-4.329-6.919-8.6-.768-4.163-.231-8.438.286-12.569l.277-2.265c.83-6.849,1.772-14.612,4.193-20.782a.574.574,0,1,1,1.069.419c-2.368,6.033-3.3,13.72-4.122,20.5l-.269,2.2c-.516,4.115-1.04,8.3-.3,12.291.709,3.844,2.9,6.583,6.17,7.722.23.081.463.153.693.219,3.436.988,7.246.588,10.187.138a.558.558,0,0,1,.655.478.574.574,0,0,1-.48.654A36.539,36.539,0,0,1,1413.755,1165.341Z" transform="translate(-1400.556 -1119.865)" fill="#1a1a1a"/>
    </g>
    <g id="Group_4475" data-name="Group 4475" transform="translate(1299.022 1106.459)">
      <path id="Path_8215" data-name="Path 8215" d="M1429.1,1271.132a.582.582,0,0,1-.573-.616l1.579-21.57a.594.594,0,0,1,.044-.185l3.088-7.3a.575.575,0,0,1,1.057.451l-3.051,7.209-1.573,21.474A.574.574,0,0,1,1429.1,1271.132Z" transform="translate(-1428.53 -1241.116)" fill="#1a1a1a"/>
    </g>
    <g id="Group_4476" data-name="Group 4476" transform="translate(1294.554 1112.537)">
      <path id="Path_8216" data-name="Path 8216" d="M1426.892,1254.718c-.114-.013-6.161-1.232-6.161-1.232a.574.574,0,1,1,.228-1.126l6.047,1.219a.575.575,0,0,1-.114,1.139Z" transform="translate(-1420.27 -1252.35)" fill="#1a1a1a"/>
    </g>
    <g id="Group_4477" data-name="Group 4477" transform="translate(1286.886 1104.252)">
      <path id="Path_8217" data-name="Path 8217" d="M1406.669,1266.688a.575.575,0,0,1-.536-.778l7.609-20.066-1.607-8.122a.574.574,0,0,1,1.126-.225l1.64,8.284a.559.559,0,0,1-.027.316l-7.669,20.219A.576.576,0,0,1,1406.669,1266.688Z" transform="translate(-1406.096 -1237.035)" fill="#1a1a1a"/>
    </g>
    <g id="Group_4478" data-name="Group 4478" transform="translate(1330.55 947.764)">
      <path id="Path_8218" data-name="Path 8218" d="M1636.358,1155.052a.575.575,0,0,1-.4-.991c19.685-18.822,29.665-39.05,29.665-60.123V999.875a30.983,30.983,0,0,0-20.911-28.92l-56.907-20.162a33.178,33.178,0,0,0-22.028,0l-56.908,20.162a30.983,30.983,0,0,0-20.911,28.92v6.793a.576.576,0,0,1-1.151,0v-6.793a32.134,32.134,0,0,1,21.68-30L1565.4,949.71a34.324,34.324,0,0,1,22.79,0l56.908,20.163a32.13,32.13,0,0,1,21.68,30v94.063c0,21.4-10.1,41.905-30.021,60.955A.573.573,0,0,1,1636.358,1155.052Z" transform="translate(-1486.81 -947.764)" fill="#1a1a1a"/>
    </g>
    <g id="Group_4479" data-name="Group 4479" transform="translate(1315.533 1055.966)">
      <path id="Path_8219" data-name="Path 8219" d="M1464.788,1163.044a5.123,5.123,0,0,1-.881-.072,5.613,5.613,0,0,1-3.581-2.251.573.573,0,1,1,.916-.688,4.506,4.506,0,0,0,2.857,1.808,4.411,4.411,0,0,0,1.365.006,5.283,5.283,0,0,0,3.012-1.735,7.629,7.629,0,0,0,1.811-3.844,7.217,7.217,0,0,0-1.064-5.311,5.257,5.257,0,0,0-.718-.829,4.308,4.308,0,0,0-2.261-1.145,6.944,6.944,0,0,0-5.786,2.051,4.066,4.066,0,0,0-.348.46.573.573,0,1,1-.969-.613,5.03,5.03,0,0,1,.45-.6,8.13,8.13,0,0,1,6.845-2.43,5.519,5.519,0,0,1,2.858,1.439,6.7,6.7,0,0,1,.87,1.007,8.372,8.372,0,0,1,1.255,6.159,8.775,8.775,0,0,1-2.094,4.432,6.414,6.414,0,0,1-3.68,2.092A5.683,5.683,0,0,1,1464.788,1163.044Z" transform="translate(-1459.051 -1147.777)" fill="#1a1a1a"/>
    </g>
    <g id="Group_4480" data-name="Group 4480" transform="translate(1323.833 1037.019)">
      <path id="Path_8220" data-name="Path 8220" d="M1476.737,1135.126a.581.581,0,0,1-.3-.084.574.574,0,0,1-.19-.792c7.75-12.685,4.341-16.12,2.3-18.171l-.371-.375a6.886,6.886,0,0,0-3.316-1.811.575.575,0,0,1,.2-1.132,7.961,7.961,0,0,1,3.938,2.148l.357.363c2.277,2.289,6.086,6.124-2.136,19.578A.578.578,0,0,1,1476.737,1135.126Z" transform="translate(-1474.393 -1112.754)" fill="#1a1a1a"/>
    </g>
    <g id="Group_4481" data-name="Group 4481" transform="translate(1313.809 1044.451)">
      <path id="Path_8221" data-name="Path 8221" d="M1458.561,1141.464a.57.57,0,0,1-.486-.272c-.149-.237-3.611-5.911-1.568-14.261a.567.567,0,0,1,.694-.419.574.574,0,0,1,.422.694,18.64,18.64,0,0,0,1.427,13.38.576.576,0,0,1-.185.791A.57.57,0,0,1,1458.561,1141.464Z" transform="translate(-1455.863 -1126.492)" fill="#1a1a1a"/>
    </g>
    <g id="Group_4482" data-name="Group 4482" transform="translate(1320.575 1070.029)">
      <path id="Path_8222" data-name="Path 8222" d="M1468.945,1187.5a.583.583,0,0,1-.572-.616l.885-12.576a.565.565,0,0,1,.613-.531.573.573,0,0,1,.532.613l-.885,12.575A.574.574,0,0,1,1468.945,1187.5Z" transform="translate(-1468.371 -1173.773)" fill="#1a1a1a"/>
    </g>
    <g id="Group_4483" data-name="Group 4483" transform="translate(1287.981 1095.357)">
      <path id="Path_8223" data-name="Path 8223" d="M1427.54,1240.142a.574.574,0,0,1-.527-.347l-7.5-17.436-10.344,15.334a.574.574,0,0,1-.951-.644l10.933-16.2a.591.591,0,0,1,.528-.25.575.575,0,0,1,.474.344l7.913,18.4a.575.575,0,0,1-.527.8Z" transform="translate(-1408.121 -1220.594)" fill="#1a1a1a"/>
    </g>
    <g id="Group_4484" data-name="Group 4484" transform="translate(1299.414 1082.601)">
      <path id="Path_8224" data-name="Path 8224" d="M1448.893,1255.01a.568.568,0,0,1-.3-.088.575.575,0,0,1-.185-.791l6.973-11.225-4.281-11.747a.574.574,0,0,1,.022-.447.564.564,0,0,1,.336-.294l10.36-3.453-6.468-20.013-4.33-8.094c-.641,1.345-1.873,3.959-3.468,7.484-3.628,8.031-8.97,20.435-13.819,33.889-1.151,3.2-2.153,6.287-3.35,10.327a.574.574,0,1,1-1.1-.325c1.2-4.066,2.211-7.172,3.371-10.39,4.86-13.492,10.215-25.923,13.85-33.977,2.38-5.258,3.958-8.5,3.973-8.528a.572.572,0,0,1,1.023-.019l4.9,9.188,6.685,20.648a.574.574,0,0,1-.366.719l-10.341,3.447,4.175,11.453a.578.578,0,0,1-.051.5l-7.12,11.463A.574.574,0,0,1,1448.893,1255.01Z" transform="translate(-1429.254 -1197.013)" fill="#1a1a1a"/>
    </g>
    <g id="Group_4485" data-name="Group 4485" transform="translate(1287.574 1166.585)">
      <path id="Path_8225" data-name="Path 8225" d="M1407.941,1376.021a.563.563,0,0,1-.2-.037.573.573,0,0,1-.369-.623c.014-.094,1.437-9.514,4.161-22.646a.575.575,0,0,1,1.126.232c-1.841,8.869-3.085,16.037-3.7,19.772l11.2-18.033a.574.574,0,1,1,.975.607l-12.707,20.457A.578.578,0,0,1,1407.941,1376.021Z" transform="translate(-1407.367 -1352.26)" fill="#1a1a1a"/>
    </g>
    <g id="Group_4492" data-name="Group 4492" transform="translate(1221.57 1089.634)">
      <path id="Path_8232" data-name="Path 8232" d="M1307.779,1294.689c-5.681,0-11.172-1.1-15.5-4.754a18.757,18.757,0,0,1-5.592-8.641c-.826-2.552-2.029-7.456-.82-11.635a32.827,32.827,0,0,1,2.963-6.8,97.687,97.687,0,0,1,10.494-14.774,231.713,231.713,0,0,1,20.052-21.1c5.432-5.085,13.207-8.51,20.066-11.533a84.692,84.692,0,0,0,10.84-5.355.573.573,0,0,1,.621.964,85.2,85.2,0,0,1-11,5.442c-6.777,2.987-14.457,6.371-19.745,11.322a230.778,230.778,0,0,0-19.955,20.989,96.685,96.685,0,0,0-10.371,14.6,31.623,31.623,0,0,0-2.864,6.558c-1.125,3.884.023,8.535.807,10.965a17.6,17.6,0,0,0,5.242,8.116c6.76,5.708,16.757,4.81,25.6,3.507a114.946,114.946,0,0,0,28.348-8.013.575.575,0,0,1,.438,1.063,117.779,117.779,0,0,1-28.62,8.088A77.022,77.022,0,0,1,1307.779,1294.689Z" transform="translate(-1285.358 -1210.014)" fill="#1a1a1a"/>
    </g>
    <g id="Group_4493" data-name="Group 4493" transform="translate(1251.847 1171.259)">
      <path id="Path_8233" data-name="Path 8233" d="M1440.317,1449.468H1341.9a.577.577,0,0,1-.571-.632c.042-.426,4.244-42.665,5.792-62.4,1.3-16.563,2.094-24.936,2.1-25.017a.6.6,0,0,1,.627-.52.575.575,0,0,1,.518.626c-.008.085-.8,8.451-2.1,25-1.445,18.424-5.2,56.433-5.733,61.793h97.081c-1.345-6.593-11.8-58.287-12.351-72.727a23.67,23.67,0,0,1,1.855-9.8.574.574,0,1,1,1.076.4,22.676,22.676,0,0,0-1.786,9.351c.588,15.259,12.354,72.651,12.473,73.23a.577.577,0,0,1-.563.692Z" transform="translate(-1341.325 -1360.9)" fill="#1a1a1a"/>
    </g>
    <g id="Group_4495" data-name="Group 4495" transform="translate(1237.142 1130.62)">
      <path id="Path_8235" data-name="Path 8235" d="M1314.719,1296.84a.577.577,0,0,1-.5-.3.571.571,0,0,1,.018-.588c3.236-5.048,10.253-8.566,20.291-10.168a.558.558,0,0,1,.658.475.574.574,0,0,1-.477.657c-9.085,1.451-15.578,4.469-18.876,8.76l15.661-.166a.575.575,0,0,1,.013,1.151l-16.78.176Z" transform="translate(-1314.144 -1285.777)" fill="#1a1a1a"/>
    </g>
    <g id="Group_4496" data-name="Group 4496" transform="translate(1249.94 1091.078)">
      <path id="Path_8236" data-name="Path 8236" d="M1432.56,1298.722a61.268,61.268,0,0,1-7.5-.487c-44.253-5.445-86.477-22.162-86.9-22.328a.574.574,0,0,1-.334-.707l8.336-26.5a.584.584,0,0,1,.667-.391l76.919,16.3a.577.577,0,0,1,.444.682.585.585,0,0,1-.681.444l-76.41-16.191-8.019,25.492c4.869,1.889,44.6,16.954,86.114,22.061,14.984,1.839,25.543-1.711,30.541-10.283,6.968-11.953,1.554-30.437-7.4-42.521-16.579-22.381-34.854-30.428-35.037-30.506a.575.575,0,0,1,.453-1.057c.186.081,18.73,8.235,35.51,30.881,9.173,12.385,14.684,31.4,7.463,43.782C1453.58,1292.8,1446.859,1298.722,1432.56,1298.722Z" transform="translate(-1337.801 -1212.682)" fill="#1a1a1a"/>
    </g>
    <g id="Group_4497" data-name="Group 4497" transform="translate(1281.171 1164.792)">
      <path id="Path_8237" data-name="Path 8237" d="M1402.509,1374.5a.577.577,0,0,1-.555-.428l-6.4-24.4a.574.574,0,1,1,1.11-.294l4.849,18.486c-.278-4.385-.638-10.783-.894-18.015a.574.574,0,0,1,1.148-.041c.475,13.43,1.309,23.969,1.316,24.073a.575.575,0,0,1-.476.613A.466.466,0,0,1,1402.509,1374.5Z" transform="translate(-1395.532 -1348.946)" fill="#1a1a1a"/>
    </g>
    <g id="Group_4498" data-name="Group 4498" transform="translate(1271.149 1084.563)">
      <path id="Path_8238" data-name="Path 8238" d="M1392.665,1249.841a.583.583,0,0,1-.574-.607c.444-8.479,1.027-14.1,1.645-20.054l.107-1.029c1.615-15.651,3.543-24.682,3.562-24.773l0-.829-9.23,8.829-9.813,15,5.553,5.289a.571.571,0,0,1,.111.685l-5.828,10.958.727,2.777a.574.574,0,1,1-1.11.294l-.785-3a.562.562,0,0,1,.049-.416l5.729-10.771-5.585-5.321a.574.574,0,0,1-.084-.731l10.158-15.5,10.275-9.848a.575.575,0,0,1,.971.416v2.286c-.031.209-1.947,9.188-3.556,24.769l-.106,1.029c-.616,5.939-1.2,11.547-1.639,20A.576.576,0,0,1,1392.665,1249.841Z" transform="translate(-1377.006 -1200.64)" fill="#1a1a1a"/>
    </g>
    <g id="Group_4499" data-name="Group 4499" transform="translate(1233.107 1140.531)">
      <path id="Path_8239" data-name="Path 8239" d="M1307.258,1306.61a.575.575,0,0,1-.241-1.1,21.034,21.034,0,0,1,4.172-1.4.575.575,0,0,1,.209,1.132,19.826,19.826,0,0,0-3.9,1.317A.591.591,0,0,1,1307.258,1306.61Z" transform="translate(-1306.684 -1304.098)" fill="#1a1a1a"/>
    </g>
    <g id="Group_4500" data-name="Group 4500" transform="translate(1281.637 1024.56)">
      <path id="Path_8240" data-name="Path 8240" d="M1402.179,1114.56a.574.574,0,0,1-.43-.194c-.111-.128-11-12.679-1.4-22.042,5.744-5.608,14.358-.575,16.2.613,1.382-.963,6.7-4.025,14.926-.8,6.035,2.367,8.158,10.143,8.246,10.471a.574.574,0,0,1-1.11.294c-.02-.075-2.067-7.541-7.555-9.7-8.771-3.443-13.906.694-14.121.873a.58.58,0,0,1-.7.025c-.092-.069-9.351-6.568-15.084-.963-8.823,8.61,1.359,20.344,1.462,20.46a.578.578,0,0,1-.05.813A.589.589,0,0,1,1402.179,1114.56Z" transform="translate(-1396.393 -1089.724)" fill="#1a1a1a"/>
    </g>
    <g id="Group_4501" data-name="Group 4501" transform="translate(1287.396 1039.021)">
      <path id="Path_8241" data-name="Path 8241" d="M1428.845,1122.851c-7.3,0-19.237-.757-21.741-5.557a.575.575,0,1,1,1.02-.532c2.686,5.154,19.951,5.2,26.373,4.785a.612.612,0,0,1,.61.535.572.572,0,0,1-.535.609C1434.278,1122.711,1431.991,1122.851,1428.845,1122.851Z" transform="translate(-1407.04 -1116.454)" fill="#1a1a1a"/>
    </g>
  </g>
</svg>
