<svg xmlns="http://www.w3.org/2000/svg" width="382.098" height="275.345" viewBox="0 0 382.098 275.345">
  <g id="Group_4424" data-name="Group 4424" transform="translate(-280.466 -981.908)">
    <path id="Path_8166" data-name="Path 8166" d="M20.833,0H242.018a20.834,20.834,0,0,1,20.834,20.834V161.321a20.834,20.834,0,0,1-20.834,20.834H20.834A20.834,20.834,0,0,1,0,161.321V20.833A20.833,20.833,0,0,1,20.833,0Z" transform="translate(324.94 1032.764)" fill="#fff"/>
    <rect id="Rectangle_476" data-name="Rectangle 476" width="123.169" height="98.355" rx="22.6" transform="translate(280.466 981.908)" fill="#3232f5"/>
    <path id="Path_8084" data-name="Path 8084" d="M727.429,1443.366c-.262-2.188-.993-3.642-2.041-3.752s-29.074,0-29.074,0-.077.093-.211.242a8.232,8.232,0,0,0,1.528-8.4l-14.936-38.9c-1.54-4.011-6.043-6.736-11.132-6.736H614.869c-7.9,0-13.524,6.354-11.132,12.582l4.408,11.48,6.344,16.523,4.183,10.9a10.5,10.5,0,0,0,6.155,5.807c-.032-.006.8,3.528,2.651,3.3H725.9A2.964,2.964,0,0,0,727.429,1443.366Z" transform="translate(-179.671 -224.878)" fill="#1a1a1a"/>
    <path id="Path_8085" data-name="Path 8085" d="M843.823,1294.751s-10.174,1.463-16.615,7.5-10.315,11.03-14.033,21.249-1.693,10.763-5.683,19.145-5.049,10.386-5.049,10.386l9.564,25.929s.98,7.242-2.358,8.974l2.582.261s7.078-6.138,9.541-11.108,4.462-10.466,4.462-10.466a109.056,109.056,0,0,1-.494,11.177c-.559,4.917-1.879,8.669-4.419,10.214l13.9.183a2.809,2.809,0,0,1,3.15,2.134,4.534,4.534,0,0,1-1.531,4.182l6.98.294a96.181,96.181,0,0,0,21.133,4.205c10.656.7,14.66-2.866,14.66-2.866l2.9,17.081s10.871,1.33,18.99-.438a105.362,105.362,0,0,0,14.562-4.307s-9.247-44.277-10.136-48.186-5.588-23.533-6.661-27.37a84.852,84.852,0,0,0-7.964-20.108c-4.829-8.506-8.546-12.191-12.067-13.962s-12.069-6.259-21.147-5.67A130.573,130.573,0,0,0,843.823,1294.751Z" transform="translate(-290.611 -173.271)" fill="#3232f5"/>
    <path id="Path_8086" data-name="Path 8086" d="M896.774,1257.442l-2.738-12.752s3.729.04,4.888-2.7a4.6,4.6,0,0,0-3.1-6.052,10.036,10.036,0,0,0-3.386.031l-1.414-5.985h-.324l-.3,1.793-12.493.416-.771-3.26-2.407,3.177-2.809.226,1.285,12.865s1.327,10.19,5.436,10.128,3.866-.292,3.866-.292l1.112,5.238s-2.244,11.907,3.265,11.54,8.349-7.822,8.853-9.713S896.774,1257.442,896.774,1257.442Z" transform="translate(-329.289 -137.534)" fill="#fff"/>
    <path id="Path_8087" data-name="Path 8087" d="M999.161,1561.021v1.888s-5.039,7.79-6.058,9.33-.633,4.353,1.554,4.953,4.512-2.3,5.795-3.893,3.1-3.645,4.962-3.479a41.446,41.446,0,0,1,12.691,2.707c5.637,2.286,6.465,3.411,8.948,3.469a4.386,4.386,0,0,0,3.879-1.831,3.968,3.968,0,0,0,3.776-.92c2.11-1.618.536-3.179.536-3.179a1.613,1.613,0,0,0,.577-2.122c-.535-1.572-2.722-2.536-5.27-3.813s-6.065-1.641-8.341-3.135a46.377,46.377,0,0,1-4.443-3.4,86.909,86.909,0,0,1-18.606,3.421Z" transform="translate(-396.462 -320.517)" fill="#fff"/>
    <path id="Path_8088" data-name="Path 8088" d="M951.389,1292.764a22.02,22.02,0,0,0-5.829-9.379c-4.262-3.787-12.041-4.289-12.041-4.289s-3.922,3.671-6.307,3.576l.554,2.684a32.354,32.354,0,0,1,10.752,1.527A104.123,104.123,0,0,1,951.389,1292.764Z" transform="translate(-360.076 -165.46)" fill="#1a1a1a"/>
    <path id="Path_8089" data-name="Path 8089" d="M891.323,1233.74a11.716,11.716,0,0,0,6.579-6.053,19.754,19.754,0,0,0,.921-12.946c-.989-4.282-2.855-8.18-6.7-8.962a18.348,18.348,0,0,0-7.427.156,13.208,13.208,0,0,0-8.58-1.187c-4.806.993-10.214,4.629-10.1,14.191l5.207-.37,2.524-3.434.538,3.352,12.823-.317s.833-4.566.833-4.4-.277,5.514,1.207,8.592c0,0,5.01-1.546,6.247,2.235s-1.008,6.7-4.644,6.483,0-.218,0-.218Z" transform="translate(-326.004 -123.922)" fill="#1a1a1a"/>
    <path id="Path_8090" data-name="Path 8090" d="M927.748,1263.652a14.635,14.635,0,0,1,2.913,4.27c.656,1.96.039,4.469-5.384,6.214l-.566,0-1.6-7.453S926.7,1265.616,927.748,1263.652Z" transform="translate(-357.793 -156.861)" fill="#3232f5"/>
    <path id="Path_8091" data-name="Path 8091" d="M1020,1423.532s-10.369,2.732-8.466,13.905,10.73,13.053,14.262,11.782Z" transform="translate(-406.895 -245.874)" fill="#ccc"/>
    <path id="Path_8092" data-name="Path 8092" d="M695.471,1446.081c1.771,3.067,1.57,6.5-.448,7.663s-5.09-.376-6.861-3.443-1.57-6.5.448-7.663S693.7,1443.014,695.471,1446.081Z" transform="translate(-226.313 -256.295)" fill="#fff"/>
    <path id="Path_8093" data-name="Path 8093" d="M667.884,1522.226s-13.356,8.057-13.685,26.868h88.172a90.732,90.732,0,0,0,20.194,2.554c11.255.145,18.609-.778,24.147-2.441s8.525-3.429,10.369-7.346a19.282,19.282,0,0,0,1.82-7.528l-1.82-10.768s-6.652,3.95-17.522,2.516A83.169,83.169,0,0,1,761.9,1522Z" transform="translate(-208.076 -300.695)" fill="#1a1a1a"/>
    <path id="Path_8094" data-name="Path 8094" d="M411.459,1456.527s-9.317-3.281-8.466-11.64,5.688-15.24,10.9-20.5,16.249-15.831,27.1-19.554a163.418,163.418,0,0,1-3.864,20.738c-2.418,8.5-5.44,20.714-12.123,27.384S411.459,1456.527,411.459,1456.527Z" transform="translate(-68.186 -235.461)" fill="#1a1a1a"/>
    <path id="Path_8095" data-name="Path 8095" d="M367.682,1344.732l-14.762-67.141s-11.81,17.508-12.388,35.211A30.7,30.7,0,0,0,367.682,1344.732Z" transform="translate(-33.431 -164.622)" fill="#1a1a1a"/>
    <path id="Path_8096" data-name="Path 8096" d="M317.413,1168.216h102.2a10.514,10.514,0,0,0,10.483-10.483v-19.694l-18.863-9.638c-4.59-2.357-12.348-2.929-17.236-1.267l-14.139,4.8c-4.888,1.661-12.516.854-16.952-1.786l-15.157-9.03s-15.1-10.832-26.837,1.286c-8.35,8.624-13.984,14.3-13.984,14.3v21.028A10.514,10.514,0,0,0,317.413,1168.216Z" transform="translate(-14.734 -75.023)" fill="#1a1a1a"/>
    <path id="Path_8097" data-name="Path 8097" d="M505.472,1071.084a10.841,10.841,0,1,1,10.836-10.841A10.845,10.845,0,0,1,505.472,1071.084Z" transform="translate(-119.234 -37.578)" fill="#fff"/>
    <path id="Path_8098" data-name="Path 8098" d="M572.11,1232.857l-20.548-12.718a1.27,1.27,0,0,0-1.938,1.142l1.183,24.137a1.27,1.27,0,0,0,1.914,1.032l5.555-3.276a1.27,1.27,0,0,1,1.74.449l8.077,13.7a1.271,1.271,0,0,0,1.74.449l4.4-2.592a1.27,1.27,0,0,0,.449-1.74l-8.077-13.7a1.271,1.271,0,0,1,.449-1.74l5.036-2.969A1.271,1.271,0,0,0,572.11,1232.857Z" transform="translate(-149.853 -132.528)" fill="#3232f5"/>
    <rect id="Rectangle_477" data-name="Rectangle 477" width="46.016" height="32.112" rx="11.627" transform="translate(500.362 986.863)" fill="#3232f5"/>
    <path id="Path_8099" data-name="Path 8099" d="M840.469,996.212c-1.022-1.748-2.692-1.748-3.713,0l-7.844,13.434c-1.021,1.748-.2,3.179,1.824,3.179H846.5c2.024,0,2.845-1.43,1.823-3.178Z" transform="translate(-305.103 -7.234)" fill="#fff"/>
    <path id="Path_8100" data-name="Path 8100" d="M661.431,1158.392a6.32,6.32,0,1,1-6.32-6.32A6.32,6.32,0,0,1,661.431,1158.392Z" transform="translate(-205.064 -94.739)" fill="#3232f5"/>
    <path id="Path_8101" data-name="Path 8101" d="M650.091,1208.727a6.32,6.32,0,1,1-6.32-6.321A6.32,6.32,0,0,1,650.091,1208.727Z" transform="translate(-198.751 -122.762)" fill="#3232f5"/>
    <path id="Path_8102" data-name="Path 8102" d="M652.778,1279.367a6.32,6.32,0,1,1-6.32-6.32A6.32,6.32,0,0,1,652.778,1279.367Z" transform="translate(-200.247 -162.092)" fill="#3232f5"/>
    <path id="Path_8103" data-name="Path 8103" d="M322.171,1461.874a11.624,11.624,0,0,0,5.36-11.044c-.551-7.835-5.463-12.727-14.981-19.937s-27.366-12.866-27.366-12.866,2.981,9.758,4.4,13.777,8.27,21.238,14.832,27.36S317.008,1466.217,322.171,1461.874Z" transform="translate(-2.627 -242.809)" fill="#3232f5"/>
    <path id="Path_8104" data-name="Path 8104" d="M876.248,1211.227c2.74-5.121,3.7-5.973,8.013-5.291a1.123,1.123,0,0,0,.432,0,13.208,13.208,0,0,0-8.58-1.187c-4.806.993-10.214,4.629-10.1,14.191l5.207-.37,2.525-3.434.538,3.352,2.07-.051C875.964,1217.61,874.978,1213.6,876.248,1211.227Z" transform="translate(-326.004 -123.922)" fill="#fff"/>
    <g id="Group_4363" data-name="Group 4363" transform="translate(291.76 994.402)">
      <path id="Path_8105" data-name="Path 8105" d="M408.942,1109.6H316.865a10.932,10.932,0,0,1-10.92-10.921v-77.668a10.931,10.931,0,0,1,10.92-10.919h102.2a10.93,10.93,0,0,1,10.918,10.919v77.668a10.88,10.88,0,0,1-1.429,5.389.437.437,0,1,1-.758-.436,10,10,0,0,0,1.315-4.953v-77.668a10.058,10.058,0,0,0-10.046-10.046h-102.2a10.058,10.058,0,0,0-10.048,10.046v77.668a10.059,10.059,0,0,0,10.048,10.049h92.077a.436.436,0,0,1,0,.872Z" transform="translate(-305.945 -1010.095)"/>
    </g>
    <g id="Group_4364" data-name="Group 4364" transform="translate(577.291 1248.333)">
      <path id="Path_8106" data-name="Path 8106" d="M970.688,1583.853h-20.13a.436.436,0,0,1,0-.873h20.13a.436.436,0,1,1,0,.873Z" transform="translate(-950.122 -1582.98)"/>
    </g>
    <g id="Group_4365" data-name="Group 4365" transform="translate(291.76 1248.333)">
      <path id="Path_8107" data-name="Path 8107" d="M549.308,1583.853H306.381a.436.436,0,0,1,0-.873H549.308a.436.436,0,1,1,0,.873Z" transform="translate(-305.945 -1582.98)"/>
    </g>
    <g id="Group_4366" data-name="Group 4366" transform="translate(638.923 1248.333)">
      <path id="Path_8108" data-name="Path 8108" d="M1112.372,1583.853H1089.6a.436.436,0,1,1,0-.873h22.768a.436.436,0,1,1,0,.873Z" transform="translate(-1089.167 -1582.98)"/>
    </g>
    <g id="Group_4367" data-name="Group 4367" transform="translate(542.538 1094.476)">
      <path id="Path_8109" data-name="Path 8109" d="M879.574,1259.755a4.589,4.589,0,0,1-1.543-.253,5.388,5.388,0,0,1-2.414-1.889c-2.509-3.319-2.9-7.482-3.281-11.505l-.1-1.049c-.245-2.464-.516-8.669-.519-8.734a.439.439,0,0,1,.417-.454.467.467,0,0,1,.455.419c0,.062.274,6.244.516,8.681l.1,1.055c.367,3.9.747,7.939,3.107,11.063a4.545,4.545,0,0,0,2.01,1.592,6.2,6.2,0,0,0,3.465-.133c.314-.074.628-.145.94-.2a37.674,37.674,0,0,0,4.571-1.17.437.437,0,1,1,.268.831,38.811,38.811,0,0,1-4.677,1.2c-.3.056-.606.124-.911.194A11,11,0,0,1,879.574,1259.755Z" transform="translate(-871.716 -1235.869)"/>
    </g>
    <path id="Path_8110" data-name="Path 8110" d="M898.453,1244.74c-.353-.015-.568.16-.525,1.42.048,1.4.437,1.609.747,1.561s.575-.513.446-1.506S898.915,1244.76,898.453,1244.74Z" transform="translate(-343.769 -146.331)"/>
    <path id="Path_8111" data-name="Path 8111" d="M877.459,1246.48c-.352-.027-.573.14-.573,1.4,0,1.406.382,1.623.695,1.585s.592-.494.5-1.49S877.92,1246.515,877.459,1246.48Z" transform="translate(-332.057 -147.299)"/>
    <g id="Group_4368" data-name="Group 4368" transform="translate(542.773 1095.713)">
      <path id="Path_8112" data-name="Path 8112" d="M872.685,1240.362a.436.436,0,0,1-.32-.734,3.153,3.153,0,0,1,3.152-.905.437.437,0,0,1,.37.5.446.446,0,0,1-.494.371c-1.457-.221-1.984.195-2.388.634A.437.437,0,0,1,872.685,1240.362Z" transform="translate(-872.248 -1238.66)"/>
    </g>
    <g id="Group_4369" data-name="Group 4369" transform="translate(561.665 1097.613)">
      <path id="Path_8113" data-name="Path 8113" d="M918.469,1252.924a4.938,4.938,0,0,1-1.774-.327.436.436,0,1,1,.313-.814,4.116,4.116,0,0,0,3.822-7.222,4.062,4.062,0,0,0-3.076-.675,4.1,4.1,0,0,0-2.143,1.094.436.436,0,1,1-.607-.625,4.99,4.99,0,1,1,3.467,8.569Z" transform="translate(-914.869 -1242.946)"/>
    </g>
    <g id="Group_4370" data-name="Group 4370" transform="translate(562.842 1099.252)">
      <path id="Path_8114" data-name="Path 8114" d="M921.583,1252.288a.418.418,0,0,1-.156-.03l-3.623-1.394a.432.432,0,0,1-.264-.286.439.439,0,0,1,.07-.383l2.531-3.375a.433.433,0,0,1,.612-.088.439.439,0,0,1,.087.613l-2.184,2.912,3.083,1.188a.436.436,0,0,1-.156.843Z" transform="translate(-917.524 -1246.643)"/>
    </g>
    <g id="Group_4371" data-name="Group 4371" transform="translate(552.775 1117.067)">
      <path id="Path_8115" data-name="Path 8115" d="M899.712,1304.49a3.43,3.43,0,0,1-1.645-.395c-1.786-.976-2.309-3.455-2.429-4.192a16.059,16.059,0,0,1-.032-3.685c.027-.374.051-.751.069-1.132,0-.071.1-2.125.1-2.125l-.953-5.613a.435.435,0,0,1,.358-.5.427.427,0,0,1,.5.357l.96,5.707c.006.094-.089,2.17-.092,2.223-.018.38-.044.766-.071,1.149a15.14,15.14,0,0,0,.025,3.487c.1.637.547,2.777,1.984,3.561a3.112,3.112,0,0,0,2.5.056c5.189-1.869,7.272-8.522,8.107-13.775a.421.421,0,0,1,.5-.363.435.435,0,0,1,.364.5c-1.25,7.868-4.249,12.867-8.674,14.459A4.613,4.613,0,0,1,899.712,1304.49Z" transform="translate(-894.813 -1286.835)"/>
    </g>
    <g id="Group_4372" data-name="Group 4372" transform="translate(550.832 1106.76)">
      <path id="Path_8116" data-name="Path 8116" d="M891.645,1267.694a5.308,5.308,0,0,1-.844-.071.436.436,0,0,1-.366-.5.415.415,0,0,1,.5-.363,2.785,2.785,0,0,0,2.342-.484,3.248,3.248,0,0,0,.9-2.252.436.436,0,0,1,.873-.018,4.124,4.124,0,0,1-1.2,2.93A3.247,3.247,0,0,1,891.645,1267.694Z" transform="translate(-890.429 -1263.582)"/>
    </g>
    <g id="Group_4373" data-name="Group 4373" transform="translate(564.31 1107.11)">
      <path id="Path_8117" data-name="Path 8117" d="M924.011,1277.609a.436.436,0,0,1-.426-.342l-2.738-12.363a.437.437,0,0,1,.332-.522.445.445,0,0,1,.52.333l2.738,12.363a.437.437,0,0,1-.332.521A.475.475,0,0,1,924.011,1277.609Z" transform="translate(-920.836 -1264.373)"/>
    </g>
    <g id="Group_4374" data-name="Group 4374" transform="translate(546.152 1097.575)">
      <path id="Path_8118" data-name="Path 8118" d="M881.319,1253.392a.433.433,0,0,1-.389-.238c-.478-.938-1.514-3.207-.837-4.057.414-.524,1.58-.424,2.5-.247l-.339-5.524a.437.437,0,0,1,.873-.053l.374,6.1a.437.437,0,0,1-.541.451,4.718,4.718,0,0,0-2.2-.171c-.193.245.261,1.76.945,3.1a.436.436,0,0,1-.191.587A.43.43,0,0,1,881.319,1253.392Z" transform="translate(-879.87 -1242.861)"/>
    </g>
    <g id="Group_4377" data-name="Group 4377" transform="translate(595.484 1240.067)">
      <g id="Group_4376" data-name="Group 4376" transform="translate(0 0)">
        <g id="Group_4375" data-name="Group 4375">
          <path id="Path_8119" data-name="Path 8119" d="M994.791,1581.518a3.679,3.679,0,0,1-3.527-2.615c-.394-1.521.476-2.853,1.242-4.03.168-.256.332-.507.476-.752a27.7,27.7,0,0,1,1.744-2.443,20.171,20.171,0,0,0,3.281-5.273l.122-1.672a.436.436,0,1,1,.869.07l-.14,1.763a20.148,20.148,0,0,1-3.438,5.642,26.836,26.836,0,0,0-1.684,2.355c-.152.257-.323.519-.5.787-.7,1.076-1.427,2.188-1.129,3.334a2.816,2.816,0,0,0,3.266,1.893,4.252,4.252,0,0,0,2.031-1.321,19.1,19.1,0,0,0,1.573-2c.395-.551.8-1.117,1.253-1.648,1.128-1.324,2.565-2.651,4.775-2.464a44.669,44.669,0,0,1,11.631,2.376,30.128,30.128,0,0,1,3.233,1.518c2.954,1.524,6,3.107,8.955,1.76a1.624,1.624,0,0,0,.758-.578,1.5,1.5,0,0,0-.171-1.465,12.208,12.208,0,0,0-3.654-3.281l-.346-.238a37.473,37.473,0,0,0-10.5-4.74.436.436,0,1,1,.2-.849,38.149,38.149,0,0,1,10.8,4.869l.344.236a13.072,13.072,0,0,1,3.9,3.54,2.328,2.328,0,0,1,.178,2.376,2.421,2.421,0,0,1-1.142.926c-3.331,1.521-6.724-.23-9.72-1.781a29.005,29.005,0,0,0-3.137-1.474,43.828,43.828,0,0,0-11.4-2.323c-1.784-.18-3,.946-4.033,2.158-.429.5-.825,1.055-1.209,1.589a19.548,19.548,0,0,1-1.649,2.09,5.064,5.064,0,0,1-2.461,1.568A3.4,3.4,0,0,1,994.791,1581.518Z" transform="translate(-991.166 -1564.333)"/>
        </g>
      </g>
    </g>
    <g id="Group_4378" data-name="Group 4378" transform="translate(622.566 1241.335)">
      <path id="Path_8120" data-name="Path 8120" d="M1065.293,1579.95a4.294,4.294,0,0,1-.892-.086.436.436,0,0,1-.337-.516.446.446,0,0,1,.516-.339c.106.015,2.666.519,3.758-1.656a1.491,1.491,0,0,0-.022-1.344c-1.142-2.532-7.608-5.8-15.726-7.956a.437.437,0,0,1-.309-.534.426.426,0,0,1,.533-.309c7.063,1.869,14.841,5.205,16.3,8.443a2.336,2.336,0,0,1,.007,2.093A4.117,4.117,0,0,1,1065.293,1579.95Z" transform="translate(-1052.265 -1567.192)"/>
    </g>
    <g id="Group_4379" data-name="Group 4379" transform="translate(567.049 1119.474)">
      <path id="Path_8121" data-name="Path 8121" d="M959.746,1413.69a53.014,53.014,0,0,1-7.946-.519.436.436,0,0,1-.356-.356c-6.555-38.018-15.152-92.375-15.239-92.92a.435.435,0,0,1,.364-.5.421.421,0,0,1,.5.363c.086.543,8.635,54.6,15.182,92.6,2.307.322,17.457,2.129,32.68-4.616-.972-4.928-12.114-61.216-18.963-82.9-.79-2.5-7.99-20.272-16.57-25.5a44.339,44.339,0,0,0-21.946-6.208.436.436,0,0,1,0-.872,45.264,45.264,0,0,1,22.4,6.332c8.808,5.368,16.146,23.441,16.95,25.982,7.144,22.618,18.935,82.729,19.053,83.337a.436.436,0,0,1-.25.48A63.7,63.7,0,0,1,959.746,1413.69Z" transform="translate(-927.015 -1292.265)"/>
    </g>
    <g id="Group_4380" data-name="Group 4380" transform="translate(620.867 1236.648)">
      <path id="Path_8122" data-name="Path 8122" d="M1066.422,1570.083a.437.437,0,0,1-.3-.755,1.406,1.406,0,0,0,.342-1.214c-.156-.908-1.148-2.364-4.992-4.132a42.931,42.931,0,0,0-4.969-1.845c-3.331-1.079-6.206-2.008-8-4.85a.436.436,0,0,1,.737-.465c1.629,2.573,4.234,3.417,7.535,4.484a44.6,44.6,0,0,1,5.066,1.881c3.384,1.559,5.231,3.178,5.491,4.808a2.294,2.294,0,0,1-.61,1.975A.443.443,0,0,1,1066.422,1570.083Z" transform="translate(-1048.433 -1556.618)"/>
    </g>
    <g id="Group_4381" data-name="Group 4381" transform="translate(476.896 1221.205)">
      <path id="Path_8123" data-name="Path 8123" d="M724.062,1549.778a.438.438,0,0,1-.436-.448c.2-7.653,1.069-15.361,6.016-19.915a28.978,28.978,0,0,1,16.137-7.632.428.428,0,0,1,.5.371.436.436,0,0,1-.369.5,28.108,28.108,0,0,0-15.672,7.408c-4.71,4.336-5.54,11.836-5.737,19.3A.437.437,0,0,1,724.062,1549.778Z" transform="translate(-723.625 -1521.778)"/>
    </g>
    <g id="Group_4382" data-name="Group 4382" transform="translate(521.184 1233.202)">
      <path id="Path_8124" data-name="Path 8124" d="M858.106,1567.031c-26.491,0-34.135-8.248-34.455-8.61a.436.436,0,0,1,.651-.581c.08.089,8.191,8.758,36.082,8.3,28.319-.5,31.276-7.319,32.364-16.908a.441.441,0,0,1,.482-.383.434.434,0,0,1,.384.484c-1.137,10.031-4.184,17.174-33.215,17.681C859.622,1567.025,858.856,1567.031,858.106,1567.031Z" transform="translate(-823.541 -1548.843)"/>
    </g>
    <g id="Group_4383" data-name="Group 4383" transform="translate(539.405 1080.279)">
      <path id="Path_8125" data-name="Path 8125" d="M890.782,1233.813a.437.437,0,0,1-.145-.849c6.5-2.276,9.286-10.665,6.623-19.951-.941-3.284-2.6-5.545-4.947-6.727-3.8-1.916-8.181-.321-8.227-.3a.441.441,0,0,1-.33-.011c-.438-.192-10.81-4.675-16.14,4.1a12.344,12.344,0,0,0-2,8.036l5.151-.413,1.869-3.36a.427.427,0,0,1,.456-.218.436.436,0,0,1,.356.357l.56,3.308,11.971-.4.711-4.23a.433.433,0,0,1,.46-.362.437.437,0,0,1,.407.422c0,.065.234,6.541,1.228,8.6a.436.436,0,0,1-.787.377,18.852,18.852,0,0,1-1.06-5.238l-.156.931a.435.435,0,0,1-.416.363l-12.709.425a.5.5,0,0,1-.445-.363l-.416-2.455-1.378,2.476a.442.442,0,0,1-.347.224l-5.776.463a.452.452,0,0,1-.458-.321c-.044-.162-1.031-4.017,2.034-9.07,5.35-8.814,15.645-5.082,17.077-4.516a12.118,12.118,0,0,1,8.754.4c2.572,1.294,4.389,3.741,5.4,7.269,2.794,9.745-.222,18.583-7.174,21.018A.416.416,0,0,1,890.782,1233.813Z" transform="translate(-864.649 -1203.839)"/>
    </g>
    <g id="Group_4384" data-name="Group 4384" transform="translate(552.035 1095.072)">
      <path id="Path_8126" data-name="Path 8126" d="M898.935,1239.958a.439.439,0,0,1-.345-.168c-2.21-2.844-4.663-1.294-4.769-1.226a.44.44,0,0,1-.6-.127.433.433,0,0,1,.122-.6c.036-.021,3.228-2.081,5.941,1.418a.436.436,0,0,1-.345.7Z" transform="translate(-893.143 -1237.214)"/>
    </g>
    <g id="Group_4385" data-name="Group 4385" transform="translate(603.956 1177.222)">
      <path id="Path_8127" data-name="Path 8127" d="M1025.78,1449.36c-6.491,1.339-12.7-3.393-14.173-10.513s1.946-13.977,8.438-15.316Z" transform="translate(-1010.831 -1423.096)" fill="#1a1a1a"/>
      <path id="Path_8128" data-name="Path 8128" d="M1023,1449.478c-5.813,0-11.013-4.49-12.375-11.089a15.045,15.045,0,0,1,1.276-10.12,10.934,10.934,0,0,1,7.5-5.713.446.446,0,0,1,.516.339.436.436,0,0,1-.339.516,10.072,10.072,0,0,0-6.907,5.268,14.183,14.183,0,0,0-1.192,9.533c1.441,6.986,7.442,11.443,13.659,10.173a.436.436,0,1,1,.177.854A11.5,11.5,0,0,1,1023,1449.478Z" transform="translate(-1010.28 -1422.548)"/>
    </g>
    <g id="Group_4386" data-name="Group 4386" transform="translate(428.871 1158.879)">
      <path id="Path_8129" data-name="Path 8129" d="M705.155,1437.644a.436.436,0,0,1-.28-.772c2.492-2.075,3.294-6.88,2.3-9.477l-14.937-38.9c-1.481-3.862-5.792-6.455-10.724-6.455H624.818c-2.617,0-7,1.7-8.873,2.871a.438.438,0,0,1-.463-.743c1.957-1.224,6.566-3,9.336-3h56.694c5.292,0,9.93,2.818,11.54,7.016l14.937,38.9c1.12,2.918.249,8.124-2.554,10.461A.439.439,0,0,1,705.155,1437.644Z" transform="translate(-615.276 -1381.167)"/>
    </g>
    <g id="Group_4387" data-name="Group 4387" transform="translate(423.068 1160.504)">
      <path id="Path_8130" data-name="Path 8130" d="M685.943,1443.923H629.25c-5.292,0-9.93-2.818-11.541-7.016l-4.184-10.9a.437.437,0,0,1,.816-.312l4.184,10.9c1.482,3.861,5.793,6.455,10.724,6.455h56.693a11.724,11.724,0,0,0,9.8-4.708,7.68,7.68,0,0,0,.921-7.281l-14.937-38.9c-1.483-3.862-5.792-6.459-10.724-6.459h-56.7a11.716,11.716,0,0,0-9.8,4.711,7.679,7.679,0,0,0-.922,7.281L608,1409.174a.437.437,0,0,1-.252.563.432.432,0,0,1-.565-.251l-4.408-11.478a8.526,8.526,0,0,1,1.019-8.089,12.587,12.587,0,0,1,10.522-5.088h56.7c5.291,0,9.928,2.821,11.54,7.019l14.936,38.9a8.523,8.523,0,0,1-1.017,8.086A12.593,12.593,0,0,1,685.943,1443.923Z" transform="translate(-602.184 -1384.832)"/>
    </g>
    <g id="Group_4388" data-name="Group 4388" transform="translate(462.192 1182.977)">
      <path id="Path_8131" data-name="Path 8131" d="M697.447,1448.294a4.931,4.931,0,0,1-2.211-.572,9.37,9.37,0,0,1-4.774-8.269,3.741,3.741,0,0,1,5.8-3.349,9.367,9.367,0,0,1,4.776,8.269,4.074,4.074,0,0,1-1.863,3.469A3.411,3.411,0,0,1,697.447,1448.294Zm-3.393-11.886a2.558,2.558,0,0,0-1.292.33,3.247,3.247,0,0,0-1.428,2.765,8.512,8.512,0,0,0,4.295,7.437,2.88,2.88,0,0,0,4.537-2.618,8.5,8.5,0,0,0-4.295-7.437A4.077,4.077,0,0,0,694.054,1436.408Z" transform="translate(-690.451 -1435.532)"/>
    </g>
    <g id="Group_4389" data-name="Group 4389" transform="translate(444.923 1214.466)">
      <path id="Path_8132" data-name="Path 8132" d="M751.516,1514.094H654.761a3.456,3.456,0,0,1-3.269-3.37.454.454,0,0,1,.908,0,2.546,2.546,0,0,0,2.361,2.461h96.755a2.268,2.268,0,0,0,2.361-2.155v-1.394a2.268,2.268,0,0,0-2.361-2.155H723.2a.454.454,0,0,1,0-.908h28.319a3.174,3.174,0,0,1,3.269,3.063v1.394A3.174,3.174,0,0,1,751.516,1514.094Z" transform="translate(-651.492 -1506.574)"/>
    </g>
    <g id="Group_4390" data-name="Group 4390" transform="translate(445.687 1221.097)">
      <path id="Path_8133" data-name="Path 8133" d="M653.651,1549.271a.435.435,0,0,1-.436-.436c.055-18.35,14.413-27.155,14.559-27.24a.436.436,0,0,1,.448.749,32.321,32.321,0,0,0-14.135,26.491A.436.436,0,0,1,653.651,1549.271Z" transform="translate(-653.215 -1521.534)"/>
    </g>
    <g id="Group_4391" data-name="Group 4391" transform="translate(544.511 1221.095)">
      <path id="Path_8134" data-name="Path 8134" d="M907.685,1526.659c-.877,0-1.782-.041-2.709-.127-8.375-.793-18.869-3.862-19.775-4.13h-8.6a.436.436,0,0,1,0-.873h8.659c.236.05,11.165,3.316,19.794,4.13a29.966,29.966,0,0,0,15.4-2.741.432.432,0,0,1,.589.183.436.436,0,0,1-.183.589A30.648,30.648,0,0,1,907.685,1526.659Z" transform="translate(-876.169 -1521.53)"/>
    </g>
    <g id="Group_4392" data-name="Group 4392" transform="translate(566.464 1106.507)">
      <path id="Path_8135" data-name="Path 8135" d="M926.133,1274.216a.436.436,0,0,1-.111-.858c3.475-.908,5.423-2.231,5.787-3.932.579-2.7-2.991-5.612-3.027-5.642a.437.437,0,0,1-.066-.613.452.452,0,0,1,.614-.068c.164.133,4.025,3.278,3.334,6.5-.438,2.054-2.6,3.6-6.421,4.6A.359.359,0,0,1,926.133,1274.216Z" transform="translate(-925.696 -1263.013)"/>
    </g>
    <g id="Group_4393" data-name="Group 4393" transform="translate(572.641 1113.25)">
      <path id="Path_8136" data-name="Path 8136" d="M958.541,1292.958a.437.437,0,0,1-.41-.286c-5.53-14.945-17.886-13.554-18.007-13.536a.42.42,0,0,1-.489-.378.436.436,0,0,1,.378-.489c.135-.018,13.169-1.495,18.938,14.1a.436.436,0,0,1-.258.56A.444.444,0,0,1,958.541,1292.958Z" transform="translate(-939.632 -1278.225)"/>
    </g>
    <g id="Group_4394" data-name="Group 4394" transform="translate(511.395 1120.989)">
      <path id="Path_8137" data-name="Path 8137" d="M801.894,1354.589a.438.438,0,0,1-.367-.675c3.659-5.633,6.282-12.31,8.5-21.654,8.366-35.232,33.634-36.567,33.888-36.576a.437.437,0,1,1,.032.873c-.247.008-24.865,1.35-33.071,35.9-2.243,9.448-4.9,16.21-8.616,21.932A.441.441,0,0,1,801.894,1354.589Z" transform="translate(-801.456 -1295.683)"/>
    </g>
    <g id="Group_4395" data-name="Group 4395" transform="translate(420.97 1032.328)">
      <path id="Path_8138" data-name="Path 8138" d="M764.274,1177.4a.435.435,0,0,1-.437-.436v-70.39a10.184,10.184,0,0,0-10.294-10.046H597.888a.436.436,0,1,1,0-.873H753.544a11.058,11.058,0,0,1,11.166,10.919v70.39A.435.435,0,0,1,764.274,1177.4Z" transform="translate(-597.451 -1095.659)"/>
    </g>
    <g id="Group_4396" data-name="Group 4396" transform="translate(324.504 1093.038)">
      <path id="Path_8139" data-name="Path 8139" d="M380.254,1246.426a.436.436,0,0,1-.437-.436V1233.06a.436.436,0,0,1,.873,0v12.929A.436.436,0,0,1,380.254,1246.426Z" transform="translate(-379.817 -1232.624)"/>
    </g>
    <g id="Group_4397" data-name="Group 4397" transform="translate(367.833 1214.484)">
      <path id="Path_8140" data-name="Path 8140" d="M547.366,1507.486H478.008a.436.436,0,1,1,0-.872h69.358a.436.436,0,0,1,0,.872Z" transform="translate(-477.571 -1506.614)"/>
    </g>
    <g id="Group_4400" data-name="Group 4400" transform="translate(291.759 1011.39)">
      <g id="Group_4398" data-name="Group 4398" transform="translate(0 29.84)">
        <path id="Path_8141" data-name="Path 8141" d="M429.548,1137.963a.436.436,0,0,1-.2-.047l-18.862-9.636a24.85,24.85,0,0,0-16.9-1.244l-14.141,4.8c-5,1.7-12.764.884-17.315-1.825l-15.158-9.029c-.177-.124-14.967-10.482-26.3,1.214-8.256,8.528-13.931,14.252-13.988,14.308a.436.436,0,1,1-.619-.613c.056-.059,5.727-5.777,13.98-14.3,11.862-12.253,27.251-1.447,27.407-1.335l15.126,9.008a22.657,22.657,0,0,0,16.587,1.748l14.141-4.8c4.989-1.7,12.879-1.123,17.575,1.291l18.861,9.636a.437.437,0,0,1-.2.825Z" transform="translate(-305.943 -1115.742)"/>
      </g>
      <g id="Group_4399" data-name="Group 4399" transform="translate(76.375)">
        <path id="Path_8142" data-name="Path 8142" d="M489.53,1070.975A11.277,11.277,0,1,1,500.8,1059.7,11.292,11.292,0,0,1,489.53,1070.975Zm0-21.681a10.4,10.4,0,1,0,10.4,10.4A10.417,10.417,0,0,0,489.53,1049.294Z" transform="translate(-478.249 -1048.421)"/>
      </g>
    </g>
    <g id="Group_4401" data-name="Group 4401" transform="translate(529.885 1146.095)">
      <path id="Path_8143" data-name="Path 8143" d="M843.608,1421.586a.436.436,0,0,1-.159-.843c4.875-1.9,5.439-16.4,5.057-23.8-1.457-28.266-1.263-35.506.1-44.237a.41.41,0,0,1,.5-.363.435.435,0,0,1,.364.5c-1.353,8.661-1.543,15.868-.092,44.055.117,2.255.948,22.1-5.611,24.664A.437.437,0,0,1,843.608,1421.586Z" transform="translate(-843.171 -1352.325)"/>
    </g>
    <g id="Group_4402" data-name="Group 4402" transform="translate(521.154 1192.447)">
      <path id="Path_8144" data-name="Path 8144" d="M823.91,1479.624a.437.437,0,0,1-.245-.8c10.072-6.806,13.945-21.448,13.983-21.6a.421.421,0,0,1,.532-.312.435.435,0,0,1,.314.531c-.039.15-4,15.113-14.34,22.1A.439.439,0,0,1,823.91,1479.624Z" transform="translate(-823.473 -1456.898)"/>
    </g>
    <g id="Group_4403" data-name="Group 4403" transform="translate(519.613 989.217)">
      <path id="Path_8145" data-name="Path 8145" d="M838.458,1017.192H822.7a2.36,2.36,0,0,1-2.2-3.835l7.844-13.431a2.4,2.4,0,0,1,4.468,0l7.852,13.434a2.359,2.359,0,0,1-2.2,3.835Zm-7.884-17.921a1.848,1.848,0,0,0-1.48,1.1L821.25,1013.8a1.511,1.511,0,0,0,1.448,2.52h15.76a1.51,1.51,0,0,0,1.446-2.52l-7.851-13.434A1.846,1.846,0,0,0,830.574,999.271Z" transform="translate(-819.996 -998.397)"/>
    </g>
    <g id="Group_4404" data-name="Group 4404" transform="translate(506.879 982.123)">
      <path id="Path_8146" data-name="Path 8146" d="M827.874,1015.377H797.5a6.236,6.236,0,0,1-6.229-6.229V988.622a6.236,6.236,0,0,1,6.229-6.229h34.43a6.236,6.236,0,0,1,6.23,6.229v16.9a.436.436,0,1,1-.872,0v-16.9a5.363,5.363,0,0,0-5.358-5.356H797.5a5.362,5.362,0,0,0-5.356,5.356v20.527a5.362,5.362,0,0,0,5.356,5.356h30.378a.436.436,0,1,1,0,.873Z" transform="translate(-791.267 -982.393)"/>
    </g>
    <g id="Group_4405" data-name="Group 4405" transform="translate(313.389 1116.966)">
      <path id="Path_8147" data-name="Path 8147" d="M382.345,1354.627c-.243-.032-17.778-2.883-24.738-17.486-5.9-12.389-2.675-29.318,9.6-50.313a.406.406,0,0,1,.445-.209.434.434,0,0,1,.358.336l14.762,67.142a.431.431,0,0,1-.108.392A.436.436,0,0,1,382.345,1354.627ZM367.4,1288.24c-11.654,20.281-14.683,36.6-9,48.524,6.019,12.632,20.209,16.219,23.381,16.877Z" transform="translate(-354.743 -1286.608)"/>
    </g>
    <g id="Group_4406" data-name="Group 4406" transform="translate(285.377 1171.839)">
      <path id="Path_8148" data-name="Path 8148" d="M321.6,1457.9c-4.563,0-9.132-3.051-13.651-9.138a.436.436,0,1,1,.7-.519c6.606,8.9,13.261,11.019,19.781,6.305,4.719-3.414,6.492-7.644,5.271-12.575-3.341-13.471-27.64-28.325-41.128-30.592.551,2.007,2.394,8.463,5.246,15.844a.436.436,0,1,1-.813.312,170.883,170.883,0,0,1-5.452-16.582.436.436,0,0,1,.1-.4.44.44,0,0,1,.386-.141c13.56,1.91,39.041,17.35,42.512,31.349,1.317,5.312-.569,9.852-5.605,13.493A12.475,12.475,0,0,1,321.6,1457.9Z" transform="translate(-291.544 -1410.405)"/>
    </g>
    <g id="Group_4407" data-name="Group 4407" transform="translate(338.68 1171.838)">
      <path id="Path_8149" data-name="Path 8149" d="M425.192,1463.9a13.142,13.142,0,0,1-5.82-1.474c-5.4-2.667-7.939-6.753-7.53-12.142,1.109-14.642,24.681-35.545,38.265-39.857a.415.415,0,0,1,.41.079.429.429,0,0,1,.156.386c-.2,1.766-5.1,43.385-20.172,51.613A10.963,10.963,0,0,1,425.192,1463.9Zm24.529-52.423c-13.461,4.684-35.941,24.767-37.008,38.873-.379,5,1.992,8.8,7.045,11.293,3.661,1.81,7.135,1.839,10.325.1C443.734,1454.287,449.01,1417,449.721,1411.476Z" transform="translate(-411.799 -1410.403)"/>
    </g>
    <g id="Group_4408" data-name="Group 4408" transform="translate(299.888 1183.367)">
      <path id="Path_8150" data-name="Path 8150" d="M359.837,1502.118a.436.436,0,0,1-.42-.319c-11.938-42.61-34.768-64.418-35-64.633a.437.437,0,0,1,.6-.637c.232.218,23.236,22.191,35.239,65.034a.435.435,0,0,1-.3.539A.548.548,0,0,1,359.837,1502.118Z" transform="translate(-324.282 -1436.412)"/>
    </g>
    <g id="Group_4409" data-name="Group 4409" transform="translate(340.555 1219.964)">
      <path id="Path_8151" data-name="Path 8151" d="M416.468,1548.087a.44.44,0,0,1-.436-.454l1.058-28.237a.437.437,0,0,1,.873.035l-1.058,28.237A.438.438,0,0,1,416.468,1548.087Z" transform="translate(-416.031 -1518.977)"/>
    </g>
    <g id="Group_4410" data-name="Group 4410" transform="translate(340.556 1184.11)">
      <path id="Path_8152" data-name="Path 8152" d="M417.018,1457.582a.436.436,0,0,1-.437-.424l-.55-18.618a.436.436,0,0,1,.423-.449.43.43,0,0,1,.45.425l.55,18.618a.436.436,0,0,1-.423.448Z" transform="translate(-416.032 -1438.089)"/>
    </g>
    <g id="Group_4411" data-name="Group 4411" transform="translate(346.591 1181.174)">
      <path id="Path_8153" data-name="Path 8153" d="M431.31,1499.5a.439.439,0,0,1-.432-.366c-7.253-44.983,19.9-67.348,20.175-67.569a.434.434,0,0,1,.613.068.439.439,0,0,1-.068.616c-.27.215-27.027,22.285-19.856,66.743a.437.437,0,0,1-.363.5A.265.265,0,0,1,431.31,1499.5Z" transform="translate(-429.648 -1431.465)"/>
    </g>
    <g id="Group_4412" data-name="Group 4412" transform="translate(396.638 1081.961)">
      <path id="Path_8154" data-name="Path 8154" d="M562.562,1246.505a1.788,1.788,0,0,1-.432-.053,1.694,1.694,0,0,1-1.04-.787l-8.077-13.7a.834.834,0,0,0-.512-.383.825.825,0,0,0-.63.089l-5.555,3.278a1.71,1.71,0,0,1-2.574-1.391l-1.182-24.136a1.707,1.707,0,0,1,2.6-1.533l20.547,12.717a1.709,1.709,0,0,1-.031,2.925l-5.038,2.968a.838.838,0,0,0-.293,1.144l8.077,13.7a1.71,1.71,0,0,1-.6,2.338l-4.4,2.591A1.7,1.7,0,0,1,562.562,1246.505Zm-10.274-15.824a1.709,1.709,0,0,1,1.476.843l8.077,13.7a.828.828,0,0,0,.508.383.851.851,0,0,0,.633-.091l4.4-2.591a.837.837,0,0,0,.3-1.141l-8.079-13.7a1.716,1.716,0,0,1,.6-2.34l5.038-2.968a.822.822,0,0,0,.41-.708.832.832,0,0,0-.4-.719L544.7,1208.632a.835.835,0,0,0-1.272.749l1.183,24.136a.825.825,0,0,0,.438.693.838.838,0,0,0,.82-.015l5.553-3.278A1.7,1.7,0,0,1,552.288,1230.682Z" transform="translate(-542.557 -1207.634)"/>
    </g>
    <g id="Group_4413" data-name="Group 4413" transform="translate(467.295 1064.683)">
      <path id="Path_8155" data-name="Path 8155" d="M760,1169.527H702.4a.436.436,0,0,1,0-.873H760a.436.436,0,0,1,0,.873Z" transform="translate(-701.965 -1168.654)"/>
    </g>
    <g id="Group_4414" data-name="Group 4414" transform="translate(467.295 1074.393)">
      <path id="Path_8156" data-name="Path 8156" d="M760,1191.433H702.4a.436.436,0,0,1,0-.873H760a.436.436,0,0,1,0,.873Z" transform="translate(-701.965 -1190.56)"/>
    </g>
    <g id="Group_4415" data-name="Group 4415" transform="translate(440.944 1063.327)">
      <path id="Path_8157" data-name="Path 8157" d="M649.271,1179.108a6.756,6.756,0,1,1,6.756-6.756A6.764,6.764,0,0,1,649.271,1179.108Zm0-12.64a5.884,5.884,0,1,0,5.884,5.884A5.89,5.89,0,0,0,649.271,1166.468Z" transform="translate(-642.514 -1165.595)"/>
    </g>
    <g id="Group_4416" data-name="Group 4416" transform="translate(467.295 1090.833)">
      <path id="Path_8158" data-name="Path 8158" d="M760,1228.523H702.4a.436.436,0,0,1,0-.872H760a.436.436,0,0,1,0,.872Z" transform="translate(-701.965 -1227.65)"/>
    </g>
    <g id="Group_4417" data-name="Group 4417" transform="translate(467.295 1100.543)">
      <path id="Path_8159" data-name="Path 8159" d="M760,1250.429H702.4a.436.436,0,0,1,0-.873H760a.436.436,0,0,1,0,.873Z" transform="translate(-701.965 -1249.556)"/>
    </g>
    <g id="Group_4418" data-name="Group 4418" transform="translate(440.944 1089.477)">
      <path id="Path_8160" data-name="Path 8160" d="M649.271,1238.1a6.756,6.756,0,1,1,6.756-6.756A6.763,6.763,0,0,1,649.271,1238.1Zm0-12.64a5.884,5.884,0,1,0,5.884,5.884A5.89,5.89,0,0,0,649.271,1225.463Z" transform="translate(-642.514 -1224.591)"/>
    </g>
    <g id="Group_4419" data-name="Group 4419" transform="translate(467.295 1116.812)">
      <path id="Path_8161" data-name="Path 8161" d="M760,1287.132H702.4a.436.436,0,1,1,0-.872H760a.436.436,0,1,1,0,.872Z" transform="translate(-701.965 -1286.26)"/>
    </g>
    <g id="Group_4420" data-name="Group 4420" transform="translate(467.295 1126.522)">
      <path id="Path_8162" data-name="Path 8162" d="M760,1309.038H702.4a.436.436,0,0,1,0-.872H760a.436.436,0,1,1,0,.872Z" transform="translate(-701.965 -1308.166)"/>
    </g>
    <g id="Group_4421" data-name="Group 4421" transform="translate(440.944 1115.456)">
      <path id="Path_8163" data-name="Path 8163" d="M649.271,1296.713a6.756,6.756,0,1,1,6.756-6.756A6.764,6.764,0,0,1,649.271,1296.713Zm0-12.64a5.884,5.884,0,1,0,5.884,5.884A5.89,5.89,0,0,0,649.271,1284.073Z" transform="translate(-642.514 -1283.2)"/>
    </g>
    <g id="Group_4422" data-name="Group 4422" transform="translate(363.862 1143.858)">
      <path id="Path_8164" data-name="Path 8164" d="M514.441,1364.8H469.049a.436.436,0,1,1,0-.872H514v-16.21a.436.436,0,0,1,.873,0v16.646A.435.435,0,0,1,514.441,1364.8Z" transform="translate(-468.613 -1347.277)"/>
    </g>
    <g id="Group_4423" data-name="Group 4423" transform="translate(350.952 1122.091)">
      <path id="Path_8165" data-name="Path 8165" d="M439.924,1332.645a.436.436,0,0,1-.437-.437v-33.6a.435.435,0,0,1,.437-.436h53.8a.436.436,0,0,1,0,.872H440.36v33.165A.435.435,0,0,1,439.924,1332.645Z" transform="translate(-439.487 -1298.171)"/>
    </g>
  </g>
</svg>
