<svg enable-background="new 0 0 50 50" viewBox="0 0 50 50" xmlns="http://www.w3.org/2000/svg"><g fill="#fff"><path d="m25 15.6s-7.2-.3-9.3 7.4h18.6c0-.1-1.5-7.3-9.3-7.4z"/><path d="m44.6 44.5-2.8-2.7s-.7-.5.7-1.9c3.4-4 5.5-9.2 5.5-14.9 0-12.7-10.3-23-23-23s-23 10.3-23 23 10.3 23 23 23c3.8 0 7.3-.9 10.4-2.5s.8-.4 1.8.2l3.1 1.4s.7.5 1.6 0l2.6-1.7c.1 0 .7-.4.1-.9zm-5.4-17.5h-23.4c2 7.8 9.2 7.5 9.2 7.5 4.8 0 7.4-3.6 7.4-3.6h5.6c-3.6 8.5-13 8.5-13 8.5-12.9-.6-14.2-12.3-14.2-12.3-1.4-10.7 7.7-14.8 7.7-14.8 7.1-3.5 13.1.1 13.1.1 9.3 5 7.6 14.6 7.6 14.6z"/></g></svg>