<?xml version="1.0" standalone="no"?>
<!DOCTYPE svg PUBLIC "-//W3C//DTD SVG 20010904//EN"
 "http://www.w3.org/TR/2001/REC-SVG-20010904/DTD/svg10.dtd">
<svg version="1.0" xmlns="http://www.w3.org/2000/svg"
 width="180.000000pt" height="180.000000pt" viewBox="0 0 180.000000 180.000000"
 preserveAspectRatio="xMidYMid meet">
<metadata>
Created by potrace 1.11, written by Peter Selinger 2001-2013
</metadata>
<g transform="translate(0.000000,180.000000) scale(0.100000,-0.100000)"
fill="#000000" stroke="none">
<path d="M715 1750 c-103 -26 -128 -35 -203 -73 -289 -144 -474 -441 -476
-762 -1 -126 6 -177 35 -272 80 -258 283 -473 531 -562 51 -18 75 -25 143 -40
38 -8 280 -8 320 1 65 13 123 31 193 60 l72 30 78 -36 c42 -20 86 -38 98 -40
19 -4 75 24 134 67 l24 17 -69 70 c-52 53 -67 74 -60 84 6 7 31 40 58 72 193
240 238 603 109 886 -48 104 -101 179 -191 268 -122 121 -263 197 -436 236
-67 16 -288 11 -360 -6z m381 -345 c170 -64 301 -215 339 -392 11 -46 13 -160
4 -175 -7 -10 -90 -13 -436 -15 -235 0 -433 -2 -440 -2 -26 -2 28 -111 85
-171 134 -140 365 -145 503 -10 l36 35 101 0 c67 0 102 -3 102 -10 0 -21 -60
-105 -111 -155 -168 -165 -422 -200 -633 -87 -107 57 -229 198 -253 292 -25
100 -30 138 -28 198 1 40 7 94 14 122 50 208 246 379 461 402 30 3 56 6 57 8
9 7 147 -20 199 -40z"/>
<path d="M820 1249 c-90 -26 -163 -76 -209 -143 -31 -47 -65 -125 -53 -127 4
-1 161 -2 350 -3 387 -2 361 -8 317 81 -32 67 -106 139 -174 169 -62 28 -175
39 -231 23z"/>
</g>
</svg>
