<svg id="Group_6419" data-name="Group 6419" xmlns="http://www.w3.org/2000/svg" width="61.796" height="53.258" viewBox="0 0 61.796 53.258">
  <path id="Path_9481" data-name="Path 9481" d="M9.045,60.156A8.994,8.994,0,0,1,1.421,55.79a10.1,10.1,0,0,1-.311-9.771l20.2-33.057C23.6,9.6,26.578,6.9,30.909,6.9s7.311,2.7,9.6,6.064L60.6,45.845a10.079,10.079,0,0,1-.242,9.945,8.948,8.948,0,0,1-7.623,4.366ZM30.909,42.9a3.309,3.309,0,1,1-3.326,3.326A3.3,3.3,0,0,1,30.909,42.9Zm0-3.292a2.33,2.33,0,0,1-2.217-2.217l-1.109-9.945c-.174-1.7,1.629-3.292,3.326-3.292s3.5,1.594,3.292,3.292l-1.109,9.945A2.274,2.274,0,0,1,30.909,39.608ZM9.045,55.756H52.739a4.574,4.574,0,0,0,3.881-2.287,5.744,5.744,0,0,0,.174-5.405L36.835,15.422c-1.421-2.079-3.188-4.123-5.925-4.123s-4.539,2.044-5.96,4.123L5.025,48.063A5.554,5.554,0,0,0,5.2,53.468,4.475,4.475,0,0,0,9.045,55.756Z" transform="translate(-0.003 -6.898)" fill="#fff"/>
</svg>
