<svg xmlns="http://www.w3.org/2000/svg" width="60.948" height="51.61" viewBox="0 0 60.948 51.61">
  <path id="Path_9359" data-name="Path 9359" d="M58.6,18.43H47.042V12.493a3.7,3.7,0,0,0-3.7-3.7H20.289a3.7,3.7,0,0,0-3.7,3.7V18.43H5.039a3.7,3.7,0,0,0-3.7,3.7V56.712a3.7,3.7,0,0,0,3.7,3.7H58.6a3.7,3.7,0,0,0,3.7-3.7V22.126A3.7,3.7,0,0,0,58.6,18.43ZM20.289,11.519H43.345a.976.976,0,0,1,.976.975V18.43H19.314V12.493A.976.976,0,0,1,20.289,11.519ZM59.572,22.126V34.663a103.391,103.391,0,0,1-20.409,3.547V36.865A1.362,1.362,0,0,0,37.8,35.5H25.834a1.362,1.362,0,0,0-1.36,1.36v1.347A103.108,103.108,0,0,1,4.065,34.663V22.126a.976.976,0,0,1,.975-.975H58.6A.976.976,0,0,1,59.572,22.126ZM36.44,38.226v5.6H27.195v-5.6ZM4.065,37.484a106.074,106.074,0,0,0,20.409,3.455v4.244a1.361,1.361,0,0,0,1.36,1.36H37.8a1.362,1.362,0,0,0,1.36-1.36V40.939a106.075,106.075,0,0,0,20.409-3.457V56.711a.978.978,0,0,1-.976.976H5.039a.976.976,0,0,1-.975-.975Z" transform="translate(-1.344 -8.798)"/>
</svg>
