<svg xmlns="http://www.w3.org/2000/svg" width="19.909" height="16.051" viewBox="0 0 19.909 16.051">
  <path id="Icon_awesome-github-alt" data-name="Icon awesome-github-alt" d="M7.614,10.829c0,.855-.446,2.254-1.5,2.254s-1.5-1.4-1.5-2.254.446-2.254,1.5-2.254,1.5,1.4,1.5,2.254ZM19.638,8.763a8.867,8.867,0,0,1-.716,3.887c-1.551,3.134-5.814,3.06-8.866,3.06-3.1,0-7.618.11-9.23-3.06A8.757,8.757,0,0,1,0,8.763,7.036,7.036,0,0,1,1.7,4.116a6.4,6.4,0,0,1-.315-2A4.074,4.074,0,0,1,1.98,0,6.392,6.392,0,0,1,6.431,1.473a15.671,15.671,0,0,1,3.629-.409,14.113,14.113,0,0,1,3.289.376A6.323,6.323,0,0,1,17.76,0a4.036,4.036,0,0,1,.6,2.119,6.314,6.314,0,0,1-.315,1.972,7.049,7.049,0,0,1,1.6,4.672Zm-2.631,2.066A3.091,3.091,0,0,0,14,7.45a16.821,16.821,0,0,0-2.291.245,12.021,12.021,0,0,1-1.845.131A12.094,12.094,0,0,1,8.019,7.7,16.549,16.549,0,0,0,5.728,7.45a3.091,3.091,0,0,0-3.007,3.379c0,3.592,3.289,4.144,6.153,4.144h1.972c2.876,0,6.161-.548,6.161-4.144ZM13.628,8.575c-1.056,0-1.5,1.4-1.5,2.254s.446,2.254,1.5,2.254,1.5-1.4,1.5-2.254S14.683,8.575,13.628,8.575Z" transform="matrix(1, 0.017, -0.017, 1, 0.274, 0)" fill="#fff"/>
</svg>
