<svg xmlns="http://www.w3.org/2000/svg" xmlns:xlink="http://www.w3.org/1999/xlink" width="169.909" height="40.463" viewBox="0 0 169.909 40.463">
  <defs>
    <linearGradient id="linear-gradient" x1="0.5" y1="-10.373" x2="0.5" y2="-11.328" gradientUnits="objectBoundingBox">
      <stop offset="0" stop-color="#14aaff"/>
      <stop offset="1" stop-color="#53baff"/>
    </linearGradient>
    <linearGradient id="linear-gradient-2" x1="0.5" y1="-10.396" x2="0.5" y2="-11.352" gradientUnits="objectBoundingBox">
      <stop offset="0" stop-color="#0075ff"/>
      <stop offset="1" stop-color="#009aff"/>
    </linearGradient>
    <linearGradient id="linear-gradient-3" x1="0.5" y1="-23.748" x2="0.5" y2="-24.748" gradientUnits="objectBoundingBox">
      <stop offset="0" stop-color="#8bceff"/>
      <stop offset="1" stop-color="#14aaff"/>
    </linearGradient>
  </defs>
  <g id="Group_4039" data-name="Group 4039" transform="translate(-3.7 -3.9)">
    <g id="Group_4037" data-name="Group 4037" transform="translate(3.7 3.9)">
      <path id="Path_8009" data-name="Path 8009" d="M7.281,3.9A3.652,3.652,0,0,0,3.7,7.033h0v37.24c11.906-.09,21.485-8.415,21.485-18.531v-.09a7.7,7.7,0,0,0-.09-1.432c0-.179.09-.358.09-.537V7.57A3.591,3.591,0,0,0,21.6,3.99L7.281,3.9Z" transform="translate(-3.7 -3.9)" fill-rule="evenodd" fill="url(#linear-gradient)"/>
      <path id="Path_8010" data-name="Path 8010" d="M5.49,3.9A1.8,1.8,0,0,0,3.7,5.69V44.184a18.818,18.818,0,0,0,18.8-18.62V5.69a1.8,1.8,0,0,0-1.79-1.79Z" transform="translate(-3.7 -3.9)" fill-rule="evenodd" fill="url(#linear-gradient-2)"/>
      <path id="Path_8011" data-name="Path 8011" d="M44.494,27.5h0V43.256a3.591,3.591,0,0,1-3.581,3.581H26.053a2.859,2.859,0,0,1-1.253-.269A19.69,19.69,0,0,1,44.494,27.5Z" transform="translate(-5.911 -6.373)" fill-rule="evenodd" fill="url(#linear-gradient-3)"/>
      <path id="Path_8012" data-name="Path 8012" d="M44.709,27.9V43.118A3.591,3.591,0,0,1,41.128,46.7H27.7V46.52C27.7,37.3,35.041,29.6,44.709,27.9Z" transform="translate(-6.215 -6.415)" fill="#008bff" fill-rule="evenodd"/>
    </g>
    <g id="Group_4038" data-name="Group 4038" transform="translate(55.443 11.509)">
      <path id="Path_8013" data-name="Path 8013" d="M61.5,38.4V12.8h2.954V35.628h11.28v2.686H61.5Z" transform="translate(-61.5 -12.442)" fill="#fff"/>
      <path id="Path_8014" data-name="Path 8014" d="M106.754,25.559c0,4.118-1.074,7.341-3.133,9.668a10.876,10.876,0,0,1-8.594,3.491c-3.76,0-6.714-1.164-8.683-3.491S83.3,29.677,83.3,25.47c0-4.118.985-7.43,3.044-9.668,2.059-2.328,4.924-3.4,8.773-3.4a10.876,10.876,0,0,1,8.594,3.491C105.68,18.219,106.754,21.442,106.754,25.559Zm-20.411,0c0,3.491.716,6.087,2.238,7.878q2.148,2.686,6.445,2.686t6.445-2.686c1.432-1.79,2.148-4.386,2.148-7.878,0-3.4-.716-6.087-2.148-7.788a7.692,7.692,0,0,0-6.356-2.686q-4.3,0-6.445,2.686C87.06,19.562,86.344,22.158,86.344,25.559Z" transform="translate(-63.785 -12.4)" fill="#fff"/>
      <path id="Path_8015" data-name="Path 8015" d="M129.075,15.1a8.275,8.275,0,0,0-6.624,2.775,11.5,11.5,0,0,0-2.417,7.7,12.056,12.056,0,0,0,2.328,7.788c1.522,1.88,3.76,2.775,6.714,2.775a23.17,23.17,0,0,0,6.087-.985v2.6a19.7,19.7,0,0,1-6.535.985c-3.76,0-6.714-1.164-8.683-3.4s-3.044-5.55-3.044-9.758a14.228,14.228,0,0,1,1.522-6.893,10.591,10.591,0,0,1,4.3-4.566,12.863,12.863,0,0,1,6.535-1.611,16.1,16.1,0,0,1,7.072,1.432l-1.253,2.6A14.274,14.274,0,0,0,129.075,15.1Z" transform="translate(-67.306 -12.41)" fill="#fff"/>
      <path id="Path_8016" data-name="Path 8016" d="M165.115,12.8V29.361a9.247,9.247,0,0,1-2.6,6.893c-1.7,1.7-4.207,2.507-7.251,2.507s-5.461-.806-7.162-2.507a9.335,9.335,0,0,1-2.507-6.893V12.8h2.954V29.451a6.632,6.632,0,0,0,1.79,4.924,6.9,6.9,0,0,0,5.1,1.7,6.814,6.814,0,0,0,5.013-1.7,6.632,6.632,0,0,0,1.79-4.924V12.8Z" transform="translate(-70.314 -12.442)" fill="#fff"/>
      <path id="Path_8017" data-name="Path 8017" d="M191.624,31.557a6.345,6.345,0,0,1-2.417,5.282,10.591,10.591,0,0,1-6.624,1.88,16.116,16.116,0,0,1-6.983-1.164V34.691a18.915,18.915,0,0,0,3.4,1.074,17.009,17.009,0,0,0,3.67.358,7.034,7.034,0,0,0,4.476-1.164,3.7,3.7,0,0,0,1.522-3.133,3.818,3.818,0,0,0-.537-2.148,5.166,5.166,0,0,0-1.79-1.522,28.9,28.9,0,0,0-3.76-1.611,12.157,12.157,0,0,1-5.1-3.044,6.849,6.849,0,0,1-1.522-4.566A5.655,5.655,0,0,1,178.2,14.19,9.3,9.3,0,0,1,184.1,12.4a16.528,16.528,0,0,1,6.983,1.432l-.9,2.6a15.708,15.708,0,0,0-6.177-1.343,6.172,6.172,0,0,0-3.67.985A3.353,3.353,0,0,0,179,18.845a4.794,4.794,0,0,0,.448,2.148,5.3,5.3,0,0,0,1.611,1.522,21.241,21.241,0,0,0,3.581,1.522c2.686.985,4.566,1.969,5.55,3.044A7.625,7.625,0,0,1,191.624,31.557Z" transform="translate(-73.458 -12.4)" fill="#fff"/>
    </g>
  </g>
</svg>
