<svg xmlns="http://www.w3.org/2000/svg" width="65.854" height="59.521" viewBox="0 0 65.854 59.521">
  <path id="Path_9358" data-name="Path 9358" d="M48.851,11.225a1.792,1.792,0,0,0-3.079-.48L30.947,29.388,12.89,36.241a2.976,2.976,0,0,0-1.725,3.843l.08.212-2.9,1.1a3.905,3.905,0,0,0-2.263,5.029l2.656,7.009a3.9,3.9,0,0,0,3.647,2.518,3.81,3.81,0,0,0,1.376-.255l2.905-1.1.079.206a2.965,2.965,0,0,0,1.564,1.659,3,3,0,0,0,1.223.262,2.955,2.955,0,0,0,1.063-.2l1.162-.441,6.465,12.7a1.465,1.465,0,0,0,1.31.808,1.6,1.6,0,0,0,.524-.088l5.83-2.212a1.49,1.49,0,0,0,.859-.859,1.46,1.46,0,0,0-.072-1.208l-3.486-6.645.742-1.026A4.509,4.509,0,0,0,34.5,53.3l-.682-1.794,4.828-1.833,23.474,4.114a1.423,1.423,0,0,0,.306.03,1.774,1.774,0,0,0,1.375-.648,1.8,1.8,0,0,0,.291-1.775ZM12.985,53.657a1.721,1.721,0,0,1-2.213-1L8.115,45.651a1.721,1.721,0,0,1,1-2.213l2.907-1.1,3.875,10.217Zm18.792-1.368.677,1.783a2.294,2.294,0,0,1-.291,2.191L30.62,58.387l3.748,7.133-4.49,1.7L23.815,55.3l1.312-.5Zm1.268-2.81,0-.007L20.765,54.129l.005.01-.951.361a.813.813,0,0,1-.612-.022.8.8,0,0,1-.414-.443l-.083-.217.025-.009L13.3,39.515l-.017.007-.078-.2a.811.811,0,0,1,.022-.611.8.8,0,0,1,.443-.415L30.983,31.72l.075.2,6.068,16.011Zm6.293-1.9L32.861,30.5l14.2-17.86L61.813,51.517Z" transform="translate(-5.831 -10.068)"/>
  <rect id="Rectangle_545" data-name="Rectangle 545" width="6.907" height="2.183" transform="translate(56.786 17.74) rotate(-20.782)"/>
  <rect id="Rectangle_547" data-name="Rectangle 547" width="6.914" height="2.183" transform="translate(50.306 8.575) rotate(-46.203)"/>
  <rect id="Rectangle_549" data-name="Rectangle 549" width="2.183" height="6.907" transform="matrix(0.081, -0.997, 0.997, 0.081, 58.793, 30.946)"/>
  <rect id="Rectangle_551" data-name="Rectangle 551" width="11.433" height="2.183" transform="translate(12.064 30.305) rotate(-20.782)"/>
</svg>
