<svg height='100px' width='100px'  fill="#000000" xmlns="http://www.w3.org/2000/svg" xmlns:xlink="http://www.w3.org/1999/xlink" version="1.1" x="0px" y="0px" viewBox="0 0 90 90" enable-background="new 0 0 90 90" xml:space="preserve"><path fill-rule="evenodd" clip-rule="evenodd" d="M53.69,50.716h9.109c0.715,0,1.24,0.525,1.24,1.239v9.1  c0,0.714-0.525,1.25-1.24,1.25H53.69c-0.715,0-1.24-0.536-1.24-1.25v-9.1C52.45,51.241,52.975,50.716,53.69,50.716z M53.69,48.063  c-2.131,0-3.891,1.756-3.891,3.891v9.1c0,2.135,1.76,3.9,3.891,3.9h9.109c2.135,0,3.891-1.766,3.891-3.9v-9.1  c0-2.135-1.756-3.891-3.891-3.891H53.69z"></path><path fill-rule="evenodd" clip-rule="evenodd" d="M17.993,16.091h5.479c0.453,0,0.787,0.333,0.787,0.806v8.833L17.2,31.392V16.897  C17.2,16.424,17.54,16.091,17.993,16.091z M45.008,12.465l33.307,26.724c1.885,1.511,1.762,3.328,0.859,4.495  c-1.152,1.483-2.891,1.265-4.025,0.354L45.836,20.544c-0.484-0.385-1.172-0.385-1.656,0L14.868,44.039  c-1.568,1.26-2.922,0.886-4.021-0.354C9.862,42.58,9.821,40.7,11.7,39.189L45.008,12.465z M44.18,9.741L26.899,23.61v-6.713  c0-1.88-1.547-3.448-3.428-3.448h-5.479c-1.887,0-3.434,1.568-3.434,3.448v16.615l-4.51,3.62c-2.838,2.276-2.943,5.833-1.369,8.074  c0.791,1.12,1.984,1.967,3.404,2.208c1.43,0.24,3.027-0.177,4.438-1.307l28.486-22.838l28.488,22.838  c1.412,1.129,3.012,1.547,4.434,1.307c1.426-0.24,2.619-1.088,3.406-2.208c1.572-2.24,1.473-5.798-1.365-8.074L45.836,9.741  C45.237,9.263,44.68,9.345,44.18,9.741z"></path><path d="M35.243,48.069c-4.715,0-8.563,3.828-8.563,8.537v21.156H17.2V51.069c0.037-0.754-0.563-1.391-1.316-1.391  c-0.76,0-1.361,0.636-1.324,1.391v28.01c-0.004,0.735,0.59,1.328,1.324,1.333h12.125c0.734-0.005,1.322-0.598,1.322-1.333V56.606  c0-3.281,2.615-5.891,5.912-5.891c3.301,0,5.906,2.609,5.906,5.891V79.08c-0.006,0.74,0.594,1.333,1.326,1.333h31.662  c0.734-0.005,1.324-0.598,1.324-1.333v-28.01c0.035-0.754-0.568-1.391-1.324-1.391c-0.754,0-1.359,0.636-1.322,1.391v26.693H43.799  V56.606C43.799,51.897,39.961,48.069,35.243,48.069z"></path></svg>