<svg height='100px' width='100px'  fill="#000000" xmlns="http://www.w3.org/2000/svg" xmlns:xlink="http://www.w3.org/1999/xlink" version="1.1" x="0px" y="0px" viewBox="0 0 300 300" style="enable-background:new 0 0 300 300;" xml:space="preserve"><path d="M269.5,38.8c-11.4,0-20.6,9.2-20.6,20.6c0,3.7,1,7.2,2.7,10.2l-49.5,43c-3.5-2.7-7.8-4.3-12.6-4.3  c-8.2,0-15.3,4.8-18.6,11.8l-40.8-10.2c0-0.3,0.1-0.7,0.1-1c0-11.4-9.2-20.6-20.6-20.6s-20.6,9.2-20.6,20.6c0,2.8,0.6,5.5,1.6,8  l-46.5,31.4c-3.7-3.7-8.8-6-14.5-6c-11.4,0-20.6,9.2-20.6,20.6s9.2,20.6,20.6,20.6s20.6-9.2,20.6-20.6c0-2.8-0.6-5.5-1.6-8  l46.5-31.4c3.7,3.7,8.8,6,14.5,6c8.2,0,15.3-4.8,18.6-11.8l40.8,10.2c0,0.3-0.1,0.7-0.1,1c0,11.4,9.2,20.6,20.6,20.6  c11.4,0,20.6-9.2,20.6-20.6c0-3.7-1-7.2-2.7-10.2l49.5-43c3.5,2.7,7.8,4.3,12.6,4.3c11.4,0,20.6-9.2,20.6-20.6  S280.9,38.8,269.5,38.8z M29.7,175.4c-6.9,0-12.5-5.6-12.5-12.5c0-6.9,5.6-12.5,12.5-12.5s12.5,5.6,12.5,12.5  C42.2,169.8,36.6,175.4,29.7,175.4z M109.6,121.3c-6.9,0-12.5-5.6-12.5-12.5c0-6.9,5.6-12.5,12.5-12.5c6.9,0,12.5,5.6,12.5,12.5  C122.2,115.7,116.5,121.3,109.6,121.3z M189.6,141.3c-6.9,0-12.5-5.6-12.5-12.5c0-6.9,5.6-12.5,12.5-12.5c6.9,0,12.5,5.6,12.5,12.5  C202.1,135.7,196.5,141.3,189.6,141.3z M269.5,71.9c-6.9,0-12.5-5.6-12.5-12.5s5.6-12.5,12.5-12.5c6.9,0,12.5,5.6,12.5,12.5  S276.4,71.9,269.5,71.9z"></path><path d="M269.5,98.6c-11.4,0-20.6,9.2-20.6,20.6c0,4.8,1.7,9.2,4.4,12.7l-53.8,62.9c-3-1.7-6.4-2.6-10-2.6c-6.3,0-11.9,2.8-15.7,7.3  l-44.6-24.6c0.6-2,1-4.1,1-6.2c0-11.4-9.2-20.6-20.6-20.6s-20.6,9.2-20.6,20.6c0,2.8,0.6,5.5,1.6,8L44.1,208c-3.7-3.7-8.8-6-14.5-6  c-11.4,0-20.6,9.2-20.6,20.6s9.2,20.6,20.6,20.6s20.6-9.2,20.6-20.6c0-2.8-0.6-5.5-1.6-8l46.5-31.4c3.7,3.7,8.8,6,14.5,6  c6.3,0,11.9-2.8,15.7-7.3l44.6,24.6c-0.6,2-1,4.1-1,6.2c0,11.4,9.2,20.6,20.6,20.6c11.4,0,20.6-9.2,20.6-20.6  c0-4.8-1.7-9.2-4.4-12.7l53.8-62.9c3,1.7,6.4,2.6,10,2.6c11.4,0,20.6-9.2,20.6-20.6S280.9,98.6,269.5,98.6z M29.7,235.2  c-6.9,0-12.5-5.6-12.5-12.5s5.6-12.5,12.5-12.5s12.5,5.6,12.5,12.5S36.6,235.2,29.7,235.2z M109.6,181.1c-6.9,0-12.5-5.6-12.5-12.5  s5.6-12.5,12.5-12.5c6.9,0,12.5,5.6,12.5,12.5S116.5,181.1,109.6,181.1z M189.6,225.3c-6.9,0-12.5-5.6-12.5-12.5  c0-6.9,5.6-12.5,12.5-12.5c6.9,0,12.5,5.6,12.5,12.5C202.1,219.7,196.5,225.3,189.6,225.3z M269.5,131.7c-6.9,0-12.5-5.6-12.5-12.5  s5.6-12.5,12.5-12.5c6.9,0,12.5,5.6,12.5,12.5S276.4,131.7,269.5,131.7z"></path></svg>