<svg height='100px' width='100px'  fill="#000000" xmlns:dc="http://purl.org/dc/elements/1.1/" xmlns:cc="http://creativecommons.org/ns#" xmlns:rdf="http://www.w3.org/1999/02/22-rdf-syntax-ns#" xmlns:svg="http://www.w3.org/2000/svg" xmlns="http://www.w3.org/2000/svg" xmlns:sodipodi="http://sodipodi.sourceforge.net/DTD/sodipodi-0.dtd" xmlns:inkscape="http://www.inkscape.org/namespaces/inkscape" version="1.1" x="0px" y="0px" viewBox="0 0 100 100"><g transform="translate(0,-952.36218)"><path style="text-indent:0;text-transform:none;direction:ltr;block-progression:tb;baseline-shift:baseline;color:#000000;enable-background:accumulate;" d="m 50.500149,1046.3622 c 24.0055,0 43.4996,-19.755 43.4996,-44 0.022,-1.5849 -1.4149,-3.04275 -3,-3.04275 -1.5851,0 -3.0223,1.45785 -2.9999,3.04275 0,21.0424 -16.7774,38 -37.4997,38 -14.3322,0 -26.8571,-8.068 -33.1872,-20 l 11.6874,0 c 1.5849,0.022 3.0427,-1.4149 3.0427,-3 0,-1.5851 -1.4578,-3.0224 -3.0427,-3 l -17.999799,0 c -1.5708005,10e-5 -2.9998004,1.4292 -3.0000004,3 l 0,18 c -0.033,1.6019 1.4289999,3.0793 3.0312004,3.0625 1.5813,-0.016 3.0016,-1.4814 2.9687,-3.0625 l 0,-8.8438 c 7.803499,11.9702 21.295199,19.8438 36.499699,19.8438 z M 9.0317495,1005.4247 c 1.5814005,-0.016 3.0016005,-1.4814 2.9687005,-3.0625 0,-21.04243 16.777399,-38.00002 37.499699,-38.00002 14.3174,0 26.8197,8.0836 33.1559,20 l -11.6561,0 c -1.5849,-0.0224 -3.0427,1.4149 -3.0427,3 0,1.5851 1.4578,3.02241 3.0427,3 l 17.9998,0 c 1.7095,-0.0362 2.9671,-1.73579 3,-3 l 0,-18 c 0.022,-1.58494 -1.4149,-3.04273 -3,-3.04273 -1.585,0 -3.0223,1.45779 -2.9999,3.04273 l 0,8.84375 c -7.8039,-11.97478 -21.2972,-19.84375 -36.4997,-19.84375 -24.0055,0 -43.4995995,19.75499 -43.4995995,44.00002 -0.033,1.6019 1.4290001,3.0794 3.0312,3.0625 z" fill="#000000" fill-opacity="1" stroke="none" marker="none" visibility="visible" display="inline" overflow="visible"></path></g></svg>