<?xml version="1.0" encoding="utf-8"?>
<!-- Generator: Adobe Illustrator 25.3.1, SVG Export Plug-In . SVG Version: 6.00 Build 0)  -->
<svg version="1.1"
	 id="Layer_1" xmlns:dc="http://purl.org/dc/elements/1.1/" xmlns:inkscape="http://www.inkscape.org/namespaces/inkscape" xmlns:rdf="http://www.w3.org/1999/02/22-rdf-syntax-ns#" xmlns:sodipodi="http://sodipodi.sourceforge.net/DTD/sodipodi-0.dtd" xmlns:svg="http://www.w3.org/2000/svg"
	 xmlns="http://www.w3.org/2000/svg" xmlns:xlink="http://www.w3.org/1999/xlink" x="0px" y="0px" viewBox="0 0 100 100"
	 style="enable-background:new 0 0 100 100;" xml:space="preserve">
<g transform="translate(0,-952.36218)">
	<path d="M58.4,970c-1.2,0.2-2.1,1-2.4,2.1l-17.6,58.5c-0.6,1.5,0.1,3.2,1.6,3.8c1.5,0.6,3.2-0.1,3.8-1.6c0.1-0.2,0.1-0.3,0.2-0.5
		l17.6-58.5c0.5-1.5-0.4-3.2-1.9-3.7C59.3,970,58.8,970,58.4,970z M29.4,974.4c-0.8,0-1.5,0.4-2,1l-23.4,24.9c-1,1.1-1,2.9,0,4
		l23.4,24.9c1.1,1.2,3,1.3,4.1,0.2c1.2-1.1,1.3-3,0.2-4.1l0,0l-21.5-22.9l21.5-22.9c1.1-1.2,1.1-3-0.1-4.1
		C31,974.7,30.2,974.4,29.4,974.4z M70.3,974.4c-1.6,0.1-2.8,1.5-2.7,3.1c0,0.7,0.3,1.3,0.8,1.8l21.5,22.9l-21.5,22.9
		c-1.1,1.2-1,3,0.2,4.1c1.2,1.1,3,1,4.1-0.2l0,0l23.4-24.9c1-1.1,1-2.9,0-4l-23.4-24.9C72,974.7,71.2,974.4,70.3,974.4z"/>
</g>
</svg>
