<svg height='100px' width='100px'  fill="#000000" xmlns:x="http://ns.adobe.com/Extensibility/1.0/" xmlns:i="http://ns.adobe.com/AdobeIllustrator/10.0/" xmlns:graph="http://ns.adobe.com/Graphs/1.0/" xmlns="http://www.w3.org/2000/svg" xmlns:xlink="http://www.w3.org/1999/xlink" version="1.1" x="0px" y="0px" viewBox="0 0 100 100" style="enable-background:new 0 0 100 100;" xml:space="preserve"><g><g i:extraneous="self"><g><path d="M5273.1,2400.1v-2c0-2.8-5-4-9.7-4s-9.7,1.3-9.7,4v2c0,1.8,0.7,3.6,2,4.9l5,4.9c0.3,0.3,0.4,0.6,0.4,1v6.4     c0,0.4,0.2,0.7,0.6,0.8l2.9,0.9c0.5,0.1,1-0.2,1-0.8v-7.2c0-0.4,0.2-0.7,0.4-1l5.1-5C5272.4,2403.7,5273.1,2401.9,5273.1,2400.1z      M5263.4,2400c-4.8,0-7.4-1.3-7.5-1.8v0c0.1-0.5,2.7-1.8,7.5-1.8c4.8,0,7.3,1.3,7.5,1.8C5270.7,2398.7,5268.2,2400,5263.4,2400z"></path><path d="M5268.4,2410.3c-0.6,0-1,0.4-1,1c0,0.6,0.4,1,1,1h4.3c0.6,0,1-0.4,1-1c0-0.6-0.4-1-1-1H5268.4z"></path><path d="M5272.7,2413.7h-4.3c-0.6,0-1,0.4-1,1c0,0.6,0.4,1,1,1h4.3c0.6,0,1-0.4,1-1C5273.7,2414.1,5273.3,2413.7,5272.7,2413.7z"></path><path d="M5272.7,2417h-4.3c-0.6,0-1,0.4-1,1c0,0.6,0.4,1,1,1h4.3c0.6,0,1-0.4,1-1C5273.7,2417.5,5273.3,2417,5272.7,2417z"></path></g><g><path d="M93.8,27.1L78.9,3.7c-0.5-0.8-1.4-1.2-2.3-1.2H23.4c-0.9,0-1.8,0.5-2.3,1.2L6.2,27.1c-0.3,0.4-0.4,0.9-0.4,1.5v9     c0,3.8,1.7,7.3,4.4,9.7v47.6c0,1.5,1.2,2.7,2.7,2.7h74.4c1.5,0,2.7-1.2,2.7-2.7V47.2c2.7-2.4,4.4-5.8,4.4-9.7v-9     C94.3,28.1,94.1,27.6,93.8,27.1z M24.8,7.9h50.3l11.5,18H13.4L24.8,7.9z M81.2,45.2c-4.2,0-7.7-3.4-7.7-7.7v-6.3h15.4v6.3     C88.9,41.8,85.4,45.2,81.2,45.2z M68.1,37.5c0,4.2-3.4,7.7-7.7,7.7s-7.7-3.4-7.7-7.7v-6.3h15.4V37.5z M47.3,37.5     c0,4.2-3.4,7.7-7.7,7.7c-4.2,0-7.7-3.4-7.7-7.7v-6.3h15.4V37.5z M11.1,37.5v-6.3h15.4v6.3c0,4.2-3.4,7.7-7.7,7.7     C14.6,45.2,11.1,41.8,11.1,37.5z M58.6,92.1V64.2h12.7v27.9H58.6z M84.5,92.1h-7.9V61.5c0-1.5-1.2-2.7-2.7-2.7H55.9     c-1.5,0-2.7,1.2-2.7,2.7v30.6H15.5v-42c1.1,0.3,2.2,0.5,3.3,0.5c4.3,0,8-2.1,10.4-5.2c2.4,3.1,6.1,5.2,10.4,5.2s8-2.1,10.4-5.2     c2.4,3.1,6.1,5.2,10.4,5.2s8-2.1,10.4-5.2c2.4,3.1,6.1,5.2,10.4,5.2c1.2,0,2.3-0.2,3.3-0.5V92.1z"></path><path d="M42.6,58.8H26.1c-1.5,0-2.7,1.2-2.7,2.7v16.4c0,1.5,1.2,2.7,2.7,2.7h16.5c1.5,0,2.7-1.2,2.7-2.7V61.5     C45.3,60,44.1,58.8,42.6,58.8z M39.9,75.2H28.8v-11h11.1V75.2z"></path></g></g></g></svg>