<svg height='100px' width='100px'  fill="#000000" xmlns="http://www.w3.org/2000/svg" data-name="Layer 1" viewBox="0 0 64 64" x="0px" y="0px"><title>1</title><path d="M58.13,10.71A40.4,40.4,0,0,1,32.94.36a1.42,1.42,0,0,0-1.89,0A40.35,40.35,0,0,1,5.87,10.71a1.43,1.43,0,0,0-1.38,1.43V31.77a26.72,26.72,0,0,0,6.42,17.5c5.07,5.85,12,10.77,20.5,14.6a1.4,1.4,0,0,0,1.18,0C41.12,60,48,55.12,53.09,49.27a26.72,26.72,0,0,0,6.42-17.5V12.14A1.43,1.43,0,0,0,58.13,10.71ZM56.65,31.77a23.83,23.83,0,0,1-5.73,15.62c-4.68,5.41-11,10-18.92,13.6-7.88-3.62-14.24-8.19-18.92-13.6A23.83,23.83,0,0,1,7.35,31.77V13.5A43.14,43.14,0,0,0,32,3.32,43.08,43.08,0,0,0,56.65,13.5Z"></path><path d="M24.44,27.62a7.58,7.58,0,0,0,3.06,6.07v5.75a4.5,4.5,0,0,0,9,0V33.68a7.56,7.56,0,1,0-12.06-6.06ZM32,22.93a4.68,4.68,0,0,1,2.34,8.74,1.44,1.44,0,0,0-.71,1.24v6.53a1.63,1.63,0,0,1-3.26,0V32.91a1.44,1.44,0,0,0-.72-1.24A4.68,4.68,0,0,1,32,22.93Z"></path></svg>