<svg height='100px' width='100px'  fill="#000000" xmlns="http://www.w3.org/2000/svg" xmlns:xlink="http://www.w3.org/1999/xlink" version="1.1" x="0px" y="0px" viewBox="0 0 32 32" style="enable-background:new 0 0 32 32;" xml:space="preserve"><style type="text/css">
	.st0{display:none;}
	.st1{display:inline;}
</style><g><path d="M14.49,7.86c0-1.66-1.35-3.02-3.02-3.02S8.46,6.2,8.46,7.86s1.35,3.01,3.02,3.01S14.49,9.53,14.49,7.86z M11.48,10.03   c-1.2,0-2.17-0.97-2.17-2.17c0-1.2,0.97-2.17,2.17-2.17s2.17,0.97,2.17,2.17C13.64,9.06,12.67,10.03,11.48,10.03z M26.93,8.71   c-0.07-0.08-0.12-0.19-0.12-0.3c0-0.1,0.05-0.21,0.12-0.3c0.16-0.15,0.45-0.15,0.6,0c0.08,0.09,0.13,0.2,0.13,0.3   c0,0.11-0.05,0.23-0.13,0.3c-0.08,0.07-0.19,0.13-0.3,0.13C27.13,8.83,27.02,8.78,26.93,8.71z M25.21,9.57   c-0.12-0.2-0.05-0.45,0.15-0.58c0.21-0.11,0.47-0.04,0.59,0.16c0.11,0.2,0.04,0.45-0.16,0.58c-0.06,0.04-0.13,0.05-0.21,0.05   C25.43,9.78,25.28,9.7,25.21,9.57z M23.61,10.6c-0.08-0.07-0.12-0.18-0.12-0.29c0-0.11,0.04-0.23,0.12-0.3   c0.16-0.16,0.44-0.16,0.6,0c0.07,0.08,0.12,0.19,0.12,0.3c0,0.11-0.05,0.21-0.12,0.29c-0.08,0.09-0.19,0.13-0.3,0.13   C23.8,10.72,23.69,10.69,23.61,10.6z M29.79,4.57c-0.13-0.08-0.3-0.08-0.43,0L20.52,9.6l-3.31-1.89c-0.05-3.12-2.61-5.64-5.74-5.64   S5.78,4.59,5.73,7.71l-3.52,2C2.08,9.79,2,9.93,2,10.09v19.42c0,0.15,0.08,0.29,0.21,0.37c0.06,0.04,0.14,0.05,0.21,0.05   c0.08,0,0.15-0.01,0.21-0.05l8.84-5.04l8.84,5.04c0.01,0,0.02,0,0.03,0.01c0.01,0,0.02,0,0.03,0.01c0.05,0.01,0.09,0.03,0.15,0.03   l0,0c0.01,0,0.01,0,0.01,0c0.05,0,0.1-0.01,0.15-0.03c0.01-0.01,0.02-0.01,0.03-0.01c0.01-0.01,0.02-0.01,0.03-0.01l9.05-5.15   C29.92,24.65,30,24.5,30,24.35V4.93C30,4.78,29.92,4.64,29.79,4.57z M11.48,2.92c2.7,0,4.9,2.19,4.9,4.9c0,3.44-3.75,8.6-4.9,10.11   c-1.15-1.51-4.9-6.67-4.9-10.11C6.58,5.11,8.77,2.92,11.48,2.92z M11.9,19.26l2.31,1.31c-0.66,0.48-1.43,0.81-2.31,0.89V19.26z    M12.16,18.43c0.77-1.01,2.61-3.51,3.85-6.18l2.05,1.17c-0.19,1.01-1.02,4.53-3.14,6.57L12.16,18.43z M2.85,10.33l2.94-1.67   c0.12,0.89,0.42,1.85,0.81,2.81l-3.75,2.14V10.33z M2.85,14.58l4.09-2.33c1.23,2.67,3.08,5.17,3.85,6.18l-7.95,4.52V14.58z    M11.05,24.11l-3.61,2.05c0.32-1.26,1.23-3.5,3.61-3.79V24.11z M11.05,21.53c-3.58,0.35-4.44,4.22-4.6,5.19l-3.61,2.05v-4.84   l8.21-4.67V21.53z M20.1,28.77l-8.2-4.66v-1.8c1.24-0.1,2.28-0.58,3.14-1.26l5.06,2.88V28.77z M20.1,22.95l-4.4-2.51   c2.02-2.08,2.86-5.26,3.14-6.59l1.26,0.72V22.95z M20.95,28.77v-4.84l4.14-2.37l-2.76,6.42L20.95,28.77z M29.15,24.11l-5.6,3.19   l5.6-13.02V24.11z M29.15,12.13l-3.5,8.13l-4.7,2.68v-8.38l8.2-4.67V12.13z M29.15,8.93l-8.63,4.91l-4.18-2.38   c0.4-0.96,0.69-1.91,0.81-2.81l3.15,1.8c0.13,0.08,0.29,0.08,0.42,0l8.41-4.8V8.93z"></path></g></svg>