<svg height='100px' width='100px'  fill="#000000" xmlns="http://www.w3.org/2000/svg" xmlns:xlink="http://www.w3.org/1999/xlink" version="1.1" x="0px" y="0px" viewBox="0 0 32 32" enable-background="new 0 0 32 32" xml:space="preserve"><path d="M22.622,6.783c-1.431,0-2.595,1.164-2.595,2.595c0,1.431,1.164,2.595,2.595,2.595s2.595-1.164,2.595-2.595  C25.217,7.947,24.053,6.783,22.622,6.783z M22.622,10.973c-0.879,0-1.595-0.716-1.595-1.595s0.716-1.595,1.595-1.595  s1.595,0.715,1.595,1.595S23.501,10.973,22.622,10.973z"></path><path d="M20.866,3.5c-4.209,0-7.633,3.425-7.633,7.634c0,0.75,0.114,1.497,0.338,2.228l-7.924,7.925  C5.553,21.381,5.5,21.508,5.5,21.641V26c0,0.275,0.224,0.5,0.5,0.5h4.409c0.276,0,0.5-0.225,0.5-0.5v-1.745h1.694  c0.276,0,0.5-0.224,0.5-0.5v-1.694h1.746c0.003,0,0.007,0,0.01,0c0.288,0.034,0.51-0.221,0.51-0.5c0-0.05-0.007-0.097-0.02-0.142  v-1.604h1.695c0.133,0,0.261-0.053,0.354-0.146l1.24-1.239c0.73,0.225,1.479,0.338,2.228,0.338c4.209,0,7.634-3.425,7.634-7.634  S25.075,3.5,20.866,3.5z M20.866,17.768c-0.74,0-1.479-0.127-2.198-0.381c-0.182-0.064-0.384-0.018-0.52,0.118l-1.312,1.312h-1.988  c-0.133,0-0.26,0.053-0.354,0.146c-0.094,0.093-0.146,0.222-0.146,0.354v1.744h-1.746c-0.276,0-0.5,0.225-0.5,0.5v1.695H10.41  c-0.276,0-0.5,0.225-0.5,0.5v1.745H6.5V21.85l7.996-7.997c0.136-0.136,0.182-0.338,0.118-0.52c-0.253-0.719-0.381-1.458-0.381-2.198  c0-3.658,2.976-6.634,6.633-6.634S27.5,7.477,27.5,11.135C27.5,14.792,24.523,17.768,20.866,17.768z"></path></svg>