<svg height='100px' width='100px'  fill="#000000" xmlns="http://www.w3.org/2000/svg" xmlns:xlink="http://www.w3.org/1999/xlink" version="1.1" x="0px" y="0px" viewBox="0 0 64 64" style="enable-background:new 0 0 64 64;" xml:space="preserve"><g><g><path d="M43.843,37.779C44.028,37.928,44.249,38,44.469,38c0.293,0,0.583-0.128,0.78-0.374C47.703,34.574,49,30.899,49,27    c0-3.792-1.24-7.392-3.588-10.409c-0.339-0.435-0.966-0.514-1.403-0.176c-0.436,0.339-0.514,0.968-0.175,1.403    C45.905,20.481,47,23.656,47,27c0,3.438-1.145,6.68-3.31,9.374C43.345,36.804,43.413,37.434,43.843,37.779z"></path><path d="M19.99,16.415c-0.435-0.338-1.064-0.261-1.403,0.176C16.24,19.608,15,23.208,15,27c0,3.898,1.297,7.573,3.75,10.626    C18.948,37.872,19.238,38,19.53,38c0.22,0,0.441-0.072,0.626-0.22c0.43-0.346,0.499-0.976,0.153-1.406    C18.145,33.679,17,30.438,17,27c0-3.343,1.095-6.519,3.166-9.182C20.505,17.382,20.426,16.754,19.99,16.415z"></path><path d="M21.591,13.587c-0.436,0.339-0.515,0.968-0.176,1.403c0.339,0.435,0.968,0.514,1.403,0.176C25.481,13.095,28.656,12,32,12    s6.519,1.095,9.181,3.166c0.183,0.142,0.399,0.21,0.613,0.21c0.298,0,0.593-0.133,0.79-0.386c0.34-0.436,0.261-1.064-0.175-1.403    C39.392,11.24,35.793,10,32,10C28.208,10,24.608,11.24,21.591,13.587z"></path><path d="M15.739,8.02C20.266,4.138,26.041,2,32,2s11.734,2.138,16.26,6.02c0.189,0.162,0.421,0.241,0.651,0.241    c0.281,0,0.562-0.118,0.759-0.349c0.359-0.419,0.312-1.05-0.107-1.41C44.674,2.309,38.437,0,32,0S19.326,2.309,14.437,6.501    c-0.419,0.36-0.468,0.991-0.108,1.41S15.32,8.378,15.739,8.02z"></path><path d="M52.498,9.438c-0.358-0.42-0.989-0.467-1.41-0.108c-0.419,0.36-0.467,0.991-0.107,1.41C54.862,15.266,57,21.041,57,27    c0,7.451-3.291,14.46-9.028,19.231c-0.425,0.353-0.482,0.984-0.129,1.408C48.04,47.877,48.325,48,48.612,48    c0.225,0,0.451-0.076,0.639-0.231C55.446,42.617,59,35.047,59,27C59,20.564,56.691,14.327,52.498,9.438z"></path><path d="M16.158,47.639c0.353-0.424,0.295-1.055-0.13-1.408C10.291,41.46,7,34.451,7,27c0-5.958,2.138-11.733,6.02-16.261    c0.359-0.419,0.311-1.051-0.108-1.41c-0.418-0.358-1.05-0.31-1.41,0.108C7.309,14.327,5,20.564,5,27    c0,8.047,3.554,15.617,9.75,20.769C14.937,47.924,15.163,48,15.389,48C15.675,48,15.96,47.877,16.158,47.639z"></path><path d="M33.395,25.735C34.912,25.166,36,23.713,36,22c0-2.206-1.794-4-4-4c-2.206,0-4,1.794-4,4c0,1.713,1.088,3.166,2.605,3.735    L15.078,62.612c-0.186,0.441-0.033,0.951,0.364,1.218c0.397,0.267,0.927,0.215,1.265-0.123L32,48.414l15.293,15.293    C47.486,63.9,47.742,64,48,64c0.193,0,0.388-0.056,0.558-0.17c0.397-0.267,0.55-0.777,0.364-1.218L33.395,25.735z M30,22    c0-1.103,0.897-2,2-2c1.103,0,2,0.897,2,2s-0.897,2-2,2C30.897,24,30,23.103,30,22z M18.903,58.683l6.923-16.443l4.76,4.76    L18.903,58.683z M26.664,40.25L32,27.577l5.336,12.673L32,45.586L26.664,40.25z M33.414,47l4.76-4.76l6.924,16.443L33.414,47z"></path></g></g></svg>