<svg height='100px' width='100px'  fill="#000000" xmlns="http://www.w3.org/2000/svg" xmlns:xlink="http://www.w3.org/1999/xlink" version="1.1" x="0px" y="0px" viewBox="0 0 100 100" style="enable-background:new 0 0 100 100;" xml:space="preserve"><path d="M95.0746841,37.5480957l-0.7421875-4.5244141c0-0.0004883,0-0.0004883,0-0.0004883  c-0.2011719-1.2255859-1.3291016-2.1132813-2.5302734-2.0942383l-6.5380859,0.1669922  c-1.2412109,0.0307617-2.2578125,0.9467773-2.4169922,2.1806641l-0.1143799,0.8895264l-3.352417-12.9334717  c-0.7431641-2.8671875-3.3300781-4.8696289-6.2919922-4.8696289H26.9115982c-2.9619141,0-5.5493164,2.0024414-6.2919922,4.8691406  l-3.3529663,12.9350586l-0.1143188-0.8896484c-0.1572266-1.2333984-1.1738281-2.1508789-2.4160156-2.1816406L8.197731,30.9289551  c-1.2441401-0.0493164-2.3305659,0.8686523-2.5307612,2.0947266l-0.7416992,4.5244141  c-0.1113281,0.6821289,0.0668945,1.3867188,0.4892578,1.9331055c0.4223633,0.546875,1.059082,0.8969727,1.7470703,0.9609375  l6.0947261,0.5655518l-4.1318359,9.2113037c-0.7299805,1.6274414-1.1162109,3.440918-1.1162109,5.2446289v6.2338257  c-0.3155513,0.5253906-0.5083003,1.1329346-0.5083003,1.7891235v6.1992188c0,0.656189,0.192749,1.2637329,0.5083003,1.7892456  v7.6619263c0,2.4814453,2.0185547,4.5,4.5,4.5h5.7172852c2.4814453,0,4.5-2.0185547,4.5-4.5V73.185791h54.5483398v5.9511719  c0,2.4814453,2.0185547,4.5,4.5,4.5h5.7177734c2.4814453,0,4.5-2.0185547,4.5-4.5v-7.6628418  c0.3152466-0.5252686,0.5078125-1.1325073,0.5078125-1.7883301v-6.1992188c0-0.6558228-0.1925659-1.2630005-0.5078125-1.788208  V55.463623c0-1.8017578-0.3857422-3.6152344-1.1162109-5.2441406l-4.1314697-9.211792l6.0943604-0.5655518  c0.6884766-0.0639648,1.3251953-0.4145508,1.7470703-0.9609375C95.0082779,38.9343262,95.1860123,38.2297363,95.0746841,37.5480957z   M23.5239029,21.9846191c0.3999023-1.543457,1.7929688-2.621582,3.3876953-2.621582H73.088356  c1.5947266,0,2.9882813,1.078125,3.3876953,2.6220703l4.0707397,15.7050781H19.4527969L23.5239029,21.9846191z   M7.9726338,37.5046387L8.557106,33.939209l5.6743164,0.1450195l0.5200195,4.0493164L7.9726338,37.5046387z M11.0082779,55.463623  c0-1.3442383,0.2835083-2.6915894,0.8118896-3.9084473l10.9205322,3.3161621  c0.2119141,0.0639648,0.3544922,0.2563477,0.3544922,0.4780273v4.6376953H11.0082779V55.463623z M19.725563,79.1369629  c0,0.8271484-0.6728516,1.5-1.5,1.5h-5.7172852c-0.8271484,0-1.5-0.6728516-1.5-1.5V73.185791h8.7172852V79.1369629z   M88.9916763,79.1369629c0,0.8271484-0.6728516,1.5-1.5,1.5h-5.7177734c-0.8271484,0-1.5-0.6728516-1.5-1.5V73.185791h8.7177734  V79.1369629z M89.4994888,63.4865723v6.1992188c0,0.2753906-0.2246094,0.5-0.5,0.5H10.9999771c-0.2758789,0-0.5-0.2246094-0.5-0.5  v-6.1992188c0-0.2753906,0.2241211-0.4990234,0.5-0.4990234h77.9995117  C89.2748795,62.9875488,89.4994888,63.2111816,89.4994888,63.4865723z M88.9916763,55.463623v4.5234375H76.9047623v-4.6376953  c0-0.2216797,0.1425781-0.4140625,0.3544922-0.4780273l10.9207764-3.3161011  C88.7082901,52.7733765,88.9916763,54.1204834,88.9916763,55.463623z M86.9485855,48.7940063l-10.5604248,3.2062378  c-1.4853516,0.4511719-2.4833984,1.796875-2.4833984,3.3491211v4.6376953H26.095192v-4.6376953  c0-1.5522461-0.9980469-2.8979492-2.4833984-3.3486328l-10.5601807-3.2064209l3.5025635-7.8092041  c0.0805664-0.1791992,0.2592773-0.2949219,0.4560547-0.2949219h65.9794922c0.1962891,0,0.3759766,0.1162109,0.4570313,0.2954102  L86.9485855,48.7940063z M85.2475357,38.1335449l0.5205078-4.0493164l5.6738281-0.1450195l0.5849609,3.5654297  L85.2475357,38.1335449z M68.4994888,51.3410645c0,0.8286133-0.671875,1.5-1.5,1.5h-34c-0.828125,0-1.5-0.6713867-1.5-1.5  s0.671875-1.5,1.5-1.5h34C67.8276138,49.8410645,68.4994888,50.5124512,68.4994888,51.3410645z M66.6323013,56.4138184  c0,0.8286133-0.671875,1.5-1.5,1.5H34.8676529c-0.828125,0-1.5-0.6713867-1.5-1.5s0.671875-1.5,1.5-1.5h30.2646484  C65.9604263,54.9138184,66.6323013,55.5852051,66.6323013,56.4138184z"></path></svg>