<svg height='100px' width='100px'  fill="#000000" xmlns="http://www.w3.org/2000/svg" xmlns:xlink="http://www.w3.org/1999/xlink" version="1.1" x="0px" y="0px" viewBox="0 0 512 512" style="enable-background:new 0 0 512 512;" xml:space="preserve"><g><path d="M497.4,448.7c-3.4-1.4-5.8-2.2-7.6-2.6c-3.5-13.9-15.5-24.6-30.2-26.8c-1.1-0.2-1.9-0.3-2.6-0.4c-0.6-0.6-1.4-1.4-2.4-2.3   c-9.9-8.8-26.9-14.7-46.5-16.7v-34.7v-31.4V218.4c13.7,4.9,23.8,1.7,29.1-1.2c9.6-5.1,15.8-15.2,16.2-26.3   c0.4-12.5-6.2-24-18.3-31.5L253,46.2c-0.1-0.1-0.2-0.1-0.3-0.2c-20.2-11.3-28.3-14.5-50.5,0.2l-73.8,45.3V75h1.5   c10.4,0,18.8-8.4,18.8-18.8V41.8c0-10.4-8.4-18.8-18.8-18.8H57.9c-10.4,0-18.8,8.4-18.8,18.8v14.5c0,10.4,8.4,18.8,18.8,18.8h1.5   v58.9l-41.7,25.6C-1.9,171.6-3.6,192,4.8,205.9c5.8,9.5,16.5,16.1,29.4,16.1c4.1,0,8.5-0.7,13-2.1v217.2H28.7   c-14.4,0-26.1,11.7-26.1,26.1c0,14.3,11.7,26,26.1,26h465.4c8.7,0,15.8-5.9,17.5-14.8C513.3,465.5,509.6,453.8,497.4,448.7z    M214.7,389.6v-84.5c0-10.4-8.4-18.8-18.8-18.8h-69.5c-10.4,0-18.8,8.4-18.8,18.8v131.7H62.3V212.2l149.9-95.6   c3.1-2,5.7-3.7,7.8-5.1c3.1-2.1,6.3-4.2,7.4-4.5c1.1,0.3,4.2,2.4,7.3,4.4c2.2,1.4,4.9,3.2,8.2,5.3l150.3,93.9v154.6   c0,0,0,0.1,0,0.1v33.9c-0.7,0-1.4,0-2.1,0c-26.6-0.5-50.9,6.1-63.6,17.4c-1.1,0.9-1.9,1.7-2.4,2.3c-0.7,0.1-1.5,0.2-2.6,0.4   c-11.3,1.7-20.9,8.4-26.4,17.7h-81.2L214.7,389.6C214.7,389.7,214.7,389.7,214.7,389.6z M199.7,414.2v22.7h-77.2V305.2   c0-2.1,1.7-3.8,3.8-3.8h69.5c2.1,0,3.8,1.7,3.8,3.8L199.7,414.2C199.7,414.2,199.7,414.2,199.7,414.2z M57.9,60.1   c-2.1,0-3.8-1.7-3.8-3.8V41.8c0-2.1,1.7-3.8,3.8-3.8H130c2.1,0,3.8,1.7,3.8,3.8v14.5c0,2.1-1.7,3.8-3.8,3.8H57.9z M113.5,75v25.7   l-39.1,24V75H113.5z M17.6,198c-4.6-7.6-3.9-18.4,8-25.8L210.2,59c0.1-0.1,0.2-0.1,0.2-0.2c7.6-5.1,12-7.4,16.4-7.4   c4.7,0,9.5,2.7,18.4,7.7l181.9,113.1c7.4,4.6,11.5,11.3,11.2,18.3c-0.2,5.8-3.3,11-8.2,13.6c-6.7,3.6-15.7,2.2-25.4-3.8   c-0.1,0-0.1-0.1-0.2-0.1l-153.8-96.2c-3.1-2-5.7-3.6-7.9-5.1c-14-9.2-17.2-9.2-31.3,0.2c-2.1,1.4-4.5,3-7.5,4.9L50.8,201.7   C35.2,211.2,22.9,206.7,17.6,198z M270.3,474H28.7c-6.1,0-11.1-4.9-11.1-11c0-6.1,5-11.1,11.1-11.1h250.2   C271.3,457.7,269,466.8,270.3,474z M496.9,471.3c-0.5,2.7-2.2,2.7-2.8,2.7H287.9c-0.6,0-2.3,0-2.8-2.7c-0.6-2.9,0.8-6.9,5.3-8.8   c3.4-1.4,5.4-1.9,6.9-2.3c4.8-1.2,7.9-3.2,9.2-9.6c1.7-8.4,9.2-15.2,18.1-16.5c1.4-0.2,2.3-0.3,3-0.4c3.2-0.4,5-1,7.4-3.6   c0.4-0.5,1-1.1,2.3-2.3c9.3-8.3,29.6-13.6,50.9-13.6c0.9,0,1.7,0,2.6,0c0.1,0,0.2,0,0.3,0c22.3-0.5,43.8,5,53.6,13.6   c1.3,1.2,1.9,1.8,2.3,2.3c2.4,2.6,4.2,3.2,7.4,3.6c0.7,0.1,1.6,0.2,3,0.4c8.9,1.3,16.3,8.1,18.1,16.5c1.3,6.4,4.4,8.4,9.2,9.6   c1.5,0.4,3.6,0.9,6.9,2.3C496.1,464.4,497.5,468.4,496.9,471.3z"></path><path d="M245.9,305.2v56.2c0,10.4,8.4,18.8,18.8,18.8h62.5c10.4,0,18.8-8.4,18.8-18.8v-56.2c0-10.4-8.4-18.8-18.8-18.8h-62.5   C254.4,286.4,245.9,294.8,245.9,305.2z M260.9,305.2c0-2.1,1.7-3.8,3.8-3.8h62.5c2.1,0,3.8,1.7,3.8,3.8v56.2c0,2.1-1.7,3.8-3.8,3.8   h-62.5c-2.1,0-3.8-1.7-3.8-3.8V305.2z"></path><path d="M261.4,212.7c3.2-9.3,2.7-19.2-1.6-28.1c-4.3-8.8-11.7-15.5-21-18.7c-19.1-6.7-40.1,3.4-46.9,22.5   c-3.2,9.3-2.7,19.2,1.6,28.1c4.3,8.8,11.7,15.5,21,18.7c4,1.4,8.1,2.1,12.1,2.1C241.8,237.3,256.1,227.8,261.4,212.7z M207.1,210   c-2.5-5.2-2.9-11.1-0.9-16.6c3.1-9,11.6-14.6,20.6-14.6c2.4,0,4.8,0.4,7.2,1.2c0,0,0,0,0,0c5.5,1.9,9.9,5.9,12.4,11.1   c2.5,5.2,2.9,11.1,0.9,16.6c-4,11.3-16.4,17.3-27.7,13.3C214,219.2,209.6,215.2,207.1,210z"></path></g></svg>