<svg height='100px' width='100px'  fill="#000000" xmlns="http://www.w3.org/2000/svg" xmlns:xlink="http://www.w3.org/1999/xlink" version="1.1" x="0px" y="0px" viewBox="0 0 60 60" style="enable-background:new 0 0 60 60;" xml:space="preserve"><path d="M30,5C16.2148438,5,5,16.2148438,5,30c0,6.2080078,2.2796021,11.8901367,6.0390015,16.2661133  c0.0355835,0.0518799,0.0767822,0.0962524,0.1223145,0.1411743C15.7478638,51.666748,22.4898682,55,30,55  c7.5103149,0,14.2524414-3.3334351,18.8389893-8.5930786c0.045166-0.0446777,0.0861816-0.0887451,0.121521-0.1402588  C52.7201538,41.890625,55,36.208252,55,30C55,16.2148438,43.7851563,5,30,5z M30,53  c-6.684082,0-12.7092896-2.868103-16.9154053-7.43573C16.5623169,39.4967651,22.9745483,35.75,30,35.75  c7.0258789,0,13.4380493,3.7467651,16.9154053,9.814209C42.7092285,50.131897,36.684082,53,30,53z M21.3125,25.0625  c0-4.7900391,3.8969727-8.6875,8.6875-8.6875s8.6875,3.8974609,8.6875,8.6875S34.7905273,33.75,30,33.75  S21.3125,29.8525391,21.3125,25.0625z M48.2836304,43.9321289c-2.9822388-4.8192139-7.6940918-8.1997681-13.0890503-9.5374146  C38.4671021,32.5657959,40.6875,29.0706177,40.6875,25.0625c0-5.8935547-4.7944336-10.6875-10.6875-10.6875  s-10.6875,4.7939453-10.6875,10.6875c0,4.0081787,2.220459,7.503418,5.492981,9.3322754  c-5.3946533,1.3377075-10.1065674,4.7181396-13.0890503,9.5374146C8.7607422,40.0627441,7,35.2341919,7,30  C7,17.3173828,17.3178711,7,30,7s23,10.3173828,23,23C53,35.2341309,51.2392578,40.0626831,48.2836304,43.9321289z"></path></svg>