<svg height='100px' width='100px'  fill="#000000" xmlns="http://www.w3.org/2000/svg" xmlns:xlink="http://www.w3.org/1999/xlink" version="1.1" x="0px" y="0px" viewBox="0 0 100 100" enable-background="new 0 0 100 100" xml:space="preserve"><g><g><path d="M18.6,63.9c0,1.2,0.5,2.2,1.5,3l27.7,21.4c0.7,0.5,1.5,0.8,2.3,0.8s1.6-0.3,2.3-0.8l27.7-21.4c0.9-0.7,1.5-1.8,1.5-3    c0-1.2-0.5-2.2-1.5-3l-5.2-4l5.2-4c0.9-0.7,1.5-1.8,1.5-3c0-1.2-0.5-2.2-1.5-3l-5.2-4l5.2-4c0.9-0.7,1.5-1.8,1.5-3s-0.5-2.2-1.5-3    L52.3,11.8c-1.3-1-3.3-1-4.6,0L20.1,33.1c-0.9,0.7-1.5,1.8-1.5,3s0.5,2.2,1.5,3l5.2,4l-5.2,4c-0.9,0.7-1.5,1.8-1.5,3    c0,1.2,0.5,2.2,1.5,3l5.2,4l-5.2,4C19.1,61.7,18.6,62.8,18.6,63.9z M20.6,36.1c0-0.5,0.2-1,0.7-1.4l27.7-21.4    c0.3-0.2,0.7-0.4,1.1-0.4s0.8,0.1,1.1,0.4l27.7,21.4c0.4,0.3,0.7,0.8,0.7,1.4s-0.2,1-0.7,1.4L51.1,58.8c-0.6,0.5-1.5,0.5-2.1,0    L21.3,37.5C20.8,37.1,20.6,36.6,20.6,36.1z M20.6,50c0-0.5,0.2-1,0.7-1.4l5.6-4.3l20.8,16.1c0.6,0.5,1.5,0.8,2.3,0.8    s1.6-0.3,2.3-0.8l20.8-16.1l5.6,4.3c0.4,0.3,0.7,0.8,0.7,1.4c0,0.5-0.2,1-0.7,1.4L51.1,72.7c-0.6,0.5-1.5,0.5-2.1,0L21.3,51.4    C20.8,51,20.6,50.5,20.6,50z M21.3,62.5l5.6-4.3l20.9,16.1c0.7,0.5,1.5,0.8,2.3,0.8s1.6-0.3,2.3-0.8l20.8-16.1l5.6,4.3    c0.4,0.3,0.7,0.8,0.7,1.4s-0.2,1-0.7,1.4L51.1,86.7c-0.6,0.5-1.5,0.5-2.1,0L21.3,65.3c-0.4-0.3-0.7-0.8-0.7-1.4    S20.8,62.9,21.3,62.5z"></path></g></g></svg>