<svg height='100px' width='100px'  fill="#000000" xmlns="http://www.w3.org/2000/svg" xmlns:xlink="http://www.w3.org/1999/xlink" version="1.1" x="0px" y="0px" viewBox="0 0 512 512" style="enable-background:new 0 0 512 512;" xml:space="preserve"><g><path d="M488.1,62.2L488.1,62.2l-80.8,0V47h20.5c6.3,0,11.5-5.2,11.5-11.5v-19c0-9.1-7.4-16.5-16.5-16.5h-46   c-9.1,0-16.5,7.4-16.5,16.5v19c0,6.3,5.2,11.5,11.5,11.5h20.5v15.2H263.5V47H284c6.3,0,11.5-5.2,11.5-11.5v-19   C295.5,7.4,288.1,0,279,0h-46c-9.1,0-16.5,7.4-16.5,16.5v19c0,6.3,5.2,11.5,11.5,11.5h20.5v15.2H119.7V47h20.5   c6.3,0,11.5-5.2,11.5-11.5v-19c0-9.1-7.4-16.5-16.5-16.5h-46c-9.1,0-16.5,7.4-16.5,16.5v19c0,6.3,5.2,11.5,11.5,11.5h20.5v15.2   H23.9C10.8,62.2,0.1,72.9,0.1,86v182.3v29.6v80.7c0,13.1,10.7,23.8,23.8,23.8H191V426c0,11.3,9.2,20.5,20.5,20.5h7v58   c0,4.1,3.4,7.5,7.5,7.5h60c4.1,0,7.5-3.4,7.5-7.5v-9v-7.6v-41.4h7c11.3,0,20.5-9.2,20.5-20.5v-23.7h167.1   c13.1,0,23.8-10.7,23.8-23.8V86C511.9,72.9,501.2,62.2,488.1,62.2z M375.3,32V16.5c0-0.8,0.7-1.5,1.5-1.5h46c0.8,0,1.5,0.7,1.5,1.5   V32H375.3z M231.5,32V16.5h0c0-0.8,0.7-1.5,1.5-1.5h46c0.8,0,1.5,0.7,1.5,1.5V32H231.5z M87.7,32V16.5c0-0.8,0.7-1.5,1.5-1.5h46   c0.8,0,1.5,0.7,1.5,1.5V32H87.7z M278.5,497h-45v-50.5h45v41.4v7.6V497z M300.5,431.5c-10.4,0-79.4,0-89,0c-3,0-5.5-2.5-5.5-5.5   v-23.7H306V426h0C306,429.1,303.5,431.5,300.5,431.5z M496.9,378.6c0,4.9-4,8.8-8.8,8.8c-6.1,0-458,0-464.1,0c-4.9,0-8.8-4-8.8-8.8   v-80.7v-29.6V86c0-4.9,4-8.8,8.8-8.8h464.1c4.9,0,8.8,4,8.8,8.8V378.6z"></path><path d="M471.1,94.2H40.9c-4.1,0-7.5,3.4-7.5,7.5v261.2c0,4.1,3.4,7.5,7.5,7.5h430.2c4.1,0,7.5-3.4,7.5-7.5V101.7   C478.6,97.6,475.3,94.2,471.1,94.2z M463.6,355.4H48.4V109.2h415.2V355.4z"></path><path d="M193,252.8c0.8,0.8,1.2,2,1,3.1l-6.6,38.2c-1.5,8.5,2,16.9,8.9,22c3.9,2.9,8.6,4.3,13.2,4.3c3.6,0,7.2-0.9,10.5-2.6   l34.3-18c1-0.5,2.2-0.5,3.3,0l34.3,18c7.6,4,16.7,3.4,23.7-1.7c7-5.1,10.4-13.5,8.9-22l-6.6-38.2c-0.2-1.1,0.2-2.3,1-3.1l27.8-27.1   c6.2-6,8.4-14.9,5.7-23.1c-2.7-8.2-9.6-14.1-18.2-15.3l-38.4-5.6c-1.1-0.2-2.1-0.9-2.6-1.9l-17.2-34.8   c-3.8-7.7-11.5-12.5-20.2-12.5s-16.4,4.8-20.2,12.5l-17.2,34.8c-0.5,1-1.5,1.7-2.6,1.9l-38.4,5.6c-8.5,1.2-15.5,7.1-18.2,15.3   c-2.7,8.2-0.5,17,5.7,23.1L193,252.8z M173.8,207.3c0.9-2.8,3.2-4.7,6-5.1l38.4-5.6c6-0.9,11.2-4.7,13.9-10.1l17.2-34.8   c1.3-2.6,3.8-4.2,6.7-4.2s5.4,1.6,6.7,4.2l17.2,34.8c2.7,5.5,7.9,9.2,13.9,10.1l38.4,5.6c2.9,0.4,5.1,2.3,6,5.1   c0.9,2.8,0.2,5.6-1.9,7.7L308.6,242c-4.4,4.3-6.3,10.4-5.3,16.4l6.6,38.2c0.5,2.9-0.6,5.6-3,7.3c-2.4,1.7-5.3,1.9-7.9,0.6l-34.3-18   c-5.4-2.8-11.8-2.8-17.2,0l-34.3,18c-2.6,1.4-5.5,1.1-7.9-0.6c-2.4-1.7-3.5-4.5-3-7.3l6.6-38.2c1-6-1-12.1-5.3-16.4l-27.8-27.1   C173.6,212.9,172.9,210,173.8,207.3z"></path></g></svg>