<svg height='100px' width='100px'  fill="#000000" xmlns="http://www.w3.org/2000/svg" xmlns:xlink="http://www.w3.org/1999/xlink" version="1.1" x="0px" y="0px" viewBox="0 0 100 100" enable-background="new 0 0 100 100" xml:space="preserve"><path d="M82.749,64.873c-1.869-1.718-4.507-3.246-7.842-4.541c-2.754-1.071-5.878-1.943-9.255-2.598  c-0.518,0.854-1.057,1.723-1.617,2.611c3.619,0.641,6.947,1.533,9.834,2.656c5.84,2.27,9.188,5.238,9.188,8.145  s-3.349,5.875-9.188,8.145C67.517,81.76,59.039,83.12,50,83.12c-9.04,0-17.516-1.36-23.869-3.829  c-5.839-2.27-9.188-5.238-9.188-8.145s3.349-5.875,9.188-8.145c3.083-1.199,6.668-2.136,10.574-2.783  c-0.562-0.892-1.103-1.767-1.621-2.623c-3.661,0.668-7.039,1.588-9.991,2.736c-3.334,1.295-5.973,2.823-7.841,4.541  c-2.106,1.936-3.174,4.046-3.174,6.273c0,2.227,1.068,4.338,3.174,6.272c1.869,1.718,4.507,3.246,7.841,4.542  c6.676,2.595,15.521,4.023,24.907,4.023s18.231-1.429,24.907-4.023c3.335-1.296,5.973-2.824,7.842-4.542  c2.106-1.935,3.173-4.046,3.173-6.272C85.922,68.919,84.855,66.809,82.749,64.873z"></path><path d="M50.41,73.188l-1.13-1.451c-0.049-0.064-4.979-6.414-9.84-14.002c-6.629-10.35-9.991-18.006-9.991-22.758  c0-2.829,0.554-5.574,1.648-8.16c1.056-2.496,2.567-4.738,4.492-6.662c1.924-1.925,4.166-3.436,6.662-4.492  c2.585-1.094,5.331-1.648,8.16-1.648s5.574,0.554,8.16,1.648c2.496,1.056,4.737,2.567,6.662,4.492  c1.924,1.924,3.436,4.166,4.492,6.662c1.093,2.585,1.646,5.331,1.646,8.16c0,4.751-3.361,12.408-9.99,22.758  c-4.861,7.588-9.791,13.938-9.84,14.002L50.41,73.188z M50.41,16.88c-9.979,0-18.097,8.118-18.097,18.097  c0,4.136,3.298,11.471,9.539,21.212c3.405,5.315,6.839,10.008,8.559,12.3c1.723-2.296,5.164-6.998,8.57-12.317  c6.232-9.732,9.527-17.061,9.527-21.194C68.508,24.998,60.389,16.88,50.41,16.88z M50.409,41.979c-4.211,0-7.638-3.426-7.638-7.637  c0-4.211,3.427-7.638,7.638-7.638c4.212,0,7.638,3.426,7.638,7.638C58.047,38.553,54.621,41.979,50.409,41.979z M50.409,29.569  c-2.632,0-4.773,2.141-4.773,4.773c0,2.631,2.141,4.772,4.773,4.772c2.632,0,4.772-2.141,4.772-4.772  C55.182,31.71,53.041,29.569,50.409,29.569z"></path></svg>