<svg height='100px' width='100px'  fill="#000000" xmlns="http://www.w3.org/2000/svg" data-name="Layer 2" viewBox="0 0 64 64" x="0px" y="0px"><title>network</title><path d="M32,3A29,29,0,1,0,61,32,29,29,0,0,0,32,3ZM5,32a27,27,0,0,1,1-7.17H20.28a71.58,71.58,0,0,0,0,14.34H6A27,27,0,0,1,5,32Zm16.92,0a67.7,67.7,0,0,1,.36-7.17H31V39.17H22.28A67.7,67.7,0,0,1,21.92,32Zm19.56-9.17H33V5.15C36.56,6.21,40.1,12.82,41.48,22.83ZM31,5.15V22.83H22.52C23.9,12.82,27.44,6.21,31,5.15Zm0,36V58.85c-3.56-1.06-7.1-7.67-8.48-17.68Zm2,17.68V41.17h8.48C40.1,51.18,36.56,57.79,33,58.85Zm0-19.68V24.83h8.72A67.7,67.7,0,0,1,42.08,32a67.7,67.7,0,0,1-.36,7.17ZM43.72,24.83H58a27,27,0,0,1,0,14.34H43.72A69,69,0,0,0,44.08,32,69,69,0,0,0,43.72,24.83Zm13.68-2H43.49C42.43,15,40.05,8.73,37,5.46A27.11,27.11,0,0,1,57.4,22.83ZM27.05,5.46C24,8.73,21.57,15,20.51,22.83H6.6A27.11,27.11,0,0,1,27.05,5.46ZM6.6,41.17H20.51C21.57,49,24,55.27,27.05,58.54A27.11,27.11,0,0,1,6.6,41.17ZM37,58.54c3.1-3.27,5.48-9.54,6.54-17.37H57.4A27.11,27.11,0,0,1,37,58.54Z"></path></svg>