<svg height='100px' width='100px'  fill="#000000" xmlns="http://www.w3.org/2000/svg" data-name="Layer 1" viewBox="0 0 100 100" x="0px" y="0px"><title>Artboard 38</title><path d="M61.81,50.06a19.67,19.67,0,0,0-5-2.23c-1.06-.31-2.26-.63-3.61-1-1.14-.31-2.37-.6-4.29-1a40.64,40.64,0,0,1-6-1.73,7.29,7.29,0,0,1-2.95-2.05,4.37,4.37,0,0,1-.93-3c0-.1,0-.2,0-.29a4.47,4.47,0,0,1,1-2.56,7.79,7.79,0,0,1,3.44-2.3A18.25,18.25,0,0,1,49.81,33a18.19,18.19,0,0,1,4.75.63,9.91,9.91,0,0,1,3.09,1.47,6.1,6.1,0,0,1,1.6,1.64l1.66,2.5,5-3.31-1.66-2.5a12.07,12.07,0,0,0-3.15-3.24,15.87,15.87,0,0,0-4.94-2.34A22.2,22.2,0,0,0,53,27.22V19H47v8.11a24.34,24.34,0,0,0-5.44,1.12,13.84,13.84,0,0,0-6.1,4.09l-.08.1A10.54,10.54,0,0,0,33,38.71a10.37,10.37,0,0,0,2.18,7l.1.12a13.31,13.31,0,0,0,5.48,3.87,46.55,46.55,0,0,0,6.91,2c1.78.38,2.92.65,4,1,1.33.32,2.45.62,3.42.9a13.64,13.64,0,0,1,3.46,1.54,5.62,5.62,0,0,1,1.74,1.71A5.49,5.49,0,0,1,61,59.67s0,.09,0,.14a5.44,5.44,0,0,1-1,3.32,8.19,8.19,0,0,1-3.74,2.74A16.88,16.88,0,0,1,49.72,67H48.14a16.11,16.11,0,0,1-6-1.47,8.49,8.49,0,0,1-3-2.62l-1.74-2.44-4.89,3.48,1.74,2.44a14.59,14.59,0,0,0,5.25,4.52,22.16,22.16,0,0,0,7.56,2V81h6V72.79a22.35,22.35,0,0,0,5.38-1.31,14.18,14.18,0,0,0,6.42-4.77,11.4,11.4,0,0,0,2.19-7,11.54,11.54,0,0,0-1.47-5.85A11.71,11.71,0,0,0,61.81,50.06Z"></path></svg>