<?xml version="1.0" encoding="utf-8"?>
<!-- Generator: Adobe Illustrator 25.3.1, SVG Export Plug-In . SVG Version: 6.00 Build 0)  -->
<svg version="1.1" id="Layer_1" xmlns="http://www.w3.org/2000/svg" xmlns:xlink="http://www.w3.org/1999/xlink" x="0px" y="0px"
	 viewBox="0 0 100 100" style="enable-background:new 0 0 100 100;" xml:space="preserve">
<style type="text/css">
	.st0{fill:#FFFFFF;}
</style>
<g>
	<path class="st0" d="M14.6,93.1c-5,0-9.7-2.7-12.3-7.1c-3-4.9-3-10.7-0.5-15.8l32.7-53.5C38.2,11.3,43,6.9,50,6.9
		c7,0,11.8,4.4,15.5,9.8l32.5,53.2c2.7,5,2.6,11.3-0.4,16.1c-2.6,4.3-7.2,7.1-12.3,7.1C85.4,93.1,14.6,93.1,14.6,93.1z M50,65.2
		c3,0,5.3,2.4,5.3,5.4c0,3-2.4,5.3-5.3,5.3s-5.4-2.4-5.4-5.3C44.6,67.6,47.1,65.2,50,65.2z M50,59.8c-2,0-3.4-1.6-3.6-3.6l-1.8-16.1
		c-0.3-2.7,2.6-5.3,5.4-5.3c2.7,0,5.7,2.6,5.3,5.3l-1.8,16.1C53.4,58.2,52,59.8,50,59.8z M14.6,86h70.7c2.6,0,4.9-1.5,6.3-3.7
		c1.6-2.7,1.6-5.9,0.3-8.7L59.6,20.7C57.3,17.3,54.5,14,50,14s-7.3,3.3-9.6,6.7L8.1,73.5c-1.3,2.9-1.4,6.1,0.3,8.7
		C9.8,84.5,12,86,14.6,86z"/>
</g>
</svg>
