<svg xmlns="http://www.w3.org/2000/svg" width="62.748" height="64.753" viewBox="0 0 62.748 64.753">
  <path id="Path_9356" data-name="Path 9356" d="M57,19.148a8.791,8.791,0,1,0-8.78-8.8,8.67,8.67,0,0,0,1.872,5.415L37.1,30.022a7.084,7.084,0,0,0-3.543-.958,7,7,0,0,0-3.187.757l-7.4-9.091a5.61,5.61,0,0,0,1.092-3.342,5.7,5.7,0,1,0-5.7,5.7,5.525,5.525,0,0,0,2.34-.513l7.375,9.091a6.956,6.956,0,0,0-1.56,4.412,8.546,8.546,0,0,0,.156,1.515L16.76,42.121a7.567,7.567,0,1,0,1.426,4.412,7.425,7.425,0,0,0-.2-1.738L27.9,40.272a7.08,7.08,0,0,0,5.638,2.852,6.878,6.878,0,0,0,3.677-1.047L45.081,50.3A9.941,9.941,0,1,0,47.2,48.271l-7.866-8.222a6.969,6.969,0,0,0-.089-8.022L52.233,17.766A9.03,9.03,0,0,0,57,19.148Zm-46.371,32a4.635,4.635,0,1,1,4.635-4.635A4.631,4.631,0,0,1,10.632,51.146ZM57,4.508a5.838,5.838,0,1,1-5.839,5.838A5.844,5.844,0,0,1,57,4.508ZM15.6,17.387a2.763,2.763,0,1,1,2.764,2.764A2.777,2.777,0,0,1,15.6,17.387ZM33.561,40.16a4.078,4.078,0,1,1,4.078-4.078A4.079,4.079,0,0,1,33.561,40.16ZM59.944,56.383a7,7,0,1,1-7-7A7.009,7.009,0,0,1,59.944,56.383Z" transform="translate(-3.033 -1.567)"/>
</svg>
